<svg xmlns="http://www.w3.org/2000/svg" width="968" height="756" fill="none" viewBox="0 0 968 756">
  <path fill="#fff" d="M306 351h46.094l61.99-99h57.025l-75.651 119.88L476.4 504h-61.258l-62.07-102.6H306V504h-54V252h54v99Zm247.252 153h-54V252h54v99h108v-99h54v252h-54V401.4h-108V504Zm190.648.5c-3.367 0-6.45-.8-9.25-2.4-2.8-1.6-5.017-3.767-6.65-6.5-1.6-2.767-2.4-5.8-2.4-9.1s.8-6.317 2.4-9.05c1.633-2.767 3.85-4.95 6.65-6.55 2.8-1.6 5.883-2.4 9.25-2.4 3.4 0 6.5.8 9.3 2.4 2.8 1.6 5 3.783 6.6 6.55 1.633 2.733 2.45 5.75 2.45 9.05 0 3.3-.817 6.333-2.45 9.1-1.6 2.733-3.8 4.9-6.6 6.5-2.8 1.6-5.9 2.4-9.3 2.4Zm0-3.1c2.733 0 5.233-.65 7.5-1.95 2.3-1.333 4.117-3.133 5.45-5.4 1.333-2.3 2-4.817 2-7.55 0-2.733-.667-5.233-2-7.5-1.333-2.3-3.15-4.1-5.45-5.4-2.267-1.333-4.767-2-7.5-2-2.733 0-5.233.667-7.5 2-2.267 1.3-4.067 3.1-5.4 5.4-1.333 2.267-2 4.767-2 7.5 0 2.733.667 5.25 2 7.55a14.965 14.965 0 0 0 5.4 5.4c2.267 1.3 4.767 1.95 7.5 1.95Zm-6.3-5.65v-18.5h7.15c1.833 0 3.35.567 4.55 1.7 1.233 1.133 1.85 2.517 1.85 4.15 0 1.267-.367 2.333-1.1 3.2-.7.867-1.5 1.467-2.4 1.8l4.25 7.65h-3.5l-3.65-6.85h-3.9v6.85h-3.25Zm7.15-9.9c1.033 0 1.817-.25 2.35-.75.533-.5.8-1.167.8-2 0-.867-.267-1.533-.8-2-.533-.5-1.317-.75-2.35-.75h-3.9v5.5h3.9Z"/>
</svg>
