<svg xmlns="http://www.w3.org/2000/svg" width="4188" height="1097" fill="none" viewBox="0 0 4188 1097">
  <path fill="#000" d="M432 351h38.492l70.559-99h61.387L516.33 371.88 608.459 504h-66.204l-70.649-102.6H432V504h-54V252h54v99Z"/>
  <path fill="#000" d="M736.033 509.4c-25.68 0-48.96-5.88-69.84-17.64-20.88-11.76-37.32-27.6-49.32-47.52-11.76-20.16-17.64-42.24-17.64-66.24 0-24 5.88-46.08 17.64-66.24 12-20.16 28.44-36 49.32-47.52 20.88-11.76 44.16-17.64 69.84-17.64 25.68 0 48.84 5.88 69.48 17.64 20.88 11.52 37.32 27.36 49.32 47.52 12 20.16 18 42.24 18 66.24 0 24-6 46.08-18 66.24-12 19.92-28.44 35.76-49.32 47.52-20.88 11.76-44.04 17.64-69.48 17.64Zm0-49.68c15.12 0 28.92-3.6 41.4-10.8 12.48-7.2 22.32-17.04 29.52-29.52 7.2-12.48 10.8-26.28 10.8-41.4 0-15.12-3.6-28.92-10.8-41.4-7.2-12.48-17.04-22.32-29.52-29.52-12.48-7.44-26.28-11.16-41.4-11.16-15.12 0-29.04 3.6-41.76 10.8-12.48 7.2-22.32 17.16-29.52 29.88-7.2 12.48-10.8 26.28-10.8 41.4 0 15.12 3.6 28.92 10.8 41.4 7.44 12.48 17.4 22.32 29.88 29.52 12.48 7.2 26.28 10.8 41.4 10.8ZM1118.4 504h-58.68l-46.44-86.4h-48.958V504h-54V252h111.598c16.8 0 31.8 3.6 45 10.8 13.44 7.2 23.88 17.16 31.32 29.88 7.44 12.48 11.16 26.52 11.16 42.12 0 16.08-4.08 30.6-12.24 43.56-7.92 12.96-18.84 22.92-32.76 29.88l54 95.76ZM964.322 300.6V369h55.798c10.32 0 18.72-3.24 25.2-9.72 6.72-6.48 10.08-14.64 10.08-24.48s-3.36-18-10.08-24.48c-6.48-6.48-14.88-9.72-25.2-9.72h-55.798ZM1248.76 504h-54V302.4h-73.08V252h199.8v50.4h-72.72V504Zm289.22 0h-189V252h185.4v48.6h-131.4v51.12h102.6v46.8h-102.6v56.88h135V504Zm219.98 0h-54V252h54v99h108v-99h54v252h-54V401.4h-108V504Zm336.58 5.4c-25.68 0-48.96-5.88-69.84-17.64-20.88-11.76-37.32-27.6-49.32-47.52-11.76-20.16-17.64-42.24-17.64-66.24 0-24 5.88-46.08 17.64-66.24 12-20.16 28.44-36 49.32-47.52 20.88-11.76 44.16-17.64 69.84-17.64 25.68 0 48.84 5.88 69.48 17.64 20.88 11.52 37.32 27.36 49.32 47.52 12 20.16 18 42.24 18 66.24 0 24-6 46.08-18 66.24-12 19.92-28.44 35.76-49.32 47.52-20.88 11.76-44.04 17.64-69.48 17.64Zm0-49.68c15.12 0 28.92-3.6 41.4-10.8 12.48-7.2 22.32-17.04 29.52-29.52 7.2-12.48 10.8-26.28 10.8-41.4 0-15.12-3.6-28.92-10.8-41.4-7.2-12.48-17.04-22.32-29.52-29.52-12.48-7.44-26.28-11.16-41.4-11.16-15.12 0-29.04 3.6-41.76 10.8-12.48 7.2-22.32 17.16-29.52 29.88-7.2 12.48-10.8 26.28-10.8 41.4 0 15.12 3.6 28.92 10.8 41.4 7.44 12.48 17.4 22.32 29.88 29.52 12.48 7.2 26.28 10.8 41.4 10.8ZM2322.83 504h-54V252h183.6v51.12h-129.6v57.6h100.8v49.68h-100.8V504Zm214.76 0h-54V252h183.6v51.12h-129.6v57.6h100.8v49.68h-100.8V504Zm214.4 0h-53.64V252h69.84l83.16 182.16h1.08l82.8-182.16h67.32v252h-53.28V332.64h-1.44L2867.91 504h-34.92l-79.56-171.36h-1.44V504Zm331.22 0h-56.52l97.92-252h60.12l97.56 252h-57.24l-21.24-56.88h-99.72L3083.21 504Zm70.2-196.92-33.48 94.32h68.04l-33.48-94.32h-1.08ZM3359.73 504h-53.28V252h47.88l122.76 162h1.44V252h52.92v252h-47.52l-123.12-162.36h-1.08V504Zm277.69 0h-53.28V252h47.88l122.76 162h1.44V252h52.92v252h-47.52L3638.5 341.64h-1.08V504Zm-803.48 342.9c-18.18 0-34.83-4.32-49.95-12.96-14.94-8.64-26.82-20.34-35.64-35.1-8.64-14.94-12.96-31.32-12.96-49.14s4.32-34.11 12.96-48.87c8.82-14.94 20.7-26.73 35.64-35.37 15.12-8.64 31.77-12.96 49.95-12.96 17.1 0 32.31 3.69 45.63 11.07 13.32 7.38 23.76 16.11 31.32 26.19l-17.28 13.77c-6.48-7.92-14.67-14.67-24.57-20.25-9.72-5.58-21.42-8.37-35.1-8.37s-26.19 3.33-37.53 9.99-20.34 15.75-27 27.27c-6.48 11.34-9.72 23.85-9.72 37.53s3.24 26.28 9.72 37.8c6.66 11.34 15.66 20.34 27 27s23.85 9.99 37.53 9.99c12.24 0 23.4-2.43 33.48-7.29 10.08-5.04 17.64-10.62 22.68-16.74v-32.67h-43.74v-21.6h68.04v62.91c-4.5 5.94-10.71 11.79-18.63 17.55-7.92 5.76-17.28 10.62-28.08 14.58-10.62 3.78-21.87 5.67-33.75 5.67Zm264.01-2.7h-27.54l-41.04-72.9h-49.95v72.9h-24.3v-189h76.14c11.7 0 22.14 2.52 31.32 7.56 9.18 5.04 16.38 12.06 21.6 21.06 5.22 8.82 7.83 18.63 7.83 29.43 0 12.42-3.42 23.58-10.26 33.48-6.84 9.72-16.02 16.65-27.54 20.79l43.74 76.68Zm-118.53-166.59v71.28h51.84c10.8 0 19.53-3.33 26.19-9.99 6.84-6.66 10.26-15.21 10.26-25.65 0-10.44-3.42-18.99-10.26-25.65-6.66-6.66-15.39-9.99-26.19-9.99h-51.84Zm230.39 169.29c-14.94 0-28.35-3.33-40.23-9.99-11.88-6.66-21.15-15.84-27.81-27.54s-9.99-25.02-9.99-39.96V655.2h24.3v114.21c0 10.62 2.34 20.16 7.02 28.62 4.68 8.28 11.07 14.76 19.17 19.44 8.28 4.68 17.46 7.02 27.54 7.02 9.72 0 18.63-2.43 26.73-7.29 8.28-4.86 14.76-11.43 19.44-19.71 4.86-8.46 7.29-17.82 7.29-28.08V655.2h24.3v114.21c0 14.76-3.33 28.08-9.99 39.96-6.66 11.7-15.93 20.88-27.81 27.54-11.7 6.66-25.02 9.99-39.96 9.99Zm124.6-2.7v-189h72.9c11.88 0 22.59 2.7 32.13 8.1 9.54 5.22 17.01 12.42 22.41 21.6 5.4 9.18 8.1 19.26 8.1 30.24 0 10.98-2.7 21.06-8.1 30.24-5.4 9-12.87 16.2-22.41 21.6-9.54 5.22-20.25 7.83-32.13 7.83h-48.6v69.39h-24.3Zm72.9-91.8c10.98 0 20.07-3.51 27.27-10.53 7.38-7.2 11.07-16.11 11.07-26.73 0-10.62-3.69-19.53-11.07-26.73-7.2-7.2-16.29-10.8-27.27-10.8h-48.6v74.79h48.6Zm94.6 91.8v-189h72.9c11.88 0 22.59 2.7 32.13 8.1 9.54 5.22 17.01 12.42 22.41 21.6 5.4 9.18 8.1 19.26 8.1 30.24 0 10.98-2.7 21.06-8.1 30.24-5.4 9-12.87 16.2-22.41 21.6-9.54 5.22-20.25 7.83-32.13 7.83h-48.6v69.39h-24.3Zm72.9-91.8c10.98 0 20.07-3.51 27.27-10.53 7.38-7.2 11.07-16.11 11.07-26.73 0-10.62-3.69-19.53-11.07-26.73-7.2-7.2-16.29-10.8-27.27-10.8h-48.6v74.79h48.6Zm228.78 91.8H3669.4v-189h131.49v22.41H3693.7v57.24h85.59v22.41h-85.59v64.53h109.89v22.41Z"/>
</svg>
