<svg xmlns="http://www.w3.org/2000/svg" width="3773" height="758" fill="none" viewBox="0 0 3773 758">
  <path fill="#fff" d="M0 757.5h42V.5H0v757Zm348-563h41.453l71.713-99h61.51L435.16 215.38l93.636 132.12h-66.405l-71.805-102.6H348v102.6h-54v-252h54v99Z"/>
  <path fill="#fff" d="M657.033 352.9c-25.68 0-48.96-5.88-69.84-17.64-20.88-11.76-37.32-27.6-49.32-47.52-11.76-20.16-17.64-42.24-17.64-66.24 0-24 5.88-46.08 17.64-66.24 12-20.16 28.44-36 49.32-47.52 20.88-11.76 44.16-17.64 69.84-17.64 25.68 0 48.84 5.88 69.48 17.64 20.88 11.52 37.32 27.36 49.32 47.52 12 20.16 18 42.24 18 66.24 0 24-6 46.08-18 66.24-12 19.92-28.44 35.76-49.32 47.52-20.88 11.76-44.04 17.64-69.48 17.64Zm0-49.68c15.12 0 28.92-3.6 41.4-10.8 12.48-7.2 22.32-17.04 29.52-29.52 7.2-12.48 10.8-26.28 10.8-41.4 0-15.12-3.6-28.92-10.8-41.4-7.2-12.48-17.04-22.32-29.52-29.52-12.48-7.44-26.28-11.16-41.4-11.16-15.12 0-29.04 3.6-41.76 10.8-12.48 7.2-22.32 17.16-29.52 29.88-7.2 12.48-10.8 26.28-10.8 41.4 0 15.12 3.6 28.92 10.8 41.4 7.44 12.48 17.4 22.32 29.88 29.52 12.48 7.2 26.28 10.8 41.4 10.8ZM1039.4 347.5h-58.678l-46.44-86.4h-48.96v86.4h-54v-252h111.6c16.8 0 31.8 3.6 45 10.8 13.438 7.2 23.878 17.16 31.318 29.88 7.44 12.48 11.16 26.52 11.16 42.12 0 16.08-4.08 30.6-12.24 43.56-7.92 12.96-18.838 22.92-32.758 29.88l53.998 95.76ZM885.322 144.1v68.4h55.8c10.32 0 18.72-3.24 25.2-9.72 6.72-6.48 10.08-14.64 10.08-24.48s-3.36-18-10.08-24.48c-6.48-6.48-14.88-9.72-25.2-9.72h-55.8Zm284.438 203.4h-54V145.9h-73.08V95.5h199.8v50.4h-72.72v201.6Zm289.22 0h-189v-252h185.4v48.6h-131.4v51.12h102.6v46.8h-102.6v56.88h135v48.6Zm215.41 0h-54v-252h54v99h108v-99h54v252h-54V244.9h-108v102.6Zm336.58 5.4c-25.68 0-48.96-5.88-69.84-17.64-20.88-11.76-37.32-27.6-49.32-47.52-11.76-20.16-17.64-42.24-17.64-66.24 0-24 5.88-46.08 17.64-66.24 12-20.16 28.44-36 49.32-47.52 20.88-11.76 44.16-17.64 69.84-17.64 25.68 0 48.84 5.88 69.48 17.64 20.88 11.52 37.32 27.36 49.32 47.52 12 20.16 18 42.24 18 66.24 0 24-6 46.08-18 66.24-12 19.92-28.44 35.76-49.32 47.52-20.88 11.76-44.04 17.64-69.48 17.64Zm0-49.68c15.12 0 28.92-3.6 41.4-10.8 12.48-7.2 22.32-17.04 29.52-29.52 7.2-12.48 10.8-26.28 10.8-41.4 0-15.12-3.6-28.92-10.8-41.4-7.2-12.48-17.04-22.32-29.52-29.52-12.48-7.44-26.28-11.16-41.4-11.16-15.12 0-29.04 3.6-41.76 10.8-12.48 7.2-22.32 17.16-29.52 29.88-7.2 12.48-10.8 26.28-10.8 41.4 0 15.12 3.6 28.92 10.8 41.4 7.44 12.48 17.4 22.32 29.88 29.52 12.48 7.2 26.28 10.8 41.4 10.8Zm228.29 44.28h-54v-252h183.6v51.12h-129.6v57.6h100.8v49.68h-100.8v93.6Zm214.76 0h-54v-252h183.6v51.12h-129.6v57.6h100.8v49.68h-100.8v93.6Zm214.4 0h-53.64v-252h69.84l83.16 182.16h1.08l82.8-182.16h67.32v252h-53.28V176.14h-1.44l-79.92 171.36h-34.92l-79.56-171.36h-1.44V347.5Zm331.22 0h-56.52l97.92-252h60.12l97.56 252h-57.24l-21.24-56.88h-99.72l-20.88 56.88Zm70.2-196.92-33.48 94.32h68.04l-33.48-94.32h-1.08Zm206.32 196.92h-53.28v-252h47.88l122.76 162h1.44v-162h52.92v252h-47.52l-123.12-162.36h-1.08V347.5Zm277.69 0h-53.28v-252h47.88l122.76 162h1.44v-162h52.92v252h-47.52l-123.12-162.36h-1.08V347.5Zm200.05.5c-3.37 0-6.45-.8-9.25-2.4-2.8-1.6-5.02-3.767-6.65-6.5-1.6-2.767-2.4-5.8-2.4-9.1s.8-6.317 2.4-9.05c1.63-2.767 3.85-4.95 6.65-6.55 2.8-1.6 5.88-2.4 9.25-2.4 3.4 0 6.5.8 9.3 2.4 2.8 1.6 5 3.783 6.6 6.55 1.63 2.733 2.45 5.75 2.45 9.05 0 3.3-.82 6.333-2.45 9.1-1.6 2.733-3.8 4.9-6.6 6.5-2.8 1.6-5.9 2.4-9.3 2.4Zm0-3.1c2.73 0 5.23-.65 7.5-1.95 2.3-1.333 4.12-3.133 5.45-5.4 1.33-2.3 2-4.817 2-7.55 0-2.733-.67-5.233-2-7.5-1.33-2.3-3.15-4.1-5.45-5.4-2.27-1.333-4.77-2-7.5-2-2.73 0-5.23.667-7.5 2-2.27 1.3-4.07 3.1-5.4 5.4-1.33 2.267-2 4.767-2 7.5 0 2.733.67 5.25 2 7.55a14.919 14.919 0 0 0 5.4 5.4c2.27 1.3 4.77 1.95 7.5 1.95Zm-6.3-5.65v-18.5h7.15c1.83 0 3.35.567 4.55 1.7 1.23 1.133 1.85 2.517 1.85 4.15 0 1.267-.37 2.333-1.1 3.2-.7.867-1.5 1.467-2.4 1.8l4.25 7.65h-3.5l-3.65-6.85h-3.9v6.85h-3.25Zm7.15-9.9c1.03 0 1.82-.25 2.35-.75s.8-1.167.8-2c0-.867-.27-1.533-.8-2-.53-.5-1.32-.75-2.35-.75h-3.9v5.5h3.9ZM315.97 662.5h-25.11l76.41-189h26.46l76.41 189h-25.92l-20.52-50.76h-87.48l-20.25 50.76Zm63.72-160.38-34.56 86.94h69.66l-34.56-86.94h-.54ZM489.303 662.5V532.9h22.14v18.9h.27c3.6-5.58 9-10.53 16.2-14.85 7.38-4.5 15.66-6.75 24.84-6.75h6.21v22.95c-4.32-.54-7.29-.81-8.91-.81-7.02 0-13.5 1.8-19.44 5.4-5.76 3.6-10.44 8.64-14.04 15.12-3.42 6.3-5.13 13.41-5.13 21.33v68.31h-22.14Zm144.059 2.7c-12.06 0-23.13-2.97-33.21-8.91-10.08-6.12-18.09-14.31-24.03-24.57-5.94-10.26-8.91-21.6-8.91-34.02 0-12.42 2.97-23.76 8.91-34.02 5.94-10.26 13.95-18.36 24.03-24.3 10.08-6.12 21.15-9.18 33.21-9.18 12.06 0 22.68 2.7 31.86 8.1 9.36 5.22 16.65 11.25 21.87 18.09l-15.93 13.5c-4.32-5.22-9.63-9.63-15.93-13.23-6.3-3.6-13.59-5.4-21.87-5.4-8.1 0-15.48 2.07-22.14 6.21-6.66 3.96-11.97 9.54-15.93 16.74-3.96 7.02-5.94 14.85-5.94 23.49 0 8.64 1.98 16.56 5.94 23.76 3.96 7.02 9.27 12.6 15.93 16.74 6.66 3.96 14.04 5.94 22.14 5.94 8.28 0 15.66-1.8 22.14-5.4 6.66-3.78 12.15-8.37 16.47-13.77l16.2 13.5c-5.58 7.2-13.14 13.5-22.68 18.9-9.36 5.22-20.07 7.83-32.13 7.83Zm78.64-2.7v-189h22.14v79.11h.27c3.6-5.76 9.09-10.89 16.47-15.39 7.38-4.68 15.75-7.02 25.11-7.02 9.9 0 18.72 2.34 26.46 7.02 7.92 4.68 14.04 11.25 18.36 19.71 4.5 8.46 6.75 18.27 6.75 29.43v76.14h-21.87v-76.14c0-10.44-3.15-18.9-9.45-25.38-6.3-6.48-14.31-9.72-24.03-9.72-10.8 0-19.89 3.78-27.27 11.34-7.2 7.56-10.8 17.19-10.8 28.89v71.01h-22.14Zm172.234 0h-22.14V532.9h22.14v129.6Zm-11.07-156.06c-3.78 0-7.11-1.35-9.99-4.05-2.7-2.7-4.05-6.03-4.05-9.99s1.35-7.29 4.05-9.99c2.88-2.7 6.21-4.05 9.99-4.05 3.6 0 6.75 1.35 9.45 4.05 2.88 2.7 4.32 6.03 4.32 9.99s-1.44 7.29-4.32 9.99c-2.7 2.7-5.85 4.05-9.45 4.05Zm96.381 157.41c-12.06 0-21.42-3.42-28.08-10.26-6.48-7.02-9.72-17.1-9.72-30.24v-69.39h-24.57V532.9h15.66c7.56 0 11.34-4.5 11.34-13.5v-29.7h19.71v43.2h31.59v21.06h-31.59v67.5c0 7.02 1.71 12.33 5.13 15.93 3.42 3.6 8.19 5.4 14.31 5.4 5.04 0 10.26-1.35 15.66-4.05v21.06c-2.16 1.08-5.04 1.98-8.64 2.7-3.42.9-7.02 1.35-10.8 1.35Zm98.603 1.35c-12.06 0-23.13-2.97-33.21-8.91-10.08-6.12-18.09-14.31-24.03-24.57-5.94-10.26-8.91-21.6-8.91-34.02 0-12.6 2.88-24.03 8.64-34.29 5.94-10.26 13.86-18.36 23.76-24.3 9.9-5.94 20.7-8.91 32.4-8.91 11.52 0 22.05 2.79 31.59 8.37 9.54 5.58 17.01 13.32 22.41 23.22 5.4 9.72 8.1 20.79 8.1 33.21 0 2.88-.27 6.48-.81 10.8h-103.14c1.44 10.8 6.3 19.89 14.58 27.27 8.28 7.38 18.18 11.07 29.7 11.07 14.22 0 26.91-5.94 38.07-17.82l14.85 13.77c-5.22 6.84-12.51 12.78-21.87 17.82-9.18 4.86-19.89 7.29-32.13 7.29Zm38.07-77.76c-1.8-11.34-6.21-20.34-13.23-27-6.84-6.66-15.57-9.99-26.19-9.99-10.98 0-20.25 3.51-27.81 10.53-7.56 6.84-12.33 15.66-14.31 26.46h81.54Zm70.89 75.06h-22.14v-189h22.14v124.74l60.75-65.34h27.81l-49.41 52.65 54.27 76.95h-25.65l-43.2-61.29-24.57 26.19v35.1Zm155.71 1.35c-12.06 0-21.42-3.42-28.08-10.26-6.48-7.02-9.72-17.1-9.72-30.24v-69.39h-24.57V532.9h15.66c7.56 0 11.34-4.5 11.34-13.5v-29.7h19.71v43.2h31.59v21.06h-31.59v67.5c0 7.02 1.71 12.33 5.13 15.93 3.42 3.6 8.19 5.4 14.31 5.4 5.04 0 10.26-1.35 15.66-4.05v21.06c-2.16 1.08-5.04 1.98-8.64 2.7-3.42.9-7.02 1.35-10.8 1.35Zm98.6 1.35c-12.06 0-23.13-2.97-33.21-8.91-10.08-6.12-18.09-14.31-24.03-24.57-5.94-10.26-8.91-21.6-8.91-34.02 0-12.6 2.88-24.03 8.64-34.29 5.94-10.26 13.86-18.36 23.76-24.3 9.9-5.94 20.7-8.91 32.4-8.91 11.52 0 22.05 2.79 31.59 8.37 9.54 5.58 17.01 13.32 22.41 23.22 5.4 9.72 8.1 20.79 8.1 33.21 0 2.88-.27 6.48-.81 10.8h-103.14c1.44 10.8 6.3 19.89 14.58 27.27 8.28 7.38 18.18 11.07 29.7 11.07 14.22 0 26.91-5.94 38.07-17.82l14.85 13.77c-5.22 6.84-12.51 12.78-21.87 17.82-9.18 4.86-19.89 7.29-32.13 7.29Zm38.07-77.76c-1.8-11.34-6.21-20.34-13.23-27-6.84-6.66-15.57-9.99-26.19-9.99-10.98 0-20.25 3.51-27.81 10.53-7.56 6.84-12.33 15.66-14.31 26.46h81.54Zm47.39 75.06V532.9h22.14v19.71h.27c3.6-5.76 9.09-10.89 16.47-15.39 7.38-4.68 15.75-7.02 25.11-7.02 9.9 0 18.72 2.34 26.46 7.02 7.92 4.68 14.04 11.25 18.36 19.71 4.5 8.46 6.75 18.27 6.75 29.43v76.14h-21.87v-76.14c0-10.44-3.15-18.9-9.45-25.38-6.3-6.48-14.31-9.72-24.03-9.72-10.8 0-19.89 3.78-27.27 11.34-7.2 7.56-10.8 17.19-10.8 28.89v71.01h-22.14Zm269.88-19.44h-19.17v-49.95h-49.14v-20.25h49.14v-49.95h19.17v49.95h49.14v20.25h-49.14v49.95Zm168.03 19.44h-24.3v-189h24.3v189Zm42.3 0V532.9h22.14v19.71h.27c3.6-5.76 9.09-10.89 16.47-15.39 7.38-4.68 15.75-7.02 25.11-7.02 9.9 0 18.72 2.34 26.46 7.02 7.92 4.68 14.04 11.25 18.36 19.71 4.5 8.46 6.75 18.27 6.75 29.43v76.14h-21.87v-76.14c0-10.44-3.15-18.9-9.45-25.38-6.3-6.48-14.31-9.72-24.03-9.72-10.8 0-19.89 3.78-27.27 11.34-7.2 7.56-10.8 17.19-10.8 28.89v71.01h-22.14Zm200.89 56.7c-11.88 0-23.04-2.88-33.48-8.64-10.26-5.58-17.64-11.7-22.14-18.36l15.66-14.31c3.42 5.04 8.82 9.63 16.2 13.77 7.56 4.32 15.48 6.48 23.76 6.48 12.6 0 22.68-4.23 30.24-12.69 7.74-8.46 11.61-19.44 11.61-32.94v-15.12h-.27c-4.14 6.3-10.17 11.61-18.09 15.93s-16.47 6.48-25.65 6.48c-10.44 0-20.16-2.79-29.16-8.37-9-5.58-16.2-13.32-21.6-23.22-5.22-9.9-7.83-20.97-7.83-33.21 0-12.24 2.61-23.31 7.83-33.21 5.4-9.9 12.6-17.64 21.6-23.22 9-5.58 18.72-8.37 29.16-8.37 9.9 0 18.72 2.34 26.46 7.02 7.92 4.68 13.68 9.81 17.28 15.39h.27V532.9h22.14v119.61c0 12.6-2.79 23.94-8.37 34.02-5.4 10.26-12.96 18.27-22.68 24.03-9.72 5.76-20.7 8.64-32.94 8.64Zm1.35-80.46c7.56 0 14.4-1.89 20.52-5.67 6.12-3.78 10.98-8.91 14.58-15.39 3.6-6.66 5.4-14.22 5.4-22.68 0-8.46-1.8-15.93-5.4-22.41-3.6-6.66-8.46-11.88-14.58-15.66-6.12-3.78-12.96-5.67-20.52-5.67-7.2 0-13.86 1.89-19.98 5.67-6.12 3.78-10.98 9-14.58 15.66-3.6 6.66-5.4 14.13-5.4 22.41s1.8 15.75 5.4 22.41c3.6 6.66 8.46 11.88 14.58 15.66 6.12 3.78 12.78 5.67 19.98 5.67ZM2354 665.2c-12.06 0-23.13-2.97-33.21-8.91-10.08-6.12-18.09-14.31-24.03-24.57-5.94-10.26-8.91-21.6-8.91-34.02 0-12.6 2.88-24.03 8.64-34.29 5.94-10.26 13.86-18.36 23.76-24.3 9.9-5.94 20.7-8.91 32.4-8.91 11.52 0 22.05 2.79 31.59 8.37 9.54 5.58 17.01 13.32 22.41 23.22 5.4 9.72 8.1 20.79 8.1 33.21 0 2.88-.27 6.48-.81 10.8H2310.8c1.44 10.8 6.3 19.89 14.58 27.27 8.28 7.38 18.18 11.07 29.7 11.07 14.22 0 26.91-5.94 38.07-17.82l14.85 13.77c-5.22 6.84-12.51 12.78-21.87 17.82-9.18 4.86-19.89 7.29-32.13 7.29Zm38.07-77.76c-1.8-11.34-6.21-20.34-13.23-27-6.84-6.66-15.57-9.99-26.19-9.99-10.98 0-20.25 3.51-27.81 10.53-7.56 6.84-12.33 15.66-14.31 26.46h81.54Zm47.39 75.06V532.9h22.14v19.71h.27c3.6-5.76 9.09-10.89 16.47-15.39 7.38-4.68 15.75-7.02 25.11-7.02 9.9 0 18.72 2.34 26.46 7.02 7.92 4.68 14.04 11.25 18.36 19.71 4.5 8.46 6.75 18.27 6.75 29.43v76.14h-21.87v-76.14c0-10.44-3.15-18.9-9.45-25.38-6.3-6.48-14.31-9.72-24.03-9.72-10.8 0-19.89 3.78-27.27 11.34-7.2 7.56-10.8 17.19-10.8 28.89v71.01h-22.14Zm172.27 0h-22.14V532.9h22.14v129.6Zm-11.07-156.06c-3.78 0-7.11-1.35-9.99-4.05-2.7-2.7-4.05-6.03-4.05-9.99s1.35-7.29 4.05-9.99c2.88-2.7 6.21-4.05 9.99-4.05 3.6 0 6.75 1.35 9.45 4.05 2.88 2.7 4.32 6.03 4.32 9.99s-1.44 7.29-4.32 9.99c-2.7 2.7-5.85 4.05-9.45 4.05Zm104.48 158.76c-12.06 0-23.13-2.97-33.21-8.91-10.08-6.12-18.09-14.31-24.03-24.57-5.94-10.26-8.91-21.6-8.91-34.02 0-12.6 2.88-24.03 8.64-34.29 5.94-10.26 13.86-18.36 23.76-24.3 9.9-5.94 20.7-8.91 32.4-8.91 11.52 0 22.05 2.79 31.59 8.37 9.54 5.58 17.01 13.32 22.41 23.22 5.4 9.72 8.1 20.79 8.1 33.21 0 2.88-.27 6.48-.81 10.8h-103.14c1.44 10.8 6.3 19.89 14.58 27.27 8.28 7.38 18.18 11.07 29.7 11.07 14.22 0 26.91-5.94 38.07-17.82l14.85 13.77c-5.22 6.84-12.51 12.78-21.87 17.82-9.18 4.86-19.89 7.29-32.13 7.29Zm38.07-77.76c-1.8-11.34-6.21-20.34-13.23-27-6.84-6.66-15.57-9.99-26.19-9.99-10.98 0-20.25 3.51-27.81 10.53-7.56 6.84-12.33 15.66-14.31 26.46h81.54Zm97.88 77.76c-9.9 0-18.81-2.34-26.73-7.02-7.74-4.68-13.86-11.25-18.36-19.71s-6.75-18.27-6.75-29.43V532.9h22.14v76.14c0 10.44 3.06 18.9 9.18 25.38 6.3 6.48 14.31 9.72 24.03 9.72 7.2 0 13.68-1.71 19.44-5.13 5.94-3.42 10.53-8.19 13.77-14.31 3.42-6.12 5.13-13.05 5.13-20.79V532.9h21.87v129.6h-21.87v-19.71h-.27c-3.42 5.76-8.91 10.98-16.47 15.66-7.56 4.5-15.93 6.75-25.11 6.75Zm98.29-2.7V532.9h22.14v18.9h.27c3.6-5.58 9-10.53 16.2-14.85 7.38-4.5 15.66-6.75 24.84-6.75h6.21v22.95c-4.32-.54-7.29-.81-8.91-.81-7.02 0-13.5 1.8-19.44 5.4-5.76 3.6-10.44 8.64-14.04 15.12-3.42 6.3-5.13 13.41-5.13 21.33v68.31h-22.14Zm144.06 2.7c-12.06 0-23.13-2.97-33.21-8.91-10.08-6.12-18.09-14.31-24.03-24.57-5.94-10.26-8.91-21.6-8.91-34.02 0-12.6 2.88-24.03 8.64-34.29 5.94-10.26 13.86-18.36 23.76-24.3 9.9-5.94 20.7-8.91 32.4-8.91 11.52 0 22.05 2.79 31.59 8.37 9.54 5.58 17.01 13.32 22.41 23.22 5.4 9.72 8.1 20.79 8.1 33.21 0 2.88-.27 6.48-.81 10.8h-103.14c1.44 10.8 6.3 19.89 14.58 27.27 8.28 7.38 18.18 11.07 29.7 11.07 14.22 0 26.91-5.94 38.07-17.82l14.85 13.77c-5.22 6.84-12.51 12.78-21.87 17.82-9.18 4.86-19.89 7.29-32.13 7.29Zm38.07-77.76c-1.8-11.34-6.21-20.34-13.23-27-6.84-6.66-15.57-9.99-26.19-9.99-10.98 0-20.25 3.51-27.81 10.53-7.56 6.84-12.33 15.66-14.31 26.46h81.54Z"/>
</svg>
