<svg xmlns="http://www.w3.org/2000/svg" width="4035" height="1097" fill="none" viewBox="0 0 4035 1097">
  <path fill="#fff" d="M306 351h38.492l70.559-99h61.387L390.33 371.88 482.459 504h-66.204l-70.65-102.601H306V504h-54V252h54v99Zm312.033 158.4c-25.68 0-48.96-5.88-69.84-17.64-20.88-11.76-37.32-27.6-49.32-47.52-11.76-20.16-17.64-42.24-17.64-66.24 0-24 5.88-46.08 17.64-66.24 12-20.16 28.44-36 49.32-47.52 20.88-11.76 44.16-17.64 69.84-17.64 25.68 0 48.84 5.88 69.48 17.64 20.88 11.52 37.32 27.36 49.32 47.52 12 20.16 18 42.24 18 66.24 0 24-6 46.08-18 66.24-12 19.92-28.44 35.76-49.32 47.52-20.88 11.76-44.04 17.64-69.48 17.64Zm0-49.68c15.12 0 28.92-3.6 41.4-10.8 12.48-7.2 22.32-17.04 29.52-29.52 7.2-12.48 10.8-26.28 10.8-41.4 0-15.12-3.6-28.92-10.8-41.4-7.2-12.48-17.04-22.32-29.52-29.52-12.48-7.44-26.28-11.16-41.4-11.16-15.12 0-29.04 3.6-41.76 10.8-12.48 7.2-22.32 17.16-29.52 29.88-7.2 12.48-10.8 26.28-10.8 41.4 0 15.12 3.6 28.92 10.8 41.4 7.44 12.48 17.4 22.32 29.88 29.52 12.48 7.2 26.28 10.8 41.4 10.8ZM1008.4 504h-58.678l-46.44-86.4h-48.96V504h-54V252h111.6c16.8 0 31.8 3.6 45 10.8 13.44 7.2 23.88 17.16 31.32 29.88 7.44 12.48 11.16 26.52 11.16 42.12 0 16.08-4.08 30.6-12.24 43.56-7.92 12.96-18.84 22.92-32.76 29.88L1008.4 504ZM854.322 300.6V369h55.8c10.32 0 18.72-3.24 25.2-9.72 6.72-6.48 10.08-14.64 10.08-24.48s-3.36-18-10.08-24.48c-6.48-6.48-14.88-9.72-25.2-9.72h-55.8ZM1146.76 504h-54V302.4h-73.08V252h199.8v50.4h-72.72V504Zm297.22 0h-189V252h185.4v48.6h-131.4v51.12h102.6v46.8h-102.6v56.88h135V504Zm231.41 0h-54V252h54v99h108v-99h54v252h-54V401.4h-108V504Zm344.58 5.4c-25.68 0-48.96-5.88-69.84-17.64-20.88-11.76-37.32-27.6-49.32-47.52-11.76-20.16-17.64-42.24-17.64-66.24 0-24 5.88-46.08 17.64-66.24 12-20.16 28.44-36 49.32-47.52 20.88-11.76 44.16-17.64 69.84-17.64 25.68 0 48.84 5.88 69.48 17.64 20.88 11.52 37.32 27.36 49.32 47.52 12 20.16 18 42.24 18 66.24 0 24-6 46.08-18 66.24-12 19.92-28.44 35.76-49.32 47.52-20.88 11.76-44.04 17.64-69.48 17.64Zm0-49.68c15.12 0 28.92-3.6 41.4-10.8 12.48-7.2 22.32-17.04 29.52-29.52 7.2-12.48 10.8-26.28 10.8-41.4 0-15.12-3.6-28.92-10.8-41.4-7.2-12.48-17.04-22.32-29.52-29.52-12.48-7.44-26.28-11.16-41.4-11.16-15.12 0-29.04 3.6-41.76 10.8-12.48 7.2-22.32 17.16-29.52 29.88-7.2 12.48-10.8 26.28-10.8 41.4 0 15.12 3.6 28.92 10.8 41.4 7.44 12.48 17.4 22.32 29.88 29.52 12.48 7.2 26.28 10.8 41.4 10.8ZM2256.26 504h-54V252h183.6v51.12h-129.6v57.6h100.8v49.68h-100.8V504Zm222.76 0h-54V252h183.6v51.12h-129.6v57.6h100.8v49.68h-100.8V504Zm222.4 0h-53.64V252h69.84l83.16 182.16h1.08l82.8-182.16h67.32v252h-53.28V332.64h-1.44L2817.34 504h-34.92l-79.56-171.36h-1.44V504Zm339.22 0h-56.52l97.92-252h60.12l97.56 252h-57.24l-21.24-56.88h-99.72L3040.64 504Zm70.2-196.92-33.48 94.32h68.04l-33.48-94.32h-1.08ZM3325.16 504h-53.28V252h47.88l122.76 162h1.44V252h52.92v252h-47.52l-123.12-162.36h-1.08V504Zm285.69 0h-53.28V252h47.88l122.76 162h1.44V252h52.92v252h-47.52l-123.12-162.36h-1.08V504Zm227.95 1c-6.73 0-12.9-1.6-18.5-4.8-5.6-3.2-10.03-7.533-13.3-13-3.2-5.533-4.8-11.6-4.8-18.2s1.6-12.633 4.8-18.1c3.27-5.533 7.7-9.9 13.3-13.1 5.6-3.2 11.77-4.8 18.5-4.8 6.8 0 13 1.6 18.6 4.8 5.6 3.2 10 7.567 13.2 13.1 3.27 5.467 4.9 11.5 4.9 18.1 0 6.6-1.63 12.667-4.9 18.2-3.2 5.467-7.6 9.8-13.2 13-5.6 3.2-11.8 4.8-18.6 4.8Zm0-6.2c5.47 0 10.47-1.3 15-3.9 4.6-2.667 8.23-6.267 10.9-10.8 2.67-4.6 4-9.633 4-15.1 0-5.467-1.33-10.467-4-15-2.67-4.6-6.3-8.2-10.9-10.8-4.53-2.667-9.53-4-15-4-5.47 0-10.47 1.333-15 4-4.53 2.6-8.13 6.2-10.8 10.8-2.67 4.533-4 9.533-4 15 0 5.467 1.33 10.5 4 15.1 2.67 4.533 6.27 8.133 10.8 10.8 4.53 2.6 9.53 3.9 15 3.9Zm-12.6-11.3v-37h14.3c3.67 0 6.7 1.133 9.1 3.4 2.47 2.267 3.7 5.033 3.7 8.3 0 2.533-.73 4.667-2.2 6.4-1.4 1.733-3 2.933-4.8 3.6l8.5 15.3h-7l-7.3-13.7h-7.8v13.7h-6.5Zm14.3-19.8c2.07 0 3.63-.5 4.7-1.5 1.07-1 1.6-2.333 1.6-4 0-1.733-.53-3.067-1.6-4-1.07-1-2.63-1.5-4.7-1.5h-7.8v11h7.8ZM292.7 844.2H263v-189h29.7v189Zm43.784 0V714.6h27v18.36h.27c2.7-5.4 7.38-10.26 14.04-14.58 6.84-4.32 14.67-6.48 23.49-6.48 9.36 0 17.64 2.25 24.84 6.75 7.2 4.32 12.33 9.18 15.39 14.58h.54c3.06-5.4 8.46-10.26 16.2-14.58 7.92-4.5 17.28-6.75 28.08-6.75 8.64 0 16.56 2.34 23.76 7.02 7.2 4.5 12.87 10.98 17.01 19.44 4.32 8.28 6.48 17.91 6.48 28.89v76.95h-27v-76.95c0-9.18-2.61-16.38-7.83-21.6-5.04-5.4-11.43-8.1-19.17-8.1-9 0-16.47 3.24-22.41 9.72-5.76 6.3-8.64 14.76-8.64 25.38v71.55h-27v-76.95c0-9.18-2.61-16.38-7.83-21.6-5.04-5.4-11.43-8.1-19.17-8.1-9 0-16.47 3.24-22.41 9.72-5.76 6.3-8.64 14.76-8.64 25.38v71.55h-27Zm231.613 0V714.6h27v18.36h.27c2.7-5.4 7.38-10.26 14.04-14.58 6.84-4.32 14.67-6.48 23.49-6.48 9.36 0 17.64 2.25 24.84 6.75 7.2 4.32 12.33 9.18 15.39 14.58h.54c3.06-5.4 8.46-10.26 16.2-14.58 7.92-4.5 17.28-6.75 28.08-6.75 8.64 0 16.56 2.34 23.76 7.02 7.2 4.5 12.87 10.98 17.01 19.44 4.32 8.28 6.48 17.91 6.48 28.89v76.95h-27v-76.95c0-9.18-2.61-16.38-7.83-21.6-5.04-5.4-11.43-8.1-19.17-8.1-9 0-16.47 3.24-22.41 9.72-5.76 6.3-8.64 14.76-8.64 25.38v71.55h-27v-76.95c0-9.18-2.61-16.38-7.83-21.6-5.04-5.4-11.43-8.1-19.17-8.1-9 0-16.47 3.24-22.41 9.72-5.76 6.3-8.64 14.76-8.64 25.38v71.55h-27Zm291.014 2.7c-12.42 0-23.85-2.97-34.29-8.91-10.26-5.94-18.36-14.04-24.3-24.3-5.94-10.44-8.91-21.87-8.91-34.29 0-12.42 2.97-23.76 8.91-34.02 5.94-10.44 14.04-18.63 24.3-24.57 10.44-5.94 21.87-8.91 34.29-8.91 12.42 0 23.76 2.97 34.02 8.91 10.44 5.94 18.63 14.13 24.57 24.57 5.94 10.26 8.91 21.6 8.91 34.02 0 12.42-2.97 23.85-8.91 34.29-5.94 10.26-14.13 18.36-24.57 24.3-10.26 5.94-21.6 8.91-34.02 8.91Zm0-25.65c7.56 0 14.4-1.8 20.52-5.4 6.3-3.6 11.16-8.55 14.58-14.85 3.6-6.48 5.4-13.68 5.4-21.6 0-7.92-1.8-15.03-5.4-21.33-3.42-6.48-8.28-11.52-14.58-15.12-6.12-3.6-12.96-5.4-20.52-5.4-7.56 0-14.49 1.8-20.79 5.4-6.12 3.6-10.98 8.64-14.58 15.12-3.42 6.3-5.13 13.41-5.13 21.33 0 7.92 1.71 15.12 5.13 21.6 3.6 6.3 8.46 11.25 14.58 14.85 6.3 3.6 13.23 5.4 20.79 5.4Zm168.119 25.65c-10.08 0-19.17-2.16-27.268-6.48-7.92-4.32-13.59-9.18-17.01-14.58h-.27v18.36h-27v-189h27v77.76h.27c3.42-5.4 9.09-10.26 17.01-14.58 8.098-4.32 17.188-6.48 27.268-6.48 10.8 0 20.79 2.97 29.97 8.91 9.36 5.76 16.83 13.77 22.41 24.03 5.58 10.26 8.37 21.78 8.37 34.56 0 12.78-2.79 24.3-8.37 34.56-5.58 10.26-13.05 18.36-22.41 24.3-9.18 5.76-19.17 8.64-29.97 8.64Zm-5.4-25.65c7.2 0 13.77-1.8 19.71-5.4 5.94-3.6 10.62-8.55 14.04-14.85 3.6-6.48 5.4-13.68 5.4-21.6 0-7.92-1.8-15.03-5.4-21.33-3.42-6.48-8.1-11.52-14.04-15.12-5.94-3.6-12.51-5.4-19.71-5.4-7.2 0-13.77 1.8-19.71 5.4-5.938 3.6-10.708 8.64-14.308 15.12-3.42 6.3-5.13 13.41-5.13 21.33 0 7.92 1.71 15.12 5.13 21.6 3.6 6.3 8.37 11.25 14.308 14.85 5.94 3.6 12.51 5.4 19.71 5.4Zm122.33 22.95h-27V714.6h27v129.6Zm-13.5-153.9c-4.14 0-7.92-1.53-11.34-4.59-3.24-3.24-4.86-7.11-4.86-11.61 0-4.5 1.62-8.28 4.86-11.34 3.42-3.24 7.2-4.86 11.34-4.86s7.83 1.62 11.07 4.86c3.42 3.06 5.13 6.84 5.13 11.34s-1.71 8.37-5.13 11.61c-3.24 3.06-6.93 4.59-11.07 4.59Zm79 153.9h-27v-189h27v189Zm65.5 0h-27V714.6h27v129.6Zm-13.5-153.9c-4.14 0-7.92-1.53-11.34-4.59-3.24-3.24-4.86-7.11-4.86-11.61 0-4.5 1.62-8.28 4.86-11.34 3.42-3.24 7.2-4.86 11.34-4.86s7.83 1.62 11.07 4.86c3.42 3.06 5.13 6.84 5.13 11.34s-1.71 8.37-5.13 11.61c-3.24 3.06-6.93 4.59-11.07 4.59Zm110.05 156.6c-12.42 0-23.85-2.97-34.29-8.91-10.26-5.94-18.36-14.04-24.3-24.3-5.94-10.44-8.91-21.87-8.91-34.29 0-12.42 2.97-23.76 8.91-34.02 5.94-10.26 13.95-18.36 24.03-24.3 10.08-6.12 21.15-9.18 33.21-9.18 12.06 0 22.86 2.79 32.4 8.37 9.72 5.4 17.28 12.96 22.68 22.68 5.58 9.54 8.37 20.34 8.37 32.4 0 4.86-.45 9.36-1.35 13.5h-99.9c1.44 9 5.94 16.65 13.5 22.95 7.56 6.3 16.56 9.45 27 9.45 13.14 0 25.29-5.22 36.45-15.66l17.55 17.28c-5.04 6.3-12.42 11.88-22.14 16.74-9.54 4.86-20.61 7.29-33.21 7.29Zm34.02-79.65c-1.98-9.54-6.03-17.1-12.15-22.68-6.12-5.58-13.86-8.37-23.22-8.37-10.08 0-18.36 2.79-24.84 8.37-6.3 5.58-10.8 13.14-13.5 22.68h73.71Zm54.34 76.95V714.6h27v18.36h.27c3.42-5.4 8.73-10.26 15.93-14.58 7.38-4.32 15.48-6.48 24.3-6.48 9.9 0 18.72 2.34 26.46 7.02 7.74 4.5 13.77 11.07 18.09 19.71 4.5 8.46 6.75 18.45 6.75 29.97v75.6h-27v-75.6c0-9.36-2.79-16.83-8.37-22.41-5.4-5.76-12.51-8.64-21.33-8.64-10.26 0-18.72 3.42-25.38 10.26-6.48 6.66-9.72 15.39-9.72 26.19v70.2h-27Z"/>
</svg>
