<svg xmlns="http://www.w3.org/2000/svg" width="5359" height="263" fill="none" viewBox="0 0 5359 263">
  <path fill="#fff" d="M54 104.4h41.453l71.713-99h61.51L141.16 125.28l93.636 132.12h-66.405L96.586 154.8H54v102.6H0V5.4h54v99Z"/>
  <path fill="#fff" d="M357.033 262.8c-25.68 0-48.96-5.88-69.84-17.64-20.88-11.76-37.32-27.6-49.32-47.52-11.76-20.16-17.64-42.24-17.64-66.24 0-24 5.88-46.08 17.64-66.24 12-20.16 28.44-36 49.32-47.52C308.073 5.88 331.353 0 357.033 0c25.68 0 48.84 5.88 69.48 17.64 20.88 11.52 37.32 27.36 49.32 47.52 12 20.16 18 42.24 18 66.24 0 24-6 46.08-18 66.24-12 19.92-28.44 35.76-49.32 47.52-20.88 11.76-44.04 17.64-69.48 17.64Zm0-49.68c15.12 0 28.92-3.6 41.4-10.8 12.48-7.2 22.32-17.04 29.52-29.52 7.2-12.48 10.8-26.28 10.8-41.4 0-15.12-3.6-28.92-10.8-41.4-7.2-12.48-17.04-22.32-29.52-29.52-12.48-7.44-26.28-11.16-41.4-11.16-15.12 0-29.04 3.6-41.76 10.8-12.48 7.2-22.32 17.16-29.52 29.88-7.2 12.48-10.8 26.28-10.8 41.4 0 15.12 3.6 28.92 10.8 41.4 7.44 12.48 17.4 22.32 29.88 29.52 12.48 7.2 26.28 10.8 41.4 10.8Zm378.369 44.28h-58.68l-46.44-86.4h-48.96v86.4h-54V5.4h111.6c16.8 0 31.8 3.6 45 10.8 13.44 7.2 23.88 17.16 31.32 29.88 7.44 12.48 11.16 26.52 11.16 42.12 0 16.08-4.08 30.6-12.24 43.56-7.92 12.96-18.84 22.92-32.76 29.88l54 95.76ZM581.322 54v68.4h55.8c10.32 0 18.72-3.24 25.2-9.72 6.72-6.48 10.08-14.64 10.08-24.48s-3.36-18-10.08-24.48c-6.48-6.48-14.88-9.72-25.2-9.72h-55.8Zm288.435 203.4h-54V55.8h-73.08V5.4h199.8v50.4h-72.72v201.6Zm287.223 0H967.978V5.4h185.402V54h-131.4v51.12h102.6v46.8h-102.6v56.88h135v48.6Zm211.98 0h-54V5.4h54v99h108v-99h54v252h-54V154.8h-108v102.6Zm332.58 5.4c-25.68 0-48.96-5.88-69.84-17.64-20.88-11.76-37.32-27.6-49.32-47.52-11.76-20.16-17.64-42.24-17.64-66.24 0-24 5.88-46.08 17.64-66.24 12-20.16 28.44-36 49.32-47.52C1652.58 5.88 1675.86 0 1701.54 0c25.68 0 48.84 5.88 69.48 17.64 20.88 11.52 37.32 27.36 49.32 47.52 12 20.16 18 42.24 18 66.24 0 24-6 46.08-18 66.24-12 19.92-28.44 35.76-49.32 47.52-20.88 11.76-44.04 17.64-69.48 17.64Zm0-49.68c15.12 0 28.92-3.6 41.4-10.8 12.48-7.2 22.32-17.04 29.52-29.52 7.2-12.48 10.8-26.28 10.8-41.4 0-15.12-3.6-28.92-10.8-41.4-7.2-12.48-17.04-22.32-29.52-29.52-12.48-7.44-26.28-11.16-41.4-11.16-15.12 0-29.04 3.6-41.76 10.8-12.48 7.2-22.32 17.16-29.52 29.88-7.2 12.48-10.8 26.28-10.8 41.4 0 15.12 3.6 28.92 10.8 41.4 7.44 12.48 17.4 22.32 29.88 29.52 12.48 7.2 26.28 10.8 41.4 10.8Zm224.29 44.28h-54V5.4h183.6v51.12h-129.6v57.6h100.8v49.68h-100.8v93.6Zm212.76 0h-54V5.4h183.6v51.12h-129.6v57.6h100.8v49.68h-100.8v93.6Zm212.4 0h-53.64V5.4h69.84l83.16 182.16h1.08l82.8-182.16h67.32v252h-53.28V86.04h-1.44l-79.92 171.36h-34.92l-79.56-171.36h-1.44V257.4Zm329.22 0h-56.52l97.92-252h60.12l97.56 252h-57.24l-21.24-56.88h-99.72l-20.88 56.88Zm70.2-196.92-33.48 94.32h68.04l-33.48-94.32h-1.08Zm204.32 196.92h-53.28V5.4h47.88l122.76 162h1.44V5.4h52.92v252h-47.52L2955.81 95.04h-1.08V257.4Zm273.69 0h-53.28V5.4h47.88l122.76 162h1.44V5.4h52.92v252h-47.52L3229.5 95.04h-1.08V257.4Zm247.72 1c-6.86 0-13.13-1.6-18.8-4.8-5.66-3.2-10.13-7.533-13.4-13-3.2-5.533-4.8-11.6-4.8-18.2s1.6-12.633 4.8-18.1c3.27-5.533 7.74-9.9 13.4-13.1 5.67-3.2 11.94-4.8 18.8-4.8 6.87 0 13.14 1.6 18.8 4.8 5.67 3.2 10.1 7.567 13.3 13.1 3.27 5.467 4.9 11.5 4.9 18.1 0 6.6-1.63 12.667-4.9 18.2-3.2 5.467-7.63 9.8-13.3 13-5.66 3.2-11.93 4.8-18.8 4.8Zm0-7c5.27 0 10.1-1.3 14.5-3.9 4.47-2.6 8-6.1 10.6-10.5 2.6-4.466 3.9-9.333 3.9-14.6 0-5.266-1.3-10.1-3.9-14.5-2.6-4.466-6.13-8-10.6-10.6-4.4-2.6-9.23-3.9-14.5-3.9-5.26 0-10.13 1.3-14.6 3.9-4.4 2.6-7.9 6.134-10.5 10.6-2.6 4.4-3.9 9.234-3.9 14.5 0 5.267 1.3 10.134 3.9 14.6 2.6 4.4 6.1 7.9 10.5 10.5 4.47 2.6 9.34 3.9 14.6 3.9Zm-13-10.5v-37h15c2.47 0 4.67.567 6.6 1.7 2 1.067 3.57 2.534 4.7 4.4 1.14 1.8 1.7 3.767 1.7 5.9 0 2.534-.73 4.667-2.2 6.4-1.4 1.734-3 2.934-4.8 3.6l8.5 15h-8l-7-13h-7v13h-7.5Zm15-20c1.74 0 3.07-.433 4-1.3 1-.933 1.5-2.166 1.5-3.7 0-1.533-.5-2.733-1.5-3.6-.93-.933-2.26-1.4-4-1.4h-7.5v10h7.5Zm1725.95 36.5V84.6h29.52v26.28h.36c4.8-7.68 12.12-14.52 21.96-20.52 9.84-6.24 21-9.36 33.48-9.36 13.2 0 24.96 3.12 35.28 9.36 10.56 6.24 18.72 15 24.48 26.28 6 11.28 9 24.36 9 39.24V257.4h-29.16V155.88c0-13.92-4.2-25.2-12.6-33.84-8.4-8.64-19.08-12.96-32.04-12.96-14.4 0-26.52 5.04-36.36 15.12-9.6 10.08-14.4 22.92-14.4 38.52v94.68h-29.52Zm-117.96 3.6c-16.08 0-30.84-3.96-44.28-11.88-13.44-8.16-24.12-19.08-32.04-32.76-7.92-13.68-11.88-28.8-11.88-45.36 0-16.8 3.84-32.04 11.52-45.72 7.92-13.68 18.48-24.48 31.68-32.4 13.2-7.92 27.6-11.88 43.2-11.88 15.36 0 29.4 3.72 42.12 11.16 12.72 7.44 22.68 17.76 29.88 30.96 7.2 12.96 10.8 27.72 10.8 44.28 0 3.84-.36 8.64-1.08 14.4h-137.52c1.92 14.4 8.4 26.52 19.44 36.36 11.04 9.84 24.24 14.76 39.6 14.76 18.96 0 35.88-7.92 50.76-23.76l19.8 18.36c-6.96 9.12-16.68 17.04-29.16 23.76-12.24 6.48-26.52 9.72-42.84 9.72Zm50.76-103.68c-2.4-15.12-8.28-27.12-17.64-36-9.12-8.88-20.76-13.32-34.92-13.32-14.64 0-27 4.68-37.08 14.04-10.08 9.12-16.44 20.88-19.08 35.28h108.72Zm-179.31 100.081h-29.51v-172.8h29.51v172.8Zm-14.75-208.08c-5.04 0-9.48-1.8-13.32-5.4-3.6-3.6-5.41-8.04-5.41-13.32 0-5.28 1.81-9.72 5.41-13.32 3.84-3.6 8.28-5.4 13.32-5.4 4.8 0 9 1.8 12.6 5.4 3.84 3.6 5.76 8.04 5.76 13.32 0 5.28-1.92 9.72-5.76 13.32-3.6 3.6-7.8 5.4-12.6 5.4ZM4874.4 257.4h-29.52V5.4h29.52v252Zm-83.19.001h-29.52v-172.8h29.52v172.8Zm-14.76-208.08c-5.04 0-9.48-1.8-13.32-5.4-3.6-3.6-5.4-8.04-5.4-13.32 0-5.28 1.8-9.72 5.4-13.32 3.84-3.6 8.28-5.4 13.32-5.4 4.8 0 9 1.8 12.6 5.4 3.84 3.6 5.76 8.04 5.76 13.32 0 5.28-1.92 9.72-5.76 13.32-3.6 3.6-7.8 5.4-12.6 5.4ZM4640.21 261c-13.92 0-26.52-3.12-37.8-9.36-11.04-6.48-18.84-13.68-23.4-21.6h-.36v27.36h-29.52V5.4h29.52v106.56h.36c4.56-7.92 12.36-15 23.4-21.24 11.28-6.48 23.88-9.72 37.8-9.72 14.4 0 27.72 3.96 39.96 11.88 12.48 7.68 22.44 18.36 29.88 32.04 7.44 13.68 11.16 29.04 11.16 46.08s-3.72 32.4-11.16 46.08c-7.44 13.68-17.4 24.48-29.88 32.4-12.24 7.68-25.56 11.52-39.96 11.52Zm-4.68-28.08c10.08 0 19.44-2.64 28.08-7.92 8.64-5.52 15.48-12.96 20.52-22.32 5.28-9.36 7.92-19.92 7.92-31.68 0-11.76-2.64-22.32-7.92-31.68-5.04-9.36-11.88-16.68-20.52-21.96-8.64-5.52-18-8.28-28.08-8.28-10.32 0-19.92 2.64-28.8 7.92-8.64 5.28-15.48 12.72-20.52 22.32-5.04 9.36-7.56 19.92-7.56 31.68 0 11.76 2.52 22.44 7.56 32.04 5.04 9.36 11.88 16.68 20.52 21.96 8.88 5.28 18.48 7.92 28.8 7.92ZM4419.9 261c-16.32 0-31.32-3.96-45-11.88-13.44-8.16-24.12-19.08-32.04-32.76-7.92-13.68-11.88-28.8-11.88-45.36s3.96-31.68 11.88-45.36c7.92-13.68 18.6-24.48 32.04-32.4 13.68-8.16 28.68-12.24 45-12.24s31.2 4.08 44.64 12.24c13.68 7.92 24.48 18.72 32.4 32.4 7.92 13.68 11.88 28.8 11.88 45.36s-3.96 31.68-11.88 45.36c-7.92 13.68-18.72 24.6-32.4 32.76-13.44 7.92-28.32 11.88-44.64 11.88Zm0-28.08c10.8 0 20.76-2.64 29.88-7.92 9.12-5.52 16.32-12.96 21.6-22.32 5.28-9.6 7.92-20.16 7.92-31.68s-2.64-21.96-7.92-31.32c-5.28-9.6-12.48-17.04-21.6-22.32-9.12-5.52-19.08-8.28-29.88-8.28s-20.76 2.76-29.88 8.28c-9.12 5.28-16.32 12.72-21.6 22.32-5.28 9.36-7.92 19.8-7.92 31.32s2.64 22.08 7.92 31.68c5.28 9.36 12.48 16.8 21.6 22.32 9.12 5.28 19.08 7.92 29.88 7.92Zm-384.18 24.48V84.6h29.52v25.56h.36c3.6-7.44 9.84-14.16 18.72-20.16 9.12-6 19.68-9 31.68-9 12.96 0 24.36 3.36 34.2 10.08 9.84 6.48 16.8 13.8 20.88 21.96h.72c3.84-8.16 10.92-15.48 21.24-21.96 10.56-6.72 23.16-10.08 37.8-10.08 11.52 0 22.08 3.12 31.68 9.36 9.84 6 17.52 14.64 23.04 25.92 5.76 11.04 8.64 23.88 8.64 38.52v102.6h-29.16V154.8c0-13.92-3.84-24.96-11.52-33.12-7.68-8.4-17.28-12.6-28.8-12.6-12.96 0-23.76 4.8-32.4 14.4-8.4 9.36-12.6 21.96-12.6 37.8v96.12h-29.52V154.8c0-13.92-3.84-24.96-11.52-33.12-7.68-8.4-17.16-12.6-28.44-12.6-12.96 0-23.76 4.8-32.4 14.4-8.4 9.36-12.6 21.96-12.6 37.8v96.12h-29.52Zm-306.78 0V84.6h29.52v25.56h.36c3.6-7.44 9.84-14.16 18.72-20.16 9.12-6 19.68-9 31.68-9 12.96 0 24.36 3.36 34.2 10.08 9.84 6.48 16.8 13.8 20.88 21.96h.72c3.84-8.16 10.92-15.48 21.24-21.96 10.56-6.72 23.16-10.08 37.8-10.08 11.52 0 22.08 3.12 31.68 9.36 9.84 6 17.52 14.64 23.04 25.92 5.76 11.04 8.64 23.88 8.64 38.52v102.6h-29.16V154.8c0-13.92-3.84-24.96-11.52-33.12-7.68-8.4-17.28-12.6-28.8-12.6-12.96 0-23.76 4.8-32.4 14.4-8.4 9.36-12.6 21.96-12.6 37.8v96.12h-29.52V154.8c0-13.92-3.84-24.96-11.52-33.12-7.68-8.4-17.16-12.6-28.44-12.6-12.96 0-23.76 4.8-32.4 14.4-8.4 9.36-12.6 21.96-12.6 37.8v96.12h-29.52Zm-60.4 0h-32.4V5.4h32.4v252Z"/>
</svg>
