<svg xmlns="http://www.w3.org/2000/svg" width="5032" height="1323" fill="none" viewBox="0 0 5032 1323">
  <path fill="#000" d="M306 464.4h38.492l70.559-99h61.387L390.33 485.28l92.129 132.12h-66.204l-70.649-102.599H306V617.4h-54v-252h54v99Zm356.033 158.4c-25.68 0-48.96-5.88-69.84-17.64-20.88-11.76-37.32-27.6-49.32-47.52-11.76-20.16-17.64-42.24-17.64-66.24 0-24 5.88-46.08 17.64-66.24 12-20.16 28.44-36 49.32-47.52 20.88-11.76 44.16-17.64 69.84-17.64 25.68 0 48.84 5.88 69.48 17.64 20.88 11.52 37.32 27.36 49.32 47.52 12 20.16 18 42.24 18 66.24 0 24-6 46.08-18 66.24-12 19.92-28.44 35.76-49.32 47.52-20.88 11.76-44.04 17.64-69.48 17.64Zm0-49.68c15.12 0 28.92-3.6 41.4-10.8 12.48-7.2 22.32-17.04 29.52-29.52 7.2-12.48 10.8-26.28 10.8-41.4 0-15.12-3.6-28.92-10.8-41.4-7.2-12.48-17.04-22.32-29.52-29.52-12.48-7.44-26.28-11.16-41.4-11.16-15.12 0-29.04 3.6-41.76 10.8-12.48 7.2-22.32 17.16-29.52 29.88-7.2 12.48-10.8 26.28-10.8 41.4 0 15.12 3.6 28.92 10.8 41.4 7.44 12.48 17.4 22.32 29.88 29.52 12.48 7.2 26.28 10.8 41.4 10.8ZM1096.4 617.4h-58.68L991.282 531h-48.96v86.4h-54v-252h111.6c16.798 0 31.798 3.6 44.998 10.8 13.44 7.2 23.88 17.16 31.32 29.88 7.44 12.48 11.16 26.52 11.16 42.12 0 16.08-4.08 30.6-12.24 43.56-7.92 12.96-18.84 22.92-32.76 29.88l54 95.76ZM942.322 414v68.4h55.8c10.318 0 18.718-3.24 25.198-9.72 6.72-6.48 10.08-14.64 10.08-24.48s-3.36-18-10.08-24.48c-6.48-6.48-14.88-9.72-25.198-9.72h-55.8Zm336.438 203.4h-54V415.8h-73.08v-50.4h199.8v50.4h-72.72v201.6Zm341.22 0h-189v-252h185.4V414h-131.4v51.12h102.6v46.8h-102.6v56.88h135v48.6Zm323.98 0h-54v-252h54v99h108v-99h54v252h-54V514.8h-108v102.6Zm388.58 5.4c-25.68 0-48.96-5.88-69.84-17.64-20.88-11.76-37.32-27.6-49.32-47.52-11.76-20.16-17.64-42.24-17.64-66.24 0-24 5.88-46.08 17.64-66.24 12-20.16 28.44-36 49.32-47.52 20.88-11.76 44.16-17.64 69.84-17.64 25.68 0 48.84 5.88 69.48 17.64 20.88 11.52 37.32 27.36 49.32 47.52 12 20.16 18 42.24 18 66.24 0 24-6 46.08-18 66.24-12 19.92-28.44 35.76-49.32 47.52-20.88 11.76-44.04 17.64-69.48 17.64Zm0-49.68c15.12 0 28.92-3.6 41.4-10.8 12.48-7.2 22.32-17.04 29.52-29.52 7.2-12.48 10.8-26.28 10.8-41.4 0-15.12-3.6-28.92-10.8-41.4-7.2-12.48-17.04-22.32-29.52-29.52-12.48-7.44-26.28-11.16-41.4-11.16-15.12 0-29.04 3.6-41.76 10.8-12.48 7.2-22.32 17.16-29.52 29.88-7.2 12.48-10.8 26.28-10.8 41.4 0 15.12 3.6 28.92 10.8 41.4 7.44 12.48 17.4 22.32 29.88 29.52 12.48 7.2 26.28 10.8 41.4 10.8Zm280.29 44.28h-54v-252h183.6v51.12h-129.6v57.6h100.8v49.68h-100.8v93.6Zm266.76 0h-54v-252h183.6v51.12h-129.6v57.6h100.8v49.68h-100.8v93.6Zm266.4 0h-53.64v-252h69.84l83.16 182.16h1.08l82.8-182.16h67.32v252h-53.28V446.04h-1.44l-79.92 171.36h-34.92l-79.56-171.36h-1.44V617.4Zm383.22 0h-56.52l97.92-252h60.12l97.56 252h-57.24l-21.24-56.88h-99.72l-20.88 56.88Zm70.2-196.92-33.48 94.32h68.04l-33.48-94.32h-1.08Zm258.32 196.92h-53.28v-252h47.88l122.76 162h1.44v-162h52.92v252h-47.52l-123.12-162.36h-1.08V617.4Zm329.69 0h-53.28v-252h47.88l122.76 162h1.44v-162h52.92v252h-47.52L4188.5 455.04h-1.08V617.4Zm-1128.4 343.441c-18.9 0-36.09-4.32-51.57-12.96-15.3-8.82-27.36-20.7-36.18-35.64-8.82-14.94-13.23-31.32-13.23-49.14s4.41-34.2 13.23-49.14c8.82-14.94 20.88-26.73 36.18-35.37 15.48-8.82 32.67-13.23 51.57-13.23 17.46 0 32.85 3.6 46.17 10.8 13.32 7.02 24.12 15.48 32.4 25.38l-23.22 19.98c-7.02-7.56-14.85-13.68-23.49-18.36-8.64-4.68-19.26-7.02-31.86-7.02-12.24 0-23.49 2.97-33.75 8.91-10.26 5.94-18.36 14.04-24.3 24.3-5.94 10.26-8.91 21.51-8.91 33.75 0 12.24 2.97 23.49 8.91 33.75 5.94 10.26 14.04 18.36 24.3 24.3 10.26 5.94 21.51 8.91 33.75 8.91 10.44 0 19.98-1.89 28.62-5.67 8.82-3.96 15.39-8.28 19.71-12.96v-26.73h-39.69v-28.08h73.17v67.77c-4.5 5.76-10.8 11.43-18.9 17.01-8.1 5.58-17.64 10.26-28.62 14.04-10.8 3.6-22.23 5.4-34.29 5.4Zm330.86-3.24h-37.53l-37.53-68.31h-41.58v68.31h-33.75v-189h80.46c12.24 0 23.13 2.7 32.67 8.1 9.54 5.22 17.01 12.42 22.41 21.6 5.4 9.18 8.1 19.44 8.1 30.78 0 12.24-3.15 23.22-9.45 32.94-6.12 9.72-14.58 16.92-25.38 21.6l41.58 73.98Zm-116.64-158.49v59.67h46.17c8.82 0 16.02-2.79 21.6-8.37 5.58-5.58 8.37-12.69 8.37-21.33 0-8.82-2.79-16.02-8.37-21.6-5.58-5.58-12.78-8.37-21.6-8.37h-46.17Zm289.87 161.73c-15.84 0-29.88-3.33-42.12-9.99-12.24-6.84-21.78-16.29-28.62-28.35-6.84-12.06-10.26-25.74-10.26-41.04v-112.86h33.75v112.86c0 9.18 2.07 17.46 6.21 24.84 4.14 7.38 9.81 13.23 17.01 17.55 7.2 4.14 15.21 6.21 24.03 6.21 8.46 0 16.29-2.16 23.49-6.48 7.2-4.32 12.96-10.17 17.28-17.55 4.32-7.56 6.48-15.75 6.48-24.57v-112.86h33.75v112.86c0 15.3-3.42 28.98-10.26 41.04-6.84 12.06-16.38 21.51-28.62 28.35-12.24 6.66-26.28 9.99-42.12 9.99Zm186.27-3.24v-189h77.49c12.24 0 23.31 2.79 33.21 8.37 9.9 5.4 17.64 12.87 23.22 22.41 5.58 9.36 8.37 19.71 8.37 31.05s-2.79 21.78-8.37 31.32c-5.58 9.36-13.32 16.74-23.22 22.14-9.9 5.4-20.97 8.1-33.21 8.1h-43.74v65.61h-33.75Zm76.95-96.12c8.82 0 16.29-2.97 22.41-8.91 6.12-6.12 9.18-13.5 9.18-22.14 0-8.82-3.06-16.2-9.18-22.14-6.12-6.12-13.59-9.18-22.41-9.18h-43.2v62.37h43.2Zm156.23 96.12v-189h77.49c12.24 0 23.31 2.79 33.21 8.37 9.9 5.4 17.64 12.87 23.22 22.41 5.58 9.36 8.37 19.71 8.37 31.05s-2.79 21.78-8.37 31.32c-5.58 9.36-13.32 16.74-23.22 22.14-9.9 5.4-20.97 8.1-33.21 8.1h-43.74v65.61h-33.75Zm76.95-96.12c8.82 0 16.29-2.97 22.41-8.91 6.12-6.12 9.18-13.5 9.18-22.14 0-8.82-3.06-16.2-9.18-22.14-6.12-6.12-13.59-9.18-22.41-9.18h-43.2v62.37h43.2Zm294.75 96.12h-138.51v-189h135.81v30.51H4249.5v45.9h80.46v30.24h-80.46v51.84h104.76v30.51ZM4780 1071h-42V252h42v819Z"/>
</svg>
