<svg xmlns="http://www.w3.org/2000/svg" width="1578" height="1260" fill="none" viewBox="0 0 1578 1260">
  <path fill="#000" d="M583.922 504v99h22.401l85.161-99h63.23L650.785 623.88 761.981 756h-69.043l-85.27-102.6h-23.746V756h-54.508V504h54.508Zm295.23 252h-54V504h54v99h108v-99h53.998v252h-53.998V653.4h-108V756Zm284.448 2c-13.47 0-25.8-3.2-37-9.6-11.2-6.4-20.07-15.067-26.6-26-6.4-11.067-9.6-23.2-9.6-36.4s3.2-25.267 9.6-36.2c6.53-11.067 15.4-19.8 26.6-26.2 11.2-6.4 23.53-9.6 37-9.6 13.6 0 26 3.2 37.2 9.6 11.2 6.4 20 15.133 26.4 26.2 6.53 10.933 9.8 23 9.8 36.2 0 13.2-3.27 25.333-9.8 36.4-6.4 10.933-15.2 19.6-26.4 26-11.2 6.4-23.6 9.6-37.2 9.6Zm0-12.4c10.93 0 20.93-2.6 30-7.8 9.2-5.333 16.47-12.533 21.8-21.6 5.33-9.2 8-19.267 8-30.2s-2.67-20.933-8-30c-5.33-9.2-12.6-16.4-21.8-21.6-9.07-5.333-19.07-8-30-8s-20.93 2.667-30 8c-9.07 5.2-16.27 12.4-21.6 21.6-5.33 9.067-8 19.067-8 30s2.67 21 8 30.2c5.33 9.067 12.53 16.267 21.6 21.6 9.07 5.2 19.07 7.8 30 7.8Zm-25.2-22.6v-74h28.6c7.33 0 13.4 2.267 18.2 6.8 4.93 4.533 7.4 10.067 7.4 16.6 0 5.067-1.47 9.333-4.4 12.8-2.8 3.467-6 5.867-9.6 7.2l17 30.6h-14l-14.6-27.4h-15.6V723h-13Zm28.6-39.6c4.13 0 7.27-1 9.4-3 2.13-2 3.2-4.667 3.2-8 0-3.467-1.07-6.133-3.2-8-2.13-2-5.27-3-9.4-3h-15.6v22h15.6Z"/>
</svg>
