<svg xmlns="http://www.w3.org/2000/svg" width="5170" height="1260" fill="none" viewBox="0 0 5170 1260">
  <path fill="#000" d="M582.301 504v99h22.192l84.367-99h62.641l-102.96 119.88L758.701 756h-68.4l-84.476-102.6h-23.524V756h-54V504h54Zm353.632 257.4c-25.68 0-48.96-5.88-69.84-17.64-20.88-11.76-37.32-27.6-49.32-47.52-11.76-20.16-17.64-42.24-17.64-66.24 0-24 5.88-46.08 17.64-66.24 12-20.16 28.44-36 49.32-47.52 20.88-11.76 44.16-17.64 69.84-17.64 25.68 0 48.84 5.88 69.477 17.64 20.88 11.52 37.32 27.36 49.32 47.52 12 20.16 18 42.24 18 66.24 0 24-6 46.08-18 66.24-12 19.92-28.44 35.76-49.32 47.52-20.877 11.76-44.037 17.64-69.477 17.64Zm0-49.68c15.12 0 28.92-3.6 41.4-10.8 12.48-7.2 22.32-17.04 29.517-29.52 7.2-12.48 10.8-26.28 10.8-41.4 0-15.12-3.6-28.92-10.8-41.4-7.197-12.48-17.037-22.32-29.517-29.52-12.48-7.44-26.28-11.16-41.4-11.16-15.12 0-29.04 3.6-41.76 10.8-12.48 7.2-22.32 17.16-29.52 29.88-7.2 12.48-10.8 26.28-10.8 41.4 0 15.12 3.6 28.92 10.8 41.4 7.44 12.48 17.4 22.32 29.88 29.52 12.48 7.2 26.28 10.8 41.4 10.8ZM1370.3 756h-58.68l-46.44-86.4h-48.96V756h-54V504h111.6c16.8 0 31.8 3.6 45 10.8 13.44 7.2 23.88 17.16 31.32 29.88 7.44 12.48 11.16 26.52 11.16 42.12 0 16.08-4.08 30.6-12.24 43.56-7.92 12.96-18.84 22.92-32.76 29.88l54 95.76Zm-154.08-203.4V621h55.8c10.32 0 18.72-3.24 25.2-9.72 6.72-6.48 10.08-14.64 10.08-24.48s-3.36-18-10.08-24.48c-6.48-6.48-14.88-9.72-25.2-9.72h-55.8ZM1552.66 756h-54V554.4h-73.08V504h199.8v50.4h-72.72V756Zm341.22 0h-189V504h185.4v48.6h-131.4v51.12h102.6v46.8h-102.6v56.88h135V756Zm323.98 0h-54V504h54v99h108v-99h54v252h-54V653.4h-108V756Zm388.58 5.4c-25.68 0-48.96-5.88-69.84-17.64-20.88-11.76-37.32-27.6-49.32-47.52-11.76-20.16-17.64-42.24-17.64-66.24 0-24 5.88-46.08 17.64-66.24 12-20.16 28.44-36 49.32-47.52 20.88-11.76 44.16-17.64 69.84-17.64 25.68 0 48.84 5.88 69.48 17.64 20.88 11.52 37.32 27.36 49.32 47.52 12 20.16 18 42.24 18 66.24 0 24-6 46.08-18 66.24-12 19.92-28.44 35.76-49.32 47.52-20.88 11.76-44.04 17.64-69.48 17.64Zm0-49.68c15.12 0 28.92-3.6 41.4-10.8 12.48-7.2 22.32-17.04 29.52-29.52 7.2-12.48 10.8-26.28 10.8-41.4 0-15.12-3.6-28.92-10.8-41.4-7.2-12.48-17.04-22.32-29.52-29.52-12.48-7.44-26.28-11.16-41.4-11.16-15.12 0-29.04 3.6-41.76 10.8-12.48 7.2-22.32 17.16-29.52 29.88-7.2 12.48-10.8 26.28-10.8 41.4 0 15.12 3.6 28.92 10.8 41.4 7.44 12.48 17.4 22.32 29.88 29.52 12.48 7.2 26.28 10.8 41.4 10.8ZM2886.73 756h-54V504h183.6v51.12h-129.6v57.6h100.8v49.68h-100.8V756Zm266.76 0h-54V504h183.6v51.12h-129.6v57.6h100.8v49.68h-100.8V756Zm266.4 0h-53.64V504h69.84l83.16 182.16h1.08l82.8-182.16h67.32v252h-53.28V584.64h-1.44L3535.81 756h-34.92l-79.56-171.36h-1.44V756Zm383.22 0h-56.52l97.92-252h60.12l97.56 252h-57.24l-21.24-56.88h-99.72L3803.11 756Zm70.2-196.92-33.48 94.32h68.04l-33.48-94.32h-1.08ZM4131.63 756h-53.28V504h47.88l122.76 162h1.44V504h52.92v252h-47.52l-123.12-162.36h-1.08V756Zm329.69 0h-53.28V504h47.88l122.76 162h1.44V504h52.92v252h-47.52L4462.4 593.64h-1.08V756Zm294.28 2c-13.47 0-25.8-3.2-37-9.6-11.2-6.4-20.07-15.067-26.6-26-6.4-11.067-9.6-23.2-9.6-36.4s3.2-25.267 9.6-36.2c6.53-11.067 15.4-19.8 26.6-26.2 11.2-6.4 23.53-9.6 37-9.6 13.6 0 26 3.2 37.2 9.6 11.2 6.4 20 15.133 26.4 26.2 6.53 10.933 9.8 23 9.8 36.2 0 13.2-3.27 25.333-9.8 36.4-6.4 10.933-15.2 19.6-26.4 26-11.2 6.4-23.6 9.6-37.2 9.6Zm0-12.4c10.93 0 20.93-2.6 30-7.8 9.2-5.333 16.47-12.533 21.8-21.6 5.33-9.2 8-19.267 8-30.2s-2.67-20.933-8-30c-5.33-9.2-12.6-16.4-21.8-21.6-9.07-5.333-19.07-8-30-8s-20.93 2.667-30 8c-9.07 5.2-16.27 12.4-21.6 21.6-5.33 9.067-8 19.067-8 30s2.67 21 8 30.2c5.33 9.067 12.53 16.267 21.6 21.6 9.07 5.2 19.07 7.8 30 7.8Zm-25.2-22.6v-74h28.6c7.33 0 13.4 2.267 18.2 6.8 4.93 4.533 7.4 10.067 7.4 16.6 0 5.067-1.47 9.333-4.4 12.8-2.8 3.467-6 5.867-9.6 7.2l17 30.6h-14l-14.6-27.4h-15.6V723h-13Zm28.6-39.6c4.13 0 7.27-1 9.4-3 2.13-2 3.2-4.667 3.2-8 0-3.467-1.07-6.133-3.2-8-2.13-2-5.27-3-9.4-3h-15.6v22h15.6Z"/>
</svg>
