<svg xmlns="http://www.w3.org/2000/svg" width="3311" height="504" fill="none" viewBox="0 0 3311 504">
  <path fill="#000" d="M54 225h41.453l34.214-47.233L162.082 126h66.594l-70.579 96.679-14.641 23.201 14.64 23.896L234.796 378h-71.655l-33.477-55.335L96.586 275.4H54V378H0V126h54v99Zm252.252 153h-54V126h54v99h108v-99h54v252h-54V275.4h-108V378Zm190.648.5c-3.367 0-6.45-.8-9.25-2.4-2.8-1.6-5.017-3.767-6.65-6.5-1.6-2.767-2.4-5.8-2.4-9.1s.8-6.317 2.4-9.05c1.633-2.767 3.85-4.95 6.65-6.55 2.8-1.6 5.883-2.4 9.25-2.4 3.4 0 6.5.8 9.3 2.4 2.8 1.6 5 3.783 6.6 6.55 1.633 2.733 2.45 5.75 2.45 9.05 0 3.3-.817 6.333-2.45 9.1-1.6 2.733-3.8 4.9-6.6 6.5-2.8 1.6-5.9 2.4-9.3 2.4Zm0-3.1c2.733 0 5.233-.65 7.5-1.95 2.3-1.333 4.117-3.133 5.45-5.4 1.333-2.3 2-4.817 2-7.55 0-2.733-.667-5.233-2-7.5-1.333-2.3-3.15-4.1-5.45-5.4-2.267-1.333-4.767-2-7.5-2-2.733 0-5.233.667-7.5 2-2.267 1.3-4.067 3.1-5.4 5.4-1.333 2.267-2 4.767-2 7.5 0 2.733.667 5.25 2 7.55a14.965 14.965 0 0 0 5.4 5.4c2.267 1.3 4.767 1.95 7.5 1.95Zm-6.3-5.65v-18.5h7.15c1.833 0 3.35.567 4.55 1.7 1.233 1.133 1.85 2.517 1.85 4.15 0 1.267-.367 2.333-1.1 3.2-.7.867-1.5 1.467-2.4 1.8l4.25 7.65h-3.5l-3.65-6.85h-3.9v6.85h-3.25Zm7.15-9.9c1.033 0 1.817-.25 2.35-.75.533-.5.8-1.167.8-2 0-.867-.267-1.533-.8-2-.533-.5-1.317-.75-2.35-.75h-3.9v5.5h3.9Z"/>
  <path fill="#6C845C" d="M763 504h-42V0h42v504Zm386.84-122.4c-23.76 0-45.6-5.76-65.52-17.28-19.92-11.52-35.64-27.24-47.16-47.16-11.52-19.92-17.28-41.64-17.28-65.16 0-23.52 5.76-45.24 17.28-65.16 11.52-19.92 27.24-35.64 47.16-47.16 19.92-11.52 41.76-17.28 65.52-17.28 22.8 0 43.2 5.04 61.2 15.12 18.24 10.08 32.16 21.84 41.76 35.28l-19.44 15.48c-8.4-11.04-19.68-20.52-33.84-28.44-13.92-7.92-30.48-11.88-49.68-11.88-18.72 0-36 4.56-51.84 13.68-15.84 9.12-28.32 21.72-37.44 37.8-9.12 15.84-13.68 33.36-13.68 52.56 0 19.2 4.56 36.72 13.68 52.56 9.12 15.84 21.6 28.44 37.44 37.8 15.84 9.12 33.12 13.68 51.84 13.68 17.52 0 33.48-3.6 47.88-10.8 14.4-7.44 25.08-15.6 32.04-24.48V273.6h-61.2v-24.48h88.2v80.64c-6 8.16-14.28 16.2-24.84 24.12-10.56 7.92-22.92 14.52-37.08 19.8-14.16 5.28-29.16 7.92-45 7.92Zm227.89 0c-15.6 0-30-3.96-43.2-11.88-13.2-8.16-23.76-19.08-31.68-32.76-7.92-13.68-11.88-28.8-11.88-45.36 0-16.8 3.84-32.04 11.52-45.72s18-24.48 30.96-32.4c12.96-7.92 27.12-11.88 42.48-11.88 15.12 0 28.8 3.72 41.04 11.16 12.48 7.44 22.32 17.88 29.52 31.32 7.2 13.44 10.8 28.56 10.8 45.36 0 3.84-.24 7.68-.72 11.52h-140.4c1.2 10.56 4.68 20.16 10.44 28.8s13.08 15.48 21.96 20.52c9.12 5.04 19.08 7.56 29.88 7.56 19.92 0 37.56-8.64 52.92-25.92l16.92 15.48c-7.68 9.6-17.4 17.76-29.16 24.48-11.76 6.48-25.56 9.72-41.4 9.72Zm54.72-101.88c-2.16-16.8-8.28-30.12-18.36-39.96-10.08-10.08-22.8-15.12-38.16-15.12-10.08 0-19.56 2.52-28.44 7.56-8.64 4.8-15.84 11.4-21.6 19.8-5.52 8.4-8.88 17.64-10.08 27.72h116.64Zm148.62 101.88c-14.4 0-27.36-3.48-38.88-10.44-11.28-6.96-19.32-14.64-24.12-23.04h-.36V378h-24.48V126h24.48v109.08h.36c4.8-8.4 12.84-16.08 24.12-23.04 11.52-6.96 24.48-10.44 38.88-10.44 14.4 0 27.72 3.96 39.96 11.88 12.48 7.68 22.44 18.36 29.88 32.04 7.44 13.68 11.16 29.04 11.16 46.08s-3.72 32.4-11.16 46.08c-7.44 13.68-17.4 24.48-29.88 32.4-12.24 7.68-25.56 11.52-39.96 11.52Zm-2.88-23.76c10.56 0 20.4-2.88 29.52-8.64 9.12-5.76 16.32-13.68 21.6-23.76 5.52-10.08 8.28-21.36 8.28-33.84 0-12.72-2.76-24.12-8.28-34.2-5.28-10.08-12.48-17.88-21.6-23.4-9.12-5.76-18.96-8.64-29.52-8.64-11.04 0-21.24 2.88-30.6 8.64-9.12 5.52-16.44 13.32-21.96 23.4-5.28 10.08-7.92 21.48-7.92 34.2 0 12.48 2.64 23.76 7.92 33.84 5.52 10.08 12.84 18 21.96 23.76 9.36 5.76 19.56 8.64 30.6 8.64Zm182.03-156.24c13.2 0 24.84 2.88 34.92 8.64 10.32 5.76 18.36 13.8 24.12 24.12 5.76 10.08 8.64 21.72 8.64 34.92V378h-23.4v-27.72h-.36c-4.56 7.92-12.24 15.12-23.04 21.6-10.8 6.48-23.16 9.72-37.08 9.72-11.28 0-21.36-2.28-30.24-6.84-8.64-4.56-15.48-10.56-20.52-18-4.8-7.68-7.2-15.84-7.2-24.48 0-13.92 4.8-25.56 14.4-34.92 9.6-9.6 23.16-15.84 40.68-18.72l62.64-10.44v-.36c0-12.96-4.08-23.4-12.24-31.32-7.92-7.92-18.36-11.88-31.32-11.88-10.08 0-18.96 2.28-26.64 6.84-7.44 4.32-14.64 10.08-21.6 17.28l-16.2-15.48c7.2-8.88 16.32-16.32 27.36-22.32 11.04-6.24 23.4-9.36 37.08-9.36Zm-13.68 157.68c10.56 0 20.16-2.52 28.8-7.56 8.88-5.04 15.84-11.88 20.88-20.52 5.04-8.88 7.56-18.72 7.56-29.52v-12.24l-56.88 9.36c-12.24 2.16-21.36 6-27.36 11.52s-9 12.36-9 20.52c0 7.92 3.24 14.64 9.72 20.16 6.72 5.52 15.48 8.28 26.28 8.28Zm-14.76-191.88c-4.32 0-8.16-1.56-11.52-4.68-3.12-3.12-4.68-6.96-4.68-11.52s1.56-8.4 4.68-11.52c3.36-3.12 7.2-4.68 11.52-4.68 4.56 0 8.4 1.56 11.52 4.68 3.36 3.12 5.04 6.96 5.04 11.52s-1.68 8.4-5.04 11.52c-3.12 3.12-6.96 4.68-11.52 4.68Zm66.96 0c-4.32 0-8.16-1.56-11.52-4.68-3.36-3.12-5.04-6.96-5.04-11.52s1.68-8.4 5.04-11.52c3.36-3.12 7.2-4.68 11.52-4.68 4.32 0 8.04 1.56 11.16 4.68 3.36 3.12 5.04 6.96 5.04 11.52s-1.68 8.4-5.04 11.52c-3.12 3.12-6.84 4.68-11.16 4.68Zm142.8 214.2c-13.2 0-25.08-3.12-35.64-9.36-10.56-6.24-18.84-15-24.84-26.28-6-11.28-9-24.24-9-38.88V205.2h24.48v101.88c0 15.12 4.44 27.36 13.32 36.72 9.12 9.36 20.64 14.04 34.56 14.04 10.08 0 19.2-2.4 27.36-7.2 8.16-5.04 14.64-11.88 19.44-20.52 4.8-8.64 7.2-18.36 7.2-29.16V205.2h24.48V378h-24.48v-27.72h-.36c-4.32 7.92-11.64 15.12-21.96 21.6-10.08 6.48-21.6 9.72-34.56 9.72Zm198.46 0c-14.4 0-27.84-3.84-40.32-11.52-12.24-7.92-22.08-18.72-29.52-32.4-7.44-13.68-11.16-29.04-11.16-46.08s3.72-32.4 11.16-46.08c7.44-13.68 17.28-24.36 29.52-32.04 12.48-7.92 25.92-11.88 40.32-11.88 14.64 0 27.6 3.48 38.88 10.44 11.28 6.72 19.32 14.4 24.12 23.04h.72V126h24.12v252h-24.12v-29.88h-.72c-4.8 8.64-12.84 16.44-24.12 23.4-11.28 6.72-24.24 10.08-38.88 10.08Zm2.88-23.76c11.04 0 21.12-2.88 30.24-8.64 9.36-5.76 16.8-13.68 22.32-23.76 5.52-10.08 8.28-21.36 8.28-33.84 0-12.72-2.76-24.12-8.28-34.2-5.52-10.08-12.96-17.88-22.32-23.4-9.12-5.76-19.2-8.64-30.24-8.64-10.56 0-20.4 2.88-29.52 8.64-9.12 5.52-16.44 13.32-21.96 23.4-5.28 10.08-7.92 21.48-7.92 34.2 0 12.48 2.64 23.76 7.92 33.84 5.52 10.08 12.84 18 21.96 23.76 9.12 5.76 18.96 8.64 29.52 8.64Zm209.39 23.76c-15.6 0-30-3.96-43.2-11.88-13.2-8.16-23.76-19.08-31.68-32.76-7.92-13.68-11.88-28.8-11.88-45.36 0-16.8 3.84-32.04 11.52-45.72s18-24.48 30.96-32.4c12.96-7.92 27.12-11.88 42.48-11.88 15.12 0 28.8 3.72 41.04 11.16 12.48 7.44 22.32 17.88 29.52 31.32 7.2 13.44 10.8 28.56 10.8 45.36 0 3.84-.24 7.68-.72 11.52h-140.4c1.2 10.56 4.68 20.16 10.44 28.8s13.08 15.48 21.96 20.52c9.12 5.04 19.08 7.56 29.88 7.56 19.92 0 37.56-8.64 52.92-25.92l16.92 15.48c-7.68 9.6-17.4 17.76-29.16 24.48-11.76 6.48-25.56 9.72-41.4 9.72Zm54.72-101.88c-2.16-16.8-8.28-30.12-18.36-39.96-10.08-10.08-22.8-15.12-38.16-15.12-10.08 0-19.56 2.52-28.44 7.56-8.64 4.8-15.84 11.4-21.6 19.8-5.52 8.4-8.88 17.64-10.08 27.72h116.64Zm128.09 101.88c-14.4 0-27.84-3.84-40.32-11.52-12.24-7.92-22.08-18.72-29.52-32.4-7.44-13.68-11.16-29.04-11.16-46.08s3.72-32.4 11.16-46.08c7.44-13.68 17.28-24.36 29.52-32.04 12.48-7.92 25.92-11.88 40.32-11.88 14.64 0 27.6 3.48 38.88 10.44 11.28 6.72 19.32 14.4 24.12 23.04h.72V126h24.12v252h-24.12v-29.88h-.72c-4.8 8.64-12.84 16.44-24.12 23.4-11.28 6.72-24.24 10.08-38.88 10.08Zm2.88-23.76c11.04 0 21.12-2.88 30.24-8.64 9.36-5.76 16.8-13.68 22.32-23.76 5.52-10.08 8.28-21.36 8.28-33.84 0-12.72-2.76-24.12-8.28-34.2-5.52-10.08-12.96-17.88-22.32-23.4-9.12-5.76-19.2-8.64-30.24-8.64-10.56 0-20.4 2.88-29.52 8.64-9.12 5.52-16.44 13.32-21.96 23.4-5.28 10.08-7.92 21.48-7.92 34.2 0 12.48 2.64 23.76 7.92 33.84 5.52 10.08 12.84 18 21.96 23.76 9.12 5.76 18.96 8.64 29.52 8.64ZM2672.47 378V205.2h24.48v27h.36c4.56-7.92 11.88-15 21.96-21.24 10.32-6.24 21.96-9.36 34.92-9.36h7.92v25.2a71.19 71.19 0 0 0-10.08-.72c-10.08 0-19.32 2.52-27.72 7.56-8.4 5.04-15.12 12-20.16 20.88-4.8 8.88-7.2 18.84-7.2 29.88V378h-24.48Zm183.84 3.6c-13.2 0-25.08-3.12-35.64-9.36-10.56-6.24-18.84-15-24.84-26.28-6-11.28-9-24.24-9-38.88V205.2h24.48v101.88c0 15.12 4.44 27.36 13.32 36.72 9.12 9.36 20.64 14.04 34.56 14.04 10.08 0 19.2-2.4 27.36-7.2 8.16-5.04 14.64-11.88 19.44-20.52 4.8-8.64 7.2-18.36 7.2-29.16V205.2h24.48V378h-24.48v-27.72h-.36c-4.32 7.92-11.64 15.12-21.96 21.6-10.08 6.48-21.6 9.72-34.56 9.72Zm204.21 0c-15.6 0-30.12-3.96-43.56-11.88-13.2-8.16-23.76-19.08-31.68-32.76-7.68-13.68-11.52-28.8-11.52-45.36s3.84-31.68 11.52-45.36c7.92-13.68 18.48-24.48 31.68-32.4 13.44-8.16 27.96-12.24 43.56-12.24 15.84 0 29.76 3.6 41.76 10.8 12.24 6.96 21.84 15.12 28.8 24.48l-18 14.76c-14.16-17.52-31.68-26.28-52.56-26.28-11.28 0-21.72 2.88-31.32 8.64-9.36 5.76-16.92 13.8-22.68 24.12-5.52 10.08-8.28 21.24-8.28 33.48 0 12.24 2.76 23.52 8.28 33.84 5.76 10.08 13.32 18 22.68 23.76 9.6 5.76 20.04 8.64 31.32 8.64 11.76 0 22.08-2.64 30.96-7.92 8.88-5.28 16.32-11.64 22.32-19.08l18 14.76c-6.96 9.6-16.68 18-29.16 25.2-12.24 7.2-26.28 10.8-42.12 10.8ZM3218.4 288l91.8 90h-33.12l-87.48-86.76V378h-24.48V126h24.48v160.2l82.44-81h31.68L3218.4 288Z"/>
</svg>
