<svg xmlns="http://www.w3.org/2000/svg" width="4292" height="1097" fill="none" viewBox="0 0 4292 1097">
  <path fill="#000" d="M432 351h38.492l70.559-99h61.387L516.33 371.88 608.459 504h-66.204l-70.649-102.6H432V504h-54V252h54v99Zm312.033 158.4c-25.68 0-48.96-5.88-69.84-17.64-20.88-11.76-37.32-27.6-49.32-47.52-11.76-20.16-17.64-42.24-17.64-66.24 0-24 5.88-46.08 17.64-66.24 12-20.16 28.44-36 49.32-47.52 20.88-11.76 44.16-17.64 69.84-17.64 25.68 0 48.84 5.88 69.48 17.64 20.88 11.52 37.32 27.36 49.32 47.52 12 20.16 18 42.24 18 66.24 0 24-6 46.08-18 66.24-12 19.92-28.44 35.76-49.32 47.52-20.88 11.76-44.04 17.64-69.48 17.64Zm0-49.68c15.12 0 28.92-3.6 41.4-10.8 12.48-7.2 22.32-17.04 29.52-29.52 7.2-12.48 10.8-26.28 10.8-41.4 0-15.12-3.6-28.92-10.8-41.4-7.2-12.48-17.04-22.32-29.52-29.52-12.48-7.44-26.28-11.16-41.4-11.16-15.12 0-29.04 3.6-41.76 10.8-12.48 7.2-22.32 17.16-29.52 29.88-7.2 12.48-10.8 26.28-10.8 41.4 0 15.12 3.6 28.92 10.8 41.4 7.44 12.48 17.4 22.32 29.88 29.52 12.48 7.2 26.28 10.8 41.4 10.8ZM1134.4 504h-58.68l-46.44-86.4h-48.958V504h-54V252h111.598c16.8 0 31.8 3.6 45 10.8 13.44 7.2 23.88 17.16 31.32 29.88 7.44 12.48 11.16 26.52 11.16 42.12 0 16.08-4.08 30.6-12.24 43.56-7.92 12.96-18.84 22.92-32.76 29.88l54 95.76ZM980.322 300.6V369h55.798c10.32 0 18.72-3.24 25.2-9.72 6.72-6.48 10.08-14.64 10.08-24.48s-3.36-18-10.08-24.48c-6.48-6.48-14.88-9.72-25.2-9.72h-55.798ZM1272.76 504h-54V302.4h-73.08V252h199.8v50.4h-72.72V504Zm297.22 0h-189V252h185.4v48.6h-131.4v51.12h102.6v46.8h-102.6v56.88h135V504Zm235.98 0h-54V252h54v99h108v-99h54v252h-54V401.4h-108V504Zm344.58 5.4c-25.68 0-48.96-5.88-69.84-17.64-20.88-11.76-37.32-27.6-49.32-47.52-11.76-20.16-17.64-42.24-17.64-66.24 0-24 5.88-46.08 17.64-66.24 12-20.16 28.44-36 49.32-47.52 20.88-11.76 44.16-17.64 69.84-17.64 25.68 0 48.84 5.88 69.48 17.64 20.88 11.52 37.32 27.36 49.32 47.52 12 20.16 18 42.24 18 66.24 0 24-6 46.08-18 66.24-12 19.92-28.44 35.76-49.32 47.52-20.88 11.76-44.04 17.64-69.48 17.64Zm0-49.68c15.12 0 28.92-3.6 41.4-10.8 12.48-7.2 22.32-17.04 29.52-29.52 7.2-12.48 10.8-26.28 10.8-41.4 0-15.12-3.6-28.92-10.8-41.4-7.2-12.48-17.04-22.32-29.52-29.52-12.48-7.44-26.28-11.16-41.4-11.16-15.12 0-29.04 3.6-41.76 10.8-12.48 7.2-22.32 17.16-29.52 29.88-7.2 12.48-10.8 26.28-10.8 41.4 0 15.12 3.6 28.92 10.8 41.4 7.44 12.48 17.4 22.32 29.88 29.52 12.48 7.2 26.28 10.8 41.4 10.8ZM2386.83 504h-54V252h183.6v51.12h-129.6v57.6h100.8v49.68h-100.8V504Zm222.76 0h-54V252h183.6v51.12h-129.6v57.6h100.8v49.68h-100.8V504Zm222.4 0h-53.64V252h69.84l83.16 182.16h1.08l82.8-182.16h67.32v252h-53.28V332.64h-1.44L2947.91 504h-34.92l-79.56-171.36h-1.44V504Zm339.22 0h-56.52l97.92-252h60.12l97.56 252h-57.24l-21.24-56.88h-99.72L3171.21 504Zm70.2-196.92-33.48 94.32h68.04l-33.48-94.32h-1.08ZM3455.73 504h-53.28V252h47.88l122.76 162h1.44V252h52.92v252h-47.52l-123.12-162.36h-1.08V504Zm285.69 0h-53.28V252h47.88l122.76 162h1.44V252h52.92v252h-47.52L3742.5 341.64h-1.08V504Zm228.38 1c-6.73 0-12.9-1.6-18.5-4.8-5.6-3.2-10.03-7.533-13.3-13-3.2-5.533-4.8-11.6-4.8-18.2s1.6-12.633 4.8-18.1c3.27-5.533 7.7-9.9 13.3-13.1 5.6-3.2 11.77-4.8 18.5-4.8 6.8 0 13 1.6 18.6 4.8 5.6 3.2 10 7.567 13.2 13.1 3.27 5.467 4.9 11.5 4.9 18.1 0 6.6-1.63 12.667-4.9 18.2-3.2 5.467-7.6 9.8-13.2 13-5.6 3.2-11.8 4.8-18.6 4.8Zm0-6.2c5.47 0 10.47-1.3 15-3.9 4.6-2.667 8.23-6.267 10.9-10.8 2.67-4.6 4-9.633 4-15.1 0-5.467-1.33-10.467-4-15-2.67-4.6-6.3-8.2-10.9-10.8-4.53-2.667-9.53-4-15-4-5.47 0-10.47 1.333-15 4-4.53 2.6-8.13 6.2-10.8 10.8-2.67 4.533-4 9.533-4 15 0 5.467 1.33 10.5 4 15.1 2.67 4.533 6.27 8.133 10.8 10.8 4.53 2.6 9.53 3.9 15 3.9Zm-12.6-11.3v-37h14.3c3.67 0 6.7 1.133 9.1 3.4 2.47 2.267 3.7 5.033 3.7 8.3 0 2.533-.73 4.667-2.2 6.4-1.4 1.733-3 2.933-4.8 3.6l8.5 15.3h-7l-7.3-13.7h-7.8v13.7h-6.5Zm14.3-19.8c2.07 0 3.63-.5 4.7-1.5 1.07-1 1.6-2.333 1.6-4 0-1.733-.53-3.067-1.6-4-1.07-1-2.63-1.5-4.7-1.5h-7.8v11h7.8ZM992.97 844.2h-25.11l76.41-189h26.46l76.41 189h-25.92l-20.52-50.76h-87.48l-20.25 50.76Zm63.72-160.38-34.56 86.94h69.66l-34.56-86.94h-.54ZM1170.3 844.2V714.6h22.14v18.9h.27c3.6-5.58 9-10.53 16.2-14.85 7.38-4.5 15.66-6.75 24.84-6.75h6.21v22.95c-4.32-.54-7.29-.81-8.91-.81-7.02 0-13.5 1.8-19.44 5.4-5.76 3.6-10.44 8.64-14.04 15.12-3.42 6.3-5.13 13.41-5.13 21.33v68.31h-22.14Zm148.06 2.7c-12.06 0-23.13-2.97-33.21-8.91-10.08-6.12-18.09-14.31-24.03-24.57-5.94-10.26-8.91-21.6-8.91-34.02 0-12.42 2.97-23.76 8.91-34.02 5.94-10.26 13.95-18.36 24.03-24.3 10.08-6.12 21.15-9.18 33.21-9.18 12.06 0 22.68 2.7 31.86 8.1 9.36 5.22 16.65 11.25 21.87 18.09l-15.93 13.5c-4.32-5.22-9.63-9.63-15.93-13.23-6.3-3.6-13.59-5.4-21.87-5.4-8.1 0-15.48 2.07-22.14 6.21-6.66 3.96-11.97 9.54-15.93 16.74-3.96 7.02-5.94 14.85-5.94 23.49 0 8.64 1.98 16.56 5.94 23.76 3.96 7.02 9.27 12.6 15.93 16.74 6.66 3.96 14.04 5.94 22.14 5.94 8.28 0 15.66-1.8 22.14-5.4 6.66-3.78 12.15-8.37 16.47-13.77l16.2 13.5c-5.58 7.2-13.14 13.5-22.68 18.9-9.36 5.22-20.07 7.83-32.13 7.83Zm82.64-2.7v-189h22.14v79.11h.27c3.6-5.76 9.09-10.89 16.47-15.39 7.38-4.68 15.75-7.02 25.11-7.02 9.9 0 18.72 2.34 26.46 7.02 7.92 4.68 14.04 11.25 18.36 19.71 4.5 8.46 6.75 18.27 6.75 29.43v76.14h-21.87v-76.14c0-10.44-3.15-18.9-9.45-25.38-6.3-6.48-14.31-9.72-24.03-9.72-10.8 0-19.89 3.78-27.27 11.34-7.2 7.56-10.8 17.19-10.8 28.89v71.01H1401Zm176.24 0h-22.14V714.6h22.14v129.6Zm-11.07-156.06c-3.78 0-7.11-1.35-9.99-4.05-2.7-2.7-4.05-6.03-4.05-9.99s1.35-7.29 4.05-9.99c2.88-2.7 6.21-4.05 9.99-4.05 3.6 0 6.75 1.35 9.45 4.05 2.88 2.7 4.32 6.03 4.32 9.99s-1.44 7.29-4.32 9.99c-2.7 2.7-5.85 4.05-9.45 4.05Zm100.38 157.41c-12.06 0-21.42-3.42-28.08-10.26-6.48-7.02-9.72-17.1-9.72-30.24v-69.39h-24.57V714.6h15.66c7.56 0 11.34-4.5 11.34-13.5v-29.7h19.71v43.2h31.59v21.06h-31.59v67.5c0 7.02 1.71 12.33 5.13 15.93 3.42 3.6 8.19 5.4 14.31 5.4 5.04 0 10.26-1.35 15.66-4.05v21.06c-2.16 1.08-5.04 1.98-8.64 2.7-3.42.9-7.02 1.35-10.8 1.35Zm102.6 1.35c-12.06 0-23.13-2.97-33.21-8.91-10.08-6.12-18.09-14.31-24.03-24.57-5.94-10.26-8.91-21.6-8.91-34.02 0-12.6 2.88-24.03 8.64-34.29 5.94-10.26 13.86-18.36 23.76-24.3 9.9-5.94 20.7-8.91 32.4-8.91 11.52 0 22.05 2.79 31.59 8.37 9.54 5.58 17.01 13.32 22.41 23.22 5.4 9.72 8.1 20.79 8.1 33.21 0 2.88-.27 6.48-.81 10.8h-103.14c1.44 10.8 6.3 19.89 14.58 27.27 8.28 7.38 18.18 11.07 29.7 11.07 14.22 0 26.91-5.94 38.07-17.82l14.85 13.77c-5.22 6.84-12.51 12.78-21.87 17.82-9.18 4.86-19.89 7.29-32.13 7.29Zm38.07-77.76c-1.8-11.34-6.21-20.34-13.23-27-6.84-6.66-15.57-9.99-26.19-9.99-10.98 0-20.25 3.51-27.81 10.53-7.56 6.84-12.33 15.66-14.31 26.46h81.54Zm74.89 75.06h-22.14v-189h22.14v124.74l60.75-65.34h27.81l-49.41 52.65 54.27 76.95h-25.65l-43.2-61.29-24.57 26.19v35.1Zm159.71 1.35c-12.06 0-21.42-3.42-28.08-10.26-6.48-7.02-9.72-17.1-9.72-30.24v-69.39h-24.57V714.6h15.66c7.56 0 11.34-4.5 11.34-13.5v-29.7h19.71v43.2h31.59v21.06h-31.59v67.5c0 7.02 1.71 12.33 5.13 15.93 3.42 3.6 8.19 5.4 14.31 5.4 5.04 0 10.26-1.35 15.66-4.05v21.06c-2.16 1.08-5.04 1.98-8.64 2.7-3.42.9-7.02 1.35-10.8 1.35Zm102.6 1.35c-12.06 0-23.13-2.97-33.21-8.91-10.08-6.12-18.09-14.31-24.03-24.57-5.94-10.26-8.91-21.6-8.91-34.02 0-12.6 2.88-24.03 8.64-34.29 5.94-10.26 13.86-18.36 23.76-24.3 9.9-5.94 20.7-8.91 32.4-8.91 11.52 0 22.05 2.79 31.59 8.37 9.54 5.58 17.01 13.32 22.41 23.22 5.4 9.72 8.1 20.79 8.1 33.21 0 2.88-.27 6.48-.81 10.8h-103.14c1.44 10.8 6.3 19.89 14.58 27.27 8.28 7.38 18.18 11.07 29.7 11.07 14.22 0 26.91-5.94 38.07-17.82l14.85 13.77c-5.22 6.84-12.51 12.78-21.87 17.82-9.18 4.86-19.89 7.29-32.13 7.29Zm38.07-77.76c-1.8-11.34-6.21-20.34-13.23-27-6.84-6.66-15.57-9.99-26.19-9.99-10.98 0-20.25 3.51-27.81 10.53-7.56 6.84-12.33 15.66-14.31 26.46h81.54Zm51.39 75.06V714.6h22.14v19.71h.27c3.6-5.76 9.09-10.89 16.47-15.39 7.38-4.68 15.75-7.02 25.11-7.02 9.9 0 18.72 2.34 26.46 7.02 7.92 4.68 14.04 11.25 18.36 19.71 4.5 8.46 6.75 18.27 6.75 29.43v76.14h-21.87v-76.14c0-10.44-3.15-18.9-9.45-25.38-6.3-6.48-14.31-9.72-24.03-9.72-10.8 0-19.89 3.78-27.27 11.34-7.2 7.56-10.8 17.19-10.8 28.89v71.01h-22.14Zm276.03-19.44h-19.17v-49.95h-49.14v-20.25h49.14v-49.95h19.17v49.95h49.14v20.25h-49.14v49.95Zm176.04 19.44h-24.3v-189h24.3v189Zm46.29 0V714.6h22.14v19.71h.27c3.6-5.76 9.09-10.89 16.47-15.39 7.38-4.68 15.75-7.02 25.11-7.02 9.9 0 18.72 2.34 26.46 7.02 7.92 4.68 14.04 11.25 18.36 19.71 4.5 8.46 6.75 18.27 6.75 29.43v76.14h-21.87v-76.14c0-10.44-3.15-18.9-9.45-25.38-6.3-6.48-14.31-9.72-24.03-9.72-10.8 0-19.89 3.78-27.27 11.34-7.2 7.56-10.8 17.19-10.8 28.89v71.01h-22.14Zm204.89 56.7c-11.88 0-23.04-2.88-33.48-8.64-10.26-5.58-17.64-11.7-22.14-18.36l15.66-14.31c3.42 5.04 8.82 9.63 16.2 13.77 7.56 4.32 15.48 6.48 23.76 6.48 12.6 0 22.68-4.23 30.24-12.69 7.74-8.46 11.61-19.44 11.61-32.94v-15.12h-.27c-4.14 6.3-10.17 11.61-18.09 15.93s-16.47 6.48-25.65 6.48c-10.44 0-20.16-2.79-29.16-8.37-9-5.58-16.2-13.32-21.6-23.22-5.22-9.9-7.83-20.97-7.83-33.21 0-12.24 2.61-23.31 7.83-33.21 5.4-9.9 12.6-17.64 21.6-23.22 9-5.58 18.72-8.37 29.16-8.37 9.9 0 18.72 2.34 26.46 7.02 7.92 4.68 13.68 9.81 17.28 15.39h.27V714.6h22.14v119.61c0 12.6-2.79 23.94-8.37 34.02-5.4 10.26-12.96 18.27-22.68 24.03-9.72 5.76-20.7 8.64-32.94 8.64Zm1.35-80.46c7.56 0 14.4-1.89 20.52-5.67 6.12-3.78 10.98-8.91 14.58-15.39 3.6-6.66 5.4-14.22 5.4-22.68 0-8.46-1.8-15.93-5.4-22.41-3.6-6.66-8.46-11.88-14.58-15.66-6.12-3.78-12.96-5.67-20.52-5.67-7.2 0-13.86 1.89-19.98 5.67-6.12 3.78-10.98 9-14.58 15.66-3.6 6.66-5.4 14.13-5.4 22.41s1.8 15.75 5.4 22.41c3.6 6.66 8.46 11.88 14.58 15.66 6.12 3.78 12.78 5.67 19.98 5.67Zm158.67 26.46c-12.06 0-23.13-2.97-33.21-8.91-10.08-6.12-18.09-14.31-24.03-24.57-5.94-10.26-8.91-21.6-8.91-34.02 0-12.6 2.88-24.03 8.64-34.29 5.94-10.26 13.86-18.36 23.76-24.3 9.9-5.94 20.7-8.91 32.4-8.91 11.52 0 22.05 2.79 31.59 8.37 9.54 5.58 17.01 13.32 22.41 23.22 5.4 9.72 8.1 20.79 8.1 33.21 0 2.88-.27 6.48-.81 10.8h-103.14c1.44 10.8 6.3 19.89 14.58 27.27 8.28 7.38 18.18 11.07 29.7 11.07 14.22 0 26.91-5.94 38.07-17.82l14.85 13.77c-5.22 6.84-12.51 12.78-21.87 17.82-9.18 4.86-19.89 7.29-32.13 7.29Zm38.07-77.76c-1.8-11.34-6.21-20.34-13.23-27-6.84-6.66-15.57-9.99-26.19-9.99-10.98 0-20.25 3.51-27.81 10.53-7.56 6.84-12.33 15.66-14.31 26.46h81.54Zm51.4 75.06V714.6h22.14v19.71h.27c3.6-5.76 9.09-10.89 16.47-15.39 7.38-4.68 15.75-7.02 25.11-7.02 9.9 0 18.72 2.34 26.46 7.02 7.92 4.68 14.04 11.25 18.36 19.71 4.5 8.46 6.75 18.27 6.75 29.43v76.14h-21.87v-76.14c0-10.44-3.15-18.9-9.45-25.38-6.3-6.48-14.31-9.72-24.03-9.72-10.8 0-19.89 3.78-27.27 11.34-7.2 7.56-10.8 17.19-10.8 28.89v71.01h-22.14Zm176.26 0h-22.14V714.6h22.14v129.6Zm-11.07-156.06c-3.78 0-7.11-1.35-9.99-4.05-2.7-2.7-4.05-6.03-4.05-9.99s1.35-7.29 4.05-9.99c2.88-2.7 6.21-4.05 9.99-4.05 3.6 0 6.75 1.35 9.45 4.05 2.88 2.7 4.32 6.03 4.32 9.99s-1.44 7.29-4.32 9.99c-2.7 2.7-5.85 4.05-9.45 4.05Zm108.48 158.76c-12.06 0-23.13-2.97-33.21-8.91-10.08-6.12-18.09-14.31-24.03-24.57-5.94-10.26-8.91-21.6-8.91-34.02 0-12.6 2.88-24.03 8.64-34.29 5.94-10.26 13.86-18.36 23.76-24.3 9.9-5.94 20.7-8.91 32.4-8.91 11.52 0 22.05 2.79 31.59 8.37 9.54 5.58 17.01 13.32 22.41 23.22 5.4 9.72 8.1 20.79 8.1 33.21 0 2.88-.27 6.48-.81 10.8h-103.14c1.44 10.8 6.3 19.89 14.58 27.27 8.28 7.38 18.18 11.07 29.7 11.07 14.22 0 26.91-5.94 38.07-17.82l14.85 13.77c-5.22 6.84-12.51 12.78-21.87 17.82-9.18 4.86-19.89 7.29-32.13 7.29Zm38.07-77.76c-1.8-11.34-6.21-20.34-13.23-27-6.84-6.66-15.57-9.99-26.19-9.99-10.98 0-20.25 3.51-27.81 10.53-7.56 6.84-12.33 15.66-14.31 26.46h81.54Zm101.89 77.76c-9.9 0-18.81-2.34-26.73-7.02-7.74-4.68-13.86-11.25-18.36-19.71s-6.75-18.27-6.75-29.43V714.6h22.14v76.14c0 10.44 3.06 18.9 9.18 25.38 6.3 6.48 14.31 9.72 24.03 9.72 7.2 0 13.68-1.71 19.44-5.13 5.94-3.42 10.53-8.19 13.77-14.31 3.42-6.12 5.13-13.05 5.13-20.79V714.6h21.87v129.6h-21.87v-19.71h-.27c-3.42 5.76-8.91 10.98-16.47 15.66-7.56 4.5-15.93 6.75-25.11 6.75Zm102.28-2.7V714.6h22.14v18.9h.27c3.6-5.58 9-10.53 16.2-14.85 7.38-4.5 15.66-6.75 24.84-6.75h6.21v22.95c-4.32-.54-7.29-.81-8.91-.81-7.02 0-13.5 1.8-19.44 5.4-5.76 3.6-10.44 8.64-14.04 15.12-3.42 6.3-5.13 13.41-5.13 21.33v68.31h-22.14Zm148.06 2.7c-12.06 0-23.13-2.97-33.21-8.91-10.08-6.12-18.09-14.31-24.03-24.57-5.94-10.26-8.91-21.6-8.91-34.02 0-12.6 2.88-24.03 8.64-34.29 5.94-10.26 13.86-18.36 23.76-24.3 9.9-5.94 20.7-8.91 32.4-8.91 11.52 0 22.05 2.79 31.59 8.37 9.54 5.58 17.01 13.32 22.41 23.22 5.4 9.72 8.1 20.79 8.1 33.21 0 2.88-.27 6.48-.81 10.8h-103.14c1.44 10.8 6.3 19.89 14.58 27.27 8.28 7.38 18.18 11.07 29.7 11.07 14.22 0 26.91-5.94 38.07-17.82l14.85 13.77c-5.22 6.84-12.51 12.78-21.87 17.82-9.18 4.86-19.89 7.29-32.13 7.29Zm38.07-77.76c-1.8-11.34-6.21-20.34-13.23-27-6.84-6.66-15.57-9.99-26.19-9.99-10.98 0-20.25 3.51-27.81 10.53-7.56 6.84-12.33 15.66-14.31 26.46h81.54Z"/>
</svg>
