<svg xmlns="http://www.w3.org/2000/svg" width="7336" height="756" fill="none" viewBox="0 0 7336 756">
  <path fill="#fff" d="M3946.78 504h-66.6V252h59.4l108.36 140.4h1.44V252h66.6v252h-59.4l-108.36-140.4h-1.44V504Zm-297.56 0h-66.6V252h59.4l108.36 140.4h1.44V252h66.6v252h-59.4l-108.36-140.4h-1.44V504Zm-297.6 0h-72l94.68-252h77.04l94.68 252h-72.72l-16.92-48.6h-87.84l-16.92 48.6Zm60.12-187.2-25.92 82.8h53.28l-25.92-82.8h-1.44ZM2991.77 504h-67.32V252h86.4l73.8 162h.72l73.44-162h84.24v252h-67.32V352.08h-1.44L3103.37 504h-39.24l-70.92-151.92h-1.44V504Zm-235.2 0h-68.39V252h190.8v64.8h-122.41V360h93.61v61.2h-93.61V504Zm-236.27 0h-68.4V252h190.8v64.8h-122.4V360h93.6v61.2h-93.6V504Zm-256.13 7.201c-26.4 0-50.4-5.88-72-17.64-21.36-12-38.16-28.08-50.4-48.24-12-20.4-18-42.84-18-67.32 0-24.48 6-46.8 18-66.96 12.24-20.4 29.04-36.48 50.4-48.24 21.6-12 45.6-18 72-18s50.28 6 71.64 18c21.6 11.76 38.4 27.84 50.4 48.24 12.24 20.16 18.36 42.48 18.36 66.96 0 24.48-6.12 46.92-18.36 67.32-12 20.16-28.8 36.24-50.4 48.24-21.36 11.76-45.24 17.64-71.64 17.64Zm0-63c12.96 0 24.72-3.12 35.28-9.36 10.8-6.24 19.32-14.64 25.56-25.2 6.24-10.8 9.36-22.68 9.36-35.64s-3.12-24.72-9.36-35.28c-6.24-10.8-14.76-19.32-25.56-25.56-10.56-6.24-22.32-9.36-35.28-9.36s-24.84 3.12-35.64 9.36c-10.56 6.24-18.96 14.76-25.2 25.56-6.24 10.56-9.36 22.32-9.36 35.28s3.12 24.84 9.36 35.64c6.24 10.56 14.64 18.96 25.2 25.2 10.8 6.24 22.68 9.36 35.64 9.36ZM1916.4 504H1848V252h68.4v91.8h91.8V252h68.4v252h-68.4v-95.4h-91.8V504Zm-265.16 0h-196.2V252h192.6v61.2h-124.2v35.28h95.4v57.6h-95.4v36.72h127.8V504Zm-308.44 0h-68.4V316.8h-70.2V252H1413v64.8h-70.2V504Zm-163.23 0h-72l-41.4-79.2h-37.8V504h-68.398V252h118.798c17.76 0 33.6 3.84 47.52 11.52 13.92 7.44 24.72 17.76 32.4 30.96 7.92 13.2 11.88 27.84 11.88 43.92 0 15.6-3.72 29.88-11.16 42.84-7.44 12.96-17.76 23.28-30.96 30.96l51.12 91.8Zm-151.2-190.8v50.4h46.8c7.92 0 14.4-2.4 19.44-7.2 5.04-4.8 7.56-10.8 7.56-18 0-7.2-2.52-13.2-7.56-18-5.04-4.8-11.52-7.2-19.44-7.2h-46.8ZM772.245 511.201c-26.4 0-50.4-5.88-72-17.64-21.36-12-38.16-28.08-50.4-48.24-12-20.4-18-42.84-18-67.32 0-24.48 6-46.8 18-66.96 12.24-20.4 29.04-36.48 50.4-48.24 21.6-12 45.6-18 72-18s50.28 6 71.64 18c21.6 11.76 38.4 27.84 50.4 48.24 12.24 20.16 18.36 42.48 18.36 66.96 0 24.48-6.12 46.92-18.36 67.32-12 20.16-28.8 36.24-50.4 48.24-21.36 11.76-45.24 17.64-71.64 17.64Zm0-63c12.96 0 24.72-3.12 35.28-9.36 10.8-6.24 19.32-14.64 25.56-25.2 6.24-10.8 9.36-22.68 9.36-35.64s-3.12-24.72-9.36-35.28c-6.24-10.8-14.76-19.32-25.56-25.56-10.56-6.24-22.32-9.36-35.28-9.36s-24.84 3.12-35.64 9.36c-10.56 6.24-18.96 14.76-25.2 25.56-6.24 10.56-9.36 22.32-9.36 35.28s3.12 24.84 9.36 35.64c6.24 10.56 14.64 18.96 25.2 25.2 10.8 6.24 22.68 9.36 35.64 9.36ZM446.4 343.797h36.407L547.031 252h75.548l-84.12 118.44L629.203 504h-81.841l-63.928-95.403H446.4V504H378V252h68.4v91.797Zm6429.69 69.123 81.72 91.08h-46.08l-74.52-85.32V504h-36V252h36v158.76l71.64-79.56h43.56l-76.32 81.72Zm-204.92 94.682c-16.56 0-31.8-3.96-45.72-11.88-13.68-7.92-24.48-18.72-32.4-32.4-7.92-13.92-11.88-29.16-11.88-45.72s3.96-31.68 11.88-45.36c7.92-13.92 18.72-24.84 32.4-32.76 13.92-7.92 29.16-11.88 45.72-11.88 16.32 0 30.72 3.48 43.2 10.44 12.48 6.72 22.44 14.76 29.88 24.12l-25.92 21.96c-13.44-14.88-29.16-22.32-47.16-22.32-10.08 0-19.32 2.4-27.72 7.2-8.16 4.8-14.64 11.52-19.44 20.16-4.56 8.4-6.84 17.88-6.84 28.44 0 10.56 2.28 20.16 6.84 28.8 4.8 8.4 11.28 15 19.44 19.8 8.4 4.8 17.64 7.2 27.72 7.2 10.32 0 19.56-2.16 27.72-6.48 8.4-4.56 15.48-10.2 21.24-16.92l25.92 21.96c-7.68 9.6-18 18-30.96 25.2-12.96 6.96-27.6 10.44-43.92 10.44Zm-238.67-.007c-13.2 0-24.96-3-35.28-9-10.32-6.24-18.48-15-24.48-26.28-5.76-11.52-8.64-24.96-8.64-40.32v-100.8h36v100.8c0 12.48 3.6 22.56 10.8 30.24 7.44 7.44 17.04 11.16 28.8 11.16 13.68 0 24.84-4.44 33.48-13.32 8.88-9.12 13.32-20.88 13.32-35.28v-93.6h36v172.8h-36v-24.48h-.36c-4.56 7.2-11.76 13.68-21.6 19.44-9.6 5.76-20.28 8.64-32.04 8.64Zm-215.33-3.593v-172.8h36v22.68h.72c4.56-6.72 11.4-12.72 20.52-18 9.36-5.52 19.68-8.28 30.96-8.28h9v37.8c-5.52-1.2-10.32-1.8-14.4-1.8-8.4 0-16.2 2.28-23.4 6.84-7.2 4.32-12.96 10.56-17.28 18.72-4.08 7.92-6.12 16.8-6.12 26.64v88.2h-36ZM6050.4 507.6c-14.4 0-27.84-3.84-40.32-11.52-12.24-7.92-22.08-18.72-29.52-32.4-7.44-13.68-11.16-29.04-11.16-46.08s3.72-32.4 11.16-46.08c7.44-13.68 17.28-24.36 29.52-32.04 12.48-7.92 25.92-11.88 40.32-11.88 13.44 0 25.44 2.88 36 8.64 10.8 5.76 18.48 12.24 23.04 19.44h.36V252h36v252h-36v-24.48h-.36c-4.56 7.2-12.24 13.68-23.04 19.44-10.56 5.76-22.56 8.64-36 8.64Zm7.2-34.2c9.6 0 18.36-2.4 26.28-7.2 7.92-4.8 14.16-11.4 18.72-19.8 4.8-8.64 7.2-18.24 7.2-28.8 0-10.56-2.4-20.04-7.2-28.44-4.56-8.64-10.8-15.36-18.72-20.16-7.92-4.8-16.68-7.2-26.28-7.2-9.6 0-18.36 2.4-26.28 7.2-7.92 4.8-14.28 11.52-19.08 20.16-4.56 8.4-6.84 17.88-6.84 28.44 0 10.56 2.28 20.16 6.84 28.8 4.8 8.4 11.16 15 19.08 19.8 7.92 4.8 16.68 7.2 26.28 7.2Zm-216.88 34.202c-16.56 0-31.8-3.96-45.72-11.88-13.68-7.92-24.48-18.72-32.4-32.4-7.92-13.92-11.88-29.16-11.88-45.72s3.96-31.68 11.88-45.36c7.92-13.68 18.6-24.48 32.04-32.4 13.44-8.16 28.2-12.24 44.28-12.24 16.08 0 30.48 3.72 43.2 11.16 12.96 7.2 23.04 17.28 30.24 30.24 7.44 12.72 11.16 27.12 11.16 43.2 0 6.48-.6 12.48-1.8 18h-133.2c1.92 12 7.92 22.2 18 30.6 10.08 8.4 22.08 12.6 36 12.6 17.52 0 33.72-6.96 48.6-20.88l23.4 23.04c-6.72 8.4-16.56 15.84-29.52 22.32-12.72 6.48-27.48 9.72-44.28 9.72Zm45.36-106.2c-2.64-12.72-8.04-22.8-16.2-30.24-8.16-7.44-18.48-11.16-30.96-11.16-13.44 0-24.48 3.72-33.12 11.16-8.4 7.44-14.4 17.52-18 30.24h98.28ZM5594.75 507.6c-14.4 0-27.84-3.84-40.32-11.52-12.24-7.92-22.08-18.72-29.52-32.4-7.44-13.68-11.16-29.04-11.16-46.08s3.72-32.4 11.16-46.08c7.44-13.68 17.28-24.36 29.52-32.04 12.48-7.92 25.92-11.88 40.32-11.88 13.44 0 25.44 2.88 36 8.64 10.8 5.76 18.48 12.24 23.04 19.44h.36V252h36v252h-36v-24.48h-.36c-4.56 7.2-12.24 13.68-23.04 19.44-10.56 5.76-22.56 8.64-36 8.64Zm7.2-34.2c9.6 0 18.36-2.4 26.28-7.2 7.92-4.8 14.16-11.4 18.72-19.8 4.8-8.64 7.2-18.24 7.2-28.8 0-10.56-2.4-20.04-7.2-28.44-4.56-8.64-10.8-15.36-18.72-20.16-7.92-4.8-16.68-7.2-26.28-7.2-9.6 0-18.36 2.4-26.28 7.2-7.92 4.8-14.28 11.52-19.08 20.16-4.56 8.4-6.84 17.88-6.84 28.44 0 10.56 2.28 20.16 6.84 28.8 4.8 8.4 11.16 15 19.08 19.8 7.92 4.8 16.68 7.2 26.28 7.2Zm-236.87 34.195c-13.2 0-24.96-3-35.28-9-10.32-6.24-18.48-15-24.48-26.28-5.76-11.52-8.64-24.96-8.64-40.32v-100.8h36v100.8c0 12.48 3.6 22.56 10.8 30.24 7.44 7.44 17.04 11.16 28.8 11.16 13.68 0 24.84-4.44 33.48-13.32 8.88-9.12 13.32-20.88 13.32-35.28v-93.6h36v172.8h-36v-24.48h-.36c-4.56 7.2-11.76 13.68-21.6 19.44-9.6 5.76-20.28 8.64-32.04 8.64Zm-206.03-179.993c14.16 0 26.64 2.88 37.44 8.64 11.04 5.76 19.56 13.8 25.56 24.12 6 10.08 9 21.36 9 33.84v109.8h-34.2v-24.48h-.36c-4.56 7.2-12 13.68-22.32 19.44-10.32 5.76-21.72 8.64-34.2 8.64-11.28 0-21.36-2.28-30.24-6.84-8.88-4.56-15.84-10.68-20.88-18.36-4.8-7.92-7.2-16.32-7.2-25.2 0-14.4 4.68-26.4 14.04-36 9.6-9.6 22.92-15.84 39.96-18.72l59.4-10.08v-.72c0-8.88-3.48-16.32-10.44-22.32-6.72-6.24-15.24-9.36-25.56-9.36-9.36 0-17.64 2.16-24.84 6.48-7.2 4.08-14.04 9.6-20.52 16.56l-23.04-22.32c18.96-22.08 41.76-33.12 68.4-33.12Zm-12.6 149.4c8.88 0 17.04-2.16 24.48-6.48 7.44-4.56 13.32-10.68 17.64-18.36s6.48-16.2 6.48-25.56v-5.4l-50.4 9c-8.64 1.68-15.36 4.68-20.16 9-4.56 4.08-6.84 8.88-6.84 14.4 0 6.48 2.64 12 7.92 16.56 5.28 4.56 12.24 6.84 20.88 6.84Zm-18-178.2c-5.52 0-10.56-2.04-15.12-6.12-4.32-4.32-6.48-9.48-6.48-15.48s2.16-11.04 6.48-15.12c4.56-4.32 9.6-6.48 15.12-6.48s10.44 2.16 14.76 6.48c4.56 4.08 6.84 9.12 6.84 15.12s-2.28 11.16-6.84 15.48c-4.32 4.08-9.24 6.12-14.76 6.12Zm72 0c-5.52 0-10.56-2.04-15.12-6.12-4.32-4.32-6.48-9.48-6.48-15.48s2.16-11.04 6.48-15.12c4.56-4.32 9.6-6.48 15.12-6.48s10.44 2.16 14.76 6.48c4.56 4.08 6.84 9.12 6.84 15.12s-2.28 11.16-6.84 15.48c-4.32 4.08-9.24 6.12-14.76 6.12ZM4952.68 507.6c-13.44 0-25.56-2.88-36.36-8.64-10.56-5.76-18.12-12.24-22.68-19.44h-.36V504h-36V252h36v103.68h.36c4.56-7.2 12.12-13.68 22.68-19.44 10.8-5.76 22.92-8.64 36.36-8.64 14.4 0 27.72 3.96 39.96 11.88 12.48 7.68 22.44 18.36 29.88 32.04 7.44 13.68 11.16 29.04 11.16 46.08s-3.72 32.4-11.16 46.08c-7.44 13.68-17.4 24.48-29.88 32.4-12.24 7.68-25.56 11.52-39.96 11.52Zm-7.2-34.2c9.6 0 18.36-2.4 26.28-7.2 7.92-4.8 14.16-11.4 18.72-19.8 4.8-8.64 7.2-18.24 7.2-28.8 0-10.56-2.4-20.04-7.2-28.44-4.56-8.64-10.8-15.36-18.72-20.16-7.92-4.8-16.68-7.2-26.28-7.2-9.6 0-18.36 2.4-26.28 7.2-7.92 4.8-14.28 11.52-19.08 20.16-4.56 8.4-6.84 17.88-6.84 28.44 0 10.56 2.28 20.16 6.84 28.8 4.8 8.4 11.16 15 19.08 19.8 7.92 4.8 16.68 7.2 26.28 7.2Zm-229.49 34.202c-16.56 0-31.8-3.96-45.72-11.88-13.68-7.92-24.48-18.72-32.4-32.4-7.92-13.92-11.88-29.16-11.88-45.72s3.96-31.68 11.88-45.36c7.92-13.68 18.6-24.48 32.04-32.4 13.44-8.16 28.2-12.24 44.28-12.24 16.08 0 30.48 3.72 43.2 11.16 12.96 7.2 23.04 17.28 30.24 30.24 7.44 12.72 11.16 27.12 11.16 43.2 0 6.48-.6 12.48-1.8 18h-133.2c1.92 12 7.92 22.2 18 30.6 10.08 8.4 22.08 12.6 36 12.6 17.52 0 33.72-6.96 48.6-20.88l23.4 23.04c-6.72 8.4-16.56 15.84-29.52 22.32-12.72 6.48-27.48 9.72-44.28 9.72Zm45.36-106.2c-2.64-12.72-8.04-22.8-16.2-30.24-8.16-7.44-18.48-11.16-30.96-11.16-13.44 0-24.48 3.72-33.12 11.16-8.4 7.44-14.4 17.52-18 30.24h98.28Zm-300.17 106.196c-24.72 0-47.28-5.76-67.68-17.28-20.4-11.52-36.48-27.12-48.24-46.8-11.52-19.92-17.28-41.76-17.28-65.52 0-23.76 5.76-45.48 17.28-65.16 11.76-19.92 27.84-35.64 48.24-47.16 20.4-11.52 42.96-17.28 67.68-17.28 22.8 0 42.96 4.8 60.48 14.4 17.76 9.6 31.8 20.88 42.12 33.84l-27.72 22.68c-8.88-10.08-19.32-18.36-31.32-24.84-11.76-6.72-26.28-10.08-43.56-10.08-17.04 0-32.76 4.2-47.16 12.6-14.4 8.16-25.8 19.44-34.2 33.84-8.16 14.4-12.24 30.12-12.24 47.16 0 17.04 4.08 32.76 12.24 47.16 8.4 14.4 19.8 25.8 34.2 34.2 14.4 8.16 30.12 12.24 47.16 12.24 14.88 0 28.44-2.76 40.68-8.28 12.48-5.52 21.72-11.76 27.72-18.72v-39.6h-54v-34.2h93.6v88.2c-6 7.68-14.4 15.24-25.2 22.68-10.56 7.44-23.04 13.68-37.44 18.72-14.16 4.8-29.28 7.2-45.36 7.2Z"/>
</svg>
