<svg xmlns="http://www.w3.org/2000/svg" width="3183" height="756" fill="none" viewBox="0 0 3183 756">
  <path fill="#000" d="M432 351h41.453l71.713-99h61.51L519.16 371.88 612.796 504h-66.405l-71.805-102.6H432V504h-54V252h54v99Zm260.252 153h-54V252h54v99h108v-99h54v252h-54V401.4h-108V504Zm238 1c-6.867 0-13.133-1.6-18.8-4.8-5.667-3.2-10.133-7.533-13.4-13-3.2-5.533-4.8-11.6-4.8-18.2s1.6-12.633 4.8-18.1c3.267-5.533 7.733-9.9 13.4-13.1 5.667-3.2 11.933-4.8 18.8-4.8 6.867 0 13.133 1.6 18.8 4.8 5.667 3.2 10.1 7.567 13.3 13.1 3.267 5.467 4.9 11.5 4.9 18.1 0 6.6-1.633 12.667-4.9 18.2-3.2 5.467-7.633 9.8-13.3 13-5.667 3.2-11.933 4.8-18.8 4.8Zm0-7c5.267 0 10.1-1.3 14.5-3.9 4.467-2.6 8-6.1 10.6-10.5 2.6-4.467 3.9-9.333 3.9-14.6 0-5.267-1.3-10.1-3.9-14.5-2.6-4.467-6.133-8-10.6-10.6-4.4-2.6-9.233-3.9-14.5-3.9-5.267 0-10.133 1.3-14.6 3.9-4.4 2.6-7.9 6.133-10.5 10.6-2.6 4.4-3.9 9.233-3.9 14.5 0 5.267 1.3 10.133 3.9 14.6 2.6 4.4 6.1 7.9 10.5 10.5 4.467 2.6 9.333 3.9 14.6 3.9Zm-13-10.5v-37h15c2.467 0 4.667.567 6.6 1.7 2 1.067 3.567 2.533 4.7 4.4 1.133 1.8 1.7 3.767 1.7 5.9 0 2.533-.733 4.667-2.2 6.4-1.4 1.733-3 2.933-4.8 3.6l8.5 15h-8l-7-13h-7v13h-7.5Zm15-20c1.733 0 3.067-.433 4-1.3 1-.933 1.5-2.167 1.5-3.7 0-1.533-.5-2.733-1.5-3.6-.933-.933-2.267-1.4-4-1.4h-7.5v10h7.5ZM2658.2 504V331.2h29.52v26.28h.36c4.8-7.68 12.12-14.52 21.96-20.52 9.84-6.24 21-9.36 33.48-9.36 13.2 0 24.96 3.12 35.28 9.36 10.56 6.24 18.72 15 24.48 26.28 6 11.28 9 24.36 9 39.24V504h-29.16V402.48c0-13.92-4.2-25.2-12.6-33.84-8.4-8.64-19.08-12.96-32.04-12.96-14.4 0-26.52 5.04-36.36 15.12-9.6 10.08-14.4 22.92-14.4 38.52V504h-29.52Zm-117.96 3.6c-16.08 0-30.84-3.96-44.28-11.88-13.44-8.16-24.12-19.08-32.04-32.76-7.92-13.68-11.88-28.8-11.88-45.36 0-16.8 3.84-32.04 11.52-45.72 7.92-13.68 18.48-24.48 31.68-32.4 13.2-7.92 27.6-11.88 43.2-11.88 15.36 0 29.4 3.72 42.12 11.16 12.72 7.44 22.68 17.76 29.88 30.96 7.2 12.96 10.8 27.72 10.8 44.28 0 3.84-.36 8.64-1.08 14.4h-137.52c1.92 14.4 8.4 26.52 19.44 36.36 11.04 9.84 24.24 14.76 39.6 14.76 18.96 0 35.88-7.92 50.76-23.76l19.8 18.36c-6.96 9.12-16.68 17.04-29.16 23.76-12.24 6.48-26.52 9.72-42.84 9.72ZM2591 403.92c-2.4-15.12-8.28-27.12-17.64-36-9.12-8.88-20.76-13.32-34.92-13.32-14.64 0-27 4.68-37.08 14.04-10.08 9.12-16.44 20.88-19.08 35.28H2591ZM2411.69 504h-29.52V331.2h29.52V504Zm-14.76-208.08c-5.04 0-9.48-1.8-13.32-5.4-3.6-3.6-5.4-8.04-5.4-13.32 0-5.28 1.8-9.72 5.4-13.32 3.84-3.6 8.28-5.4 13.32-5.4 4.8 0 9 1.8 12.6 5.4 3.84 3.6 5.76 8.04 5.76 13.32 0 5.28-1.92 9.72-5.76 13.32-3.6 3.6-7.8 5.4-12.6 5.4ZM2328.51 504h-29.52V252h29.52v252Zm-83.19 0h-29.52V331.2h29.52V504Zm-14.76-208.08c-5.04 0-9.48-1.8-13.32-5.4-3.6-3.6-5.4-8.04-5.4-13.32 0-5.28 1.8-9.72 5.4-13.32 3.84-3.6 8.28-5.4 13.32-5.4 4.8 0 9 1.8 12.6 5.4 3.84 3.6 5.76 8.04 5.76 13.32 0 5.28-1.92 9.72-5.76 13.32-3.6 3.6-7.8 5.4-12.6 5.4ZM2094.32 507.6c-13.92 0-26.52-3.12-37.8-9.36-11.04-6.48-18.84-13.68-23.4-21.6h-.36V504h-29.52V252h29.52v106.56h.36c4.56-7.92 12.36-15 23.4-21.24 11.28-6.48 23.88-9.72 37.8-9.72 14.4 0 27.72 3.96 39.96 11.88 12.48 7.68 22.44 18.36 29.88 32.04 7.44 13.68 11.16 29.04 11.16 46.08s-3.72 32.4-11.16 46.08c-7.44 13.68-17.4 24.48-29.88 32.4-12.24 7.68-25.56 11.52-39.96 11.52Zm-4.68-28.08c10.08 0 19.44-2.64 28.08-7.92 8.64-5.52 15.48-12.96 20.52-22.32 5.28-9.36 7.92-19.92 7.92-31.68 0-11.76-2.64-22.32-7.92-31.68-5.04-9.36-11.88-16.68-20.52-21.96-8.64-5.52-18-8.28-28.08-8.28-10.32 0-19.92 2.64-28.8 7.92-8.64 5.28-15.48 12.72-20.52 22.32-5.04 9.36-7.56 19.92-7.56 31.68 0 11.76 2.52 22.44 7.56 32.04 5.04 9.36 11.88 16.68 20.52 21.96 8.88 5.28 18.48 7.92 28.8 7.92Zm-215.63 28.08c-16.32 0-31.32-3.96-45-11.88-13.44-8.16-24.12-19.08-32.04-32.76-7.92-13.68-11.88-28.8-11.88-45.36s3.96-31.68 11.88-45.36c7.92-13.68 18.6-24.48 32.04-32.4 13.68-8.16 28.68-12.24 45-12.24s31.2 4.08 44.64 12.24c13.68 7.92 24.48 18.72 32.4 32.4 7.92 13.68 11.88 28.8 11.88 45.36s-3.96 31.68-11.88 45.36c-7.92 13.68-18.72 24.6-32.4 32.76-13.44 7.92-28.32 11.88-44.64 11.88Zm0-28.08c10.8 0 20.76-2.64 29.88-7.92 9.12-5.52 16.32-12.96 21.6-22.32 5.28-9.6 7.92-20.16 7.92-31.68s-2.64-21.96-7.92-31.32c-5.28-9.6-12.48-17.04-21.6-22.32-9.12-5.52-19.08-8.28-29.88-8.28s-20.76 2.76-29.88 8.28c-9.12 5.28-16.32 12.72-21.6 22.32-5.28 9.36-7.92 19.8-7.92 31.32s2.64 22.08 7.92 31.68c5.28 9.36 12.48 16.8 21.6 22.32 9.12 5.28 19.08 7.92 29.88 7.92ZM1489.83 504V331.2h29.52v25.56h.36c3.6-7.44 9.84-14.16 18.72-20.16 9.12-6 19.68-9 31.68-9 12.96 0 24.36 3.36 34.2 10.08 9.84 6.48 16.8 13.8 20.88 21.96h.72c3.84-8.16 10.92-15.48 21.24-21.96 10.56-6.72 23.16-10.08 37.8-10.08 11.52 0 22.08 3.12 31.68 9.36 9.84 6 17.52 14.64 23.04 25.92 5.76 11.04 8.64 23.88 8.64 38.52V504h-29.16V401.4c0-13.92-3.84-24.96-11.52-33.12-7.68-8.4-17.28-12.6-28.8-12.6-12.96 0-23.76 4.8-32.4 14.4-8.4 9.36-12.6 21.96-12.6 37.8V504h-29.52V401.4c0-13.92-3.84-24.96-11.52-33.12-7.68-8.4-17.16-12.6-28.44-12.6-12.96 0-23.76 4.8-32.4 14.4-8.4 9.36-12.6 21.96-12.6 37.8V504h-29.52Zm-306.78 0V331.2h29.52v25.56h.36c3.6-7.44 9.84-14.16 18.72-20.16 9.12-6 19.68-9 31.68-9 12.96 0 24.36 3.36 34.2 10.08 9.84 6.48 16.8 13.8 20.88 21.96h.72c3.84-8.16 10.92-15.48 21.24-21.96 10.56-6.72 23.16-10.08 37.8-10.08 11.52 0 22.08 3.12 31.68 9.36 9.84 6 17.52 14.64 23.04 25.92 5.76 11.04 8.64 23.88 8.64 38.52V504h-29.16V401.4c0-13.92-3.84-24.96-11.52-33.12-7.68-8.4-17.28-12.6-28.8-12.6-12.96 0-23.76 4.8-32.4 14.4-8.4 9.36-12.6 21.96-12.6 37.8V504h-29.52V401.4c0-13.92-3.84-24.96-11.52-33.12-7.68-8.4-17.16-12.6-28.44-12.6-12.96 0-23.76 4.8-32.4 14.4-8.4 9.36-12.6 21.96-12.6 37.8V504h-29.52Zm-60.4 0h-32.4V252h32.4v252Z"/>
</svg>
