<svg xmlns="http://www.w3.org/2000/svg" width="5361" height="1601" fill="none" viewBox="0 0 5361 1601">
  <path fill="#4B6D96" d="M462 1348.2h39.6V252H462v1096.2Z"/>
  <path fill="#fff" d="M933.6 603h38.492l70.558-99h61.39l-86.11 119.88L1110.06 756h-66.21l-70.645-102.601H933.6V756h-54V504h54v99Zm356.03 158.4c-25.68 0-48.96-5.88-69.84-17.64-20.88-11.76-37.32-27.6-49.32-47.52-11.76-20.16-17.64-42.24-17.64-66.24 0-24 5.88-46.08 17.64-66.24 12-20.16 28.44-36 49.32-47.52 20.88-11.76 44.16-17.64 69.84-17.64 25.68 0 48.84 5.88 69.48 17.64 20.88 11.52 37.32 27.36 49.32 47.52 12 20.16 18 42.24 18 66.24 0 24-6 46.08-18 66.24-12 19.92-28.44 35.76-49.32 47.52-20.88 11.76-44.04 17.64-69.48 17.64Zm0-49.68c15.12 0 28.92-3.6 41.4-10.8 12.48-7.2 22.32-17.04 29.52-29.52 7.2-12.48 10.8-26.28 10.8-41.4 0-15.12-3.6-28.92-10.8-41.4-7.2-12.48-17.04-22.32-29.52-29.52-12.48-7.44-26.28-11.16-41.4-11.16-15.12 0-29.04 3.6-41.76 10.8-12.48 7.2-22.32 17.16-29.52 29.88-7.2 12.48-10.8 26.28-10.8 41.4 0 15.12 3.6 28.92 10.8 41.4 7.44 12.48 17.4 22.32 29.88 29.52 12.48 7.2 26.28 10.8 41.4 10.8ZM1724 756h-58.68l-46.44-86.4h-48.96V756h-54V504h111.6c16.8 0 31.8 3.6 45 10.8 13.44 7.2 23.88 17.16 31.32 29.88 7.44 12.48 11.16 26.52 11.16 42.12 0 16.08-4.08 30.6-12.24 43.56-7.92 12.96-18.84 22.92-32.76 29.88l54 95.76Zm-154.08-203.4V621h55.8c10.32 0 18.72-3.24 25.2-9.72 6.72-6.48 10.08-14.64 10.08-24.48s-3.36-18-10.08-24.48c-6.48-6.48-14.88-9.72-25.2-9.72h-55.8ZM1906.36 756h-54V554.4h-73.08V504h199.8v50.4h-72.72V756Zm341.22 0h-189V504h185.4v48.6h-131.4v51.12h102.6v46.8h-102.6v56.88h135V756Zm319.41 0h-54V504h54v99h108v-99h54v252h-54V653.4h-108V756Zm388.58 5.4c-25.68 0-48.96-5.88-69.84-17.64-20.88-11.76-37.32-27.6-49.32-47.52-11.76-20.16-17.64-42.24-17.64-66.24 0-24 5.88-46.08 17.64-66.24 12-20.16 28.44-36 49.32-47.52 20.88-11.76 44.16-17.64 69.84-17.64 25.68 0 48.84 5.88 69.48 17.64 20.88 11.52 37.32 27.36 49.32 47.52 12 20.16 18 42.24 18 66.24 0 24-6 46.08-18 66.24-12 19.92-28.44 35.76-49.32 47.52-20.88 11.76-44.04 17.64-69.48 17.64Zm0-49.68c15.12 0 28.92-3.6 41.4-10.8 12.48-7.2 22.32-17.04 29.52-29.52 7.2-12.48 10.8-26.28 10.8-41.4 0-15.12-3.6-28.92-10.8-41.4-7.2-12.48-17.04-22.32-29.52-29.52-12.48-7.44-26.28-11.16-41.4-11.16-15.12 0-29.04 3.6-41.76 10.8-12.48 7.2-22.32 17.16-29.52 29.88-7.2 12.48-10.8 26.28-10.8 41.4 0 15.12 3.6 28.92 10.8 41.4 7.44 12.48 17.4 22.32 29.88 29.52 12.48 7.2 26.28 10.8 41.4 10.8ZM3235.86 756h-54V504h183.6v51.12h-129.6v57.6h100.8v49.68h-100.8V756Zm266.76 0h-54V504h183.6v51.12h-129.6v57.6h100.8v49.68h-100.8V756Zm266.39 0h-53.64V504h69.84l83.16 182.16h1.08l82.8-182.16h67.32v252h-53.28V584.64h-1.44L3884.93 756h-34.92l-79.56-171.36h-1.44V756Zm383.23 0h-56.52l97.92-252h60.12l97.56 252h-57.24l-21.24-56.88h-99.72L4152.24 756Zm70.2-196.92-33.48 94.32H4257l-33.48-94.32h-1.08ZM4480.76 756h-53.28V504h47.88l122.76 162h1.44V504h52.92v252h-47.52l-123.12-162.36h-1.08V756Zm329.69 0h-53.28V504h47.88l122.76 162h1.44V504h52.92v252h-47.52l-123.12-162.36h-1.08V756ZM912.47 1096.2h-20.25v-189h20.25v189Zm105.98 0V966.6h18.36v19.98h.27c2.7-5.76 7.38-10.98 14.04-15.66 6.84-4.68 14.94-7.02 24.3-7.02 9.9 0 18.54 2.7 25.92 8.1 7.38 5.4 12.6 11.34 15.66 17.82h.54c2.88-6.48 8.19-12.42 15.93-17.82 7.92-5.4 17.37-8.1 28.35-8.1 8.82 0 16.83 2.34 24.03 7.02 7.38 4.5 13.23 10.98 17.55 19.44 4.32 8.28 6.48 17.91 6.48 28.89v76.95h-18.36v-76.95c0-11.52-3.06-20.61-9.18-27.27-6.12-6.84-13.86-10.26-23.22-10.26-10.26 0-18.81 3.87-25.65 11.61-6.66 7.56-9.99 17.73-9.99 30.51v72.36h-18.36v-76.95c0-11.52-3.15-20.61-9.45-27.27-6.12-6.84-13.86-10.26-23.22-10.26-10.26 0-18.81 3.87-25.65 11.61-6.66 7.56-9.99 17.73-9.99 30.51v72.36h-18.36Zm288.82 0V966.6h18.36v19.98h.27c2.7-5.76 7.38-10.98 14.04-15.66 6.84-4.68 14.94-7.02 24.3-7.02 9.9 0 18.54 2.7 25.92 8.1 7.38 5.4 12.6 11.34 15.66 17.82h.54c2.88-6.48 8.19-12.42 15.93-17.82 7.92-5.4 17.37-8.1 28.35-8.1 8.82 0 16.83 2.34 24.03 7.02 7.38 4.5 13.23 10.98 17.55 19.44 4.32 8.28 6.48 17.91 6.48 28.89v76.95h-18.36v-76.95c0-11.52-3.06-20.61-9.18-27.27-6.12-6.84-13.86-10.26-23.22-10.26-10.26 0-18.81 3.87-25.65 11.61-6.66 7.56-9.99 17.73-9.99 30.51v72.36h-18.36v-76.95c0-11.52-3.15-20.61-9.45-27.27-6.12-6.84-13.86-10.26-23.22-10.26-10.26 0-18.81 3.87-25.65 11.61-6.66 7.56-9.99 17.73-9.99 30.51v72.36h-18.36Zm345.79 2.7c-11.88 0-22.86-2.97-32.94-8.91-10.08-6.12-18.09-14.31-24.03-24.57-5.94-10.26-8.91-21.6-8.91-34.02 0-12.42 2.97-23.76 8.91-34.02 5.94-10.26 13.95-18.36 24.03-24.3 10.08-6.12 21.06-9.18 32.94-9.18 11.88 0 22.86 3.06 32.94 9.18 10.08 5.94 18.09 14.04 24.03 24.3 5.94 10.26 8.91 21.6 8.91 34.02 0 12.42-2.97 23.76-8.91 34.02-5.94 10.26-13.95 18.45-24.03 24.57-10.08 5.94-21.06 8.91-32.94 8.91Zm0-17.82c8.64 0 16.56-2.16 23.76-6.48 7.38-4.32 13.14-10.26 17.28-17.82 4.32-7.74 6.48-16.2 6.48-25.38s-2.16-17.55-6.48-25.11c-4.14-7.74-9.9-13.77-17.28-18.09-7.2-4.32-15.12-6.48-23.76-6.48-8.64 0-16.65 2.16-24.03 6.48-7.2 4.32-12.96 10.35-17.28 18.09-4.14 7.56-6.21 15.93-6.21 25.11s2.07 17.64 6.21 25.38c4.32 7.56 10.08 13.5 17.28 17.82 7.38 4.32 15.39 6.48 24.03 6.48Zm222.88 17.82c-10.8 0-20.52-2.61-29.16-7.83-8.46-5.22-14.49-10.98-18.09-17.28h-.27v22.41h-18.36v-189h18.36v81.81h.27c3.6-6.3 9.63-12.06 18.09-17.28 8.64-5.22 18.36-7.83 29.16-7.83s20.79 2.97 29.97 8.91c9.36 5.76 16.83 13.77 22.41 24.03 5.58 10.26 8.37 21.78 8.37 34.56 0 12.78-2.79 24.3-8.37 34.56-5.58 10.26-13.05 18.36-22.41 24.3-9.18 5.76-19.17 8.64-29.97 8.64Zm-2.16-17.82c7.92 0 15.3-2.16 22.14-6.48s12.24-10.26 16.2-17.82c4.14-7.56 6.21-16.02 6.21-25.38 0-9.54-2.07-18.09-6.21-25.65-3.96-7.56-9.36-13.41-16.2-17.55-6.84-4.32-14.22-6.48-22.14-6.48-8.28 0-15.93 2.16-22.95 6.48-6.84 4.14-12.33 9.99-16.47 17.55-3.96 7.56-5.94 16.11-5.94 25.65 0 9.36 1.98 17.82 5.94 25.38 4.14 7.56 9.63 13.5 16.47 17.82 7.02 4.32 14.67 6.48 22.95 6.48Zm172.28 15.12h-18.36V966.6h18.36v129.6Zm-9.18-157.95c-3.24 0-6.12-1.17-8.64-3.51-2.34-2.34-3.51-5.22-3.51-8.64 0-3.42 1.17-6.3 3.51-8.64 2.52-2.34 5.4-3.51 8.64-3.51 3.42 0 6.3 1.17 8.64 3.51 2.52 2.34 3.78 5.22 3.78 8.64 0 3.42-1.26 6.3-3.78 8.64-2.34 2.34-5.22 3.51-8.64 3.51Zm128.72 157.95h-18.36v-189h18.36v189Zm119.55 0h-18.36V966.6h18.36v129.6Zm-9.18-157.95c-3.24 0-6.12-1.17-8.64-3.51-2.34-2.34-3.51-5.22-3.51-8.64 0-3.42 1.17-6.3 3.51-8.64 2.52-2.34 5.4-3.51 8.64-3.51 3.42 0 6.3 1.17 8.64 3.51 2.52 2.34 3.78 5.22 3.78 8.64 0 3.42-1.26 6.3-3.78 8.64-2.34 2.34-5.22 3.51-8.64 3.51Zm165.17 160.65c-11.7 0-22.5-2.97-32.4-8.91-9.9-6.12-17.82-14.31-23.76-24.57-5.94-10.26-8.91-21.6-8.91-34.02 0-12.6 2.88-24.03 8.64-34.29 5.76-10.26 13.5-18.36 23.22-24.3 9.72-5.94 20.34-8.91 31.86-8.91 11.34 0 21.6 2.79 30.78 8.37 9.36 5.58 16.74 13.41 22.14 23.49 5.4 10.08 8.1 21.42 8.1 34.02 0 2.88-.18 5.76-.54 8.64h-105.3c.9 7.92 3.51 15.12 7.83 21.6 4.32 6.48 9.81 11.61 16.47 15.39 6.84 3.78 14.31 5.67 22.41 5.67 14.94 0 28.17-6.48 39.69-19.44l12.69 11.61c-5.76 7.2-13.05 13.32-21.87 18.36-8.82 4.86-19.17 7.29-31.05 7.29Zm41.04-76.41c-1.62-12.6-6.21-22.59-13.77-29.97-7.56-7.56-17.1-11.34-28.62-11.34-7.56 0-14.67 1.89-21.33 5.67-6.48 3.6-11.88 8.55-16.2 14.85-4.14 6.3-6.66 13.23-7.56 20.79h87.48Zm106.98 73.71V966.6h18.36v20.79h.27c3.42-6.12 8.91-11.52 16.47-16.2 7.74-4.86 16.38-7.29 25.92-7.29 9.9 0 18.81 2.34 26.73 7.02 7.92 4.68 14.13 11.25 18.63 19.71 4.5 8.46 6.75 18.18 6.75 29.16v76.41h-18.36v-76.41c0-11.34-3.42-20.52-10.26-27.54-6.66-7.02-15.21-10.53-25.65-10.53-7.56 0-14.4 1.89-20.52 5.67-6.12 3.6-10.98 8.64-14.58 15.12-3.6 6.48-5.4 13.77-5.4 21.87v71.82h-18.36Z"/>
</svg>
