<svg xmlns="http://www.w3.org/2000/svg" width="3959" height="1260" fill="none" viewBox="0 0 3959 1260">
  <path fill="#000" d="M580.444 504v99h21.581l82.046-99h60.916L644.861 623.88 751.989 756h-66.517l-82.151-102.6h-22.877V756h-52.513V504h52.513Zm259.007 252h-54V504h54v99h108v-99h53.999v252h-53.999V653.4h-108V756Zm542.249 252h-32.4V252h32.4v756Zm321.48-252h-32.4V504h32.4v252Zm64.39 0V583.2h29.52v25.56h.36c3.6-7.44 9.84-14.16 18.72-20.16 9.12-6 19.68-9 31.68-9 12.96 0 24.36 3.36 34.2 10.08 9.84 6.48 16.8 13.8 20.88 21.96h.72c3.84-8.16 10.92-15.48 21.24-21.96 10.56-6.72 23.16-10.08 37.8-10.08 11.52 0 22.08 3.12 31.68 9.36 9.84 6 17.52 14.64 23.04 25.92 5.76 11.04 8.64 23.88 8.64 38.52V756h-29.16V653.4c0-13.92-3.84-24.96-11.52-33.12-7.68-8.4-17.28-12.6-28.8-12.6-12.96 0-23.76 4.8-32.4 14.4-8.4 9.36-12.6 21.96-12.6 37.8V756h-29.52V653.4c0-13.92-3.84-24.96-11.52-33.12-7.68-8.4-17.16-12.6-28.44-12.6-12.96 0-23.76 4.8-32.4 14.4-8.4 9.36-12.6 21.96-12.6 37.8V756h-29.52Zm310.79 0V583.2h29.52v25.56h.36c3.6-7.44 9.84-14.16 18.72-20.16 9.12-6 19.68-9 31.68-9 12.96 0 24.36 3.36 34.2 10.08 9.84 6.48 16.8 13.8 20.88 21.96h.72c3.84-8.16 10.92-15.48 21.24-21.96 10.56-6.72 23.16-10.08 37.8-10.08 11.52 0 22.08 3.12 31.68 9.36 9.84 6 17.52 14.64 23.04 25.92 5.76 11.04 8.64 23.88 8.64 38.52V756h-29.16V653.4c0-13.92-3.84-24.96-11.52-33.12-7.68-8.4-17.28-12.6-28.8-12.6-12.96 0-23.76 4.8-32.4 14.4-8.4 9.36-12.6 21.96-12.6 37.8V756h-29.52V653.4c0-13.92-3.84-24.96-11.52-33.12-7.68-8.4-17.16-12.6-28.44-12.6-12.96 0-23.76 4.8-32.4 14.4-8.4 9.36-12.6 21.96-12.6 37.8V756h-29.52Zm388.18 3.6c-16.32 0-31.32-3.96-45-11.88-13.44-8.16-24.12-19.08-32.04-32.76-7.92-13.68-11.88-28.8-11.88-45.36s3.96-31.68 11.88-45.36c7.92-13.68 18.6-24.48 32.04-32.4 13.68-8.16 28.68-12.24 45-12.24s31.2 4.08 44.64 12.24c13.68 7.92 24.48 18.72 32.4 32.4 7.92 13.68 11.88 28.8 11.88 45.36s-3.96 31.68-11.88 45.36c-7.92 13.68-18.72 24.6-32.4 32.76-13.44 7.92-28.32 11.88-44.64 11.88Zm0-28.08c10.8 0 20.76-2.64 29.88-7.92 9.12-5.52 16.32-12.96 21.6-22.32 5.28-9.6 7.92-20.16 7.92-31.68s-2.64-21.96-7.92-31.32c-5.28-9.6-12.48-17.04-21.6-22.32-9.12-5.52-19.08-8.28-29.88-8.28s-20.76 2.76-29.88 8.28c-9.12 5.28-16.32 12.72-21.6 22.32-5.28 9.36-7.92 19.8-7.92 31.32s2.64 22.08 7.92 31.68c5.28 9.36 12.48 16.8 21.6 22.32 9.12 5.28 19.08 7.92 29.88 7.92Zm224.3 28.08c-13.92 0-26.52-3.12-37.8-9.36-11.04-6.48-18.84-13.68-23.4-21.6h-.36V756h-29.52V504h29.52v106.56h.36c4.56-7.92 12.36-15 23.4-21.24 11.28-6.48 23.88-9.72 37.8-9.72 14.4 0 27.72 3.96 39.96 11.88 12.48 7.68 22.44 18.36 29.88 32.04 7.44 13.68 11.16 29.04 11.16 46.08s-3.72 32.4-11.16 46.08c-7.44 13.68-17.4 24.48-29.88 32.4-12.24 7.68-25.56 11.52-39.96 11.52Zm-4.68-28.08c10.08 0 19.44-2.64 28.08-7.92 8.64-5.52 15.48-12.96 20.52-22.32 5.28-9.36 7.92-19.92 7.92-31.68 0-11.76-2.64-22.32-7.92-31.68-5.04-9.36-11.88-16.68-20.52-21.96-8.64-5.52-18-8.28-28.08-8.28-10.32 0-19.92 2.64-28.8 7.92-8.64 5.28-15.48 12.72-20.52 22.32-5.04 9.36-7.56 19.92-7.56 31.68 0 11.76 2.52 22.44 7.56 32.04 5.04 9.36 11.88 16.68 20.52 21.96 8.88 5.28 18.48 7.92 28.8 7.92ZM2845.85 756h-29.52V583.2h29.52V756Zm-14.76-208.08c-5.04 0-9.48-1.8-13.32-5.4-3.6-3.6-5.4-8.04-5.4-13.32 0-5.28 1.8-9.72 5.4-13.32 3.84-3.6 8.28-5.4 13.32-5.4 4.8 0 9 1.8 12.6 5.4 3.84 3.6 5.76 8.04 5.76 13.32 0 5.28-1.92 9.72-5.76 13.32-3.6 3.6-7.8 5.4-12.6 5.4ZM2933.03 756h-29.52V504h29.52v252Zm87.19 0h-29.52V583.2h29.52V756Zm-14.76-208.08c-5.04 0-9.48-1.8-13.32-5.4-3.6-3.6-5.4-8.04-5.4-13.32 0-5.28 1.8-9.72 5.4-13.32 3.84-3.6 8.28-5.4 13.32-5.4 4.8 0 9 1.8 12.6 5.4 3.84 3.6 5.76 8.04 5.76 13.32 0 5.28-1.92 9.72-5.76 13.32-3.6 3.6-7.8 5.4-12.6 5.4Zm147.31 211.68c-16.08 0-30.84-3.96-44.28-11.88-13.44-8.16-24.12-19.08-32.04-32.76-7.92-13.68-11.88-28.8-11.88-45.36 0-16.8 3.84-32.04 11.52-45.72 7.92-13.68 18.48-24.48 31.68-32.4 13.2-7.92 27.6-11.88 43.2-11.88 15.36 0 29.4 3.72 42.12 11.16 12.72 7.44 22.68 17.76 29.88 30.96 7.2 12.96 10.8 27.72 10.8 44.28 0 3.84-.36 8.64-1.08 14.4h-137.52c1.92 14.4 8.4 26.52 19.44 36.36 11.04 9.84 24.24 14.76 39.6 14.76 18.96 0 35.88-7.92 50.76-23.76l19.8 18.36c-6.96 9.12-16.68 17.04-29.16 23.76-12.24 6.48-26.52 9.72-42.84 9.72Zm50.76-103.68c-2.4-15.12-8.28-27.12-17.64-36-9.12-8.88-20.76-13.32-34.92-13.32-14.64 0-27 4.68-37.08 14.04-10.08 9.12-16.44 20.88-19.08 35.28h108.72ZM3274.72 756V583.2h29.52v26.28h.36c4.8-7.68 12.12-14.52 21.96-20.52 9.84-6.24 21-9.36 33.48-9.36 13.2 0 24.96 3.12 35.28 9.36 10.56 6.24 18.72 15 24.48 26.28 6 11.28 9 24.36 9 39.24V756h-29.16V654.48c0-13.92-4.2-25.2-12.6-33.84-8.4-8.64-19.08-12.96-32.04-12.96-14.4 0-26.52 5.04-36.36 15.12-9.6 10.08-14.4 22.92-14.4 38.52V756h-29.52Z"/>
</svg>
