<svg xmlns="http://www.w3.org/2000/svg" width="6524" height="1008" fill="none" viewBox="0 0 6524 1008">
  <path fill="#fff" d="M3946.78 630h-66.6V378h59.4l108.36 140.4h1.44V378h66.6v252h-59.4l-108.36-140.4h-1.44V630Zm-297.56 0h-66.6V378h59.4l108.36 140.4h1.44V378h66.6v252h-59.4l-108.36-140.4h-1.44V630Zm-297.6 0h-72l94.68-252h77.04l94.68 252h-72.72l-16.92-48.6h-87.84l-16.92 48.6Zm60.12-187.2-25.92 82.8h53.28l-25.92-82.8h-1.44ZM2991.77 630h-67.32V378h86.4l73.8 162h.72l73.44-162h84.24v252h-67.32V478.08h-1.44L3103.37 630h-39.24l-70.92-151.92h-1.44V630Zm-235.19 0h-68.4V378h190.8v64.8h-122.4V486h93.6v61.2h-93.6V630Zm-236.28 0h-68.4V378h190.8v64.8h-122.4V486h93.6v61.2h-93.6V630Zm-256.13 7.201c-26.4 0-50.4-5.88-72-17.64-21.36-12-38.16-28.08-50.4-48.24-12-20.4-18-42.84-18-67.32 0-24.48 6-46.8 18-66.96 12.24-20.4 29.04-36.48 50.4-48.24 21.6-12 45.6-18 72-18s50.28 6 71.64 18c21.6 11.76 38.4 27.84 50.4 48.24 12.24 20.16 18.36 42.48 18.36 66.96 0 24.48-6.12 46.92-18.36 67.32-12 20.16-28.8 36.24-50.4 48.24-21.36 11.76-45.24 17.64-71.64 17.64Zm0-63c12.96 0 24.72-3.12 35.28-9.36 10.8-6.24 19.32-14.64 25.56-25.2 6.24-10.8 9.36-22.68 9.36-35.64s-3.12-24.72-9.36-35.28c-6.24-10.8-14.76-19.32-25.56-25.56-10.56-6.24-22.32-9.36-35.28-9.36s-24.84 3.12-35.64 9.36c-10.56 6.24-18.96 14.76-25.2 25.56-6.24 10.56-9.36 22.32-9.36 35.28s3.12 24.84 9.36 35.64c6.24 10.56 14.64 18.96 25.2 25.2 10.8 6.24 22.68 9.36 35.64 9.36ZM1916.4 630H1848V378h68.4v91.8h91.8V378h68.4v252h-68.4v-95.4h-91.8V630Zm-265.16 0h-196.2V378h192.6v61.2h-124.2v35.28h95.4v57.6h-95.4v36.72h127.8V630Zm-308.44 0h-68.4V442.8h-70.2V378H1413v64.8h-70.2V630Zm-163.23 0h-72l-41.4-79.2h-37.8V630h-68.397V378h118.797c17.76 0 33.6 3.84 47.52 11.52 13.92 7.44 24.72 17.76 32.4 30.96 7.92 13.2 11.88 27.84 11.88 43.92 0 15.6-3.72 29.88-11.16 42.84-7.44 12.96-17.76 23.28-30.96 30.96l51.12 91.8Zm-151.2-190.8v50.4h46.8c7.92 0 14.4-2.4 19.44-7.2 5.04-4.8 7.56-10.8 7.56-18 0-7.2-2.52-13.2-7.56-18-5.04-4.8-11.52-7.2-19.44-7.2h-46.8ZM772.244 637.201c-26.4 0-50.4-5.88-72-17.64-21.36-12-38.16-28.08-50.4-48.24-12-20.4-18-42.84-18-67.32 0-24.48 6-46.8 18-66.96 12.24-20.4 29.04-36.48 50.4-48.24 21.6-12 45.6-18 72-18s50.28 6 71.64 18c21.6 11.76 38.4 27.84 50.4 48.24 12.24 20.16 18.36 42.48 18.36 66.96 0 24.48-6.12 46.92-18.36 67.32-12 20.16-28.8 36.24-50.4 48.24-21.36 11.76-45.24 17.64-71.64 17.64Zm0-63c12.96 0 24.72-3.12 35.28-9.36 10.8-6.24 19.32-14.64 25.56-25.2 6.24-10.8 9.36-22.68 9.36-35.64s-3.12-24.72-9.36-35.28c-6.24-10.8-14.76-19.32-25.56-25.56-10.56-6.24-22.32-9.36-35.28-9.36s-24.84 3.12-35.64 9.36c-10.56 6.24-18.96 14.76-25.2 25.56-6.24 10.56-9.36 22.32-9.36 35.28s3.12 24.84 9.36 35.64c6.24 10.56 14.64 18.96 25.2 25.2 10.8 6.24 22.68 9.36 35.64 9.36ZM446.4 469.797h36.407L547.031 378h75.548l-84.12 118.44L629.203 630h-81.841l-63.928-95.403H446.4V630H378V378h68.4v91.797ZM4367.98 756h42V252h-42v504Zm1777.03-122.398h-181.8v-252h178.2v36h-138.6v67.32h109.8v36h-109.8v76.68h142.2v36Zm-424.94 0v-252h100.8c15.84 0 30.24 3.6 43.2 10.8 12.96 7.2 23.04 17.04 30.24 29.52 7.44 12.24 11.16 25.8 11.16 40.68 0 14.88-3.72 28.56-11.16 41.04-7.2 12.24-17.28 21.96-30.24 29.16-12.96 7.2-27.36 10.8-43.2 10.8h-61.2v90h-39.6Zm100.8-126c12.72 0 23.4-4.32 32.04-12.96 8.64-8.88 12.96-19.56 12.96-32.04 0-12.72-4.32-23.4-12.96-32.04s-19.32-12.96-32.04-12.96h-61.2v90h61.2Zm-343.94 126v-252h100.8c15.84 0 30.24 3.6 43.2 10.8 12.96 7.2 23.04 17.04 30.24 29.52 7.44 12.24 11.16 25.8 11.16 40.68 0 14.88-3.72 28.56-11.16 41.04-7.2 12.24-17.28 21.96-30.24 29.16-12.96 7.2-27.36 10.8-43.2 10.8h-61.2v90h-39.6Zm100.8-126c12.72 0 23.4-4.32 32.04-12.96 8.64-8.88 12.96-19.56 12.96-32.04 0-12.72-4.32-23.4-12.96-32.04s-19.32-12.96-32.04-12.96h-61.2v90h61.2Zm-284.23 129.6c-20.64 0-39-4.44-55.08-13.32-16.08-8.88-28.68-21.24-37.8-37.08-8.88-15.84-13.32-33.84-13.32-54v-151.2h39.6v151.2c0 12.96 2.88 24.72 8.64 35.28 6 10.32 14.04 18.48 24.12 24.48 10.08 5.76 21.36 8.64 33.84 8.64 11.76 0 22.68-3 32.76-9 10.32-6.24 18.48-14.64 24.48-25.2 6.24-10.56 9.36-21.96 9.36-34.2v-151.2h39.6v151.2c0 20.16-4.56 38.16-13.68 54-8.88 15.84-21.36 28.2-37.44 37.08-16.08 8.88-34.44 13.32-55.08 13.32Zm-165.71-3.6h-45l-52.2-93.6h-59.4v93.6h-39.6v-252h104.4c15.84 0 30 3.48 42.48 10.44 12.72 6.96 22.56 16.44 29.52 28.44 7.2 12 10.8 25.44 10.8 40.32 0 16.32-4.32 30.96-12.96 43.92s-20.28 22.56-34.92 28.8l56.88 100.08Zm-156.6-216v86.4h64.8c12.72 0 23.04-4.08 30.96-12.24 8.16-8.16 12.24-18.48 12.24-30.96 0-12.72-4.08-23.04-12.24-30.96-7.92-8.16-18.24-12.24-30.96-12.24h-64.8ZM4755.18 637.2c-24.72 0-47.28-5.76-67.68-17.28-20.4-11.52-36.48-27.12-48.24-46.8-11.52-19.92-17.28-41.76-17.28-65.52 0-23.76 5.76-45.48 17.28-65.16 11.76-19.92 27.84-35.64 48.24-47.16 20.4-11.52 42.96-17.28 67.68-17.28 22.8 0 42.96 4.8 60.48 14.4 17.76 9.6 31.8 20.88 42.12 33.84l-27.72 22.68c-8.88-10.08-19.32-18.36-31.32-24.84-11.76-6.72-26.28-10.08-43.56-10.08-17.04 0-32.76 4.2-47.16 12.6-14.4 8.16-25.8 19.44-34.2 33.84-8.16 14.4-12.24 30.12-12.24 47.16 0 17.04 4.08 32.76 12.24 47.16 8.4 14.4 19.8 25.8 34.2 34.2 14.4 8.16 30.12 12.24 47.16 12.24 14.88 0 28.44-2.76 40.68-8.28 12.48-5.52 21.72-11.76 27.72-18.72v-39.6h-54v-34.2h93.6v88.2c-6 7.68-14.4 15.24-25.2 22.68-10.56 7.44-23.04 13.68-37.44 18.72-14.16 4.8-29.28 7.2-45.36 7.2Z"/>
</svg>
