<svg xmlns="http://www.w3.org/2000/svg" width="5673" height="1680" fill="none" viewBox="0 0 5673 1680">
  <path fill="#425942" d="M544.299 1407h-39.6V273h39.6v1134Z"/>
  <path fill="#000" d="M1084.6 504v99h22.19l84.37-99h62.64l-102.96 119.88L1261 756h-68.4l-84.48-102.6h-23.52V756h-54V504h54Zm353.63 257.4c-25.68 0-48.96-5.88-69.84-17.64-20.88-11.76-37.32-27.6-49.32-47.52-11.76-20.16-17.64-42.24-17.64-66.24 0-24 5.88-46.08 17.64-66.24 12-20.16 28.44-36 49.32-47.52 20.88-11.76 44.16-17.64 69.84-17.64 25.68 0 48.84 5.88 69.48 17.64 20.88 11.52 37.32 27.36 49.32 47.52 12 20.16 18 42.24 18 66.24 0 24-6 46.08-18 66.24-12 19.92-28.44 35.76-49.32 47.52-20.88 11.76-44.04 17.64-69.48 17.64Zm0-49.68c15.12 0 28.92-3.6 41.4-10.8 12.48-7.2 22.32-17.04 29.52-29.52 7.2-12.48 10.8-26.28 10.8-41.4 0-15.12-3.6-28.92-10.8-41.4-7.2-12.48-17.04-22.32-29.52-29.52-12.48-7.44-26.28-11.16-41.4-11.16-15.12 0-29.04 3.6-41.76 10.8-12.48 7.2-22.32 17.16-29.52 29.88-7.2 12.48-10.8 26.28-10.8 41.4 0 15.12 3.6 28.92 10.8 41.4 7.44 12.48 17.4 22.32 29.88 29.52 12.48 7.2 26.28 10.8 41.4 10.8ZM1872.6 756h-58.68l-46.44-86.4h-48.96V756h-54V504h111.6c16.8 0 31.8 3.6 45 10.8 13.44 7.2 23.88 17.16 31.32 29.88 7.44 12.48 11.16 26.52 11.16 42.12 0 16.08-4.08 30.6-12.24 43.56-7.92 12.96-18.84 22.92-32.76 29.88l54 95.76Zm-154.08-203.4V621h55.8c10.32 0 18.72-3.24 25.2-9.72 6.72-6.48 10.08-14.64 10.08-24.48s-3.36-18-10.08-24.48c-6.48-6.48-14.88-9.72-25.2-9.72h-55.8ZM2054.96 756h-54V554.4h-73.08V504h199.8v50.4h-72.72V756Zm341.22 0h-189V504h185.4v48.6h-131.4v51.12h102.6v46.8h-102.6v56.88h135V756Zm323.98 0h-54V504h54v99h108v-99h54v252h-54V653.4h-108V756Zm388.58 5.4c-25.68 0-48.96-5.88-69.84-17.64-20.88-11.76-37.32-27.6-49.32-47.52-11.76-20.16-17.64-42.24-17.64-66.24 0-24 5.88-46.08 17.64-66.24 12-20.16 28.44-36 49.32-47.52 20.88-11.76 44.16-17.64 69.84-17.64 25.68 0 48.84 5.88 69.48 17.64 20.88 11.52 37.32 27.36 49.32 47.52 12 20.16 18 42.24 18 66.24 0 24-6 46.08-18 66.24-12 19.92-28.44 35.76-49.32 47.52-20.88 11.76-44.04 17.64-69.48 17.64Zm0-49.68c15.12 0 28.92-3.6 41.4-10.8 12.48-7.2 22.32-17.04 29.52-29.52 7.2-12.48 10.8-26.28 10.8-41.4 0-15.12-3.6-28.92-10.8-41.4-7.2-12.48-17.04-22.32-29.52-29.52-12.48-7.44-26.28-11.16-41.4-11.16-15.12 0-29.04 3.6-41.76 10.8-12.48 7.2-22.32 17.16-29.52 29.88-7.2 12.48-10.8 26.28-10.8 41.4 0 15.12 3.6 28.92 10.8 41.4 7.44 12.48 17.4 22.32 29.88 29.52 12.48 7.2 26.28 10.8 41.4 10.8ZM3389.03 756h-54V504h183.6v51.12h-129.6v57.6h100.8v49.68h-100.8V756Zm266.76 0h-54V504h183.6v51.12h-129.6v57.6h100.8v49.68h-100.8V756Zm266.39 0h-53.64V504h69.84l83.16 182.16h1.08l82.8-182.16h67.32v252h-53.28V584.64h-1.44L4038.1 756h-34.92l-79.56-171.36h-1.44V756Zm383.22 0h-56.52l97.92-252h60.12l97.56 252h-57.24L4426 699.12h-99.72L4305.4 756Zm70.2-196.92-33.48 94.32h68.04l-33.48-94.32h-1.08ZM4633.93 756h-53.28V504h47.88l122.76 162h1.44V504h52.92v252h-47.52l-123.12-162.36h-1.08V756Zm329.69 0h-53.28V504h47.88l122.76 162h1.44V504h52.92v252h-47.52L4964.7 593.64h-1.08V756Zm294.28 2c-13.47 0-25.8-3.2-37-9.6-11.2-6.4-20.07-15.067-26.6-26-6.4-11.067-9.6-23.2-9.6-36.4s3.2-25.267 9.6-36.2c6.53-11.067 15.4-19.8 26.6-26.2 11.2-6.4 23.53-9.6 37-9.6 13.6 0 26 3.2 37.2 9.6 11.2 6.4 20 15.133 26.4 26.2 6.53 10.933 9.8 23 9.8 36.2 0 13.2-3.27 25.333-9.8 36.4-6.4 10.933-15.2 19.6-26.4 26-11.2 6.4-23.6 9.6-37.2 9.6Zm0-12.4c10.93 0 20.93-2.6 30-7.8 9.2-5.333 16.47-12.533 21.8-21.6 5.33-9.2 8-19.267 8-30.2s-2.67-20.933-8-30c-5.33-9.2-12.6-16.4-21.8-21.6-9.07-5.333-19.07-8-30-8s-20.93 2.667-30 8c-9.07 5.2-16.27 12.4-21.6 21.6-5.33 9.067-8 19.067-8 30s2.67 21 8 30.2c5.33 9.067 12.53 16.267 21.6 21.6 9.07 5.2 19.07 7.8 30 7.8Zm-25.2-22.6v-74h28.6c7.33 0 13.4 2.267 18.2 6.8 4.93 4.533 7.4 10.067 7.4 16.6 0 5.067-1.47 9.333-4.4 12.8-2.8 3.467-6 5.867-9.6 7.2l17 30.6h-14l-14.6-27.4h-15.6V723h-13Zm28.6-39.6c4.13 0 7.27-1 9.4-3 2.13-2 3.2-4.667 3.2-8 0-3.467-1.07-6.133-3.2-8-2.13-2-5.27-3-9.4-3h-15.6v22h15.6Zm-4102 496.2c-24.72 0-47.28-5.76-67.68-17.28-20.4-11.52-36.48-27.12-48.24-46.8-11.52-19.92-17.28-41.76-17.28-65.52 0-23.76 5.76-45.48 17.28-65.16 11.76-19.92 27.84-35.64 48.24-47.16 20.4-11.52 42.96-17.28 67.68-17.28 22.8 0 42.96 4.8 60.48 14.4 17.76 9.6 31.8 20.88 42.12 33.84l-27.72 22.68c-8.88-10.08-19.32-18.36-31.32-24.84-11.76-6.72-26.28-10.08-43.56-10.08-17.04 0-32.76 4.2-47.16 12.6-14.4 8.16-25.8 19.44-34.2 33.84-8.16 14.4-12.24 30.12-12.24 47.16 0 17.04 4.08 32.76 12.24 47.16 8.4 14.4 19.8 25.8 34.2 34.2 14.4 8.16 30.12 12.24 47.16 12.24 14.88 0 28.44-2.76 40.68-8.28 12.48-5.52 21.72-11.76 27.72-18.72V1077h-54v-34.2h93.6v88.2c-6 7.68-14.4 15.24-25.2 22.68-10.56 7.44-23.04 13.68-37.44 18.72-14.16 4.8-29.28 7.2-45.36 7.2Zm275.81 0c-16.56 0-31.8-3.96-45.72-11.88-13.68-7.92-24.48-18.72-32.4-32.4-7.92-13.92-11.88-29.16-11.88-45.72s3.96-31.68 11.88-45.36c7.92-13.68 18.6-24.48 32.04-32.4 13.44-8.16 28.2-12.24 44.28-12.24 16.08 0 30.48 3.72 43.2 11.16 12.96 7.2 23.04 17.28 30.24 30.24 7.44 12.72 11.16 27.12 11.16 43.2 0 6.48-.6 12.48-1.8 18h-133.2c1.92 12 7.92 22.2 18 30.6 10.08 8.4 22.08 12.6 36 12.6 17.52 0 33.72-6.96 48.6-20.88l23.4 23.04c-6.72 8.4-16.56 15.84-29.52 22.32-12.72 6.48-27.48 9.72-44.28 9.72Zm45.36-106.2c-2.64-12.72-8.04-22.8-16.2-30.24-8.16-7.44-18.48-11.16-30.96-11.16-13.44 0-24.48 3.72-33.12 11.16-8.4 7.44-14.4 17.52-18 30.24h98.28Zm212.33 106.2c-13.44 0-25.56-2.88-36.36-8.64-10.56-5.76-18.12-12.24-22.68-19.44h-.36V1176h-36V924h36v103.68h.36c4.56-7.2 12.12-13.68 22.68-19.44 10.8-5.76 22.92-8.64 36.36-8.64 14.4 0 27.72 3.96 39.96 11.88 12.48 7.68 22.44 18.36 29.88 32.04 7.44 13.68 11.16 29.04 11.16 46.08s-3.72 32.4-11.16 46.08c-7.44 13.68-17.4 24.48-29.88 32.4-12.24 7.68-25.56 11.52-39.96 11.52Zm-7.2-34.2c9.6 0 18.36-2.4 26.28-7.2 7.92-4.8 14.16-11.4 18.72-19.8 4.8-8.64 7.2-18.24 7.2-28.8 0-10.56-2.4-20.04-7.2-28.44-4.56-8.64-10.8-15.36-18.72-20.16-7.92-4.8-16.68-7.2-26.28-7.2-9.6 0-18.36 2.4-26.28 7.2-7.92 4.8-14.28 11.52-19.08 20.16-4.56 8.4-6.84 17.88-6.84 28.44 0 10.56 2.28 20.16 6.84 28.8 4.8 8.4 11.16 15 19.08 19.8 7.92 4.8 16.68 7.2 26.28 7.2Zm234.57-145.8c14.16 0 26.64 2.88 37.44 8.64 11.04 5.76 19.56 13.8 25.56 24.12 6 10.08 9 21.36 9 33.84V1176h-34.2v-24.48h-.36c-4.56 7.2-12 13.68-22.32 19.44-10.32 5.76-21.72 8.64-34.2 8.64-11.28 0-21.36-2.28-30.24-6.84-8.88-4.56-15.84-10.68-20.88-18.36-4.8-7.92-7.2-16.32-7.2-25.2 0-14.4 4.68-26.4 14.04-36 9.6-9.6 22.92-15.84 39.96-18.72l59.4-10.08v-.72c0-8.88-3.48-16.32-10.44-22.32-6.72-6.24-15.24-9.36-25.56-9.36-9.36 0-17.64 2.16-24.84 6.48-7.2 4.08-14.04 9.6-20.52 16.56l-23.04-22.32c18.96-22.08 41.76-33.12 68.4-33.12Zm-12.6 149.4c8.88 0 17.04-2.16 24.48-6.48 7.44-4.56 13.32-10.68 17.64-18.36s6.48-16.2 6.48-25.56v-5.4l-50.4 9c-8.64 1.68-15.36 4.68-20.16 9-4.56 4.08-6.84 8.88-6.84 14.4 0 6.48 2.64 12 7.92 16.56 5.28 4.56 12.24 6.84 20.88 6.84Zm-18-178.2c-5.52 0-10.56-2.04-15.12-6.12-4.32-4.32-6.48-9.48-6.48-15.48s2.16-11.04 6.48-15.12c4.56-4.32 9.6-6.48 15.12-6.48s10.44 2.16 14.76 6.48c4.56 4.08 6.84 9.12 6.84 15.12s-2.28 11.16-6.84 15.48c-4.32 4.08-9.24 6.12-14.76 6.12Zm72 0c-5.52 0-10.56-2.04-15.12-6.12-4.32-4.32-6.48-9.48-6.48-15.48s2.16-11.04 6.48-15.12c4.56-4.32 9.6-6.48 15.12-6.48s10.44 2.16 14.76 6.48c4.56 4.08 6.84 9.12 6.84 15.12s-2.28 11.16-6.84 15.48c-4.32 4.08-9.24 6.12-14.76 6.12Zm185.63 208.8c-13.2 0-24.96-3-35.28-9-10.32-6.24-18.48-15-24.48-26.28-5.76-11.52-8.64-24.96-8.64-40.32v-100.8h36V1104c0 12.48 3.6 22.56 10.8 30.24 7.44 7.44 17.04 11.16 28.8 11.16 13.68 0 24.84-4.44 33.48-13.32 8.88-9.12 13.32-20.88 13.32-35.28v-93.6h36V1176h-36v-24.48h-.36c-4.56 7.2-11.76 13.68-21.6 19.44-9.6 5.76-20.28 8.64-32.04 8.64Zm250.67 0c-14.4 0-27.84-3.84-40.32-11.52-12.24-7.92-22.08-18.72-29.52-32.4-7.44-13.68-11.16-29.04-11.16-46.08s3.72-32.4 11.16-46.08c7.44-13.68 17.28-24.36 29.52-32.04 12.48-7.92 25.92-11.88 40.32-11.88 13.44 0 25.44 2.88 36 8.64 10.8 5.76 18.48 12.24 23.04 19.44h.36V924h36v252h-36v-24.48h-.36c-4.56 7.2-12.24 13.68-23.04 19.44-10.56 5.76-22.56 8.64-36 8.64Zm7.2-34.2c9.6 0 18.36-2.4 26.28-7.2 7.92-4.8 14.16-11.4 18.72-19.8 4.8-8.64 7.2-18.24 7.2-28.8 0-10.56-2.4-20.04-7.2-28.44-4.56-8.64-10.8-15.36-18.72-20.16-7.92-4.8-16.68-7.2-26.28-7.2-9.6 0-18.36 2.4-26.28 7.2-7.92 4.8-14.28 11.52-19.08 20.16-4.56 8.4-6.84 17.88-6.84 28.44 0 10.56 2.28 20.16 6.84 28.8 4.8 8.4 11.16 15 19.08 19.8 7.92 4.8 16.68 7.2 26.28 7.2Zm259.77 34.2c-16.56 0-31.8-3.96-45.72-11.88-13.68-7.92-24.48-18.72-32.4-32.4-7.92-13.92-11.88-29.16-11.88-45.72s3.96-31.68 11.88-45.36c7.92-13.68 18.6-24.48 32.04-32.4 13.44-8.16 28.2-12.24 44.28-12.24 16.08 0 30.48 3.72 43.2 11.16 12.96 7.2 23.04 17.28 30.24 30.24 7.44 12.72 11.16 27.12 11.16 43.2 0 6.48-.6 12.48-1.8 18h-133.2c1.92 12 7.92 22.2 18 30.6 10.08 8.4 22.08 12.6 36 12.6 17.52 0 33.72-6.96 48.6-20.88l23.4 23.04c-6.72 8.4-16.56 15.84-29.52 22.32-12.72 6.48-27.48 9.72-44.28 9.72Zm45.36-106.2c-2.64-12.72-8.04-22.8-16.2-30.24-8.16-7.44-18.48-11.16-30.96-11.16-13.44 0-24.48 3.72-33.12 11.16-8.4 7.44-14.4 17.52-18 30.24h98.28Zm185.33 106.2c-14.4 0-27.84-3.84-40.32-11.52-12.24-7.92-22.08-18.72-29.52-32.4-7.44-13.68-11.16-29.04-11.16-46.08s3.72-32.4 11.16-46.08c7.44-13.68 17.28-24.36 29.52-32.04 12.48-7.92 25.92-11.88 40.32-11.88 13.44 0 25.44 2.88 36 8.64 10.8 5.76 18.48 12.24 23.04 19.44h.36V924h36v252h-36v-24.48h-.36c-4.56 7.2-12.24 13.68-23.04 19.44-10.56 5.76-22.56 8.64-36 8.64Zm7.2-34.2c9.6 0 18.36-2.4 26.28-7.2 7.92-4.8 14.16-11.4 18.72-19.8 4.8-8.64 7.2-18.24 7.2-28.8 0-10.56-2.4-20.04-7.2-28.44-4.56-8.64-10.8-15.36-18.72-20.16-7.92-4.8-16.68-7.2-26.28-7.2-9.6 0-18.36 2.4-26.28 7.2-7.92 4.8-14.28 11.52-19.08 20.16-4.56 8.4-6.84 17.88-6.84 28.44 0 10.56 2.28 20.16 6.84 28.8 4.8 8.4 11.16 15 19.08 19.8 7.92 4.8 16.68 7.2 26.28 7.2Zm180.57 30.6v-172.8h36v22.68h.72c4.56-6.72 11.4-12.72 20.52-18 9.36-5.52 19.68-8.28 30.96-8.28h9v37.8c-5.52-1.2-10.32-1.8-14.4-1.8-8.4 0-16.2 2.28-23.4 6.84-7.2 4.32-12.96 10.56-17.28 18.72-4.08 7.92-6.12 16.8-6.12 26.64v88.2h-36Zm236.32 3.6c-13.2 0-24.96-3-35.28-9-10.32-6.24-18.48-15-24.48-26.28-5.76-11.52-8.64-24.96-8.64-40.32v-100.8h36V1104c0 12.48 3.6 22.56 10.8 30.24 7.44 7.44 17.04 11.16 28.8 11.16 13.68 0 24.84-4.44 33.48-13.32 8.88-9.12 13.32-20.88 13.32-35.28v-93.6h36V1176h-36v-24.48h-.36c-4.56 7.2-11.76 13.68-21.6 19.44-9.6 5.76-20.28 8.64-32.04 8.64Zm259.67 0c-16.56 0-31.8-3.96-45.72-11.88-13.68-7.92-24.48-18.72-32.4-32.4-7.92-13.92-11.88-29.16-11.88-45.72s3.96-31.68 11.88-45.36c7.92-13.92 18.72-24.84 32.4-32.76 13.92-7.92 29.16-11.88 45.72-11.88 16.32 0 30.72 3.48 43.2 10.44 12.48 6.72 22.44 14.76 29.88 24.12l-25.92 21.96c-13.44-14.88-29.16-22.32-47.16-22.32-10.08 0-19.32 2.4-27.72 7.2-8.16 4.8-14.64 11.52-19.44 20.16-4.56 8.4-6.84 17.88-6.84 28.44 0 10.56 2.28 20.16 6.84 28.8 4.8 8.4 11.28 15 19.44 19.8 8.4 4.8 17.64 7.2 27.72 7.2 10.32 0 19.56-2.16 27.72-6.48 8.4-4.56 15.48-10.2 21.24-16.92l25.92 21.96c-7.68 9.6-18 18-30.96 25.2-12.96 6.96-27.6 10.44-43.92 10.44Zm225.92-94.68 81.72 91.08h-46.08l-74.52-85.32V1176h-36V924h36v158.76l71.64-79.56h43.56l-76.32 81.72Z"/>
</svg>
