<svg xmlns="http://www.w3.org/2000/svg" width="4561" height="1260" fill="none" viewBox="0 0 4561 1260">
  <path fill="#fff" d="M580.944 504v99h21.581l82.046-99h60.916L645.361 623.88 752.489 756h-66.517l-82.151-102.6h-22.877V756h-52.513V504h52.513Zm259.007 252h-54V504h54v99h108v-99h53.999v252h-53.999V653.4h-108V756Zm228.649 1c-6.73 0-12.9-1.6-18.5-4.8-5.6-3.2-10.03-7.533-13.3-13-3.2-5.533-4.8-11.6-4.8-18.2s1.6-12.633 4.8-18.1c3.27-5.533 7.7-9.9 13.3-13.1 5.6-3.2 11.77-4.8 18.5-4.8 6.8 0 13 1.6 18.6 4.8 5.6 3.2 10 7.567 13.2 13.1 3.27 5.467 4.9 11.5 4.9 18.1 0 6.6-1.63 12.667-4.9 18.2-3.2 5.467-7.6 9.8-13.2 13-5.6 3.2-11.8 4.8-18.6 4.8Zm0-6.2c5.47 0 10.47-1.3 15-3.9 4.6-2.667 8.23-6.267 10.9-10.8 2.67-4.6 4-9.633 4-15.1 0-5.467-1.33-10.467-4-15-2.67-4.6-6.3-8.2-10.9-10.8-4.53-2.667-9.53-4-15-4-5.47 0-10.47 1.333-15 4-4.53 2.6-8.13 6.2-10.8 10.8-2.67 4.533-4 9.533-4 15 0 5.467 1.33 10.5 4 15.1 2.67 4.533 6.27 8.133 10.8 10.8 4.53 2.6 9.53 3.9 15 3.9Zm-12.6-11.3v-37h14.3c3.67 0 6.7 1.133 9.1 3.4 2.47 2.267 3.7 5.033 3.7 8.3 0 2.533-.73 4.667-2.2 6.4-1.4 1.733-3 2.933-4.8 3.6l8.5 15.3h-7l-7.3-13.7h-7.8v13.7h-6.5Zm14.3-19.8c2.07 0 3.63-.5 4.7-1.5 1.07-1 1.6-2.333 1.6-4 0-1.733-.53-3.067-1.6-4-1.07-1-2.63-1.5-4.7-1.5h-7.8v11h7.8Zm311.9 288.3h-32.4V252h32.4v756Zm403.92-248.4c-24.24 0-46.44-5.76-66.6-17.28-19.92-11.52-35.76-27.12-47.52-46.8-11.52-19.92-17.28-41.76-17.28-65.52 0-23.76 5.76-45.48 17.28-65.16 11.76-19.92 27.6-35.64 47.52-47.16 20.16-11.52 42.36-17.28 66.6-17.28 22.8 0 43.08 4.92 60.84 14.76 17.76 9.84 31.68 21.48 41.76 34.92l-23.04 18.36c-8.64-10.56-19.56-19.56-32.76-27-12.96-7.44-28.56-11.16-46.8-11.16s-34.92 4.44-50.04 13.32c-15.12 8.88-27.12 21-36 36.36-8.64 15.12-12.96 31.8-12.96 50.04s4.32 35.04 12.96 50.4c8.88 15.12 20.88 27.12 36 36 15.12 8.88 31.8 13.32 50.04 13.32 16.32 0 31.2-3.24 44.64-9.72 13.44-6.72 23.52-14.16 30.24-22.32v-43.56h-58.32v-28.8h90.72v83.88c-6 7.92-14.28 15.72-24.84 23.4-10.56 7.68-23.04 14.16-37.44 19.44-14.16 5.04-29.16 7.56-45 7.56Zm236.17 0c-16.08 0-30.84-3.96-44.28-11.88-13.44-8.16-24.12-19.08-32.04-32.76-7.92-13.68-11.88-28.8-11.88-45.36 0-16.8 3.84-32.04 11.52-45.72 7.92-13.68 18.48-24.48 31.68-32.4 13.2-7.92 27.6-11.88 43.2-11.88 15.36 0 29.4 3.72 42.12 11.16 12.72 7.44 22.68 17.76 29.88 30.96 7.2 12.96 10.8 27.72 10.8 44.28 0 3.84-.36 8.64-1.08 14.4h-137.52c1.92 14.4 8.4 26.52 19.44 36.36 11.04 9.84 24.24 14.76 39.6 14.76 18.96 0 35.88-7.92 50.76-23.76l19.8 18.36c-6.96 9.12-16.68 17.04-29.16 23.76-12.24 6.48-26.52 9.72-42.84 9.72Zm50.76-103.68c-2.4-15.12-8.28-27.12-17.64-36-9.12-8.88-20.76-13.32-34.92-13.32-14.64 0-27 4.68-37.08 14.04-10.08 9.12-16.44 20.88-19.08 35.28h108.72Zm164.08 103.68c-13.92 0-26.52-3.12-37.8-9.36-11.04-6.48-18.84-13.68-23.4-21.6h-.36V756h-29.52V504h29.52v106.56h.36c4.56-7.92 12.36-15 23.4-21.24 11.28-6.48 23.88-9.72 37.8-9.72 14.4 0 27.72 3.96 39.96 11.88 12.48 7.68 22.44 18.36 29.88 32.04 7.44 13.68 11.16 29.04 11.16 46.08s-3.72 32.4-11.16 46.08c-7.44 13.68-17.4 24.48-29.88 32.4-12.24 7.68-25.56 11.52-39.96 11.52Zm-4.68-28.08c10.08 0 19.44-2.64 28.08-7.92 8.64-5.52 15.48-12.96 20.52-22.32 5.28-9.36 7.92-19.92 7.92-31.68 0-11.76-2.64-22.32-7.92-31.68-5.04-9.36-11.88-16.68-20.52-21.96-8.64-5.52-18-8.28-28.08-8.28-10.32 0-19.92 2.64-28.8 7.92-8.64 5.28-15.48 12.72-20.52 22.32-5.04 9.36-7.56 19.92-7.56 31.68 0 11.76 2.52 22.44 7.56 32.04 5.04 9.36 11.88 16.68 20.52 21.96 8.88 5.28 18.48 7.92 28.8 7.92Zm192.44-151.92c13.68 0 25.8 2.88 36.36 8.64 10.56 5.76 18.72 13.8 24.48 24.12 6 10.08 9 21.6 9 34.56V756h-28.44v-26.28h-.36c-4.56 7.68-12.12 14.64-22.68 20.88-10.56 6-22.44 9-35.64 9-11.28 0-21.36-2.28-30.24-6.84-8.88-4.56-15.84-10.56-20.88-18-4.8-7.68-7.2-15.96-7.2-24.84 0-14.4 4.8-26.28 14.4-35.64 9.6-9.6 23.04-15.84 40.32-18.72l61.2-10.08v-.72c0-11.04-3.84-20.16-11.52-27.36-7.44-7.2-17.04-10.8-28.8-10.8-9.6 0-18.24 2.16-25.92 6.48-7.44 4.32-14.4 10.08-20.88 17.28L2359.01 612c7.68-9.12 17.04-16.8 28.08-23.04 11.04-6.24 23.64-9.36 37.8-9.36Zm-12.96 154.08c9.84 0 18.84-2.4 27-7.2 8.16-4.8 14.52-11.28 19.08-19.44 4.8-8.4 7.2-17.64 7.2-27.72v-9.72l-54 9.36c-10.8 1.92-18.96 5.4-24.48 10.44-5.28 5.04-7.92 11.04-7.92 18 0 7.2 3 13.44 9 18.72 6.24 5.04 14.28 7.56 24.12 7.56Zm-16.2-185.76c-5.04 0-9.48-1.8-13.32-5.4-3.6-3.6-5.4-8.04-5.4-13.32 0-5.28 1.8-9.72 5.4-13.32 3.84-3.6 8.28-5.4 13.32-5.4 4.8 0 9 1.8 12.6 5.4 3.84 3.6 5.76 8.04 5.76 13.32 0 5.28-1.92 9.72-5.76 13.32-3.6 3.6-7.8 5.4-12.6 5.4Zm68.76 0c-4.8 0-9.12-1.8-12.96-5.4-3.6-3.6-5.4-8.04-5.4-13.32 0-5.28 1.8-9.72 5.4-13.32 3.84-3.6 8.16-5.4 12.96-5.4 5.04 0 9.36 1.8 12.96 5.4 3.84 3.6 5.76 8.04 5.76 13.32 0 5.28-1.92 9.72-5.76 13.32-3.6 3.6-7.92 5.4-12.96 5.4Zm149.62 211.68c-13.2 0-25.08-3.12-35.64-9.36-10.32-6.24-18.48-15-24.48-26.28-6-11.28-9-24.36-9-39.24V583.2h29.52v101.52c0 13.92 4.08 25.2 12.24 33.84 8.4 8.64 19.08 12.96 32.04 12.96 9.6 0 18.24-2.28 25.92-6.84 7.92-4.56 14.04-10.92 18.36-19.08 4.56-8.16 6.84-17.4 6.84-27.72V583.2h29.16V756h-29.16v-26.28h-.36c-4.56 7.68-11.88 14.64-21.96 20.88-10.08 6-21.24 9-33.48 9Zm208.52 0c-14.4 0-27.84-3.84-40.32-11.52-12.24-7.92-22.08-18.72-29.52-32.4-7.44-13.68-11.16-29.04-11.16-46.08s3.72-32.4 11.16-46.08c7.44-13.68 17.28-24.36 29.52-32.04 12.48-7.92 25.92-11.88 40.32-11.88 14.16 0 26.76 3.24 37.8 9.72 11.04 6.24 18.96 13.32 23.76 21.24h.36V504h29.52v252h-29.52v-27.36h-.36c-4.8 7.92-12.72 15.12-23.76 21.6-11.04 6.24-23.64 9.36-37.8 9.36Zm5.04-28.08c10.32 0 19.8-2.64 28.44-7.92 8.64-5.52 15.48-12.96 20.52-22.32 5.28-9.36 7.92-19.92 7.92-31.68 0-11.76-2.64-22.32-7.92-31.68-5.04-9.36-11.88-16.68-20.52-21.96-8.64-5.52-18.12-8.28-28.44-8.28-10.08 0-19.44 2.76-28.08 8.28-8.64 5.28-15.6 12.6-20.88 21.96-5.04 9.36-7.56 19.92-7.56 31.68 0 11.76 2.52 22.32 7.56 31.68 5.28 9.36 12.24 16.8 20.88 22.32 8.64 5.28 18 7.92 28.08 7.92Zm218.73 28.08c-16.08 0-30.84-3.96-44.28-11.88-13.44-8.16-24.12-19.08-32.04-32.76-7.92-13.68-11.88-28.8-11.88-45.36 0-16.8 3.84-32.04 11.52-45.72 7.92-13.68 18.48-24.48 31.68-32.4 13.2-7.92 27.6-11.88 43.2-11.88 15.36 0 29.4 3.72 42.12 11.16 12.72 7.44 22.68 17.76 29.88 30.96 7.2 12.96 10.8 27.72 10.8 44.28 0 3.84-.36 8.64-1.08 14.4H2988.8c1.92 14.4 8.4 26.52 19.44 36.36 11.04 9.84 24.24 14.76 39.6 14.76 18.96 0 35.88-7.92 50.76-23.76l19.8 18.36c-6.96 9.12-16.68 17.04-29.16 23.76-12.24 6.48-26.52 9.72-42.84 9.72Zm50.76-103.68c-2.4-15.12-8.28-27.12-17.64-36-9.12-8.88-20.76-13.32-34.92-13.32-14.64 0-27 4.68-37.08 14.04-10.08 9.12-16.44 20.88-19.08 35.28h108.72Zm140.67 103.68c-14.4 0-27.84-3.84-40.32-11.52-12.24-7.92-22.08-18.72-29.52-32.4-7.44-13.68-11.16-29.04-11.16-46.08s3.72-32.4 11.16-46.08c7.44-13.68 17.28-24.36 29.52-32.04 12.48-7.92 25.92-11.88 40.32-11.88 14.16 0 26.76 3.24 37.8 9.72 11.04 6.24 18.96 13.32 23.76 21.24h.36V504h29.52v252h-29.52v-27.36h-.36c-4.8 7.92-12.72 15.12-23.76 21.6-11.04 6.24-23.64 9.36-37.8 9.36Zm5.04-28.08c10.32 0 19.8-2.64 28.44-7.92 8.64-5.52 15.48-12.96 20.52-22.32 5.28-9.36 7.92-19.92 7.92-31.68 0-11.76-2.64-22.32-7.92-31.68-5.04-9.36-11.88-16.68-20.52-21.96-8.64-5.52-18.12-8.28-28.44-8.28-10.08 0-19.44 2.76-28.08 8.28-8.64 5.28-15.6 12.6-20.88 21.96-5.04 9.36-7.56 19.92-7.56 31.68 0 11.76 2.52 22.32 7.56 31.68 5.28 9.36 12.24 16.8 20.88 22.32 8.64 5.28 18 7.92 28.08 7.92ZM3384.91 756V583.2h29.52v25.2h.36c4.8-7.44 12-14.04 21.6-19.8 9.84-6 20.88-9 33.12-9h8.28v30.6c-5.76-.72-9.72-1.08-11.88-1.08-9.36 0-18 2.4-25.92 7.2-7.68 4.8-13.92 11.52-18.72 20.16-4.56 8.4-6.84 17.88-6.84 28.44V756h-29.52Zm194.24 3.6c-13.2 0-25.08-3.12-35.64-9.36-10.32-6.24-18.48-15-24.48-26.28-6-11.28-9-24.36-9-39.24V583.2h29.52v101.52c0 13.92 4.08 25.2 12.24 33.84 8.4 8.64 19.08 12.96 32.04 12.96 9.6 0 18.24-2.28 25.92-6.84 7.92-4.56 14.04-10.92 18.36-19.08 4.56-8.16 6.84-17.4 6.84-27.72V583.2h29.16V756h-29.16v-26.28h-.36c-4.56 7.68-11.88 14.64-21.96 20.88-10.08 6-21.24 9-33.48 9Zm215.72 0c-16.08 0-30.84-3.96-44.28-11.88-13.44-8.16-24.12-19.08-32.04-32.76-7.92-13.68-11.88-28.8-11.88-45.36s3.96-31.68 11.88-45.36c7.92-13.68 18.6-24.48 32.04-32.4 13.44-8.16 28.2-12.24 44.28-12.24 16.08 0 30.24 3.6 42.48 10.8 12.48 6.96 22.2 15 29.16 24.12l-21.24 18c-5.76-6.96-12.84-12.84-21.24-17.64-8.4-4.8-18.12-7.2-29.16-7.2-10.8 0-20.64 2.76-29.52 8.28-8.88 5.28-15.96 12.72-21.24 22.32-5.28 9.36-7.92 19.8-7.92 31.32s2.64 22.08 7.92 31.68c5.28 9.36 12.36 16.8 21.24 22.32 8.88 5.28 18.72 7.92 29.52 7.92 11.04 0 20.88-2.4 29.52-7.2 8.88-5.04 16.2-11.16 21.96-18.36l21.6 18c-7.44 9.6-17.52 18-30.24 25.2-12.48 6.96-26.76 10.44-42.84 10.44Zm175.5-93.96 87.48 90.36h-38.88l-81.72-86.04V756h-29.52V504h29.52v159.48l77.76-80.28h36.72l-81.36 82.44Z"/>
</svg>
