<svg xmlns="http://www.w3.org/2000/svg" width="1538" height="1260" fill="none" viewBox="0 0 1538 1260">
  <path fill="#fff" d="M578.313 504v99h20.83l79.185-99h58.792l-96.636 119.88L743.878 756H679.68l-79.287-102.6h-22.08V756h-50.682V504h50.682Zm260.839 252h-54V504h54v99h108v-99h53.998v252h-53.998V653.4h-108V756Zm228.648 1c-6.73 0-12.9-1.6-18.5-4.8-5.6-3.2-10.03-7.533-13.3-13-3.2-5.533-4.8-11.6-4.8-18.2s1.6-12.633 4.8-18.1c3.27-5.533 7.7-9.9 13.3-13.1 5.6-3.2 11.77-4.8 18.5-4.8 6.8 0 13 1.6 18.6 4.8 5.6 3.2 10 7.567 13.2 13.1 3.27 5.467 4.9 11.5 4.9 18.1 0 6.6-1.63 12.667-4.9 18.2-3.2 5.467-7.6 9.8-13.2 13-5.6 3.2-11.8 4.8-18.6 4.8Zm0-6.2c5.47 0 10.47-1.3 15-3.9 4.6-2.667 8.23-6.267 10.9-10.8 2.67-4.6 4-9.633 4-15.1 0-5.467-1.33-10.467-4-15-2.67-4.6-6.3-8.2-10.9-10.8-4.53-2.667-9.53-4-15-4-5.47 0-10.47 1.333-15 4-4.53 2.6-8.13 6.2-10.8 10.8-2.67 4.533-4 9.533-4 15 0 5.467 1.33 10.5 4 15.1 2.67 4.533 6.27 8.133 10.8 10.8 4.53 2.6 9.53 3.9 15 3.9Zm-12.6-11.3v-37h14.3c3.67 0 6.7 1.133 9.1 3.4 2.47 2.267 3.7 5.033 3.7 8.3 0 2.533-.73 4.667-2.2 6.4-1.4 1.733-3 2.933-4.8 3.6l8.5 15.3h-7l-7.3-13.7h-7.8v13.7h-6.5Zm14.3-19.8c2.07 0 3.63-.5 4.7-1.5 1.07-1 1.6-2.333 1.6-4 0-1.733-.53-3.067-1.6-4-1.07-1-2.63-1.5-4.7-1.5h-7.8v11h7.8Z"/>
</svg>
