<svg xmlns="http://www.w3.org/2000/svg" width="5449" height="1008" fill="none" viewBox="0 0 5449 1008">
  <path fill="#fff" d="M306 477h46.094l61.99-99h57.026l-75.652 119.88L476.4 630h-61.257l-62.071-102.6H306V630h-54V378h54v99Zm255.252 153h-54V378h54v99h108v-99h54v252h-54V527.4h-108V630Zm218.548 1c-6.733 0-12.9-1.6-18.5-4.8-5.6-3.2-10.033-7.533-13.3-13-3.2-5.533-4.8-11.6-4.8-18.2s1.6-12.633 4.8-18.1c3.267-5.533 7.7-9.9 13.3-13.1 5.6-3.2 11.767-4.8 18.5-4.8 6.8 0 13 1.6 18.6 4.8 5.6 3.2 10 7.567 13.2 13.1 3.267 5.467 4.9 11.5 4.9 18.1 0 6.6-1.633 12.667-4.9 18.2-3.2 5.467-7.6 9.8-13.2 13-5.6 3.2-11.8 4.8-18.6 4.8Zm0-6.2c5.467 0 10.467-1.3 15-3.9 4.6-2.667 8.233-6.267 10.9-10.8 2.667-4.6 4-9.633 4-15.1 0-5.467-1.333-10.467-4-15-2.667-4.6-6.3-8.2-10.9-10.8-4.533-2.667-9.533-4-15-4-5.467 0-10.467 1.333-15 4-4.533 2.6-8.133 6.2-10.8 10.8-2.667 4.533-4 9.533-4 15 0 5.467 1.333 10.5 4 15.1 2.667 4.533 6.267 8.133 10.8 10.8 4.533 2.6 9.533 3.9 15 3.9Zm-12.6-11.3v-37h14.3c3.667 0 6.7 1.133 9.1 3.4 2.467 2.267 3.7 5.033 3.7 8.3 0 2.533-.733 4.667-2.2 6.4-1.4 1.733-3 2.933-4.8 3.6l8.5 15.3h-7l-7.3-13.7h-7.8v13.7h-6.5Zm14.3-19.8c2.067 0 3.633-.5 4.7-1.5 1.067-1 1.6-2.333 1.6-4 0-1.733-.533-3.067-1.6-4-1.067-1-2.633-1.5-4.7-1.5h-7.8v11h7.8Z"/>
  <path fill="#736A6A" d="M1081 756h-42V252h42v504Z"/>
  <path fill="#fff" d="M1364.96 630h-33.48l101.88-252h35.28l101.88 252h-34.56l-27.36-67.68h-116.64l-27 67.68Zm84.96-213.84-46.08 115.92h92.88l-46.08-115.92h-.72ZM1600.07 630V457.2h29.52v25.2h.36c4.8-7.44 12-14.04 21.6-19.8 9.84-6 20.88-9 33.12-9h8.28v30.6c-5.76-.72-9.72-1.08-11.88-1.08-9.36 0-18 2.4-25.92 7.2-7.68 4.8-13.92 11.52-18.72 20.16-4.56 8.4-6.84 17.88-6.84 28.44V630h-29.52Zm196.08 3.6c-16.08 0-30.84-3.96-44.28-11.88-13.44-8.16-24.12-19.08-32.04-32.76-7.92-13.68-11.88-28.8-11.88-45.36s3.96-31.68 11.88-45.36c7.92-13.68 18.6-24.48 32.04-32.4 13.44-8.16 28.2-12.24 44.28-12.24 16.08 0 30.24 3.6 42.48 10.8 12.48 6.96 22.2 15 29.16 24.12l-21.24 18c-5.76-6.96-12.84-12.84-21.24-17.64-8.4-4.8-18.12-7.2-29.16-7.2-10.8 0-20.64 2.76-29.52 8.28-8.88 5.28-15.96 12.72-21.24 22.32-5.28 9.36-7.92 19.8-7.92 31.32s2.64 22.08 7.92 31.68c5.28 9.36 12.36 16.8 21.24 22.32 8.88 5.28 18.72 7.92 29.52 7.92 11.04 0 20.88-2.4 29.52-7.2 8.88-5.04 16.2-11.16 21.96-18.36l21.6 18c-7.44 9.6-17.52 18-30.24 25.2-12.48 6.96-26.76 10.44-42.84 10.44ZM1905 630V378h29.52v105.48h.36c4.8-7.68 12.12-14.52 21.96-20.52 9.84-6.24 21-9.36 33.48-9.36 13.2 0 24.96 3.12 35.28 9.36 10.56 6.24 18.72 15 24.48 26.28 6 11.28 9 24.36 9 39.24V630h-29.16V528.48c0-13.92-4.2-25.2-12.6-33.84-8.4-8.64-19.08-12.96-32.04-12.96-14.4 0-26.52 5.04-36.36 15.12-9.6 10.08-14.4 22.92-14.4 38.52V630H1905Zm233.65 0h-29.52V457.2h29.52V630Zm-14.76-208.08c-5.04 0-9.48-1.8-13.32-5.4-3.6-3.6-5.4-8.04-5.4-13.32 0-5.28 1.8-9.72 5.4-13.32 3.84-3.6 8.28-5.4 13.32-5.4 4.8 0 9 1.8 12.6 5.4 3.84 3.6 5.76 8.04 5.76 13.32 0 5.28-1.92 9.72-5.76 13.32-3.6 3.6-7.8 5.4-12.6 5.4ZM2256.4 631.8c-16.08 0-28.56-4.56-37.44-13.68-8.64-9.36-12.96-22.8-12.96-40.32v-92.52h-32.76V457.2h20.88c10.08 0 15.12-6 15.12-18v-39.6h26.28v57.6h42.12v28.08h-42.12v90c0 9.36 2.28 16.44 6.84 21.24 4.56 4.8 10.92 7.2 19.08 7.2 6.72 0 13.68-1.8 20.88-5.4v28.08c-2.88 1.44-6.72 2.64-11.52 3.6-4.56 1.2-9.36 1.8-14.4 1.8Zm135.47 1.8c-16.08 0-30.84-3.96-44.28-11.88-13.44-8.16-24.12-19.08-32.04-32.76-7.92-13.68-11.88-28.8-11.88-45.36 0-16.8 3.84-32.04 11.52-45.72 7.92-13.68 18.48-24.48 31.68-32.4 13.2-7.92 27.6-11.88 43.2-11.88 15.36 0 29.4 3.72 42.12 11.16 12.72 7.44 22.68 17.76 29.88 30.96 7.2 12.96 10.8 27.72 10.8 44.28 0 3.84-.36 8.64-1.08 14.4h-137.52c1.92 14.4 8.4 26.52 19.44 36.36 11.04 9.84 24.24 14.76 39.6 14.76 18.96 0 35.88-7.92 50.76-23.76l19.8 18.36c-6.96 9.12-16.68 17.04-29.16 23.76-12.24 6.48-26.52 9.72-42.84 9.72Zm50.76-103.68c-2.4-15.12-8.28-27.12-17.64-36-9.12-8.88-20.76-13.32-34.92-13.32-14.64 0-27 4.68-37.08 14.04-10.08 9.12-16.44 20.88-19.08 35.28h108.72ZM2541.14 630h-29.52V378h29.52v166.32l81-87.12h37.08l-65.88 70.2L2665.7 630h-34.2l-57.6-81.72-32.76 34.92V630Zm211.62 1.8c-16.08 0-28.56-4.56-37.44-13.68-8.64-9.36-12.96-22.8-12.96-40.32v-92.52h-32.76V457.2h20.88c10.08 0 15.12-6 15.12-18v-39.6h26.28v57.6H2774v28.08h-42.12v90c0 9.36 2.28 16.44 6.84 21.24 4.56 4.8 10.92 7.2 19.08 7.2 6.72 0 13.68-1.8 20.88-5.4v28.08c-2.88 1.44-6.72 2.64-11.52 3.6-4.56 1.2-9.36 1.8-14.4 1.8Zm135.47 1.8c-16.08 0-30.84-3.96-44.28-11.88-13.44-8.16-24.12-19.08-32.04-32.76-7.92-13.68-11.88-28.8-11.88-45.36 0-16.8 3.84-32.04 11.52-45.72 7.92-13.68 18.48-24.48 31.68-32.4 13.2-7.92 27.6-11.88 43.2-11.88 15.36 0 29.4 3.72 42.12 11.16 12.72 7.44 22.68 17.76 29.88 30.96 7.2 12.96 10.8 27.72 10.8 44.28 0 3.84-.36 8.64-1.08 14.4h-137.52c1.92 14.4 8.4 26.52 19.44 36.36 11.04 9.84 24.24 14.76 39.6 14.76 18.96 0 35.88-7.92 50.76-23.76l19.8 18.36c-6.96 9.12-16.68 17.04-29.16 23.76-12.24 6.48-26.52 9.72-42.84 9.72Zm50.76-103.68c-2.4-15.12-8.28-27.12-17.64-36-9.12-8.88-20.76-13.32-34.92-13.32-14.64 0-27 4.68-37.08 14.04-10.08 9.12-16.44 20.88-19.08 35.28h108.72ZM3006.18 630V457.2h29.52v26.28h.36c4.8-7.68 12.12-14.52 21.96-20.52 9.84-6.24 21-9.36 33.48-9.36 13.2 0 24.96 3.12 35.28 9.36 10.56 6.24 18.72 15 24.48 26.28 6 11.28 9 24.36 9 39.24V630h-29.16V528.48c0-13.92-4.2-25.2-12.6-33.84-8.4-8.64-19.08-12.96-32.04-12.96-14.4 0-26.52 5.04-36.36 15.12-9.6 10.08-14.4 22.92-14.4 38.52V630h-29.52Zm367.83-25.92h-25.56v-66.6h-65.52v-27h65.52v-66.6h25.56v66.6h65.52v27h-65.52v66.6ZM3606.06 630h-32.4V378h32.4v252Zm60.39 0V457.2h29.52v26.28h.36c4.8-7.68 12.12-14.52 21.96-20.52 9.84-6.24 21-9.36 33.48-9.36 13.2 0 24.96 3.12 35.28 9.36 10.56 6.24 18.72 15 24.48 26.28 6 11.28 9 24.36 9 39.24V630h-29.16V528.48c0-13.92-4.2-25.2-12.6-33.84-8.4-8.64-19.08-12.96-32.04-12.96-14.4 0-26.52 5.04-36.36 15.12-9.6 10.08-14.4 22.92-14.4 38.52V630h-29.52Zm271.85 75.6c-15.84 0-30.72-3.84-44.64-11.52-13.68-7.44-23.52-15.6-29.52-24.48l20.88-19.08c4.56 6.72 11.76 12.84 21.6 18.36 10.08 5.76 20.64 8.64 31.68 8.64 16.8 0 30.24-5.64 40.32-16.92 10.32-11.28 15.48-25.92 15.48-43.92v-20.16h-.36c-5.52 8.4-13.56 15.48-24.12 21.24-10.56 5.76-21.96 8.64-34.2 8.64-13.92 0-26.88-3.72-38.88-11.16-12-7.44-21.6-17.76-28.8-30.96-6.96-13.2-10.44-27.96-10.44-44.28s3.48-31.08 10.44-44.28c7.2-13.2 16.8-23.52 28.8-30.96 12-7.44 24.96-11.16 38.88-11.16 13.2 0 24.96 3.12 35.28 9.36 10.56 6.24 18.24 13.08 23.04 20.52h.36V457.2h29.52v159.48c0 16.8-3.72 31.92-11.16 45.36-7.2 13.68-17.28 24.36-30.24 32.04-12.96 7.68-27.6 11.52-43.92 11.52Zm1.8-107.28c10.08 0 19.2-2.52 27.36-7.56 8.16-5.04 14.64-11.88 19.44-20.52 4.8-8.88 7.2-18.96 7.2-30.24 0-11.28-2.4-21.24-7.2-29.88-4.8-8.88-11.28-15.84-19.44-20.88-8.16-5.04-17.28-7.56-27.36-7.56-9.6 0-18.48 2.52-26.64 7.56-8.16 5.04-14.64 12-19.44 20.88-4.8 8.88-7.2 18.84-7.2 29.88s2.4 21 7.2 29.88c4.8 8.88 11.28 15.84 19.44 20.88 8.16 5.04 17.04 7.56 26.64 7.56Zm210.23 35.28c-16.08 0-30.84-3.96-44.28-11.88-13.44-8.16-24.12-19.08-32.04-32.76-7.92-13.68-11.88-28.8-11.88-45.36 0-16.8 3.84-32.04 11.52-45.72 7.92-13.68 18.48-24.48 31.68-32.4 13.2-7.92 27.6-11.88 43.2-11.88 15.36 0 29.4 3.72 42.12 11.16 12.72 7.44 22.68 17.76 29.88 30.96 7.2 12.96 10.8 27.72 10.8 44.28 0 3.84-.36 8.64-1.08 14.4h-137.52c1.92 14.4 8.4 26.52 19.44 36.36 11.04 9.84 24.24 14.76 39.6 14.76 18.96 0 35.88-7.92 50.76-23.76l19.8 18.36c-6.96 9.12-16.68 17.04-29.16 23.76-12.24 6.48-26.52 9.72-42.84 9.72Zm50.76-103.68c-2.4-15.12-8.28-27.12-17.64-36-9.12-8.88-20.76-13.32-34.92-13.32-14.64 0-27 4.68-37.08 14.04-10.08 9.12-16.44 20.88-19.08 35.28h108.72ZM4268.28 630V457.2h29.52v26.28h.36c4.8-7.68 12.12-14.52 21.96-20.52 9.84-6.24 21-9.36 33.48-9.36 13.2 0 24.96 3.12 35.28 9.36 10.56 6.24 18.72 15 24.48 26.28 6 11.28 9 24.36 9 39.24V630h-29.16V528.48c0-13.92-4.2-25.2-12.6-33.84-8.4-8.64-19.08-12.96-32.04-12.96-14.4 0-26.52 5.04-36.36 15.12-9.6 10.08-14.4 22.92-14.4 38.52V630h-29.52Zm233.69 0h-29.52V457.2h29.52V630Zm-14.76-208.08c-5.04 0-9.48-1.8-13.32-5.4-3.6-3.6-5.4-8.04-5.4-13.32 0-5.28 1.8-9.72 5.4-13.32 3.84-3.6 8.28-5.4 13.32-5.4 4.8 0 9 1.8 12.6 5.4 3.84 3.6 5.76 8.04 5.76 13.32 0 5.28-1.92 9.72-5.76 13.32-3.6 3.6-7.8 5.4-12.6 5.4Zm143.31 211.68c-16.08 0-30.84-3.96-44.28-11.88-13.44-8.16-24.12-19.08-32.04-32.76-7.92-13.68-11.88-28.8-11.88-45.36 0-16.8 3.84-32.04 11.52-45.72 7.92-13.68 18.48-24.48 31.68-32.4 13.2-7.92 27.6-11.88 43.2-11.88 15.36 0 29.4 3.72 42.12 11.16 12.72 7.44 22.68 17.76 29.88 30.96 7.2 12.96 10.8 27.72 10.8 44.28 0 3.84-.36 8.64-1.08 14.4h-137.52c1.92 14.4 8.4 26.52 19.44 36.36 11.04 9.84 24.24 14.76 39.6 14.76 18.96 0 35.88-7.92 50.76-23.76l19.8 18.36c-6.96 9.12-16.68 17.04-29.16 23.76-12.24 6.48-26.52 9.72-42.84 9.72Zm50.76-103.68c-2.4-15.12-8.28-27.12-17.64-36-9.12-8.88-20.76-13.32-34.92-13.32-14.64 0-27 4.68-37.08 14.04-10.08 9.12-16.44 20.88-19.08 35.28h108.72Zm134.51 103.68c-13.2 0-25.08-3.12-35.64-9.36-10.32-6.24-18.48-15-24.48-26.28-6-11.28-9-24.36-9-39.24V457.2h29.52v101.52c0 13.92 4.08 25.2 12.24 33.84 8.4 8.64 19.08 12.96 32.04 12.96 9.6 0 18.24-2.28 25.92-6.84 7.92-4.56 14.04-10.92 18.36-19.08 4.56-8.16 6.84-17.4 6.84-27.72V457.2h29.16V630h-29.16v-26.28h-.36c-4.56 7.68-11.88 14.64-21.96 20.88-10.08 6-21.24 9-33.48 9Zm135.05-3.6V457.2h29.52v25.2h.36c4.8-7.44 12-14.04 21.6-19.8 9.84-6 20.88-9 33.12-9h8.28v30.6c-5.76-.72-9.72-1.08-11.88-1.08-9.36 0-18 2.4-25.92 7.2-7.68 4.8-13.92 11.52-18.72 20.16-4.56 8.4-6.84 17.88-6.84 28.44V630h-29.52Zm196.07 3.6c-16.08 0-30.84-3.96-44.28-11.88-13.44-8.16-24.12-19.08-32.04-32.76-7.92-13.68-11.88-28.8-11.88-45.36 0-16.8 3.84-32.04 11.52-45.72 7.92-13.68 18.48-24.48 31.68-32.4 13.2-7.92 27.6-11.88 43.2-11.88 15.36 0 29.4 3.72 42.12 11.16 12.72 7.44 22.68 17.76 29.88 30.96 7.2 12.96 10.8 27.72 10.8 44.28 0 3.84-.36 8.64-1.08 14.4h-137.52c1.92 14.4 8.4 26.52 19.44 36.36 11.04 9.84 24.24 14.76 39.6 14.76 18.96 0 35.88-7.92 50.76-23.76l19.8 18.36c-6.96 9.12-16.68 17.04-29.16 23.76-12.24 6.48-26.52 9.72-42.84 9.72Zm50.76-103.68c-2.4-15.12-8.28-27.12-17.64-36-9.12-8.88-20.76-13.32-34.92-13.32-14.64 0-27 4.68-37.08 14.04-10.08 9.12-16.44 20.88-19.08 35.28h108.72Z"/>
</svg>
