<svg xmlns="http://www.w3.org/2000/svg" width="4612" height="1097" fill="none" viewBox="0 0 4612 1097">
  <path fill="#000" d="M306 351h38.492l70.559-99h61.387L390.33 371.88 482.459 504h-66.204l-70.649-102.6H306V504h-54V252h54v99Zm356.033 158.4c-25.68 0-48.96-5.88-69.84-17.64-20.88-11.76-37.32-27.6-49.32-47.52-11.76-20.16-17.64-42.24-17.64-66.24 0-24 5.88-46.08 17.64-66.24 12-20.16 28.44-36 49.32-47.52 20.88-11.76 44.16-17.64 69.84-17.64 25.68 0 48.84 5.88 69.48 17.64 20.88 11.52 37.32 27.36 49.32 47.52 12 20.16 18 42.24 18 66.24 0 24-6 46.08-18 66.24-12 19.92-28.44 35.76-49.32 47.52-20.88 11.76-44.04 17.64-69.48 17.64Zm0-49.68c15.12 0 28.92-3.6 41.4-10.8 12.48-7.2 22.32-17.04 29.52-29.52 7.2-12.48 10.8-26.28 10.8-41.4 0-15.12-3.6-28.92-10.8-41.4-7.2-12.48-17.04-22.32-29.52-29.52-12.48-7.44-26.28-11.16-41.4-11.16-15.12 0-29.04 3.6-41.76 10.8-12.48 7.2-22.32 17.16-29.52 29.88-7.2 12.48-10.8 26.28-10.8 41.4 0 15.12 3.6 28.92 10.8 41.4 7.44 12.48 17.4 22.32 29.88 29.52 12.48 7.2 26.28 10.8 41.4 10.8ZM1096.4 504h-58.68l-46.438-86.4h-48.96V504h-54V252h111.6c16.798 0 31.798 3.6 44.998 10.8 13.44 7.2 23.88 17.16 31.32 29.88 7.44 12.48 11.16 26.52 11.16 42.12 0 16.08-4.08 30.6-12.24 43.56-7.92 12.96-18.84 22.92-32.76 29.88l54 95.76ZM942.322 300.6V369h55.8c10.318 0 18.718-3.24 25.198-9.72 6.72-6.48 10.08-14.64 10.08-24.48s-3.36-18-10.08-24.48c-6.48-6.48-14.88-9.72-25.198-9.72h-55.8ZM1278.76 504h-54V302.4h-73.08V252h199.8v50.4h-72.72V504Zm341.22 0h-189V252h185.4v48.6h-131.4v51.12h102.6v46.8h-102.6v56.88h135V504Zm323.98 0h-54V252h54v99h108v-99h54v252h-54V401.4h-108V504Zm388.58 5.4c-25.68 0-48.96-5.88-69.84-17.64-20.88-11.76-37.32-27.6-49.32-47.52-11.76-20.16-17.64-42.24-17.64-66.24 0-24 5.88-46.08 17.64-66.24 12-20.16 28.44-36 49.32-47.52 20.88-11.76 44.16-17.64 69.84-17.64 25.68 0 48.84 5.88 69.48 17.64 20.88 11.52 37.32 27.36 49.32 47.52 12 20.16 18 42.24 18 66.24 0 24-6 46.08-18 66.24-12 19.92-28.44 35.76-49.32 47.52-20.88 11.76-44.04 17.64-69.48 17.64Zm0-49.68c15.12 0 28.92-3.6 41.4-10.8 12.48-7.2 22.32-17.04 29.52-29.52 7.2-12.48 10.8-26.28 10.8-41.4 0-15.12-3.6-28.92-10.8-41.4-7.2-12.48-17.04-22.32-29.52-29.52-12.48-7.44-26.28-11.16-41.4-11.16-15.12 0-29.04 3.6-41.76 10.8-12.48 7.2-22.32 17.16-29.52 29.88-7.2 12.48-10.8 26.28-10.8 41.4 0 15.12 3.6 28.92 10.8 41.4 7.44 12.48 17.4 22.32 29.88 29.52 12.48 7.2 26.28 10.8 41.4 10.8ZM2612.83 504h-54V252h183.6v51.12h-129.6v57.6h100.8v49.68h-100.8V504Zm266.76 0h-54V252h183.6v51.12h-129.6v57.6h100.8v49.68h-100.8V504Zm266.4 0h-53.64V252h69.84l83.16 182.16h1.08l82.8-182.16h67.32v252h-53.28V332.64h-1.44L3261.91 504h-34.92l-79.56-171.36h-1.44V504Zm383.22 0h-56.52l97.92-252h60.12l97.56 252h-57.24l-21.24-56.88h-99.72L3529.21 504Zm70.2-196.92-33.48 94.32h68.04l-33.48-94.32h-1.08ZM3857.73 504h-53.28V252h47.88l122.76 162h1.44V252h52.92v252h-47.52l-123.12-162.36h-1.08V504Zm329.69 0h-53.28V252h47.88l122.76 162h1.44V252h52.92v252h-47.52L4188.5 341.64h-1.08V504Z"/>
  <path fill="#6C845C" d="M2015.02 847.44c-18.9 0-36.09-4.32-51.57-12.96-15.3-8.82-27.36-20.7-36.18-35.64-8.82-14.94-13.23-31.32-13.23-49.14s4.41-34.2 13.23-49.14c8.82-14.94 20.88-26.73 36.18-35.37 15.48-8.82 32.67-13.23 51.57-13.23 17.46 0 32.85 3.6 46.17 10.8 13.32 7.02 24.12 15.48 32.4 25.38l-23.22 19.98c-7.02-7.56-14.85-13.68-23.49-18.36-8.64-4.68-19.26-7.02-31.86-7.02-12.24 0-23.49 2.97-33.75 8.91-10.26 5.94-18.36 14.04-24.3 24.3-5.94 10.26-8.91 21.51-8.91 33.75 0 12.24 2.97 23.49 8.91 33.75 5.94 10.26 14.04 18.36 24.3 24.3 10.26 5.94 21.51 8.91 33.75 8.91 10.44 0 19.98-1.89 28.62-5.67 8.82-3.96 15.39-8.28 19.71-12.96V771.3h-39.69v-28.08h73.17v67.77c-4.5 5.76-10.8 11.43-18.9 17.01-8.1 5.58-17.64 10.26-28.62 14.04-10.8 3.6-22.23 5.4-34.29 5.4Zm233.39-.54c-12.6 0-24.21-2.97-34.83-8.91-10.44-6.12-18.72-14.31-24.84-24.57-5.94-10.44-8.91-21.87-8.91-34.29 0-12.42 2.97-23.76 8.91-34.02 6.12-10.44 14.31-18.63 24.57-24.57 10.26-6.12 21.42-9.18 33.48-9.18 12.24 0 23.22 2.79 32.94 8.37 9.9 5.58 17.64 13.32 23.22 23.22 5.58 9.72 8.37 20.61 8.37 32.67 0 4.68-.45 9.27-1.35 13.77h-98.28c1.26 8.1 5.49 15.12 12.69 21.06 7.2 5.76 15.84 8.64 25.92 8.64 13.32 0 25.11-4.95 35.37-14.85l18.09 19.71c-5.04 6.12-12.42 11.52-22.14 16.2-9.72 4.5-20.79 6.75-33.21 6.75Zm31.32-80.46c-1.8-8.64-5.58-15.48-11.34-20.52-5.58-5.22-12.78-7.83-21.6-7.83-9.18 0-16.83 2.52-22.95 7.56-5.94 5.04-10.08 11.97-12.42 20.79h68.31Zm190.36 80.46c-10.08 0-18.99-2.16-26.73-6.48-7.74-4.32-13.23-9.18-16.47-14.58h-.54v18.36h-30.51v-189h30.51v77.22h.54c3.24-5.4 8.73-10.26 16.47-14.58 7.74-4.32 16.65-6.48 26.73-6.48 10.8 0 20.79 2.97 29.97 8.91 9.36 5.76 16.74 13.77 22.14 24.03 5.58 10.26 8.37 21.87 8.37 34.83 0 12.96-2.79 24.57-8.37 34.83-5.4 10.26-12.78 18.36-22.14 24.3-9.18 5.76-19.17 8.64-29.97 8.64Zm-7.02-28.62c6.66 0 12.78-1.71 18.36-5.13s9.99-8.1 13.23-14.04c3.42-5.94 5.13-12.6 5.13-19.98 0-7.38-1.71-14.04-5.13-19.98-3.24-5.94-7.65-10.62-13.23-14.04s-11.7-5.13-18.36-5.13-12.78 1.71-18.36 5.13-10.08 8.1-13.5 14.04c-3.24 5.94-4.86 12.6-4.86 19.98 0 7.38 1.62 14.04 4.86 19.98 3.42 5.94 7.92 10.62 13.5 14.04s11.7 5.13 18.36 5.13Zm203.25-106.92c10.8 0 20.43 2.25 28.89 6.75 8.46 4.32 14.94 10.35 19.44 18.09 4.68 7.74 7.02 16.29 7.02 25.65v82.35h-29.16v-18.09h-.27c-3.6 5.22-9.09 9.99-16.47 14.31-7.38 4.32-15.66 6.48-24.84 6.48-8.46 0-16.02-1.71-22.68-5.13s-11.88-8.01-15.66-13.77c-3.6-5.94-5.4-12.24-5.4-18.9 0-10.98 3.51-20.07 10.53-27.27 7.2-7.2 17.19-11.97 29.97-14.31l43.47-7.56v-.27c-.18-6.12-2.7-11.25-7.56-15.39-4.86-4.32-10.89-6.48-18.09-6.48-6.66 0-12.6 1.53-17.82 4.59-5.22 3.06-10.17 7.02-14.85 11.88l-18.63-17.82c5.94-7.02 13.23-12.96 21.87-17.82 8.82-4.86 18.9-7.29 30.24-7.29Zm-8.37 110.43c9.18 0 16.92-3.33 23.22-9.99 6.48-6.66 9.72-15.03 9.72-25.11v-4.32l-34.02 6.48c-5.94 1.08-10.62 3.15-14.04 6.21-3.24 2.88-4.86 6.3-4.86 10.26 0 4.68 1.8 8.64 5.4 11.88 3.6 3.06 8.46 4.59 14.58 4.59Zm-15.39-130.41c-4.5 0-8.55-1.71-12.15-5.13-3.6-3.42-5.4-7.56-5.4-12.42s1.8-9 5.4-12.42c3.6-3.42 7.65-5.13 12.15-5.13s8.46 1.71 11.88 5.13c3.6 3.42 5.4 7.56 5.4 12.42s-1.8 9-5.4 12.42c-3.42 3.42-7.38 5.13-11.88 5.13Zm55.35 0c-4.5 0-8.55-1.71-12.15-5.13-3.42-3.42-5.13-7.56-5.13-12.42s1.71-9 5.13-12.42c3.6-3.42 7.65-5.13 12.15-5.13s8.55 1.71 12.15 5.13c3.6 3.42 5.4 7.56 5.4 12.42s-1.8 9-5.4 12.42c-3.6 3.42-7.65 5.13-12.15 5.13Zm164.37 155.52c-9.72 0-18.45-2.25-26.19-6.75-7.56-4.68-13.5-11.25-17.82-19.71s-6.48-18.45-6.48-29.97v-76.41h30.51v74.52c0 9 2.52 16.2 7.56 21.6 5.22 5.22 11.97 7.83 20.25 7.83 9.36 0 17.1-3.15 23.22-9.45 6.12-6.48 9.18-14.76 9.18-24.84v-69.66h30.78V844.2h-30.78v-18.36h-.27c-3.42 5.4-8.73 10.26-15.93 14.58-7.02 4.32-15.03 6.48-24.03 6.48Zm215.86 0c-10.62 0-20.61-2.88-29.97-8.64-9.18-5.94-16.56-14.04-22.14-24.3-5.4-10.26-8.1-21.87-8.1-34.83 0-12.96 2.7-24.57 8.1-34.83 5.58-10.26 12.96-18.27 22.14-24.03 9.36-5.94 19.35-8.91 29.97-8.91 10.08 0 18.99 2.16 26.73 6.48 7.92 4.32 13.5 9.18 16.74 14.58h.27V655.2h30.78v189h-30.78v-18.36h-.27c-3.24 5.4-8.82 10.26-16.74 14.58-7.74 4.32-16.65 6.48-26.73 6.48Zm7.29-28.62c6.66 0 12.78-1.71 18.36-5.13s9.99-8.1 13.23-14.04c3.24-5.94 4.86-12.6 4.86-19.98 0-7.38-1.62-14.04-4.86-19.98-3.24-5.94-7.65-10.62-13.23-14.04s-11.7-5.13-18.36-5.13-12.78 1.71-18.36 5.13-10.08 8.1-13.5 14.04c-3.24 5.94-4.86 12.6-4.86 19.98 0 7.38 1.62 14.04 4.86 19.98 3.42 5.94 7.92 10.62 13.5 14.04s11.7 5.13 18.36 5.13Zm221.87 28.62c-12.6 0-24.21-2.97-34.83-8.91-10.44-6.12-18.72-14.31-24.84-24.57-5.94-10.44-8.91-21.87-8.91-34.29 0-12.42 2.97-23.76 8.91-34.02 6.12-10.44 14.31-18.63 24.57-24.57 10.26-6.12 21.42-9.18 33.48-9.18 12.24 0 23.22 2.79 32.94 8.37 9.9 5.58 17.64 13.32 23.22 23.22 5.58 9.72 8.37 20.61 8.37 32.67 0 4.68-.45 9.27-1.35 13.77h-98.28c1.26 8.1 5.49 15.12 12.69 21.06 7.2 5.76 15.84 8.64 25.92 8.64 13.32 0 25.11-4.95 35.37-14.85l18.09 19.71c-5.04 6.12-12.42 11.52-22.14 16.2-9.72 4.5-20.79 6.75-33.21 6.75Zm31.32-80.46c-1.8-8.64-5.58-15.48-11.34-20.52-5.58-5.22-12.78-7.83-21.6-7.83-9.18 0-16.83 2.52-22.95 7.56-5.94 5.04-10.08 11.97-12.42 20.79h68.31Zm166.87 80.46c-10.62 0-20.61-2.88-29.97-8.64-9.18-5.94-16.56-14.04-22.14-24.3-5.4-10.26-8.1-21.87-8.1-34.83 0-12.96 2.7-24.57 8.1-34.83 5.58-10.26 12.96-18.27 22.14-24.03 9.36-5.94 19.35-8.91 29.97-8.91 10.08 0 18.99 2.16 26.73 6.48 7.92 4.32 13.5 9.18 16.74 14.58h.27V655.2h30.78v189h-30.78v-18.36h-.27c-3.24 5.4-8.82 10.26-16.74 14.58-7.74 4.32-16.65 6.48-26.73 6.48Zm7.29-28.62c6.66 0 12.78-1.71 18.36-5.13s9.99-8.1 13.23-14.04c3.24-5.94 4.86-12.6 4.86-19.98 0-7.38-1.62-14.04-4.86-19.98-3.24-5.94-7.65-10.62-13.23-14.04s-11.7-5.13-18.36-5.13-12.78 1.71-18.36 5.13-10.08 8.1-13.5 14.04c-3.24 5.94-4.86 12.6-4.86 19.98 0 7.38 1.62 14.04 4.86 19.98 3.42 5.94 7.92 10.62 13.5 14.04s11.7 5.13 18.36 5.13Zm161.39 25.92V714.06h30.51v16.74h.54c3.42-5.04 8.55-9.54 15.39-13.5 6.84-3.96 14.4-5.94 22.68-5.94h6.48v32.4c-4.86-1.08-8.55-1.62-11.07-1.62-9.54 0-17.64 3.51-24.3 10.53-6.48 7.02-9.72 16.11-9.72 27.27v64.26h-30.51Zm204.55 2.7c-9.72 0-18.45-2.25-26.19-6.75-7.56-4.68-13.5-11.25-17.82-19.71s-6.48-18.45-6.48-29.97v-76.41h30.51v74.52c0 9 2.52 16.2 7.56 21.6 5.22 5.22 11.97 7.83 20.25 7.83 9.36 0 17.1-3.15 23.22-9.45 6.12-6.48 9.18-14.76 9.18-24.84v-69.66h30.78V844.2h-30.78v-18.36h-.27c-3.42 5.4-8.73 10.26-15.93 14.58-7.02 4.32-15.03 6.48-24.03 6.48Zm224.22 0c-12.6 0-24.21-2.97-34.83-8.91-10.44-6.12-18.72-14.31-24.84-24.57-5.94-10.44-8.91-21.87-8.91-34.29 0-12.42 2.97-23.76 8.91-34.02 6.12-10.44 14.4-18.63 24.84-24.57 10.62-6.12 22.23-9.18 34.83-9.18 12.42 0 23.4 2.61 32.94 7.83 9.54 5.22 17.01 11.34 22.41 18.36l-21.06 18.36c-9.9-10.62-21.15-15.93-33.75-15.93-10.98 0-20.16 3.78-27.54 11.34-7.2 7.38-10.8 16.65-10.8 27.81s3.6 20.52 10.8 28.08c7.38 7.38 16.56 11.07 27.54 11.07 7.2 0 13.77-1.53 19.71-4.59 5.94-3.24 11.07-7.29 15.39-12.15l21.06 18.63c-5.94 7.2-13.77 13.5-23.49 18.9-9.72 5.22-20.79 7.83-33.21 7.83Zm200.83-71.55 59.13 68.85h-38.07l-52.92-63.18v63.18h-30.51v-189h30.51v118.26l51.03-59.4h35.91l-55.08 61.29Z"/>
</svg>
