<svg xmlns="http://www.w3.org/2000/svg" width="8531" height="1260" fill="none" viewBox="0 0 8531 1260">
  <path fill="#fff" d="M432 603h38.492l70.559-99h61.387L516.33 623.88 608.459 756h-66.204l-70.65-102.601H432V756h-54V504h54v99Z"/>
  <path fill="#fff" d="M736.033 761.4c-25.68 0-48.96-5.88-69.84-17.64-20.88-11.76-37.32-27.6-49.32-47.52-11.76-20.16-17.64-42.24-17.64-66.24 0-24 5.88-46.08 17.64-66.24 12-20.16 28.44-36 49.32-47.52 20.88-11.76 44.16-17.64 69.84-17.64 25.68 0 48.84 5.88 69.48 17.64 20.88 11.52 37.32 27.36 49.32 47.52 12 20.16 18 42.24 18 66.24 0 24-6 46.08-18 66.24-12 19.92-28.44 35.76-49.32 47.52-20.88 11.76-44.04 17.64-69.48 17.64Zm0-49.68c15.12 0 28.92-3.6 41.4-10.8 12.48-7.2 22.32-17.04 29.52-29.52 7.2-12.48 10.8-26.28 10.8-41.4 0-15.12-3.6-28.92-10.8-41.4-7.2-12.48-17.04-22.32-29.52-29.52-12.48-7.44-26.28-11.16-41.4-11.16-15.12 0-29.04 3.6-41.76 10.8-12.48 7.2-22.32 17.16-29.52 29.88-7.2 12.48-10.8 26.28-10.8 41.4 0 15.12 3.6 28.92 10.8 41.4 7.44 12.48 17.4 22.32 29.88 29.52 12.48 7.2 26.28 10.8 41.4 10.8ZM1118.4 756h-58.68l-46.44-86.4h-48.958V756h-54V504h111.598c16.8 0 31.8 3.6 45 10.8 13.44 7.2 23.88 17.16 31.32 29.88 7.44 12.48 11.16 26.52 11.16 42.12 0 16.08-4.08 30.6-12.24 43.56-7.92 12.96-18.84 22.92-32.76 29.88l54 95.76ZM964.322 552.6V621h55.798c10.32 0 18.72-3.24 25.2-9.72 6.72-6.48 10.08-14.64 10.08-24.48s-3.36-18-10.08-24.48c-6.48-6.48-14.88-9.72-25.2-9.72h-55.798ZM1248.76 756h-54V554.4h-73.08V504h199.8v50.4h-72.72V756Zm289.22 0h-189V504h185.4v48.6h-131.4v51.12h102.6v46.8h-102.6v56.88h135V756Zm219.98 0h-54V504h54v99h108v-99h54v252h-54V653.4h-108V756Zm336.58 5.4c-25.68 0-48.96-5.88-69.84-17.64-20.88-11.76-37.32-27.6-49.32-47.52-11.76-20.16-17.64-42.24-17.64-66.24 0-24 5.88-46.08 17.64-66.24 12-20.16 28.44-36 49.32-47.52 20.88-11.76 44.16-17.64 69.84-17.64 25.68 0 48.84 5.88 69.48 17.64 20.88 11.52 37.32 27.36 49.32 47.52 12 20.16 18 42.24 18 66.24 0 24-6 46.08-18 66.24-12 19.92-28.44 35.76-49.32 47.52-20.88 11.76-44.04 17.64-69.48 17.64Zm0-49.68c15.12 0 28.92-3.6 41.4-10.8 12.48-7.2 22.32-17.04 29.52-29.52 7.2-12.48 10.8-26.28 10.8-41.4 0-15.12-3.6-28.92-10.8-41.4-7.2-12.48-17.04-22.32-29.52-29.52-12.48-7.44-26.28-11.16-41.4-11.16-15.12 0-29.04 3.6-41.76 10.8-12.48 7.2-22.32 17.16-29.52 29.88-7.2 12.48-10.8 26.28-10.8 41.4 0 15.12 3.6 28.92 10.8 41.4 7.44 12.48 17.4 22.32 29.88 29.52 12.48 7.2 26.28 10.8 41.4 10.8ZM2322.83 756h-54V504h183.6v51.12h-129.6v57.6h100.8v49.68h-100.8V756Zm214.76 0h-54V504h183.6v51.12h-129.6v57.6h100.8v49.68h-100.8V756Zm214.4 0h-53.64V504h69.84l83.16 182.16h1.08l82.8-182.16h67.32v252h-53.28V584.64h-1.44L2867.91 756h-34.92l-79.56-171.36h-1.44V756Zm331.22 0h-56.52l97.92-252h60.12l97.56 252h-57.24l-21.24-56.88h-99.72L3083.21 756Zm70.2-196.92-33.48 94.32h68.04l-33.48-94.32h-1.08ZM3359.73 756h-53.28V504h47.88l122.76 162h1.44V504h52.92v252h-47.52l-123.12-162.36h-1.08V756Zm277.69 0h-53.28V504h47.88l122.76 162h1.44V504h52.92v252h-47.52L3638.5 593.64h-1.08V756ZM4152 1008h-27V252h27v756Zm279.28-252h-27.72l102.24-252h29.88l102.24 252h-29.16l-28.44-70.2h-120.24l-28.8 70.2Zm88.56-219.6-50.04 124.2h100.44l-49.68-124.2h-.72ZM4665.05 756V583.2h24.48v27h.36c4.56-7.92 11.88-15 21.96-21.24 10.32-6.24 21.96-9.36 34.92-9.36h7.92v25.2a71.19 71.19 0 0 0-10.08-.72c-10.08 0-19.32 2.52-27.72 7.56-8.4 5.04-15.12 12-20.16 20.88-4.8 8.88-7.2 18.84-7.2 29.88V756h-24.48Zm187.52 3.6c-15.6 0-30.12-3.96-43.56-11.88-13.2-8.16-23.76-19.08-31.68-32.76-7.68-13.68-11.52-28.8-11.52-45.36s3.84-31.68 11.52-45.36c7.92-13.68 18.48-24.48 31.68-32.4 13.44-8.16 27.96-12.24 43.56-12.24 15.84 0 29.76 3.6 41.76 10.8 12.24 6.96 21.84 15.12 28.8 24.48l-18 14.76c-14.16-17.52-31.68-26.28-52.56-26.28-11.28 0-21.72 2.88-31.32 8.64-9.36 5.76-16.92 13.8-22.68 24.12-5.52 10.08-8.28 21.24-8.28 33.48 0 12.24 2.76 23.52 8.28 33.84 5.76 10.08 13.32 18 22.68 23.76 9.6 5.76 20.04 8.64 31.32 8.64 11.76 0 22.08-2.64 30.96-7.92 8.88-5.28 16.32-11.64 22.32-19.08l18 14.76c-6.96 9.6-16.68 18-29.16 25.2-12.24 7.2-26.28 10.8-42.12 10.8Zm104.6-3.6V504h24.48v106.92h.36c4.56-8.16 11.88-15.36 21.96-21.6 10.32-6.48 21.84-9.72 34.56-9.72 13.2 0 25.08 3.12 35.64 9.36 10.56 6.24 18.84 15 24.84 26.28 6 11.28 9 24.24 9 38.88V756h-24.48V654.12c0-15.12-4.56-27.36-13.68-36.72-8.88-9.36-20.28-14.04-34.2-14.04-10.08 0-19.2 2.52-27.36 7.56-8.16 4.8-14.64 11.52-19.44 20.16-4.8 8.64-7.2 18.36-7.2 29.16V756h-24.48Zm223.25 0h-24.48V583.2h24.48V756Zm-12.24-210.6c-4.32 0-8.16-1.56-11.52-4.68-3.12-3.12-4.68-6.96-4.68-11.52s1.56-8.4 4.68-11.52c3.36-3.12 7.2-4.68 11.52-4.68 4.56 0 8.4 1.56 11.52 4.68 3.36 3.12 5.04 6.96 5.04 11.52s-1.68 8.4-5.04 11.52c-3.12 3.12-6.96 4.68-11.52 4.68Zm124.33 212.4c-15.12 0-26.88-4.32-35.28-12.96-8.16-8.88-12.24-21.72-12.24-38.52v-99.36h-33.48V583.2h21.96c4.32 0 7.68-1.32 10.08-3.96 2.64-2.88 3.96-7.08 3.96-12.6V525.6h21.96v57.6h42.48v23.76h-42.48v97.92c0 9.36 2.28 16.56 6.84 21.6 4.8 5.04 11.28 7.56 19.44 7.56 6.96 0 14.28-1.8 21.96-5.4v23.76c-2.88 1.44-6.6 2.64-11.16 3.6-4.56 1.2-9.24 1.8-14.04 1.8Zm128.4 1.8c-15.6 0-30-3.96-43.2-11.88-13.2-8.16-23.76-19.08-31.68-32.76-7.92-13.68-11.88-28.8-11.88-45.36 0-16.8 3.84-32.04 11.52-45.72s18-24.48 30.96-32.4c12.96-7.92 27.12-11.88 42.48-11.88 15.12 0 28.8 3.72 41.04 11.16 12.48 7.44 22.32 17.88 29.52 31.32 7.2 13.44 10.8 28.56 10.8 45.36 0 3.84-.24 7.68-.72 11.52h-140.4c1.2 10.56 4.68 20.16 10.44 28.8s13.08 15.48 21.96 20.52c9.12 5.04 19.08 7.56 29.88 7.56 19.92 0 37.56-8.64 52.92-25.92l16.92 15.48c-7.68 9.6-17.4 17.76-29.16 24.48-11.76 6.48-25.56 9.72-41.4 9.72Zm54.72-101.88c-2.16-16.8-8.28-30.12-18.36-39.96-10.08-10.08-22.8-15.12-38.16-15.12-10.08 0-19.56 2.52-28.44 7.56-8.64 4.8-15.84 11.4-21.6 19.8-5.52 8.4-8.88 17.64-10.08 27.72h116.64Zm85.25 98.28h-24.48V504h24.48v172.08l86.4-92.88h31.32l-65.52 70.2 73.08 102.6h-28.8l-60.84-85.32-35.64 38.52V756Zm205.61 1.8c-15.12 0-26.88-4.32-35.28-12.96-8.16-8.88-12.24-21.72-12.24-38.52v-99.36h-33.48V583.2h21.96c4.32 0 7.68-1.32 10.08-3.96 2.64-2.88 3.96-7.08 3.96-12.6V525.6h21.96v57.6h42.48v23.76h-42.48v97.92c0 9.36 2.28 16.56 6.84 21.6 4.8 5.04 11.28 7.56 19.44 7.56 6.96 0 14.28-1.8 21.96-5.4v23.76c-2.88 1.44-6.6 2.64-11.16 3.6-4.56 1.2-9.24 1.8-14.04 1.8Zm128.39 1.8c-15.6 0-30-3.96-43.2-11.88-13.2-8.16-23.76-19.08-31.68-32.76-7.92-13.68-11.88-28.8-11.88-45.36 0-16.8 3.84-32.04 11.52-45.72s18-24.48 30.96-32.4c12.96-7.92 27.12-11.88 42.48-11.88 15.12 0 28.8 3.72 41.04 11.16 12.48 7.44 22.32 17.88 29.52 31.32 7.2 13.44 10.8 28.56 10.8 45.36 0 3.84-.24 7.68-.72 11.52h-140.4c1.2 10.56 4.68 20.16 10.44 28.8s13.08 15.48 21.96 20.52c9.12 5.04 19.08 7.56 29.88 7.56 19.92 0 37.56-8.64 52.92-25.92l16.92 15.48c-7.68 9.6-17.4 17.76-29.16 24.48-11.76 6.48-25.56 9.72-41.4 9.72Zm54.72-101.88c-2.16-16.8-8.28-30.12-18.36-39.96-10.08-10.08-22.8-15.12-38.16-15.12-10.08 0-19.56 2.52-28.44 7.56-8.64 4.8-15.84 11.4-21.6 19.8-5.52 8.4-8.88 17.64-10.08 27.72h116.64Zm58.98 98.28V583.2h24.48v27.72h.36c4.56-8.16 11.88-15.36 21.96-21.6 10.32-6.48 21.84-9.72 34.56-9.72 13.2 0 25.08 3.12 35.64 9.36 10.56 6.24 18.84 15 24.84 26.28 6 11.28 9 24.24 9 38.88V756h-24.48V654.12c0-15.12-4.56-27.36-13.68-36.72-8.88-9.36-20.28-14.04-34.2-14.04-10.08 0-19.2 2.52-27.36 7.56-8.16 4.8-14.64 11.52-19.44 20.16-4.8 8.64-7.2 18.36-7.2 29.16V756h-24.48Zm351.78-26.28h-21.96v-68.04h-65.88V639h65.88v-68.04h21.96V639h65.88v22.68h-65.88v68.04ZM6577.43 756h-27V504h27v252Zm57.64 0V583.2h24.47v27.72h.37c4.56-8.16 11.88-15.36 21.96-21.6 10.32-6.48 21.84-9.72 34.56-9.72 13.2 0 25.08 3.12 35.64 9.36 10.56 6.24 18.84 15 24.84 26.28 6 11.28 9 24.24 9 38.88V756h-24.48V654.12c0-15.12-4.56-27.36-13.68-36.72-8.88-9.36-20.28-14.04-34.2-14.04-10.08 0-19.2 2.52-27.36 7.56-8.16 4.8-14.64 11.52-19.44 20.16-4.8 8.64-7.21 18.36-7.21 29.16V756h-24.47Zm266.13 75.6c-15.6 0-30.24-3.84-43.92-11.52-13.68-7.44-23.52-15.6-29.52-24.48l17.64-16.2c4.56 6.96 12 13.44 22.32 19.44 10.56 6 21.72 9 33.48 9 17.28 0 31.32-6 42.12-18 10.8-12 16.2-27.36 16.2-46.08v-24.12h-.36c-6 10.08-14.52 18.12-25.56 24.12-11.04 5.76-22.68 8.64-34.92 8.64-14.16 0-27.24-3.72-39.24-11.16-12-7.44-21.6-17.76-28.8-30.96-6.96-13.2-10.44-27.96-10.44-44.28s3.48-31.08 10.44-44.28c7.2-13.2 16.8-23.52 28.8-30.96 12-7.44 25.08-11.16 39.24-11.16 13.68 0 25.92 3.36 36.72 10.08 10.8 6.72 18.72 14.16 23.76 22.32h.36v-28.8H6984v160.56c0 16.56-3.6 31.44-10.8 44.64-7.2 13.44-17.16 24-29.88 31.68-12.48 7.68-26.52 11.52-42.12 11.52Zm.36-102.96c10.8 0 20.52-2.64 29.16-7.92 8.88-5.52 15.84-12.96 20.88-22.32 5.28-9.6 7.92-20.4 7.92-32.4s-2.64-22.8-7.92-32.4c-5.04-9.6-12-17.04-20.88-22.32-8.64-5.28-18.36-7.92-29.16-7.92-10.32 0-19.92 2.64-28.8 7.92-8.64 5.28-15.48 12.72-20.52 22.32-5.04 9.6-7.56 20.4-7.56 32.4s2.52 22.8 7.56 32.4c5.04 9.36 11.88 16.8 20.52 22.32 8.88 5.28 18.48 7.92 28.8 7.92Zm205.23 30.96c-15.6 0-30-3.96-43.2-11.88-13.2-8.16-23.76-19.08-31.68-32.76-7.92-13.68-11.88-28.8-11.88-45.36 0-16.8 3.84-32.04 11.52-45.72s18-24.48 30.96-32.4c12.96-7.92 27.12-11.88 42.48-11.88 15.12 0 28.8 3.72 41.04 11.16 12.48 7.44 22.32 17.88 29.52 31.32 7.2 13.44 10.8 28.56 10.8 45.36 0 3.84-.24 7.68-.72 11.52h-140.4c1.2 10.56 4.68 20.16 10.44 28.8s13.08 15.48 21.96 20.52c9.12 5.04 19.08 7.56 29.88 7.56 19.92 0 37.56-8.64 52.92-25.92l16.92 15.48c-7.68 9.6-17.4 17.76-29.16 24.48-11.76 6.48-25.56 9.72-41.4 9.72Zm54.72-101.88c-2.16-16.8-8.28-30.12-18.36-39.96-10.08-10.08-22.8-15.12-38.16-15.12-10.08 0-19.56 2.52-28.44 7.56-8.64 4.8-15.84 11.4-21.6 19.8-5.52 8.4-8.88 17.64-10.08 27.72h116.64Zm58.98 98.28V583.2h24.48v27.72h.36c4.56-8.16 11.88-15.36 21.96-21.6 10.32-6.48 21.84-9.72 34.56-9.72 13.2 0 25.08 3.12 35.64 9.36 10.56 6.24 18.84 15 24.84 26.28 6 11.28 9 24.24 9 38.88V756h-24.48V654.12c0-15.12-4.56-27.36-13.68-36.72-8.88-9.36-20.28-14.04-34.2-14.04-10.08 0-19.2 2.52-27.36 7.56-8.16 4.8-14.64 11.52-19.44 20.16-4.8 8.64-7.2 18.36-7.2 29.16V756h-24.48Zm223.29 0h-24.48V583.2h24.48V756Zm-12.24-210.6c-4.32 0-8.16-1.56-11.52-4.68-3.12-3.12-4.68-6.96-4.68-11.52s1.56-8.4 4.68-11.52c3.36-3.12 7.2-4.68 11.52-4.68 4.56 0 8.4 1.56 11.52 4.68 3.36 3.12 5.04 6.96 5.04 11.52s-1.68 8.4-5.04 11.52c-3.12 3.12-6.96 4.68-11.52 4.68Zm136.57 214.2c-15.6 0-30-3.96-43.2-11.88-13.2-8.16-23.76-19.08-31.68-32.76-7.92-13.68-11.88-28.8-11.88-45.36 0-16.8 3.84-32.04 11.52-45.72s18-24.48 30.96-32.4c12.96-7.92 27.12-11.88 42.48-11.88 15.12 0 28.8 3.72 41.04 11.16 12.48 7.44 22.32 17.88 29.52 31.32 7.2 13.44 10.8 28.56 10.8 45.36 0 3.84-.24 7.68-.72 11.52h-140.4c1.2 10.56 4.68 20.16 10.44 28.8s13.08 15.48 21.96 20.52c9.12 5.04 19.08 7.56 29.88 7.56 19.92 0 37.56-8.64 52.92-25.92l16.92 15.48c-7.68 9.6-17.4 17.76-29.16 24.48-11.76 6.48-25.56 9.72-41.4 9.72Zm54.72-101.88c-2.16-16.8-8.28-30.12-18.36-39.96-10.08-10.08-22.8-15.12-38.16-15.12-10.08 0-19.56 2.52-28.44 7.56-8.64 4.8-15.84 11.4-21.6 19.8-5.52 8.4-8.88 17.64-10.08 27.72h116.64Zm126.66 101.88c-13.2 0-25.08-3.12-35.64-9.36-10.56-6.24-18.84-15-24.84-26.28-6-11.28-9-24.24-9-38.88V583.2h24.48v101.88c0 15.12 4.44 27.36 13.32 36.72 9.12 9.36 20.64 14.04 34.56 14.04 10.08 0 19.2-2.4 27.36-7.2 8.16-5.04 14.64-11.88 19.44-20.52 4.8-8.64 7.2-18.36 7.2-29.16V583.2h24.48V756h-24.48v-27.72h-.36c-4.32 7.92-11.64 15.12-21.96 21.6-10.08 6.48-21.6 9.72-34.56 9.72Zm129.33-3.6V583.2h24.48v27h.36c4.56-7.92 11.88-15 21.96-21.24 10.32-6.24 21.96-9.36 34.92-9.36h7.92v25.2a71.19 71.19 0 0 0-10.08-.72c-10.08 0-19.32 2.52-27.72 7.56-8.4 5.04-15.12 12-20.16 20.88-4.8 8.88-7.2 18.84-7.2 29.88V756h-24.48Zm187.52 3.6c-15.6 0-30-3.96-43.2-11.88-13.2-8.16-23.76-19.08-31.68-32.76-7.92-13.68-11.88-28.8-11.88-45.36 0-16.8 3.84-32.04 11.52-45.72s18-24.48 30.96-32.4c12.96-7.92 27.12-11.88 42.48-11.88 15.12 0 28.8 3.72 41.04 11.16 12.48 7.44 22.32 17.88 29.52 31.32 7.2 13.44 10.8 28.56 10.8 45.36 0 3.84-.24 7.68-.72 11.52h-140.4c1.2 10.56 4.68 20.16 10.44 28.8s13.08 15.48 21.96 20.52c9.12 5.04 19.08 7.56 29.88 7.56 19.92 0 37.56-8.64 52.92-25.92l16.92 15.48c-7.68 9.6-17.4 17.76-29.16 24.48-11.76 6.48-25.56 9.72-41.4 9.72Zm54.72-101.88c-2.16-16.8-8.28-30.12-18.36-39.96-10.08-10.08-22.8-15.12-38.16-15.12-10.08 0-19.56 2.52-28.44 7.56-8.64 4.8-15.84 11.4-21.6 19.8-5.52 8.4-8.88 17.64-10.08 27.72h116.64Z"/>
</svg>
