<svg xmlns="http://www.w3.org/2000/svg" width="4455" height="1323" fill="none" viewBox="0 0 4455 1323">
  <path fill="#000" d="M252 1071h42V252h-42v819Zm474-594h38.492l70.559-99h61.387L810.33 497.88 902.459 630h-66.204l-70.649-102.6H726V630h-54V378h54v99Zm312.03 158.4c-25.68 0-48.957-5.88-69.837-17.64-20.88-11.76-37.32-27.6-49.32-47.52-11.76-20.16-17.64-42.24-17.64-66.24 0-24 5.88-46.08 17.64-66.24 12-20.16 28.44-36 49.32-47.52 20.88-11.76 44.157-17.64 69.837-17.64 25.68 0 48.84 5.88 69.48 17.64 20.88 11.52 37.32 27.36 49.32 47.52 12 20.16 18 42.24 18 66.24 0 24-6 46.08-18 66.24-12 19.92-28.44 35.76-49.32 47.52-20.88 11.76-44.04 17.64-69.48 17.64Zm0-49.68c15.12 0 28.92-3.6 41.4-10.8 12.48-7.2 22.32-17.04 29.52-29.52 7.2-12.48 10.8-26.28 10.8-41.4 0-15.12-3.6-28.92-10.8-41.4-7.2-12.48-17.04-22.32-29.52-29.52-12.48-7.44-26.28-11.16-41.4-11.16-15.12 0-29.04 3.6-41.757 10.8-12.48 7.2-22.32 17.16-29.52 29.88-7.2 12.48-10.8 26.28-10.8 41.4 0 15.12 3.6 28.92 10.8 41.4 7.44 12.48 17.4 22.32 29.88 29.52 12.477 7.2 26.277 10.8 41.397 10.8ZM1428.4 630h-58.68l-46.44-86.4h-48.96V630h-54V378h111.6c16.8 0 31.8 3.6 45 10.8 13.44 7.2 23.88 17.16 31.32 29.88 7.44 12.48 11.16 26.52 11.16 42.12 0 16.08-4.08 30.6-12.24 43.56-7.92 12.96-18.84 22.92-32.76 29.88l54 95.76Zm-154.08-203.4V495h55.8c10.32 0 18.72-3.24 25.2-9.72 6.72-6.48 10.08-14.64 10.08-24.48s-3.36-18-10.08-24.48c-6.48-6.48-14.88-9.72-25.2-9.72h-55.8ZM1566.76 630h-54V428.4h-73.08V378h199.8v50.4h-72.72V630Zm297.22 0h-189V378h185.4v48.6h-131.4v51.12h102.6v46.8h-102.6v56.88h135V630Zm231.41 0h-54V378h54v99h108v-99h54v252h-54V527.4h-108V630Zm344.58 5.4c-25.68 0-48.96-5.88-69.84-17.64-20.88-11.76-37.32-27.6-49.32-47.52-11.76-20.16-17.64-42.24-17.64-66.24 0-24 5.88-46.08 17.64-66.24 12-20.16 28.44-36 49.32-47.52 20.88-11.76 44.16-17.64 69.84-17.64 25.68 0 48.84 5.88 69.48 17.64 20.88 11.52 37.32 27.36 49.32 47.52 12 20.16 18 42.24 18 66.24 0 24-6 46.08-18 66.24-12 19.92-28.44 35.76-49.32 47.52-20.88 11.76-44.04 17.64-69.48 17.64Zm0-49.68c15.12 0 28.92-3.6 41.4-10.8 12.48-7.2 22.32-17.04 29.52-29.52 7.2-12.48 10.8-26.28 10.8-41.4 0-15.12-3.6-28.92-10.8-41.4-7.2-12.48-17.04-22.32-29.52-29.52-12.48-7.44-26.28-11.16-41.4-11.16-15.12 0-29.04 3.6-41.76 10.8-12.48 7.2-22.32 17.16-29.52 29.88-7.2 12.48-10.8 26.28-10.8 41.4 0 15.12 3.6 28.92 10.8 41.4 7.44 12.48 17.4 22.32 29.88 29.52 12.48 7.2 26.28 10.8 41.4 10.8ZM2676.26 630h-54V378h183.6v51.12h-129.6v57.6h100.8v49.68h-100.8V630Zm222.76 0h-54V378h183.6v51.12h-129.6v57.6h100.8v49.68h-100.8V630Zm222.4 0h-53.64V378h69.84l83.16 182.16h1.08l82.8-182.16h67.32v252h-53.28V458.64h-1.44L3237.34 630h-34.92l-79.56-171.36h-1.44V630Zm339.22 0h-56.52l97.92-252h60.12l97.56 252h-57.24l-21.24-56.88h-99.72L3460.64 630Zm70.2-196.92-33.48 94.32h68.04l-33.48-94.32h-1.08ZM3745.16 630h-53.28V378h47.88l122.76 162h1.44V378h52.92v252h-47.52l-123.12-162.36h-1.08V630Zm285.69 0h-53.28V378h47.88l122.76 162h1.44V378h52.92v252h-47.52l-123.12-162.36h-1.08V630ZM770.75 947.7c-18.54 0-35.46-4.32-50.76-12.96-15.3-8.64-27.36-20.34-36.18-35.1-8.64-14.94-12.96-31.32-12.96-49.14s4.32-34.11 12.96-48.87c8.82-14.94 20.88-26.73 36.18-35.37 15.3-8.64 32.22-12.96 50.76-12.96 17.1 0 32.22 3.6 45.36 10.8 13.32 7.2 23.85 15.66 31.59 25.38l-20.79 17.01c-6.66-7.56-14.49-13.77-23.49-18.63-8.82-5.04-19.71-7.56-32.67-7.56-12.78 0-24.57 3.15-35.37 9.45-10.8 6.12-19.35 14.58-25.65 25.38-6.12 10.8-9.18 22.59-9.18 35.37 0 12.78 3.06 24.57 9.18 35.37 6.3 10.8 14.85 19.35 25.65 25.65 10.8 6.12 22.59 9.18 35.37 9.18 11.16 0 21.33-2.07 30.51-6.21 9.36-4.14 16.29-8.82 20.79-14.04v-29.7h-40.5V845.1h70.2v66.15c-4.5 5.76-10.8 11.43-18.9 17.01-7.92 5.58-17.28 10.26-28.08 14.04-10.62 3.6-21.96 5.4-34.02 5.4Zm270.71-2.7h-33.75l-39.149-70.2h-44.55V945h-29.7V756h78.3c11.88 0 22.5 2.61 31.859 7.83 9.54 5.22 16.92 12.33 22.14 21.33 5.4 9 8.1 19.08 8.1 30.24 0 12.24-3.24 23.22-9.72 32.94-6.48 9.72-15.21 16.92-26.189 21.6L1041.46 945ZM924.011 783v64.8h48.6c9.54 0 17.28-3.06 23.22-9.18 6.119-6.12 9.179-13.86 9.179-23.22 0-9.54-3.06-17.28-9.179-23.22-5.94-6.12-13.68-9.18-23.22-9.18h-48.6Zm232.979 164.7c-15.48 0-29.25-3.33-41.31-9.99-12.06-6.66-21.51-15.93-28.35-27.81-6.66-11.88-9.99-25.38-9.99-40.5V756h29.7v113.4c0 9.72 2.16 18.54 6.48 26.46 4.5 7.74 10.53 13.86 18.09 18.36 7.56 4.32 16.02 6.48 25.38 6.48 8.82 0 17.01-2.25 24.57-6.75 7.74-4.68 13.86-10.98 18.36-18.9 4.68-7.92 7.02-16.47 7.02-25.65V756h29.7v113.4c0 15.12-3.42 28.62-10.26 40.5-6.66 11.88-16.02 21.15-28.08 27.81-12.06 6.66-25.83 9.99-41.31 9.99Zm128.83-2.7V756h75.6c11.88 0 22.68 2.7 32.4 8.1 9.72 5.4 17.28 12.78 22.68 22.14 5.58 9.18 8.37 19.35 8.37 30.51s-2.79 21.42-8.37 30.78c-5.4 9.18-12.96 16.47-22.68 21.87-9.72 5.4-20.52 8.1-32.4 8.1h-45.9V945h-29.7Zm75.6-94.5c9.54 0 17.55-3.24 24.03-9.72 6.48-6.66 9.72-14.67 9.72-24.03 0-9.54-3.24-17.55-9.72-24.03s-14.49-9.72-24.03-9.72h-45.9v67.5h45.9Zm98 94.5V756h75.6c11.88 0 22.68 2.7 32.4 8.1 9.72 5.4 17.28 12.78 22.68 22.14 5.58 9.18 8.37 19.35 8.37 30.51s-2.79 21.42-8.37 30.78c-5.4 9.18-12.96 16.47-22.68 21.87-9.72 5.4-20.52 8.1-32.4 8.1h-45.9V945h-29.7Zm75.6-94.5c9.54 0 17.55-3.24 24.03-9.72 6.48-6.66 9.72-14.67 9.72-24.03 0-9.54-3.24-17.55-9.72-24.03s-14.49-9.72-24.03-9.72h-45.9v67.5h45.9Zm234.36 94.5h-136.35V756h133.65v27h-103.95v50.49h82.35v27h-82.35V918h106.65v27Z"/>
</svg>
