<svg xmlns="http://www.w3.org/2000/svg" width="5752" height="757" fill="none" viewBox="0 0 5752 757">
  <path fill="#000" d="M306 351.4h38.494l70.559-99h61.386l-86.107 119.88 92.129 132.12h-66.204l-70.649-102.599H306V504.4h-54v-252h54v99Zm312.033 158.4c-25.68 0-48.96-5.88-69.84-17.64-20.88-11.76-37.32-27.6-49.32-47.52-11.76-20.16-17.64-42.24-17.64-66.24 0-24 5.88-46.08 17.64-66.24 12-20.16 28.44-36 49.32-47.52 20.88-11.76 44.16-17.64 69.84-17.64 25.68 0 48.84 5.88 69.48 17.64 20.88 11.52 37.32 27.36 49.32 47.52 12 20.16 18 42.24 18 66.24 0 24-6 46.08-18 66.24-12 19.92-28.44 35.76-49.32 47.52-20.88 11.76-44.04 17.64-69.48 17.64Zm0-49.68c15.12 0 28.92-3.6 41.4-10.8 12.48-7.2 22.32-17.04 29.52-29.52 7.2-12.48 10.8-26.28 10.8-41.4 0-15.12-3.6-28.92-10.8-41.4-7.2-12.48-17.04-22.32-29.52-29.52-12.48-7.44-26.28-11.16-41.4-11.16-15.12 0-29.04 3.6-41.76 10.8-12.48 7.2-22.32 17.16-29.52 29.88-7.2 12.48-10.8 26.28-10.8 41.4 0 15.12 3.6 28.92 10.8 41.4 7.44 12.48 17.4 22.32 29.88 29.52 12.48 7.2 26.28 10.8 41.4 10.8ZM1008.4 504.4h-58.678l-46.44-86.4h-48.96v86.4h-54v-252h111.6c16.8 0 31.8 3.6 45 10.8 13.44 7.2 23.88 17.16 31.32 29.88 7.44 12.48 11.16 26.52 11.16 42.12 0 16.08-4.08 30.6-12.24 43.56-7.92 12.96-18.84 22.92-32.76 29.88l53.998 95.76ZM854.322 301v68.4h55.8c10.32 0 18.72-3.24 25.2-9.72 6.72-6.48 10.08-14.64 10.08-24.48s-3.36-18-10.08-24.48c-6.48-6.48-14.88-9.72-25.2-9.72h-55.8Zm292.438 203.4h-54V302.8h-73.08v-50.4h199.8v50.4h-72.72v201.6Zm297.22 0h-189v-252h185.4V301h-131.4v51.12h102.6v46.8h-102.6v56.88h135v48.6Zm235.98 0h-54v-252h54v99h108v-99h54v252h-54V401.8h-108v102.6Zm344.58 5.4c-25.68 0-48.96-5.88-69.84-17.64-20.88-11.76-37.32-27.6-49.32-47.52-11.76-20.16-17.64-42.24-17.64-66.24 0-24 5.88-46.08 17.64-66.24 12-20.16 28.44-36 49.32-47.52 20.88-11.76 44.16-17.64 69.84-17.64 25.68 0 48.84 5.88 69.48 17.64 20.88 11.52 37.32 27.36 49.32 47.52 12 20.16 18 42.24 18 66.24 0 24-6 46.08-18 66.24-12 19.92-28.44 35.76-49.32 47.52-20.88 11.76-44.04 17.64-69.48 17.64Zm0-49.68c15.12 0 28.92-3.6 41.4-10.8 12.48-7.2 22.32-17.04 29.52-29.52 7.2-12.48 10.8-26.28 10.8-41.4 0-15.12-3.6-28.92-10.8-41.4-7.2-12.48-17.04-22.32-29.52-29.52-12.48-7.44-26.28-11.16-41.4-11.16-15.12 0-29.04 3.6-41.76 10.8-12.48 7.2-22.32 17.16-29.52 29.88-7.2 12.48-10.8 26.28-10.8 41.4 0 15.12 3.6 28.92 10.8 41.4 7.44 12.48 17.4 22.32 29.88 29.52 12.48 7.2 26.28 10.8 41.4 10.8Zm236.29 44.28h-54v-252h183.6v51.12h-129.6v57.6h100.8v49.68h-100.8v93.6Zm222.76 0h-54v-252h183.6v51.12h-129.6v57.6h100.8v49.68h-100.8v93.6Zm222.4 0h-53.64v-252h69.84l83.16 182.16h1.08l82.8-182.16h67.32v252h-53.28V333.04h-1.44l-79.92 171.36h-34.92l-79.56-171.36h-1.44V504.4Zm339.22 0h-56.52l97.92-252h60.12l97.56 252h-57.24l-21.24-56.88h-99.72l-20.88 56.88Zm70.2-196.92-33.48 94.32h68.04l-33.48-94.32h-1.08Zm214.32 196.92h-53.28v-252h47.88l122.76 162h1.44v-162h52.92v252h-47.52l-123.12-162.36h-1.08V504.4Zm285.69 0h-53.28v-252h47.88l122.76 162h1.44v-162h52.92v252h-47.52L3616.5 342.04h-1.08V504.4Zm228.38 1c-6.73 0-12.9-1.6-18.5-4.8-5.6-3.2-10.03-7.533-13.3-13-3.2-5.533-4.8-11.6-4.8-18.2s1.6-12.633 4.8-18.1c3.27-5.533 7.7-9.9 13.3-13.1 5.6-3.2 11.77-4.8 18.5-4.8 6.8 0 13 1.6 18.6 4.8 5.6 3.2 10 7.567 13.2 13.1 3.27 5.467 4.9 11.5 4.9 18.1 0 6.6-1.63 12.667-4.9 18.2-3.2 5.467-7.6 9.8-13.2 13-5.6 3.2-11.8 4.8-18.6 4.8Zm0-6.2c5.47 0 10.47-1.3 15-3.9 4.6-2.666 8.23-6.266 10.9-10.8 2.67-4.6 4-9.633 4-15.1 0-5.466-1.33-10.466-4-15-2.67-4.6-6.3-8.2-10.9-10.8-4.53-2.666-9.53-4-15-4-5.47 0-10.47 1.334-15 4-4.53 2.6-8.13 6.2-10.8 10.8-2.67 4.534-4 9.534-4 15 0 5.467 1.33 10.5 4 15.1 2.67 4.534 6.27 8.134 10.8 10.8 4.53 2.6 9.53 3.9 15 3.9Zm-12.6-11.3v-37h14.3c3.67 0 6.7 1.134 9.1 3.4 2.47 2.267 3.7 5.034 3.7 8.3 0 2.534-.73 4.667-2.2 6.4-1.4 1.734-3 2.934-4.8 3.6l8.5 15.3h-7l-7.3-13.7h-7.8v13.7h-6.5Zm14.3-19.8c2.07 0 3.63-.5 4.7-1.5 1.07-1 1.6-2.333 1.6-4 0-1.733-.53-3.066-1.6-4-1.07-1-2.63-1.5-4.7-1.5h-7.8v11h7.8Zm330.42 39.9c-24.24 0-46.44-5.76-66.6-17.28-19.92-11.52-35.76-27.12-47.52-46.8-11.52-19.92-17.28-41.76-17.28-65.52 0-23.76 5.76-45.48 17.28-65.16 11.76-19.92 27.6-35.64 47.52-47.16 20.16-11.52 42.36-17.28 66.6-17.28 22.8 0 43.08 4.92 60.84 14.76 17.76 9.84 31.68 21.48 41.76 34.92l-23.04 18.36c-8.64-10.56-19.56-19.56-32.76-27-12.96-7.44-28.56-11.16-46.8-11.16s-34.92 4.44-50.04 13.32c-15.12 8.88-27.12 21-36 36.36-8.64 15.12-12.96 31.8-12.96 50.04s4.32 35.04 12.96 50.4c8.88 15.12 20.88 27.12 36 36 15.12 8.88 31.8 13.32 50.04 13.32 16.32 0 31.2-3.24 44.64-9.72 13.44-6.72 23.52-14.16 30.24-22.32v-43.56h-58.32v-28.8h90.72v83.88c-6 7.92-14.28 15.72-24.84 23.4-10.56 7.68-23.04 14.16-37.44 19.44-14.16 5.04-29.16 7.56-45 7.56Zm356.01-3.6h-36.72l-54.72-97.2h-66.6v97.2h-32.4v-252h101.52c15.6 0 29.52 3.36 41.76 10.08 12.24 6.72 21.84 16.08 28.8 28.08 6.96 11.76 10.44 24.84 10.44 39.24 0 16.56-4.56 31.44-13.68 44.64-9.12 12.96-21.36 22.2-36.72 27.72l58.32 102.24Zm-158.04-222.12v95.04h69.12c14.4 0 26.04-4.44 34.92-13.32 9.12-8.88 13.68-20.28 13.68-34.2 0-13.92-4.56-25.32-13.68-34.2-8.88-8.88-20.52-13.32-34.92-13.32h-69.12ZM4685.08 508c-19.92 0-37.8-4.44-53.64-13.32-15.84-8.88-28.2-21.12-37.08-36.72-8.88-15.6-13.32-33.36-13.32-53.28V252.4h32.4v152.28c0 14.16 3.12 26.88 9.36 38.16 6.24 11.04 14.76 19.68 25.56 25.92 11.04 6.24 23.28 9.36 36.72 9.36 12.96 0 24.84-3.24 35.64-9.72 11.04-6.48 19.68-15.24 25.92-26.28 6.48-11.28 9.72-23.76 9.72-37.44V252.4h32.4v152.28c0 19.68-4.44 37.44-13.32 53.28-8.88 15.6-21.24 27.84-37.08 36.72-15.6 8.88-33.36 13.32-53.28 13.32Zm170.13-3.6v-252h97.2c15.84 0 30.12 3.6 42.84 10.8 12.72 6.96 22.68 16.56 29.88 28.8 7.2 12.24 10.8 25.68 10.8 40.32s-3.6 28.08-10.8 40.32c-7.2 12-17.16 21.6-29.88 28.8-12.72 6.96-27 10.44-42.84 10.44h-64.8v92.52h-32.4Zm97.2-122.4c14.64 0 26.76-4.68 36.36-14.04 9.84-9.6 14.76-21.48 14.76-35.64s-4.92-26.04-14.76-35.64c-9.6-9.6-21.72-14.4-36.36-14.4h-64.8V382h64.8Zm130.13 122.4v-252h97.2c15.84 0 30.12 3.6 42.84 10.8 12.72 6.96 22.68 16.56 29.88 28.8 7.2 12.24 10.8 25.68 10.8 40.32s-3.6 28.08-10.8 40.32c-7.2 12-17.16 21.6-29.88 28.8-12.72 6.96-27 10.44-42.84 10.44h-64.8v92.52h-32.4Zm97.2-122.4c14.64 0 26.76-4.68 36.36-14.04 9.84-9.6 14.76-21.48 14.76-35.64s-4.92-26.04-14.76-35.64c-9.6-9.6-21.72-14.4-36.36-14.4h-64.8V382h64.8Zm309.05 122.4h-178.92v-252h175.32v29.88h-142.92v76.32h114.12v29.88h-114.12v86.04h146.52v29.88Z"/>
</svg>
