<svg xmlns="http://www.w3.org/2000/svg" width="6266" height="504" fill="none" viewBox="0 0 6266 504">
  <path fill="#000" d="M54 225.002h41.453l71.713-99h61.51L141.16 245.881l93.636 132.121h-66.405l-71.805-102.6H54v102.6H0v-252h54v99Z"/>
  <path fill="#000" d="M357.033 383.402c-25.68 0-48.96-5.88-69.84-17.64-20.88-11.76-37.32-27.6-49.32-47.52-11.76-20.16-17.64-42.24-17.64-66.24 0-24 5.88-46.08 17.64-66.24 12-20.16 28.44-36 49.32-47.52 20.88-11.76 44.16-17.64 69.84-17.64 25.68 0 48.84 5.88 69.48 17.64 20.88 11.52 37.32 27.36 49.32 47.52 12 20.16 18 42.24 18 66.24 0 24-6 46.08-18 66.24-12 19.92-28.44 35.76-49.32 47.52-20.88 11.76-44.04 17.64-69.48 17.64Zm0-49.68c15.12 0 28.92-3.6 41.4-10.8 12.48-7.2 22.32-17.04 29.52-29.52 7.2-12.48 10.8-26.28 10.8-41.4 0-15.12-3.6-28.92-10.8-41.4-7.2-12.48-17.04-22.32-29.52-29.52-12.48-7.44-26.28-11.16-41.4-11.16-15.12 0-29.04 3.6-41.76 10.8-12.48 7.2-22.32 17.16-29.52 29.88-7.2 12.48-10.8 26.28-10.8 41.4 0 15.12 3.6 28.92 10.8 41.4 7.44 12.48 17.4 22.32 29.88 29.52 12.48 7.2 26.28 10.8 41.4 10.8Zm378.369 44.28h-58.68l-46.44-86.4h-48.96v86.4h-54v-252h111.6c16.8 0 31.8 3.6 45 10.8 13.44 7.2 23.88 17.16 31.32 29.88 7.44 12.48 11.16 26.52 11.16 42.12 0 16.08-4.08 30.6-12.24 43.56-7.92 12.96-18.84 22.92-32.76 29.88l54 95.76Zm-154.08-203.4v68.4h55.8c10.32 0 18.72-3.24 25.2-9.72 6.72-6.48 10.08-14.64 10.08-24.48s-3.36-18-10.08-24.48c-6.48-6.48-14.88-9.72-25.2-9.72h-55.8Zm288.435 203.4h-54v-201.6h-73.08v-50.4h199.8v50.4h-72.72v201.6Zm287.223 0H967.978v-252h185.402v48.6h-131.4v51.12h102.6v46.8h-102.6v56.88h135v48.6Zm211.98 0h-54v-252h54v99h108v-99h54v252h-54v-102.6h-108v102.6Zm332.58 5.4c-25.68 0-48.96-5.88-69.84-17.64-20.88-11.76-37.32-27.6-49.32-47.52-11.76-20.16-17.64-42.24-17.64-66.24 0-24 5.88-46.08 17.64-66.24 12-20.16 28.44-36 49.32-47.52 20.88-11.76 44.16-17.64 69.84-17.64 25.68 0 48.84 5.88 69.48 17.64 20.88 11.52 37.32 27.36 49.32 47.52 12 20.16 18 42.24 18 66.24 0 24-6 46.08-18 66.24-12 19.92-28.44 35.76-49.32 47.52-20.88 11.76-44.04 17.64-69.48 17.64Zm0-49.68c15.12 0 28.92-3.6 41.4-10.8 12.48-7.2 22.32-17.04 29.52-29.52 7.2-12.48 10.8-26.28 10.8-41.4 0-15.12-3.6-28.92-10.8-41.4-7.2-12.48-17.04-22.32-29.52-29.52-12.48-7.44-26.28-11.16-41.4-11.16-15.12 0-29.04 3.6-41.76 10.8-12.48 7.2-22.32 17.16-29.52 29.88-7.2 12.48-10.8 26.28-10.8 41.4 0 15.12 3.6 28.92 10.8 41.4 7.44 12.48 17.4 22.32 29.88 29.52 12.48 7.2 26.28 10.8 41.4 10.8Zm224.29 44.28h-54v-252h183.6v51.12h-129.6v57.6h100.8v49.68h-100.8v93.6Zm212.76 0h-54v-252h183.6v51.12h-129.6v57.6h100.8v49.68h-100.8v93.6Zm212.4 0h-53.64v-252h69.84l83.16 182.16h1.08l82.8-182.16h67.32v252h-53.28v-171.36h-1.44l-79.92 171.36h-34.92l-79.56-171.36h-1.44v171.36Zm329.22 0h-56.52l97.92-252h60.12l97.56 252h-57.24l-21.24-56.88h-99.72l-20.88 56.88Zm70.2-196.92-33.48 94.32h68.04l-33.48-94.32h-1.08Zm204.32 196.92h-53.28v-252h47.88l122.76 162h1.44v-162h52.92v252h-47.52l-123.12-162.36h-1.08v162.36Zm273.69 0h-53.28v-252h47.88l122.76 162h1.44v-162h52.92v252h-47.52l-123.12-162.36h-1.08v162.36Zm247.72.998c-6.86 0-13.13-1.6-18.8-4.8-5.66-3.2-10.13-7.533-13.4-13-3.2-5.533-4.8-11.6-4.8-18.2s1.6-12.633 4.8-18.1c3.27-5.533 7.74-9.9 13.4-13.1 5.67-3.2 11.94-4.8 18.8-4.8 6.87 0 13.14 1.6 18.8 4.8 5.67 3.2 10.1 7.567 13.3 13.1 3.27 5.467 4.9 11.5 4.9 18.1 0 6.6-1.63 12.667-4.9 18.2-3.2 5.467-7.63 9.8-13.3 13-5.66 3.2-11.93 4.8-18.8 4.8Zm0-7c5.27 0 10.1-1.3 14.5-3.9 4.47-2.6 8-6.1 10.6-10.5 2.6-4.467 3.9-9.333 3.9-14.6 0-5.267-1.3-10.1-3.9-14.5-2.6-4.467-6.13-8-10.6-10.6-4.4-2.6-9.23-3.9-14.5-3.9-5.26 0-10.13 1.3-14.6 3.9-4.4 2.6-7.9 6.133-10.5 10.6-2.6 4.4-3.9 9.233-3.9 14.5 0 5.267 1.3 10.133 3.9 14.6 2.6 4.4 6.1 7.9 10.5 10.5 4.47 2.6 9.34 3.9 14.6 3.9Zm-13-10.5v-37h15c2.47 0 4.67.567 6.6 1.7 2 1.067 3.57 2.533 4.7 4.4 1.14 1.8 1.7 3.767 1.7 5.9 0 2.533-.73 4.667-2.2 6.4-1.4 1.733-3 2.933-4.8 3.6l8.5 15h-8l-7-13h-7v13h-7.5Zm15-20c1.74 0 3.07-.433 4-1.3 1-.933 1.5-2.167 1.5-3.7 0-1.533-.5-2.733-1.5-3.6-.93-.933-2.26-1.4-4-1.4h-7.5v10h7.5Z"/>
  <path fill="#6C845C" d="M3652.14 504h42V0h-42v504Z"/>
  <path fill="#000" d="m6177.79 287.636 87.48 90.36h-38.88l-81.72-86.04v86.04h-29.52v-252h29.52v159.48l77.76-80.28h36.72l-81.36 82.44Zm-171.49 93.962c-16.08 0-30.84-3.96-44.28-11.88-13.44-8.16-24.12-19.08-32.04-32.76-7.92-13.68-11.88-28.8-11.88-45.36s3.96-31.68 11.88-45.36c7.92-13.68 18.6-24.48 32.04-32.4 13.44-8.16 28.2-12.24 44.28-12.24 16.08 0 30.24 3.6 42.48 10.8 12.48 6.96 22.2 15 29.16 24.12l-21.24 18c-5.76-6.96-12.84-12.84-21.24-17.64-8.4-4.8-18.12-7.2-29.16-7.2-10.8 0-20.64 2.76-29.52 8.28-8.88 5.28-15.96 12.72-21.24 22.32-5.28 9.36-7.92 19.8-7.92 31.32s2.64 22.08 7.92 31.68c5.28 9.36 12.36 16.8 21.24 22.32 8.88 5.28 18.72 7.92 29.52 7.92 11.04 0 20.88-2.4 29.52-7.2 8.88-5.04 16.2-11.16 21.96-18.36l21.6 18c-7.44 9.6-17.52 18-30.24 25.2-12.48 6.96-26.76 10.44-42.84 10.44Zm-211.73.001c-13.2 0-25.08-3.12-35.64-9.36-10.32-6.24-18.48-15-24.48-26.28-6-11.28-9-24.36-9-39.24v-101.52h29.52v101.52c0 13.92 4.08 25.2 12.24 33.84 8.4 8.64 19.08 12.96 32.04 12.96 9.6 0 18.24-2.28 25.92-6.84 7.92-4.56 14.04-10.92 18.36-19.08 4.56-8.16 6.84-17.4 6.84-27.72v-94.68h29.16v172.8h-29.16v-26.28h-.36c-4.56 7.68-11.88 14.64-21.96 20.88-10.08 6-21.24 9-33.48 9Zm-190.24-3.601v-172.8h29.52v25.2h.36c4.8-7.44 12-14.04 21.6-19.8 9.84-6 20.88-9 33.12-9h8.28v30.6c-5.76-.72-9.72-1.08-11.88-1.08-9.36 0-18 2.4-25.92 7.2-7.68 4.8-13.92 11.52-18.72 20.16-4.56 8.4-6.84 17.88-6.84 28.44v91.08h-29.52Zm-143.08 3.598c-14.4 0-27.84-3.84-40.32-11.52-12.24-7.92-22.08-18.72-29.52-32.4-7.44-13.68-11.16-29.04-11.16-46.08s3.72-32.4 11.16-46.08c7.44-13.68 17.28-24.36 29.52-32.04 12.48-7.92 25.92-11.88 40.32-11.88 14.16 0 26.76 3.24 37.8 9.72 11.04 6.24 18.96 13.32 23.76 21.24h.36v-106.56h29.52v252h-29.52v-27.36h-.36c-4.8 7.92-12.72 15.12-23.76 21.6-11.04 6.24-23.64 9.36-37.8 9.36Zm5.04-28.08c10.32 0 19.8-2.64 28.44-7.92 8.64-5.52 15.48-12.96 20.52-22.32 5.28-9.36 7.92-19.92 7.92-31.68 0-11.76-2.64-22.32-7.92-31.68-5.04-9.36-11.88-16.68-20.52-21.96-8.64-5.52-18.12-8.28-28.44-8.28-10.08 0-19.44 2.76-28.08 8.28-8.64 5.28-15.6 12.6-20.88 21.96-5.04 9.36-7.56 19.92-7.56 31.68 0 11.76 2.52 22.32 7.56 31.68 5.28 9.36 12.24 16.8 20.88 22.32 8.64 5.28 18 7.92 28.08 7.92Zm-192.47 28.082c-16.08 0-30.84-3.96-44.28-11.88-13.44-8.16-24.12-19.08-32.04-32.76-7.92-13.68-11.88-28.8-11.88-45.36 0-16.8 3.84-32.04 11.52-45.72 7.92-13.68 18.48-24.48 31.68-32.4 13.2-7.92 27.6-11.88 43.2-11.88 15.36 0 29.4 3.72 42.12 11.16 12.72 7.44 22.68 17.76 29.88 30.96 7.2 12.96 10.8 27.72 10.8 44.28 0 3.84-.36 8.64-1.08 14.4h-137.52c1.92 14.4 8.4 26.52 19.44 36.36 11.04 9.84 24.24 14.76 39.6 14.76 18.96 0 35.88-7.92 50.76-23.76l19.8 18.36c-6.96 9.12-16.68 17.04-29.16 23.76-12.24 6.48-26.52 9.72-42.84 9.72Zm50.76-103.68c-2.4-15.12-8.28-27.12-17.64-36-9.12-8.88-20.76-13.32-34.92-13.32-14.64 0-27 4.68-37.08 14.04-10.08 9.12-16.44 20.88-19.08 35.28h108.72Zm-270.52 103.678c-14.4 0-27.84-3.84-40.32-11.52-12.24-7.92-22.08-18.72-29.52-32.4-7.44-13.68-11.16-29.04-11.16-46.08s3.72-32.4 11.16-46.08c7.44-13.68 17.28-24.36 29.52-32.04 12.48-7.92 25.92-11.88 40.32-11.88 14.16 0 26.76 3.24 37.8 9.72 11.04 6.24 18.96 13.32 23.76 21.24h.36v-106.56h29.52v252h-29.52v-27.36h-.36c-4.8 7.92-12.72 15.12-23.76 21.6-11.04 6.24-23.64 9.36-37.8 9.36Zm5.04-28.08c10.32 0 19.8-2.64 28.44-7.92 8.64-5.52 15.48-12.96 20.52-22.32 5.28-9.36 7.92-19.92 7.92-31.68 0-11.76-2.64-22.32-7.92-31.68-5.04-9.36-11.88-16.68-20.52-21.96-8.64-5.52-18.12-8.28-28.44-8.28-10.08 0-19.44 2.76-28.08 8.28-8.64 5.28-15.6 12.6-20.88 21.96-5.04 9.36-7.56 19.92-7.56 31.68 0 11.76 2.52 22.32 7.56 31.68 5.28 9.36 12.24 16.8 20.88 22.32 8.64 5.28 18 7.92 28.08 7.92Zm-209.57 28.083c-13.2 0-25.08-3.12-35.64-9.36-10.32-6.24-18.48-15-24.48-26.28-6-11.28-9-24.36-9-39.24v-101.52h29.52v101.52c0 13.92 4.08 25.2 12.24 33.84 8.4 8.64 19.08 12.96 32.04 12.96 9.6 0 18.24-2.28 25.92-6.84 7.92-4.56 14.04-10.92 18.36-19.08 4.56-8.16 6.84-17.4 6.84-27.72v-94.68h29.16v172.8h-29.16v-26.28h-.36c-4.56 7.68-11.88 14.64-21.96 20.88-10.08 6-21.24 9-33.48 9Zm-185.22-180.002c13.68 0 25.8 2.88 36.36 8.64 10.56 5.76 18.72 13.8 24.48 24.12 6 10.08 9 21.6 9 34.56v109.08h-28.44v-26.28h-.36c-4.56 7.68-12.12 14.64-22.68 20.88-10.56 6-22.44 9-35.64 9-11.28 0-21.36-2.28-30.24-6.84-8.88-4.56-15.84-10.56-20.88-18-4.8-7.68-7.2-15.96-7.2-24.84 0-14.4 4.8-26.28 14.4-35.64 9.6-9.6 23.04-15.84 40.32-18.72l61.2-10.08v-.72c0-11.04-3.84-20.16-11.52-27.36-7.44-7.2-17.04-10.8-28.8-10.8-9.6 0-18.24 2.16-25.92 6.48-7.44 4.32-14.4 10.08-20.88 17.28l-19.08-18.36c7.68-9.12 17.04-16.8 28.08-23.04 11.04-6.24 23.64-9.36 37.8-9.36Zm-12.96 154.08c9.84 0 18.84-2.4 27-7.2 8.16-4.8 14.52-11.28 19.08-19.44 4.8-8.4 7.2-17.64 7.2-27.72v-9.72l-54 9.36c-10.8 1.92-18.96 5.4-24.48 10.44-5.28 5.04-7.92 11.04-7.92 18 0 7.2 3 13.44 9 18.72 6.24 5.04 14.28 7.56 24.12 7.56Zm-16.2-185.76c-5.04 0-9.48-1.8-13.32-5.4-3.6-3.6-5.4-8.04-5.4-13.32 0-5.28 1.8-9.72 5.4-13.32 3.84-3.6 8.28-5.4 13.32-5.4 4.8 0 9 1.8 12.6 5.4 3.84 3.6 5.76 8.04 5.76 13.32 0 5.28-1.92 9.72-5.76 13.32-3.6 3.6-7.8 5.4-12.6 5.4Zm68.76 0c-4.8 0-9.12-1.8-12.96-5.4-3.6-3.6-5.4-8.04-5.4-13.32 0-5.28 1.8-9.72 5.4-13.32 3.84-3.6 8.16-5.4 12.96-5.4 5.04 0 9.36 1.8 12.96 5.4 3.84 3.6 5.76 8.04 5.76 13.32 0 5.28-1.92 9.72-5.76 13.32-3.6 3.6-7.92 5.4-12.96 5.4Zm-223.36 211.679c-13.92 0-26.52-3.12-37.8-9.36-11.04-6.48-18.84-13.68-23.4-21.6h-.36v27.36h-29.52v-252h29.52v106.56h.36c4.56-7.92 12.36-15 23.4-21.24 11.28-6.48 23.88-9.72 37.8-9.72 14.4 0 27.72 3.96 39.96 11.88 12.48 7.68 22.44 18.36 29.88 32.04 7.44 13.68 11.16 29.04 11.16 46.08s-3.72 32.4-11.16 46.08c-7.44 13.68-17.4 24.48-29.88 32.4-12.24 7.68-25.56 11.52-39.96 11.52Zm-4.68-28.08c10.08 0 19.44-2.64 28.08-7.92 8.64-5.52 15.48-12.96 20.52-22.32 5.28-9.36 7.92-19.92 7.92-31.68 0-11.76-2.64-22.32-7.92-31.68-5.04-9.36-11.88-16.68-20.52-21.96-8.64-5.52-18-8.28-28.08-8.28-10.32 0-19.92 2.64-28.8 7.92-8.64 5.28-15.48 12.72-20.52 22.32-5.04 9.36-7.56 19.92-7.56 31.68 0 11.76 2.52 22.44 7.56 32.04 5.04 9.36 11.88 16.68 20.52 21.96 8.88 5.28 18.48 7.92 28.8 7.92Zm-206.15 28.082c-16.08 0-30.84-3.96-44.28-11.88-13.44-8.16-24.12-19.08-32.04-32.76-7.92-13.68-11.88-28.8-11.88-45.36 0-16.8 3.84-32.04 11.52-45.72 7.92-13.68 18.48-24.48 31.68-32.4 13.2-7.92 27.6-11.88 43.2-11.88 15.36 0 29.4 3.72 42.12 11.16 12.72 7.44 22.68 17.76 29.88 30.96 7.2 12.96 10.8 27.72 10.8 44.28 0 3.84-.36 8.64-1.08 14.4h-137.52c1.92 14.4 8.4 26.52 19.44 36.36 11.04 9.84 24.24 14.76 39.6 14.76 18.96 0 35.88-7.92 50.76-23.76l19.8 18.36c-6.96 9.12-16.68 17.04-29.16 23.76-12.24 6.48-26.52 9.72-42.84 9.72Zm50.76-103.68c-2.4-15.12-8.28-27.12-17.64-36-9.12-8.88-20.76-13.32-34.92-13.32-14.64 0-27 4.68-37.08 14.04-10.08 9.12-16.44 20.88-19.08 35.28h108.72Zm-282.94 103.68c-24.24 0-46.44-5.76-66.6-17.28-19.92-11.52-35.76-27.12-47.52-46.8-11.52-19.92-17.28-41.76-17.28-65.52 0-23.76 5.76-45.48 17.28-65.16 11.76-19.92 27.6-35.64 47.52-47.16 20.16-11.52 42.36-17.28 66.6-17.28 22.8 0 43.08 4.92 60.84 14.76 17.76 9.84 31.68 21.48 41.76 34.92l-23.04 18.36c-8.64-10.56-19.56-19.56-32.76-27-12.96-7.44-28.56-11.16-46.8-11.16s-34.92 4.44-50.04 13.32c-15.12 8.88-27.12 21-36 36.36-8.64 15.12-12.96 31.8-12.96 50.04s4.32 35.04 12.96 50.4c8.88 15.12 20.88 27.12 36 36 15.12 8.88 31.8 13.32 50.04 13.32 16.32 0 31.2-3.24 44.64-9.72 13.44-6.72 23.52-14.16 30.24-22.32v-43.56h-58.32v-28.8h90.72v83.88c-6 7.92-14.28 15.72-24.84 23.4-10.56 7.68-23.04 14.16-37.44 19.44-14.16 5.04-29.16 7.56-45 7.56Z"/>
</svg>
