<svg xmlns="http://www.w3.org/2000/svg" width="7369" height="333" fill="none" viewBox="0 0 7369 333">
  <path fill="#000" d="M54 104.4h41.453l71.713-99h61.51L141.16 125.28l93.636 132.12h-66.405L96.586 154.8H54v102.6H0V5.4h54v99Z"/>
  <path fill="#000" d="M357.033 262.8c-25.68 0-48.96-5.88-69.84-17.64-20.88-11.76-37.32-27.6-49.32-47.52-11.76-20.16-17.64-42.24-17.64-66.24 0-24 5.88-46.08 17.64-66.24 12-20.16 28.44-36 49.32-47.52C308.073 5.88 331.353 0 357.033 0c25.68 0 48.84 5.88 69.48 17.64 20.88 11.52 37.32 27.36 49.32 47.52 12 20.16 18 42.24 18 66.24 0 24-6 46.08-18 66.24-12 19.92-28.44 35.76-49.32 47.52-20.88 11.76-44.04 17.64-69.48 17.64Zm0-49.68c15.12 0 28.92-3.6 41.4-10.8 12.48-7.2 22.32-17.04 29.52-29.52 7.2-12.48 10.8-26.28 10.8-41.4 0-15.12-3.6-28.92-10.8-41.4-7.2-12.48-17.04-22.32-29.52-29.52-12.48-7.44-26.28-11.16-41.4-11.16-15.12 0-29.04 3.6-41.76 10.8-12.48 7.2-22.32 17.16-29.52 29.88-7.2 12.48-10.8 26.28-10.8 41.4 0 15.12 3.6 28.92 10.8 41.4 7.44 12.48 17.4 22.32 29.88 29.52 12.48 7.2 26.28 10.8 41.4 10.8Zm378.369 44.28h-58.68l-46.44-86.4h-48.96v86.4h-54V5.4h111.6c16.8 0 31.8 3.6 45 10.8 13.44 7.2 23.88 17.16 31.32 29.88 7.44 12.48 11.16 26.52 11.16 42.12 0 16.08-4.08 30.6-12.24 43.56-7.92 12.96-18.84 22.92-32.76 29.88l54 95.76ZM581.322 54v68.4h55.8c10.32 0 18.72-3.24 25.2-9.72 6.72-6.48 10.08-14.64 10.08-24.48s-3.36-18-10.08-24.48c-6.48-6.48-14.88-9.72-25.2-9.72h-55.8Zm288.435 203.4h-54V55.8h-73.08V5.4h199.8v50.4h-72.72v201.6Zm287.223 0H967.978V5.4h185.402V54h-131.4v51.12h102.6v46.8h-102.6v56.88h135v48.6Zm211.98 0h-54V5.4h54v99h108v-99h54v252h-54V154.8h-108v102.6Zm332.58 5.4c-25.68 0-48.96-5.88-69.84-17.64-20.88-11.76-37.32-27.6-49.32-47.52-11.76-20.16-17.64-42.24-17.64-66.24 0-24 5.88-46.08 17.64-66.24 12-20.16 28.44-36 49.32-47.52C1652.58 5.88 1675.86 0 1701.54 0c25.68 0 48.84 5.88 69.48 17.64 20.88 11.52 37.32 27.36 49.32 47.52 12 20.16 18 42.24 18 66.24 0 24-6 46.08-18 66.24-12 19.92-28.44 35.76-49.32 47.52-20.88 11.76-44.04 17.64-69.48 17.64Zm0-49.68c15.12 0 28.92-3.6 41.4-10.8 12.48-7.2 22.32-17.04 29.52-29.52 7.2-12.48 10.8-26.28 10.8-41.4 0-15.12-3.6-28.92-10.8-41.4-7.2-12.48-17.04-22.32-29.52-29.52-12.48-7.44-26.28-11.16-41.4-11.16-15.12 0-29.04 3.6-41.76 10.8-12.48 7.2-22.32 17.16-29.52 29.88-7.2 12.48-10.8 26.28-10.8 41.4 0 15.12 3.6 28.92 10.8 41.4 7.44 12.48 17.4 22.32 29.88 29.52 12.48 7.2 26.28 10.8 41.4 10.8Zm224.29 44.28h-54V5.4h183.6v51.12h-129.6v57.6h100.8v49.68h-100.8v93.6Zm212.76 0h-54V5.4h183.6v51.12h-129.6v57.6h100.8v49.68h-100.8v93.6Zm212.4 0h-53.64V5.4h69.84l83.16 182.16h1.08l82.8-182.16h67.32v252h-53.28V86.04h-1.44l-79.92 171.36h-34.92l-79.56-171.36h-1.44V257.4Zm329.22 0h-56.52l97.92-252h60.12l97.56 252h-57.24l-21.24-56.88h-99.72l-20.88 56.88Zm70.2-196.92-33.48 94.32h68.04l-33.48-94.32h-1.08Zm204.32 196.92h-53.28V5.4h47.88l122.76 162h1.44V5.4h52.92v252h-47.52L2955.81 95.04h-1.08V257.4Zm273.69 0h-53.28V5.4h47.88l122.76 162h1.44V5.4h52.92v252h-47.52L3229.5 95.04h-1.08V257.4Zm247.72.998c-6.87 0-13.13-1.6-18.8-4.8-5.67-3.2-10.13-7.533-13.4-13-3.2-5.533-4.8-11.6-4.8-18.2s1.6-12.633 4.8-18.1c3.27-5.533 7.73-9.9 13.4-13.1 5.67-3.2 11.93-4.8 18.8-4.8 6.87 0 13.13 1.6 18.8 4.8 5.67 3.2 10.1 7.567 13.3 13.1 3.27 5.467 4.9 11.5 4.9 18.1 0 6.6-1.63 12.667-4.9 18.2-3.2 5.467-7.63 9.8-13.3 13-5.67 3.2-11.93 4.8-18.8 4.8Zm0-7c5.27 0 10.1-1.3 14.5-3.9 4.47-2.6 8-6.1 10.6-10.5 2.6-4.466 3.9-9.333 3.9-14.6 0-5.266-1.3-10.1-3.9-14.5-2.6-4.466-6.13-8-10.6-10.6-4.4-2.6-9.23-3.9-14.5-3.9s-10.13 1.3-14.6 3.9c-4.4 2.6-7.9 6.134-10.5 10.6-2.6 4.4-3.9 9.234-3.9 14.5 0 5.267 1.3 10.134 3.9 14.6 2.6 4.4 6.1 7.9 10.5 10.5 4.47 2.6 9.33 3.9 14.6 3.9Zm-13-10.5v-37h15c2.47 0 4.67.567 6.6 1.7 2 1.067 3.57 2.534 4.7 4.4 1.13 1.8 1.7 3.767 1.7 5.9 0 2.534-.73 4.667-2.2 6.4-1.4 1.734-3 2.934-4.8 3.6l8.5 15h-8l-7-13h-7v13h-7.5Zm15-20c1.73 0 3.07-.433 4-1.3 1-.933 1.5-2.166 1.5-3.7 0-1.533-.5-2.733-1.5-3.6-.93-.933-2.27-1.4-4-1.4h-7.5v10h7.5ZM7288 261c-16.08 0-30.84-3.96-44.28-11.88-13.44-8.16-24.12-19.08-32.04-32.76-7.92-13.68-11.88-28.8-11.88-45.36 0-16.8 3.84-32.04 11.52-45.72 7.92-13.68 18.48-24.48 31.68-32.4 13.2-7.92 27.6-11.88 43.2-11.88 15.36 0 29.4 3.72 42.12 11.16 12.72 7.44 22.68 17.76 29.88 30.96 7.2 12.96 10.8 27.72 10.8 44.28 0 3.84-.36 8.64-1.08 14.4H7230.4c1.92 14.4 8.4 26.52 19.44 36.36 11.04 9.84 24.24 14.76 39.6 14.76 18.96 0 35.88-7.92 50.76-23.76l19.8 18.36c-6.96 9.12-16.68 17.04-29.16 23.76-12.24 6.48-26.52 9.72-42.84 9.72Zm50.76-103.68c-2.4-15.12-8.28-27.12-17.64-36-9.12-8.88-20.76-13.32-34.92-13.32-14.64 0-27 4.68-37.08 14.04-10.08 9.12-16.44 20.88-19.08 35.28h108.72ZM7096.93 257.4V84.6h29.52v25.2h.36c4.8-7.44 12-14.04 21.6-19.8 9.84-6 20.88-9 33.12-9h8.28v30.6c-5.76-.72-9.72-1.08-11.88-1.08-9.36 0-18 2.4-25.92 7.2-7.68 4.8-13.92 11.52-18.72 20.16-4.56 8.4-6.84 17.88-6.84 28.44v91.08h-29.52Zm-130.05 3.598c-13.2 0-25.08-3.12-35.64-9.36-10.32-6.24-18.48-15-24.48-26.28-6-11.28-9-24.36-9-39.24V84.598h29.52v101.52c0 13.92 4.08 25.2 12.24 33.84 8.4 8.64 19.08 12.96 32.04 12.96 9.6 0 18.24-2.28 25.92-6.84 7.92-4.56 14.04-10.92 18.36-19.08 4.56-8.16 6.84-17.4 6.84-27.72v-94.68h29.16v172.8h-29.16v-26.28h-.36c-4.56 7.68-11.88 14.64-21.96 20.88-10.08 6-21.24 9-33.48 9Zm-180.27.002c-16.08 0-30.84-3.96-44.28-11.88-13.44-8.16-24.12-19.08-32.04-32.76-7.92-13.68-11.88-28.8-11.88-45.36 0-16.8 3.84-32.04 11.52-45.72 7.92-13.68 18.48-24.48 31.68-32.4 13.2-7.92 27.6-11.88 43.2-11.88 15.36 0 29.4 3.72 42.12 11.16 12.72 7.44 22.68 17.76 29.88 30.96 7.2 12.96 10.8 27.72 10.8 44.28 0 3.84-.36 8.64-1.08 14.4h-137.52c1.92 14.4 8.4 26.52 19.44 36.36 11.04 9.84 24.24 14.76 39.6 14.76 18.96 0 35.88-7.92 50.76-23.76l19.8 18.36c-6.96 9.12-16.68 17.04-29.16 23.76-12.24 6.48-26.52 9.72-42.84 9.72Zm50.76-103.68c-2.4-15.12-8.28-27.12-17.64-36-9.12-8.88-20.76-13.32-34.92-13.32-14.64 0-27 4.68-37.08 14.04-10.08 9.12-16.44 20.88-19.08 35.28h108.72Zm-174.31 100.079h-29.52v-172.8h29.52v172.8Zm-14.76-208.08c-5.04 0-9.48-1.8-13.32-5.4-3.6-3.6-5.4-8.04-5.4-13.32 0-5.28 1.8-9.72 5.4-13.32 3.84-3.6 8.28-5.4 13.32-5.4 4.8 0 9 1.8 12.6 5.4 3.84 3.6 5.76 8.04 5.76 13.32 0 5.28-1.92 9.72-5.76 13.32-3.6 3.6-7.8 5.4-12.6 5.4ZM6434.38 257.4V84.6h29.52v26.28h.35c4.8-7.68 12.13-14.52 21.97-20.52 9.84-6.24 21-9.36 33.48-9.36 13.2 0 24.96 3.12 35.28 9.36 10.56 6.24 18.72 15 24.48 26.28 6 11.28 9 24.36 9 39.24V257.4h-29.17V155.88c0-13.92-4.19-25.2-12.59-33.84-8.4-8.64-19.08-12.96-32.04-12.96-14.4 0-26.53 5.04-36.37 15.12-9.6 10.08-14.39 22.92-14.39 38.52v94.68h-29.52Zm-112.96 3.6c-16.08 0-30.84-3.96-44.28-11.88-13.44-8.16-24.12-19.08-32.04-32.76-7.92-13.68-11.88-28.8-11.88-45.36 0-16.8 3.84-32.04 11.52-45.72 7.92-13.68 18.48-24.48 31.68-32.4 13.2-7.92 27.6-11.88 43.2-11.88 15.36 0 29.4 3.72 42.12 11.16 12.72 7.44 22.68 17.76 29.88 30.96 7.2 12.96 10.8 27.72 10.8 44.28 0 3.84-.36 8.64-1.08 14.4h-137.52c1.92 14.4 8.4 26.52 19.44 36.36 11.04 9.84 24.24 14.76 39.6 14.76 18.96 0 35.88-7.92 50.76-23.76l19.8 18.36c-6.96 9.12-16.68 17.04-29.16 23.76-12.24 6.48-26.52 9.72-42.84 9.72Zm50.76-103.68c-2.4-15.12-8.28-27.12-17.64-36-9.12-8.88-20.76-13.32-34.92-13.32-14.64 0-27 4.68-37.08 14.04-10.08 9.12-16.44 20.88-19.08 35.28h108.72ZM6114.39 333c-15.84 0-30.72-3.84-44.64-11.52-13.68-7.44-23.52-15.6-29.52-24.48l20.88-19.08c4.56 6.72 11.76 12.84 21.6 18.36 10.08 5.76 20.64 8.64 31.68 8.64 16.8 0 30.24-5.64 40.32-16.92 10.32-11.28 15.48-25.92 15.48-43.92v-20.16h-.36c-5.52 8.4-13.56 15.48-24.12 21.24-10.56 5.76-21.96 8.64-34.2 8.64-13.92 0-26.88-3.72-38.88-11.16-12-7.44-21.6-17.76-28.8-30.96-6.96-13.2-10.44-27.96-10.44-44.28s3.48-31.08 10.44-44.28c7.2-13.2 16.8-23.52 28.8-30.96 12-7.44 24.96-11.16 38.88-11.16 13.2 0 24.96 3.12 35.28 9.36 10.56 6.24 18.24 13.08 23.04 20.52h.36V84.6h29.52v159.48c0 16.8-3.72 31.92-11.16 45.36-7.2 13.68-17.28 24.36-30.24 32.04-12.96 7.68-27.6 11.52-43.92 11.52Zm1.8-107.28c10.08 0 19.2-2.52 27.36-7.56 8.16-5.04 14.64-11.88 19.44-20.52 4.8-8.88 7.2-18.96 7.2-30.24 0-11.28-2.4-21.24-7.2-29.88-4.8-8.88-11.28-15.84-19.44-20.88-8.16-5.04-17.28-7.56-27.36-7.56-9.6 0-18.48 2.52-26.64 7.56-8.16 5.04-14.64 12-19.44 20.88-4.8 8.88-7.2 18.84-7.2 29.88s2.4 21 7.2 29.88c4.8 8.88 11.28 15.84 19.44 20.88 8.16 5.04 17.04 7.56 26.64 7.56Zm-268.64 31.68V84.6h29.52v26.28h.36c4.8-7.68 12.12-14.52 21.96-20.52 9.84-6.24 21-9.36 33.48-9.36 13.2 0 24.96 3.12 35.28 9.36 10.56 6.24 18.72 15 24.48 26.28 6 11.28 9 24.36 9 39.24V257.4h-29.16V155.88c0-13.92-4.2-25.2-12.6-33.84-8.4-8.64-19.08-12.96-32.04-12.96-14.4 0-26.52 5.04-36.36 15.12-9.6 10.08-14.4 22.92-14.4 38.52v94.68h-29.52Zm-55.4-.002h-32.4v-252h32.4v252Zm-222.05-25.921h-25.56v-66.6h-65.52v-27h65.52v-66.6h25.56v66.6h65.52v27h-65.52v66.6ZM5212.27 257.4V84.6h29.52v26.28h.36c4.8-7.68 12.12-14.52 21.96-20.52 9.84-6.24 21-9.36 33.48-9.36 13.2 0 24.96 3.12 35.28 9.36 10.56 6.24 18.72 15 24.48 26.28 6 11.28 9 24.36 9 39.24V257.4h-29.16V155.88c0-13.92-4.2-25.2-12.6-33.84-8.4-8.64-19.08-12.96-32.04-12.96-14.4 0-26.52 5.04-36.36 15.12-9.6 10.08-14.4 22.92-14.4 38.52v94.68h-29.52Zm-112.95 3.6c-16.08 0-30.84-3.96-44.28-11.88-13.44-8.16-24.12-19.08-32.04-32.76-7.92-13.68-11.88-28.8-11.88-45.36 0-16.8 3.84-32.04 11.52-45.72 7.92-13.68 18.48-24.48 31.68-32.4 13.2-7.92 27.6-11.88 43.2-11.88 15.36 0 29.4 3.72 42.12 11.16 12.72 7.44 22.68 17.76 29.88 30.96 7.2 12.96 10.8 27.72 10.8 44.28 0 3.84-.36 8.64-1.08 14.4h-137.52c1.92 14.4 8.4 26.52 19.44 36.36 11.04 9.84 24.24 14.76 39.6 14.76 18.96 0 35.88-7.92 50.76-23.76l19.8 18.36c-6.96 9.12-16.68 17.04-29.16 23.76-12.24 6.48-26.52 9.72-42.84 9.72Zm50.76-103.68c-2.4-15.12-8.28-27.12-17.64-36-9.12-8.88-20.76-13.32-34.92-13.32-14.64 0-27 4.68-37.08 14.04-10.08 9.12-16.44 20.88-19.08 35.28h108.72ZM4968.85 259.2c-16.08 0-28.56-4.56-37.44-13.68-8.64-9.36-12.96-22.8-12.96-40.32v-92.52h-32.76V84.6h20.88c10.08 0 15.12-6 15.12-18V27h26.28v57.6h42.12v28.08h-42.12v90c0 9.36 2.28 16.44 6.84 21.24 4.56 4.8 10.92 7.2 19.08 7.2 6.72 0 13.68-1.8 20.88-5.4v28.08c-2.88 1.44-6.72 2.64-11.52 3.6-4.56 1.2-9.36 1.8-14.4 1.8Zm-168.93-92.162 87.48 90.36h-38.88l-81.72-86.04v86.04h-29.52v-252h29.52v159.48l77.76-80.28h36.72l-81.36 82.44ZM4622.53 261c-16.08 0-30.84-3.96-44.28-11.88-13.44-8.16-24.12-19.08-32.04-32.76-7.92-13.68-11.88-28.8-11.88-45.36 0-16.8 3.84-32.04 11.52-45.72 7.92-13.68 18.48-24.48 31.68-32.4 13.2-7.92 27.6-11.88 43.2-11.88 15.36 0 29.4 3.72 42.12 11.16 12.72 7.44 22.68 17.76 29.88 30.96 7.2 12.96 10.8 27.72 10.8 44.28 0 3.84-.36 8.64-1.08 14.4h-137.52c1.92 14.4 8.4 26.52 19.44 36.36 11.04 9.84 24.24 14.76 39.6 14.76 18.96 0 35.88-7.92 50.76-23.76l19.8 18.36c-6.96 9.12-16.68 17.04-29.16 23.76-12.24 6.48-26.52 9.72-42.84 9.72Zm50.76-103.68c-2.4-15.12-8.28-27.12-17.64-36-9.12-8.88-20.76-13.32-34.92-13.32-14.64 0-27 4.68-37.08 14.04-10.08 9.12-16.44 20.88-19.08 35.28h108.72ZM4492.06 259.2c-16.08 0-28.56-4.56-37.44-13.68-8.64-9.36-12.96-22.8-12.96-40.32v-92.52h-32.76V84.6h20.88c10.08 0 15.12-6 15.12-18V27h26.28v57.6h42.12v28.08h-42.12v90c0 9.36 2.28 16.44 6.84 21.24 4.56 4.8 10.92 7.2 19.08 7.2 6.72 0 13.68-1.8 20.88-5.4v28.08c-2.88 1.44-6.72 2.64-11.52 3.6-4.56 1.2-9.36 1.8-14.4 1.8Zm-112.75-1.801h-29.52v-172.8h29.52v172.8Zm-14.76-208.08c-5.04 0-9.48-1.8-13.32-5.4-3.6-3.6-5.4-8.04-5.4-13.32 0-5.28 1.8-9.72 5.4-13.32 3.84-3.6 8.28-5.4 13.32-5.4 4.8 0 9 1.8 12.6 5.4 3.84 3.6 5.76 8.04 5.76 13.32 0 5.28-1.92 9.72-5.76 13.32-3.6 3.6-7.8 5.4-12.6 5.4Zm-213.89 208.079v-252h29.52v105.48h.36c4.8-7.68 12.12-14.52 21.96-20.52 9.84-6.24 21-9.36 33.48-9.36 13.2 0 24.96 3.12 35.28 9.36 10.56 6.24 18.72 15 24.48 26.28 6 11.28 9 24.36 9 39.24v101.52h-29.16v-101.52c0-13.92-4.2-25.2-12.6-33.84-8.4-8.64-19.08-12.96-32.04-12.96-14.4 0-26.52 5.04-36.36 15.12-9.6 10.08-14.4 22.92-14.4 38.52v94.68h-29.52ZM4046.81 261c-16.08 0-30.84-3.96-44.28-11.88-13.44-8.16-24.12-19.08-32.04-32.76-7.92-13.68-11.88-28.8-11.88-45.36s3.96-31.68 11.88-45.36c7.92-13.68 18.6-24.48 32.04-32.4 13.44-8.16 28.2-12.24 44.28-12.24 16.08 0 30.24 3.6 42.48 10.8 12.48 6.96 22.2 15 29.16 24.12l-21.24 18c-5.76-6.96-12.84-12.84-21.24-17.64-8.4-4.8-18.12-7.2-29.16-7.2-10.8 0-20.64 2.76-29.52 8.28-8.88 5.28-15.96 12.72-21.24 22.32-5.28 9.36-7.92 19.8-7.92 31.32s2.64 22.08 7.92 31.68c5.28 9.36 12.36 16.8 21.24 22.32 8.88 5.28 18.72 7.92 29.52 7.92 11.04 0 20.88-2.4 29.52-7.2 8.88-5.04 16.2-11.16 21.96-18.36l21.6 18c-7.44 9.6-17.52 18-30.24 25.2-12.48 6.96-26.76 10.44-42.84 10.44Zm-191.08-3.6V84.6h29.52v25.2h.36c4.8-7.44 12-14.04 21.6-19.8 9.84-6 20.88-9 33.12-9h8.28v30.6c-5.76-.72-9.72-1.08-11.88-1.08-9.36 0-18 2.4-25.92 7.2-7.68 4.8-13.92 11.52-18.72 20.16-4.56 8.4-6.84 17.88-6.84 28.44v91.08h-29.52Zm-230.11-.002h-33.48l101.88-252h35.28l101.88 252h-34.56l-27.36-67.68h-116.64l-27 67.68Zm84.96-213.84-46.08 115.92h92.88l-46.08-115.92h-.72Z"/>
</svg>
