<svg xmlns="http://www.w3.org/2000/svg" width="3591" height="1260" fill="none" viewBox="0 0 3591 1260">
  <path fill="#000" d="M432 603h46.094l61.99-99h57.025l-75.651 119.88L602.4 756h-61.258l-62.07-102.6H432V756h-54V504h54v99Zm299.252 153h-54V504h54v99h108v-99h54v252h-54V653.4h-108V756Zm274.348 2c-13.467 0-25.8-3.2-37-9.6-11.2-6.4-20.067-15.067-26.6-26-6.4-11.067-9.6-23.2-9.6-36.4s3.2-25.267 9.6-36.2c6.533-11.067 15.4-19.8 26.6-26.2 11.2-6.4 23.533-9.6 37-9.6 13.6 0 26 3.2 37.2 9.6 11.2 6.4 20 15.133 26.4 26.2 6.53 10.933 9.8 23 9.8 36.2 0 13.2-3.27 25.333-9.8 36.4-6.4 10.933-15.2 19.6-26.4 26-11.2 6.4-23.6 9.6-37.2 9.6Zm0-12.4c10.93 0 20.93-2.6 30-7.8 9.2-5.333 16.47-12.533 21.8-21.6 5.33-9.2 8-19.267 8-30.2s-2.67-20.933-8-30c-5.33-9.2-12.6-16.4-21.8-21.6-9.07-5.333-19.07-8-30-8-10.933 0-20.933 2.667-30 8-9.067 5.2-16.267 12.4-21.6 21.6-5.333 9.067-8 19.067-8 30s2.667 21 8 30.2c5.333 9.067 12.533 16.267 21.6 21.6 9.067 5.2 19.067 7.8 30 7.8ZM980.4 723v-74h28.6c7.33 0 13.4 2.267 18.2 6.8 4.93 4.533 7.4 10.067 7.4 16.6 0 5.067-1.47 9.333-4.4 12.8-2.8 3.467-6 5.867-9.6 7.2l17 30.6h-14l-14.6-27.4h-15.6V723h-13Zm28.6-39.6c4.13 0 7.27-1 9.4-3 2.13-2 3.2-4.667 3.2-8 0-3.467-1.07-6.133-3.2-8-2.13-2-5.27-3-9.4-3h-15.6v22h15.6Zm239.6 324.6H1209V252h39.6v756Zm389-248.4c-24.72 0-47.28-5.76-67.68-17.28-20.4-11.52-36.48-27.12-48.24-46.8-11.52-19.92-17.28-41.76-17.28-65.52 0-23.76 5.76-45.48 17.28-65.16 11.76-19.92 27.84-35.64 48.24-47.16 20.4-11.52 42.96-17.28 67.68-17.28 22.8 0 42.96 4.8 60.48 14.4 17.76 9.6 31.8 20.88 42.12 33.84l-27.72 22.68c-8.88-10.08-19.32-18.36-31.32-24.84-11.76-6.72-26.28-10.08-43.56-10.08-17.04 0-32.76 4.2-47.16 12.6-14.4 8.16-25.8 19.44-34.2 33.84-8.16 14.4-12.24 30.12-12.24 47.16 0 17.04 4.08 32.76 12.24 47.16 8.4 14.4 19.8 25.8 34.2 34.2 14.4 8.16 30.12 12.24 47.16 12.24 14.88 0 28.44-2.76 40.68-8.28 12.48-5.52 21.72-11.76 27.72-18.72V657h-54v-34.2h93.6V711c-6 7.68-14.4 15.24-25.2 22.68-10.56 7.44-23.04 13.68-37.44 18.72-14.16 4.8-29.28 7.2-45.36 7.2Zm407.61-3.6h-45l-52.2-93.6h-59.4V756h-39.6V504h104.4c15.84 0 30 3.48 42.48 10.44 12.72 6.96 22.56 16.44 29.52 28.44 7.2 12 10.8 25.44 10.8 40.32 0 16.32-4.32 30.96-12.96 43.92s-20.28 22.56-34.92 28.8L2045.21 756Zm-156.6-216v86.4h64.8c12.72 0 23.04-4.08 30.96-12.24 8.16-8.16 12.24-18.48 12.24-30.96 0-12.72-4.08-23.04-12.24-30.96-7.92-8.16-18.24-12.24-30.96-12.24h-64.8Zm357.32 219.6c-20.64 0-39-4.44-55.08-13.32-16.08-8.88-28.68-21.24-37.8-37.08-8.88-15.84-13.32-33.84-13.32-54V504h39.6v151.2c0 12.96 2.88 24.72 8.64 35.28 6 10.32 14.04 18.48 24.12 24.48 10.08 5.76 21.36 8.64 33.84 8.64 11.76 0 22.68-3 32.76-9 10.32-6.24 18.48-14.64 24.48-25.2 6.24-10.56 9.36-21.96 9.36-34.2V504h39.6v151.2c0 20.16-4.56 38.16-13.68 54-8.88 15.84-21.36 28.2-37.44 37.08-16.08 8.88-34.44 13.32-55.08 13.32Zm218.43-3.6V504h100.8c15.84 0 30.24 3.6 43.2 10.8 12.96 7.2 23.04 17.04 30.24 29.52 7.44 12.24 11.16 25.8 11.16 40.68 0 14.88-3.72 28.56-11.16 41.04-7.2 12.24-17.28 21.96-30.24 29.16-12.96 7.2-27.36 10.8-43.2 10.8h-61.2v90h-39.6Zm100.8-126c12.72 0 23.4-4.32 32.04-12.96 8.64-8.88 12.96-19.56 12.96-32.04 0-12.72-4.32-23.4-12.96-32.04S2577.88 540 2565.16 540h-61.2v90h61.2Zm177.34 126V504h100.8c15.84 0 30.24 3.6 43.2 10.8 12.96 7.2 23.04 17.04 30.24 29.52 7.44 12.24 11.16 25.8 11.16 40.68 0 14.88-3.72 28.56-11.16 41.04-7.2 12.24-17.28 21.96-30.24 29.16-12.96 7.2-27.36 10.8-43.2 10.8h-61.2v90h-39.6Zm100.8-126c12.72 0 23.4-4.32 32.04-12.96 8.64-8.88 12.96-19.56 12.96-32.04 0-12.72-4.32-23.4-12.96-32.04S2856.02 540 2843.3 540h-61.2v90h61.2Zm359.14 126h-181.8V504h178.2v36h-138.6v67.32h109.8v36h-109.8V720h142.2v36Z"/>
</svg>
