<svg xmlns="http://www.w3.org/2000/svg" width="10521" height="1260" fill="none" viewBox="0 0 10521 1260">
  <path fill="#000" d="M432 603h38.492l70.559-99h61.387L516.33 623.88 608.459 756h-66.204l-70.65-102.601H432V756h-54V504h54v99Zm356.033 158.4c-25.68 0-48.96-5.88-69.84-17.64-20.88-11.76-37.32-27.6-49.32-47.52-11.76-20.16-17.64-42.24-17.64-66.24 0-24 5.88-46.08 17.64-66.24 12-20.16 28.44-36 49.32-47.52 20.88-11.76 44.16-17.64 69.84-17.64 25.68 0 48.84 5.88 69.48 17.64 20.88 11.52 37.32 27.36 49.32 47.52 12 20.16 18 42.24 18 66.24 0 24-6 46.08-18 66.24-12 19.92-28.44 35.76-49.32 47.52-20.88 11.76-44.04 17.64-69.48 17.64Zm0-49.68c15.12 0 28.92-3.6 41.4-10.8 12.48-7.2 22.32-17.04 29.52-29.52 7.2-12.48 10.8-26.28 10.8-41.4 0-15.12-3.6-28.92-10.8-41.4-7.2-12.48-17.04-22.32-29.52-29.52-12.48-7.44-26.28-11.16-41.4-11.16-15.12 0-29.04 3.6-41.76 10.8-12.48 7.2-22.32 17.16-29.52 29.88-7.2 12.48-10.8 26.28-10.8 41.4 0 15.12 3.6 28.92 10.8 41.4 7.44 12.48 17.4 22.32 29.88 29.52 12.48 7.2 26.28 10.8 41.4 10.8ZM1222.4 756h-58.68l-46.44-86.4h-48.96V756h-54V504h111.6c16.8 0 31.8 3.6 45 10.8 13.44 7.2 23.88 17.16 31.32 29.88 7.44 12.48 11.16 26.52 11.16 42.12 0 16.08-4.08 30.6-12.24 43.56-7.92 12.96-18.84 22.92-32.76 29.88l54 95.76Zm-154.08-203.4V621h55.8c10.32 0 18.72-3.24 25.2-9.72 6.72-6.48 10.08-14.64 10.08-24.48s-3.36-18-10.08-24.48c-6.48-6.48-14.88-9.72-25.2-9.72h-55.8ZM1404.76 756h-54V554.4h-73.08V504h199.8v50.4h-72.72V756Zm341.22 0h-189V504h185.4v48.6h-131.4v51.12h102.6v46.8h-102.6v56.88h135V756Zm323.98 0h-54V504h54v99h108v-99h54v252h-54V653.4h-108V756Zm388.58 5.4c-25.68 0-48.96-5.88-69.84-17.64-20.88-11.76-37.32-27.6-49.32-47.52-11.76-20.16-17.64-42.24-17.64-66.24 0-24 5.88-46.08 17.64-66.24 12-20.16 28.44-36 49.32-47.52 20.88-11.76 44.16-17.64 69.84-17.64 25.68 0 48.84 5.88 69.48 17.64 20.88 11.52 37.32 27.36 49.32 47.52 12 20.16 18 42.24 18 66.24 0 24-6 46.08-18 66.24-12 19.92-28.44 35.76-49.32 47.52-20.88 11.76-44.04 17.64-69.48 17.64Zm0-49.68c15.12 0 28.92-3.6 41.4-10.8 12.48-7.2 22.32-17.04 29.52-29.52 7.2-12.48 10.8-26.28 10.8-41.4 0-15.12-3.6-28.92-10.8-41.4-7.2-12.48-17.04-22.32-29.52-29.52-12.48-7.44-26.28-11.16-41.4-11.16-15.12 0-29.04 3.6-41.76 10.8-12.48 7.2-22.32 17.16-29.52 29.88-7.2 12.48-10.8 26.28-10.8 41.4 0 15.12 3.6 28.92 10.8 41.4 7.44 12.48 17.4 22.32 29.88 29.52 12.48 7.2 26.28 10.8 41.4 10.8ZM2738.83 756h-54V504h183.6v51.12h-129.6v57.6h100.8v49.68h-100.8V756Zm266.76 0h-54V504h183.6v51.12h-129.6v57.6h100.8v49.68h-100.8V756Zm266.4 0h-53.64V504h69.84l83.16 182.16h1.08l82.8-182.16h67.32v252h-53.28V584.64h-1.44L3387.91 756h-34.92l-79.56-171.36h-1.44V756Zm383.22 0h-56.52l97.92-252h60.12l97.56 252h-57.24l-21.24-56.88h-99.72L3655.21 756Zm70.2-196.92-33.48 94.32h68.04l-33.48-94.32h-1.08ZM3983.73 756h-53.28V504h47.88l122.76 162h1.44V504h52.92v252h-47.52l-123.12-162.36h-1.08V756Zm329.69 0h-53.28V504h47.88l122.76 162h1.44V504h52.92v252h-47.52L4314.5 593.64h-1.08V756Zm527.18 252H4801V252h39.6v756Zm290.08-252H5090l100.8-252h43.2l100.8 252h-42.12l-25.2-64.8h-111.6l-25.2 64.8Zm80.64-206.28-41.04 105.48h82.8l-41.04-105.48h-.72ZM5409.39 756V583.2h36v22.68h.72c4.56-6.72 11.4-12.72 20.52-18 9.36-5.52 19.68-8.28 30.96-8.28h9v37.8c-5.52-1.2-10.32-1.8-14.4-1.8-8.4 0-16.2 2.28-23.4 6.84-7.2 4.32-12.96 10.56-17.28 18.72-4.08 7.92-6.12 16.8-6.12 26.64V756h-36Zm249.41 3.6c-16.56 0-31.8-3.96-45.72-11.88-13.68-7.92-24.48-18.72-32.4-32.4-7.92-13.92-11.88-29.16-11.88-45.72s3.96-31.68 11.88-45.36c7.92-13.92 18.72-24.84 32.4-32.76 13.92-7.92 29.16-11.88 45.72-11.88 16.32 0 30.72 3.48 43.2 10.44 12.48 6.72 22.44 14.76 29.88 24.12l-25.92 21.96c-13.44-14.88-29.16-22.32-47.16-22.32-10.08 0-19.32 2.4-27.72 7.2-8.16 4.8-14.64 11.52-19.44 20.16-4.56 8.4-6.84 17.88-6.84 28.44 0 10.56 2.28 20.16 6.84 28.8 4.8 8.4 11.28 15 19.44 19.8 8.4 4.8 17.64 7.2 27.72 7.2 10.32 0 19.56-2.16 27.72-6.48 8.4-4.56 15.48-10.2 21.24-16.92l25.92 21.96c-7.68 9.6-18 18-30.96 25.2-12.96 6.96-27.6 10.44-43.92 10.44Zm155.03-3.6V504h36v103.68h.36c4.56-7.2 11.64-13.68 21.24-19.44 9.84-5.76 20.64-8.64 32.4-8.64 13.2 0 24.96 3.12 35.28 9.36 10.32 6 18.36 14.76 24.12 26.28 6 11.28 9 24.6 9 39.96V756h-36V655.2c0-12.48-3.72-22.44-11.16-29.88-7.2-7.68-16.68-11.52-28.44-11.52-13.68 0-24.96 4.56-33.84 13.68-8.64 8.88-12.96 20.52-12.96 34.92V756h-36Zm288.83 0h-36V583.2h36V756Zm-18-205.2c-5.52 0-10.56-2.04-15.12-6.12-4.32-4.32-6.48-9.48-6.48-15.48s2.16-11.04 6.48-15.12c4.56-4.32 9.6-6.48 15.12-6.48s10.44 2.16 14.76 6.48c4.56 4.08 6.84 9.12 6.84 15.12s-2.28 11.16-6.84 15.48c-4.32 4.08-9.24 6.12-14.76 6.12Zm184.4 207c-17.28 0-30.6-4.92-39.96-14.76s-14.04-24.12-14.04-42.84v-82.8h-32.4v-34.2h19.8c5.52 0 9.6-1.56 12.24-4.68 2.64-3.12 3.96-8.16 3.96-15.12v-37.8h32.4v57.6h41.4v34.2h-41.4v79.2c0 8.88 2.16 15.6 6.48 20.16 4.32 4.56 10.56 6.84 18.72 6.84 6.72 0 13.32-1.8 19.8-5.4v34.2c-2.88 1.44-6.84 2.64-11.88 3.6-4.8 1.2-9.84 1.8-15.12 1.8Zm186.24 1.8c-16.56 0-31.8-3.96-45.72-11.88-13.68-7.92-24.48-18.72-32.4-32.4-7.92-13.92-11.88-29.16-11.88-45.72s3.96-31.68 11.88-45.36c7.92-13.68 18.6-24.48 32.04-32.4 13.44-8.16 28.2-12.24 44.28-12.24 16.08 0 30.48 3.72 43.2 11.16 12.96 7.2 23.04 17.28 30.24 30.24 7.44 12.72 11.16 27.12 11.16 43.2 0 6.48-.6 12.48-1.8 18h-133.2c1.92 12 7.92 22.2 18 30.6 10.08 8.4 22.08 12.6 36 12.6 17.52 0 33.72-6.96 48.6-20.88l23.4 23.04c-6.72 8.4-16.56 15.84-29.52 22.32-12.72 6.48-27.48 9.72-44.28 9.72Zm45.36-106.2c-2.64-12.72-8.04-22.8-16.2-30.24-8.16-7.44-18.48-11.16-30.96-11.16-13.44 0-24.48 3.72-33.12 11.16-8.4 7.44-14.4 17.52-18 30.24h98.28Zm195.81 11.52 81.72 91.08h-46.08l-74.52-85.32V756h-36V504h36v158.76l71.64-79.56h43.56l-76.32 81.72Zm217.52 92.88c-17.28 0-30.6-4.92-39.96-14.76s-14.04-24.12-14.04-42.84v-82.8h-32.4v-34.2h19.8c5.52 0 9.6-1.56 12.24-4.68 2.64-3.12 3.96-8.16 3.96-15.12v-37.8h32.4v57.6h41.4v34.2h-41.4v79.2c0 8.88 2.16 15.6 6.48 20.16 4.32 4.56 10.56 6.84 18.72 6.84 6.72 0 13.32-1.8 19.8-5.4v34.2c-2.88 1.44-6.84 2.64-11.88 3.6-4.8 1.2-9.84 1.8-15.12 1.8Zm186.24 1.8c-16.56 0-31.8-3.96-45.72-11.88-13.68-7.92-24.48-18.72-32.4-32.4-7.92-13.92-11.88-29.16-11.88-45.72s3.96-31.68 11.88-45.36c7.92-13.68 18.6-24.48 32.04-32.4 13.44-8.16 28.2-12.24 44.28-12.24 16.08 0 30.48 3.72 43.2 11.16 12.96 7.2 23.04 17.28 30.24 30.24 7.44 12.72 11.16 27.12 11.16 43.2 0 6.48-.6 12.48-1.8 18h-133.2c1.92 12 7.92 22.2 18 30.6 10.08 8.4 22.08 12.6 36 12.6 17.52 0 33.72-6.96 48.6-20.88l23.4 23.04c-6.72 8.4-16.56 15.84-29.52 22.32-12.72 6.48-27.48 9.72-44.28 9.72Zm45.36-106.2c-2.64-12.72-8.04-22.8-16.2-30.24-8.16-7.44-18.48-11.16-30.96-11.16-13.44 0-24.48 3.72-33.12 11.16-8.4 7.44-14.4 17.52-18 30.24h98.28ZM7264.72 756V583.2h36v24.48h.36c4.56-7.2 11.64-13.68 21.24-19.44 9.84-5.76 20.64-8.64 32.4-8.64 13.2 0 24.96 3.12 35.28 9.36 10.32 6 18.36 14.76 24.12 26.28 6 11.28 9 24.6 9 39.96V756h-36V655.2c0-12.48-3.72-22.44-11.16-29.88-7.2-7.68-16.68-11.52-28.44-11.52-13.68 0-24.96 4.56-33.84 13.68-8.64 8.88-12.96 20.52-12.96 34.92V756h-36Zm472.72-25.2h-30.6V666h-64.8v-32.4h64.8v-64.8h30.6v64.8h64.8V666h-64.8v64.8Zm335.52 25.2h-39.6V504h39.6v252Zm105.04 0V583.2h36v24.48h.36c4.56-7.2 11.64-13.68 21.24-19.44 9.84-5.76 20.64-8.64 32.4-8.64 13.2 0 24.96 3.12 35.28 9.36 10.32 6 18.36 14.76 24.12 26.28 6 11.28 9 24.6 9 39.96V756h-36V655.2c0-12.48-3.72-22.44-11.16-29.88-7.2-7.68-16.68-11.52-28.44-11.52-13.68 0-24.96 4.56-33.84 13.68-8.64 8.88-12.96 20.52-12.96 34.92V756h-36Zm321.27 75.6c-16.32 0-31.44-3.72-45.36-11.16-13.92-7.44-24-15.72-30.24-24.84l25.2-23.4c4.56 6.24 11.52 12 20.88 17.28 9.36 5.28 19.2 7.92 29.52 7.92 16.08 0 28.8-5.04 38.16-15.12 9.36-10.08 14.04-23.64 14.04-40.68v-15.48h-.36c-4.8 6.72-12.24 12.84-22.32 18.36-9.84 5.28-20.88 7.92-33.12 7.92-13.68 0-26.52-3.72-38.52-11.16-11.76-7.44-21.24-17.76-28.44-30.96-6.96-13.2-10.44-27.96-10.44-44.28s3.48-31.08 10.44-44.28c7.2-13.2 16.68-23.52 28.44-30.96 12-7.44 24.84-11.16 38.52-11.16 12.24 0 23.28 2.76 33.12 8.28 10.08 5.28 17.52 11.28 22.32 18h.36V583.2h36v158.4c0 17.28-3.72 32.76-11.16 46.44-7.44 13.68-17.88 24.36-31.32 32.04-13.44 7.68-28.68 11.52-45.72 11.52Zm3.6-113.4c8.88 0 17.04-2.16 24.48-6.48 7.44-4.56 13.32-10.8 17.64-18.72 4.32-7.92 6.48-16.92 6.48-27 0-10.08-2.16-19.08-6.48-27-4.32-7.92-10.2-14.04-17.64-18.36-7.44-4.56-15.6-6.84-24.48-6.84s-17.04 2.28-24.48 6.84c-7.44 4.32-13.32 10.44-17.64 18.36s-6.48 16.92-6.48 27c0 10.08 2.16 19.08 6.48 27 4.32 7.92 10.2 14.16 17.64 18.72 7.44 4.32 15.6 6.48 24.48 6.48Zm258.23 41.4c-16.56 0-31.8-3.96-45.72-11.88-13.68-7.92-24.48-18.72-32.4-32.4-7.92-13.92-11.88-29.16-11.88-45.72s3.96-31.68 11.88-45.36c7.92-13.68 18.6-24.48 32.04-32.4 13.44-8.16 28.2-12.24 44.28-12.24 16.08 0 30.48 3.72 43.2 11.16 12.96 7.2 23.04 17.28 30.24 30.24 7.44 12.72 11.16 27.12 11.16 43.2 0 6.48-.6 12.48-1.8 18h-133.2c1.92 12 7.92 22.2 18 30.6 10.08 8.4 22.08 12.6 36 12.6 17.52 0 33.72-6.96 48.6-20.88l23.4 23.04c-6.72 8.4-16.56 15.84-29.52 22.32-12.72 6.48-27.48 9.72-44.28 9.72Zm45.36-106.2c-2.64-12.72-8.04-22.8-16.2-30.24-8.16-7.44-18.48-11.16-30.96-11.16-13.44 0-24.48 3.72-33.12 11.16-8.4 7.44-14.4 17.52-18 30.24h98.28ZM8925.59 756V583.2h36v24.48h.36c4.56-7.2 11.64-13.68 21.24-19.44 9.84-5.76 20.64-8.64 32.4-8.64 13.2 0 24.96 3.12 35.28 9.36 10.32 6 18.36 14.76 24.12 26.28 6 11.28 9 24.6 9 39.96V756h-36V655.2c0-12.48-3.72-22.44-11.16-29.88-7.2-7.68-16.68-11.52-28.44-11.52-13.68 0-24.96 4.56-33.84 13.68-8.64 8.88-12.96 20.52-12.96 34.92V756h-36Zm288.87 0h-36V583.2h36V756Zm-18-205.2c-5.52 0-10.56-2.04-15.12-6.12-4.32-4.32-6.48-9.48-6.48-15.48s2.16-11.04 6.48-15.12c4.56-4.32 9.6-6.48 15.12-6.48s10.44 2.16 14.76 6.48c4.56 4.08 6.84 9.12 6.84 15.12s-2.28 11.16-6.84 15.48c-4.32 4.08-9.24 6.12-14.76 6.12Zm193.4 208.8c-16.56 0-31.8-3.96-45.72-11.88-13.68-7.92-24.48-18.72-32.4-32.4-7.92-13.92-11.88-29.16-11.88-45.72s3.96-31.68 11.88-45.36c7.92-13.68 18.6-24.48 32.04-32.4 13.44-8.16 28.2-12.24 44.28-12.24 16.08 0 30.48 3.72 43.2 11.16 12.96 7.2 23.04 17.28 30.24 30.24 7.44 12.72 11.16 27.12 11.16 43.2 0 6.48-.6 12.48-1.8 18h-133.2c1.92 12 7.92 22.2 18 30.6 10.08 8.4 22.08 12.6 36 12.6 17.52 0 33.72-6.96 48.6-20.88l23.4 23.04c-6.72 8.4-16.56 15.84-29.52 22.32-12.72 6.48-27.48 9.72-44.28 9.72Zm45.36-106.2c-2.64-12.72-8.04-22.8-16.2-30.24-8.16-7.44-18.48-11.16-30.96-11.16-13.44 0-24.48 3.72-33.12 11.16-8.4 7.44-14.4 17.52-18 30.24h98.28Zm185.73 106.2c-13.2 0-24.96-3-35.28-9-10.32-6.24-18.48-15-24.48-26.28-5.76-11.52-8.64-24.96-8.64-40.32V583.2h36V684c0 12.48 3.6 22.56 10.8 30.24 7.44 7.44 17.04 11.16 28.8 11.16 13.68 0 24.84-4.44 33.48-13.32 8.88-9.12 13.32-20.88 13.32-35.28v-93.6h36V756h-36v-24.48h-.36c-4.56 7.2-11.76 13.68-21.6 19.44-9.6 5.76-20.28 8.64-32.04 8.64Zm184.47-3.6V583.2h36v22.68h.72c4.56-6.72 11.4-12.72 20.52-18 9.36-5.52 19.68-8.28 30.96-8.28h9v37.8c-5.52-1.2-10.32-1.8-14.4-1.8-8.4 0-16.2 2.28-23.4 6.84-7.2 4.32-12.96 10.56-17.28 18.72-4.08 7.92-6.12 16.8-6.12 26.64V756h-36Zm249.38 3.6c-16.5 0-31.8-3.96-45.7-11.88-13.67-7.92-24.47-18.72-32.39-32.4-7.92-13.92-11.88-29.16-11.88-45.72s3.96-31.68 11.88-45.36c7.92-13.68 18.6-24.48 31.99-32.4 13.5-8.16 28.2-12.24 44.3-12.24 16.1 0 30.5 3.72 43.2 11.16 13 7.2 23.1 17.28 30.3 30.24 7.4 12.72 11.1 27.12 11.1 43.2 0 6.48-.6 12.48-1.8 18h-133.2c1.9 12 7.9 22.2 18 30.6 10.1 8.4 22.1 12.6 36 12.6 17.5 0 33.7-6.96 48.6-20.88l23.4 23.04c-6.7 8.4-16.5 15.84-29.5 22.32-12.7 6.48-27.5 9.72-44.3 9.72Zm45.4-106.2c-2.7-12.72-8.1-22.8-16.2-30.24-8.2-7.44-18.5-11.16-31-11.16-13.4 0-24.5 3.72-33.1 11.16-8.4 7.44-14.4 17.52-18 30.24h98.3Z"/>
</svg>
