<svg xmlns="http://www.w3.org/2000/svg" width="3738" height="267" fill="none" viewBox="0 0 3738 267">
  <path fill="#000" d="M3568.77 259.203h-66.6v-252h59.4l108.36 140.4h1.44V7.203h66.6v252h-59.4l-108.36-140.4h-1.44v140.4Zm-297.55 0h-66.6v-252h59.4l108.36 140.4h1.44V7.203h66.6v252h-59.4l-108.36-140.4h-1.44v140.4Zm-297.6 0h-72l94.68-252h77.04l94.68 252h-72.72l-16.92-48.6h-87.84l-16.92 48.6Zm60.12-187.2-25.92 82.8h53.28l-25.92-82.8h-1.44Zm-419.97 187.2h-67.32v-252h86.4l73.8 162h.72l73.44-162h84.24v252h-67.32v-151.92h-1.44l-70.92 151.92h-39.24l-70.92-151.92h-1.44v151.92Zm-235.2 0h-68.4v-252h190.8v64.8h-122.4v43.2h93.6v61.2h-93.6v82.8Zm-236.27 0h-68.4v-252h190.8v64.8h-122.4v43.2h93.6v61.2h-93.6v82.8Zm-256.13 7.197c-26.4 0-50.4-5.88-72-17.64-21.36-12-38.16-28.08-50.4-48.24-12-20.4-18-42.84-18-67.32 0-24.48 6-46.8 18-66.96 12.24-20.4 29.04-36.48 50.4-48.24 21.6-12 45.6-18 72-18s50.28 6 71.64 18c21.6 11.76 38.4 27.84 50.4 48.24 12.24 20.16 18.36 42.48 18.36 66.96 0 24.48-6.12 46.92-18.36 67.32-12 20.16-28.8 36.24-50.4 48.24-21.36 11.76-45.24 17.64-71.64 17.64Zm0-63c12.96 0 24.72-3.12 35.28-9.36 10.8-6.24 19.32-14.64 25.56-25.2 6.24-10.8 9.36-22.68 9.36-35.64s-3.12-24.72-9.36-35.28c-6.24-10.8-14.76-19.32-25.56-25.56-10.56-6.24-22.32-9.36-35.28-9.36s-24.84 3.12-35.64 9.36c-10.56 6.24-18.96 14.76-25.2 25.56-6.24 10.56-9.36 22.32-9.36 35.28s3.12 24.84 9.36 35.64c6.24 10.56 14.64 18.96 25.2 25.2 10.8 6.24 22.68 9.36 35.64 9.36Zm-347.77 55.803H1470v-252h68.4v91.8h91.8v-91.8h68.4v252h-68.4v-95.4h-91.8v95.4Zm-265.16 0h-196.2v-252h192.6v61.2h-124.2v35.28h95.4v57.6h-95.4v36.72h127.8v61.2Zm-308.437 0h-68.4v-187.2h-70.2v-64.8H1035v64.8h-70.197v187.2Zm-163.234 0h-72l-41.4-79.2h-37.8v79.2h-68.4v-252h118.8c17.76 0 33.6 3.84 47.52 11.52 13.92 7.44 24.72 17.76 32.4 30.96 7.92 13.2 11.88 27.84 11.88 43.92 0 15.6-3.72 29.88-11.16 42.84-7.44 12.96-17.76 23.28-30.96 30.96l51.12 91.8Zm-151.2-190.8v50.4h46.8c7.92 0 14.4-2.4 19.44-7.2 5.04-4.8 7.56-10.8 7.56-18 0-7.2-2.52-13.2-7.56-18-5.04-4.8-11.52-7.2-19.44-7.2h-46.8ZM394.244 266.4c-26.4 0-50.4-5.88-72-17.64-21.36-12-38.16-28.08-50.4-48.24-12-20.4-18-42.84-18-67.32 0-24.48 6-46.8 18-66.96 12.24-20.4 29.04-36.48 50.4-48.24 21.6-12 45.6-18 72-18s50.28 6 71.64 18c21.6 11.76 38.4 27.84 50.4 48.24 12.24 20.16 18.36 42.48 18.36 66.96 0 24.48-6.12 46.92-18.36 67.32-12 20.16-28.8 36.24-50.4 48.24-21.36 11.76-45.24 17.64-71.64 17.64Zm0-63c12.96 0 24.72-3.12 35.28-9.36 10.8-6.24 19.32-14.64 25.56-25.2 6.24-10.8 9.36-22.68 9.36-35.64s-3.12-24.72-9.36-35.28c-6.24-10.8-14.76-19.32-25.56-25.56-10.56-6.24-22.32-9.36-35.28-9.36s-24.84 3.12-35.64 9.36c-10.56 6.24-18.96 14.76-25.2 25.56-6.24 10.56-9.36 22.32-9.36 35.28s3.12 24.84 9.36 35.64c6.24 10.56 14.64 18.96 25.2 25.2 10.8 6.24 22.68 9.36 35.64 9.36ZM68.4 99h36.407l64.224-91.797h75.548l-84.12 118.441 90.744 133.559h-81.841L105.434 163.8H68.4v95.403H0v-252h68.4V99Z"/>
</svg>
