<svg xmlns="http://www.w3.org/2000/svg" width="6680" height="756" fill="none" viewBox="0 0 6680 756">
  <path fill="#fff" d="M3946.77 504h-66.6V252h59.4l108.36 140.4h1.44V252h66.6v252h-59.4l-108.36-140.4h-1.44V504Zm-297.55 0h-66.6V252h59.4l108.36 140.4h1.44V252h66.6v252h-59.4l-108.36-140.4h-1.44V504Zm-297.6 0h-72l94.68-252h77.04l94.68 252h-72.72l-16.92-48.6h-87.84l-16.92 48.6Zm60.12-187.2-25.92 82.8h53.28l-25.92-82.8h-1.44ZM2991.77 504h-67.32V252h86.4l73.8 162h.72l73.44-162h84.24v252h-67.32V352.08h-1.44L3103.37 504h-39.24l-70.92-151.92h-1.44V504Zm-235.2 0h-68.4V252h190.8v64.8h-122.4V360h93.6v61.2h-93.6V504Zm-236.27 0h-68.4V252h190.8v64.8h-122.4V360h93.6v61.2h-93.6V504Zm-256.13 7.201c-26.4 0-50.4-5.88-72-17.64-21.36-12-38.16-28.08-50.4-48.24-12-20.4-18-42.84-18-67.32 0-24.48 6-46.8 18-66.96 12.24-20.4 29.04-36.48 50.4-48.24 21.6-12 45.6-18 72-18s50.28 6 71.64 18c21.6 11.76 38.4 27.84 50.4 48.24 12.24 20.16 18.36 42.48 18.36 66.96 0 24.48-6.12 46.92-18.36 67.32-12 20.16-28.8 36.24-50.4 48.24-21.36 11.76-45.24 17.64-71.64 17.64Zm0-63c12.96 0 24.72-3.12 35.28-9.36 10.8-6.24 19.32-14.64 25.56-25.2 6.24-10.8 9.36-22.68 9.36-35.64s-3.12-24.72-9.36-35.28c-6.24-10.8-14.76-19.32-25.56-25.56-10.56-6.24-22.32-9.36-35.28-9.36s-24.84 3.12-35.64 9.36c-10.56 6.24-18.96 14.76-25.2 25.56-6.24 10.56-9.36 22.32-9.36 35.28s3.12 24.84 9.36 35.64c6.24 10.56 14.64 18.96 25.2 25.2 10.8 6.24 22.68 9.36 35.64 9.36ZM1916.4 504H1848V252h68.4v91.8h91.8V252h68.4v252h-68.4v-95.4h-91.8V504Zm-265.16 0h-196.2V252h192.6v61.2h-124.2v35.28h95.4v57.6h-95.4v36.72h127.8V504Zm-308.44 0h-68.4V316.8h-70.2V252H1413v64.8h-70.2V504Zm-163.23 0h-72l-41.4-79.2h-37.8V504h-68.401V252h118.801c17.76 0 33.6 3.84 47.52 11.52 13.92 7.44 24.72 17.76 32.4 30.96 7.92 13.2 11.88 27.84 11.88 43.92 0 15.6-3.72 29.88-11.16 42.84-7.44 12.96-17.76 23.28-30.96 30.96l51.12 91.8Zm-151.2-190.8v50.4h46.8c7.92 0 14.4-2.4 19.44-7.2 5.04-4.8 7.56-10.8 7.56-18 0-7.2-2.52-13.2-7.56-18-5.04-4.8-11.52-7.2-19.44-7.2h-46.8ZM772.244 511.201c-26.4 0-50.4-5.88-72-17.64-21.36-12-38.16-28.08-50.4-48.24-12-20.4-18-42.84-18-67.32 0-24.48 6-46.8 18-66.96 12.24-20.4 29.04-36.48 50.4-48.24 21.6-12 45.6-18 72-18s50.28 6 71.64 18c21.6 11.76 38.4 27.84 50.4 48.24 12.24 20.16 18.36 42.48 18.36 66.96 0 24.48-6.12 46.92-18.36 67.32-12 20.16-28.8 36.24-50.4 48.24-21.36 11.76-45.24 17.64-71.64 17.64Zm0-63c12.96 0 24.72-3.12 35.28-9.36 10.8-6.24 19.32-14.64 25.56-25.2 6.24-10.8 9.36-22.68 9.36-35.64s-3.12-24.72-9.36-35.28c-6.24-10.8-14.76-19.32-25.56-25.56-10.56-6.24-22.32-9.36-35.28-9.36s-24.84 3.12-35.64 9.36c-10.56 6.24-18.96 14.76-25.2 25.56-6.24 10.56-9.36 22.32-9.36 35.28s3.12 24.84 9.36 35.64c6.24 10.56 14.64 18.96 25.2 25.2 10.8 6.24 22.68 9.36 35.64 9.36ZM446.4 343.797h36.407L547.031 252h75.548l-84.12 118.44L629.203 504h-81.841l-63.928-95.403H446.4V504H378V252h68.4v91.797Zm5696.67 160.205v-172.8h36v24.48h.36c4.56-7.2 11.64-13.68 21.24-19.44 9.84-5.76 20.64-8.64 32.4-8.64 13.2 0 24.96 3.12 35.28 9.36 10.32 6 18.36 14.76 24.12 26.28 6 11.28 9 24.6 9 39.96v100.8h-36v-100.8c0-12.48-3.72-22.44-11.16-29.88-7.2-7.68-16.68-11.52-28.44-11.52-13.68 0-24.96 4.56-33.84 13.68-8.64 8.88-12.96 20.52-12.96 34.92v93.6h-36Zm-139.49 3.6c-16.56 0-31.8-3.96-45.72-11.88-13.68-7.92-24.48-18.72-32.4-32.4-7.92-13.92-11.88-29.16-11.88-45.72s3.96-31.68 11.88-45.36c7.92-13.68 18.6-24.48 32.04-32.4 13.44-8.16 28.2-12.24 44.28-12.24 16.08 0 30.48 3.72 43.2 11.16 12.96 7.2 23.04 17.28 30.24 30.24 7.44 12.72 11.16 27.12 11.16 43.2 0 6.48-.6 12.48-1.8 18h-133.2c1.92 12 7.92 22.2 18 30.6 10.08 8.4 22.08 12.6 36 12.6 17.52 0 33.72-6.96 48.6-20.88l23.4 23.04c-6.72 8.4-16.56 15.84-29.52 22.32-12.72 6.48-27.48 9.72-44.28 9.72Zm45.36-106.2c-2.64-12.72-8.04-22.8-16.2-30.24-8.16-7.44-18.48-11.16-30.96-11.16-13.44 0-24.48 3.72-33.12 11.16-8.4 7.44-14.4 17.52-18 30.24h98.28Zm-195.76 102.6h-36v-172.8h36v172.8Zm-18-205.2c-5.52 0-10.56-2.04-15.12-6.12-4.32-4.32-6.48-9.48-6.48-15.48s2.16-11.04 6.48-15.12c4.56-4.32 9.6-6.48 15.12-6.48s10.44 2.16 14.76 6.48c4.56 4.08 6.84 9.12 6.84 15.12s-2.28 11.16-6.84 15.48c-4.32 4.08-9.24 6.12-14.76 6.12Zm-91 205.198h-36V252h36v252Zm-109 .002h-36v-172.8h36v172.8Zm-18-205.2c-5.52 0-10.56-2.04-15.12-6.12-4.32-4.32-6.48-9.48-6.48-15.48s2.16-11.04 6.48-15.12c4.56-4.32 9.6-6.48 15.12-6.48s10.44 2.16 14.76 6.48c4.56 4.08 6.84 9.12 6.84 15.12s-2.28 11.16-6.84 15.48c-4.32 4.08-9.24 6.12-14.76 6.12ZM5457.61 507.6c-13.44 0-25.56-2.88-36.36-8.64-10.56-5.76-18.12-12.24-22.68-19.44h-.36V504h-36V252h36v103.68h.36c4.56-7.2 12.12-13.68 22.68-19.44 10.8-5.76 22.92-8.64 36.36-8.64 14.4 0 27.72 3.96 39.96 11.88 12.48 7.68 22.44 18.36 29.88 32.04 7.44 13.68 11.16 29.04 11.16 46.08s-3.72 32.4-11.16 46.08c-7.44 13.68-17.4 24.48-29.88 32.4-12.24 7.68-25.56 11.52-39.96 11.52Zm-7.2-34.2c9.6 0 18.36-2.4 26.28-7.2 7.92-4.8 14.16-11.4 18.72-19.8 4.8-8.64 7.2-18.24 7.2-28.8 0-10.56-2.4-20.04-7.2-28.44-4.56-8.64-10.8-15.36-18.72-20.16-7.92-4.8-16.68-7.2-26.28-7.2-9.6 0-18.36 2.4-26.28 7.2-7.92 4.8-14.28 11.52-19.08 20.16-4.56 8.4-6.84 17.88-6.84 28.44 0 10.56 2.28 20.16 6.84 28.8 4.8 8.4 11.16 15 19.08 19.8 7.92 4.8 16.68 7.2 26.28 7.2Zm-238.63 34.202c-16.56 0-31.8-3.96-45.72-11.88-13.68-7.92-24.48-18.72-32.4-32.4-7.92-13.92-11.88-29.16-11.88-45.72s3.96-31.68 11.88-45.36c7.92-13.92 18.72-24.84 32.4-32.76 13.92-7.92 29.16-11.88 45.72-11.88s31.68 3.96 45.36 11.88c13.92 7.92 24.84 18.84 32.76 32.76 7.92 13.68 11.88 28.8 11.88 45.36s-3.96 31.8-11.88 45.72c-7.92 13.68-18.84 24.48-32.76 32.4-13.68 7.92-28.8 11.88-45.36 11.88Zm0-34.2c10.08 0 19.2-2.4 27.36-7.2 8.4-4.8 14.88-11.4 19.44-19.8 4.8-8.64 7.2-18.24 7.2-28.8 0-10.56-2.4-20.04-7.2-28.44-4.56-8.64-11.04-15.36-19.44-20.16-8.16-4.8-17.28-7.2-27.36-7.2-10.08 0-19.32 2.4-27.72 7.2-8.16 4.8-14.64 11.52-19.44 20.16-4.56 8.4-6.84 17.88-6.84 28.44 0 10.56 2.28 20.16 6.84 28.8 4.8 8.4 11.28 15 19.44 19.8 8.4 4.8 17.64 7.2 27.72 7.2Zm-409.68 30.6v-172.8h36v24.48h.36c3.6-7.2 9.84-13.68 18.72-19.44 9.12-5.76 19.56-8.64 31.32-8.64 12.48 0 23.52 3 33.12 9 9.6 5.76 16.44 12.24 20.52 19.44h.72c4.08-7.2 11.28-13.68 21.6-19.44 10.56-6 23.04-9 37.44-9 11.52 0 22.08 3.12 31.68 9.36 9.6 6 17.16 14.64 22.68 25.92 5.76 11.04 8.64 23.88 8.64 38.52v102.6h-36v-102.6c0-12.24-3.48-21.84-10.44-28.8-6.72-7.2-15.24-10.8-25.56-10.8-12 0-21.96 4.32-29.88 12.96-7.68 8.4-11.52 19.68-11.52 33.84v95.4h-36v-102.6c0-12.24-3.48-21.84-10.44-28.8-6.72-7.2-15.24-10.8-25.56-10.8-12 0-21.96 4.32-29.88 12.96-7.68 8.4-11.52 19.68-11.52 33.84v95.4h-36Zm-330.48 0v-172.8h36v24.48h.36c3.6-7.2 9.84-13.68 18.72-19.44 9.12-5.76 19.56-8.64 31.32-8.64 12.48 0 23.52 3 33.12 9 9.6 5.76 16.44 12.24 20.52 19.44h.72c4.08-7.2 11.28-13.68 21.6-19.44 10.56-6 23.04-9 37.44-9 11.52 0 22.08 3.12 31.68 9.36 9.6 6 17.16 14.64 22.68 25.92 5.76 11.04 8.64 23.88 8.64 38.52v102.6h-36v-102.6c0-12.24-3.48-21.84-10.44-28.8-6.72-7.2-15.24-10.8-25.56-10.8-12 0-21.96 4.32-29.88 12.96-7.68 8.4-11.52 19.68-11.52 33.84v95.4h-36v-102.6c0-12.24-3.48-21.84-10.44-28.8-6.72-7.2-15.24-10.8-25.56-10.8-12 0-21.96 4.32-29.88 12.96-7.68 8.4-11.52 19.68-11.52 33.84v95.4h-36Zm-80.05-.002h-39.6V252h39.6v252Z"/>
</svg>
