<svg xmlns="http://www.w3.org/2000/svg" width="976" height="756" fill="none" viewBox="0 0 976 756">
  <path fill="#fff" d="M306 351h46.094l61.99-99h57.026l-75.652 119.88L476.4 504h-61.257l-62.071-102.6H306V504h-54V252h54v99Zm255.252 153h-54V252h54v99h108v-99h54v252h-54V401.4h-108V504Zm218.548 1c-6.733 0-12.9-1.6-18.5-4.8-5.6-3.2-10.033-7.533-13.3-13-3.2-5.533-4.8-11.6-4.8-18.2s1.6-12.633 4.8-18.1c3.267-5.533 7.7-9.9 13.3-13.1 5.6-3.2 11.767-4.8 18.5-4.8 6.8 0 13 1.6 18.6 4.8 5.6 3.2 10 7.567 13.2 13.1 3.267 5.467 4.9 11.5 4.9 18.1 0 6.6-1.633 12.667-4.9 18.2-3.2 5.467-7.6 9.8-13.2 13-5.6 3.2-11.8 4.8-18.6 4.8Zm0-6.2c5.467 0 10.467-1.3 15-3.9 4.6-2.667 8.233-6.267 10.9-10.8 2.667-4.6 4-9.633 4-15.1 0-5.467-1.333-10.467-4-15-2.667-4.6-6.3-8.2-10.9-10.8-4.533-2.667-9.533-4-15-4-5.467 0-10.467 1.333-15 4-4.533 2.6-8.133 6.2-10.8 10.8-2.667 4.533-4 9.533-4 15 0 5.467 1.333 10.5 4 15.1 2.667 4.533 6.267 8.133 10.8 10.8 4.533 2.6 9.533 3.9 15 3.9Zm-12.6-11.3v-37h14.3c3.667 0 6.7 1.133 9.1 3.4 2.467 2.267 3.7 5.033 3.7 8.3 0 2.533-.733 4.667-2.2 6.4-1.4 1.733-3 2.933-4.8 3.6l8.5 15.3h-7l-7.3-13.7h-7.8v13.7h-6.5Zm14.3-19.8c2.067 0 3.633-.5 4.7-1.5 1.067-1 1.6-2.333 1.6-4 0-1.733-.533-3.067-1.6-4-1.067-1-2.633-1.5-4.7-1.5h-7.8v11h7.8Z"/>
</svg>
