<svg xmlns="http://www.w3.org/2000/svg" width="4788" height="1261" fill="none" viewBox="0 0 4788 1261">
  <path fill="#fff" d="M3946.77 579h-66.6V327h59.4l108.36 140.4h1.44V327h66.6v252h-59.4l-108.36-140.4h-1.44V579Zm-297.55 0h-66.6V327h59.4l108.36 140.4h1.44V327h66.6v252h-59.4l-108.36-140.4h-1.44V579Zm-297.6 0h-72l94.68-252h77.04l94.68 252h-72.72l-16.92-48.6h-87.84l-16.92 48.6Zm60.12-187.2-25.92 82.8h53.28l-25.92-82.8h-1.44ZM2991.77 579h-67.32V327h86.4l73.8 162h.72l73.44-162h84.24v252h-67.32V427.08h-1.44L3103.37 579h-39.24l-70.92-151.92h-1.44V579Zm-235.2 0h-68.4V327h190.8v64.8h-122.4V435h93.6v61.2h-93.6V579Zm-236.27 0h-68.4V327h190.8v64.8h-122.4V435h93.6v61.2h-93.6V579Zm-256.13 7.201c-26.4 0-50.4-5.88-72-17.64-21.36-12-38.16-28.08-50.4-48.24-12-20.4-18-42.84-18-67.32 0-24.48 6-46.8 18-66.96 12.24-20.4 29.04-36.48 50.4-48.24 21.6-12 45.6-18 72-18s50.28 6 71.64 18c21.6 11.76 38.4 27.84 50.4 48.24 12.24 20.16 18.36 42.48 18.36 66.96 0 24.48-6.12 46.92-18.36 67.32-12 20.16-28.8 36.24-50.4 48.24-21.36 11.76-45.24 17.64-71.64 17.64Zm0-63c12.96 0 24.72-3.12 35.28-9.36 10.8-6.24 19.32-14.64 25.56-25.2 6.24-10.8 9.36-22.68 9.36-35.64s-3.12-24.72-9.36-35.28c-6.24-10.8-14.76-19.32-25.56-25.56-10.56-6.24-22.32-9.36-35.28-9.36s-24.84 3.12-35.64 9.36c-10.56 6.24-18.96 14.76-25.2 25.56-6.24 10.56-9.36 22.32-9.36 35.28s3.12 24.84 9.36 35.64c6.24 10.56 14.64 18.96 25.2 25.2 10.8 6.24 22.68 9.36 35.64 9.36ZM1916.4 579H1848V327h68.4v91.8h91.8V327h68.4v252h-68.4v-95.4h-91.8V579Zm-265.16 0h-196.2V327h192.6v61.2h-124.2v35.28h95.4v57.6h-95.4v36.72h127.8V579Zm-308.44 0h-68.4V391.8h-70.2V327H1413v64.8h-70.2V579Zm-163.23 0h-72l-41.4-79.2h-37.8V579h-68.401V327h118.801c17.76 0 33.6 3.84 47.52 11.52 13.92 7.44 24.72 17.76 32.4 30.96 7.92 13.2 11.88 27.84 11.88 43.92 0 15.6-3.72 29.88-11.16 42.84-7.44 12.96-17.76 23.28-30.96 30.96l51.12 91.8Zm-151.2-190.8v50.4h46.8c7.92 0 14.4-2.4 19.44-7.2 5.04-4.8 7.56-10.8 7.56-18 0-7.2-2.52-13.2-7.56-18-5.04-4.8-11.52-7.2-19.44-7.2h-46.8ZM772.244 586.201c-26.4 0-50.4-5.88-72-17.64-21.36-12-38.16-28.08-50.4-48.24-12-20.4-18-42.84-18-67.32 0-24.48 6-46.8 18-66.96 12.24-20.4 29.04-36.48 50.4-48.24 21.6-12 45.6-18 72-18s50.28 6 71.64 18c21.6 11.76 38.4 27.84 50.4 48.24 12.24 20.16 18.36 42.48 18.36 66.96 0 24.48-6.12 46.92-18.36 67.32-12 20.16-28.8 36.24-50.4 48.24-21.36 11.76-45.24 17.64-71.64 17.64Zm0-63c12.96 0 24.72-3.12 35.28-9.36 10.8-6.24 19.32-14.64 25.56-25.2 6.24-10.8 9.36-22.68 9.36-35.64s-3.12-24.72-9.36-35.28c-6.24-10.8-14.76-19.32-25.56-25.56-10.56-6.24-22.32-9.36-35.28-9.36s-24.84 3.12-35.64 9.36c-10.56 6.24-18.96 14.76-25.2 25.56-6.24 10.56-9.36 22.32-9.36 35.28s3.12 24.84 9.36 35.64c6.24 10.56 14.64 18.96 25.2 25.2 10.8 6.24 22.68 9.36 35.64 9.36ZM446.4 418.797h36.407L547.031 327h75.548l-84.12 118.44L629.203 579h-81.841l-63.928-95.403H446.4V579H378V327h68.4v91.797Zm3543.07 513.848v-130.14h30.51v18.36h.54c3.42-5.4 8.64-10.26 15.66-14.58 7.2-4.32 15.21-6.48 24.03-6.48 9.72 0 18.45 2.34 26.19 7.02 7.74 4.5 13.77 10.98 18.09 19.44s6.48 18.45 6.48 29.97v76.41h-30.78v-74.52c0-9-2.61-16.11-7.83-21.33-5.04-5.4-11.61-8.1-19.71-8.1-9.36 0-17.19 3.24-23.49 9.72-6.12 6.3-9.18 14.49-9.18 24.57v69.66h-30.51Zm-116.08 2.7c-12.6 0-24.21-2.97-34.83-8.91-10.44-6.12-18.72-14.31-24.84-24.57-5.94-10.44-8.91-21.87-8.91-34.29 0-12.42 2.97-23.76 8.91-34.02 6.12-10.44 14.31-18.63 24.57-24.57 10.26-6.12 21.42-9.18 33.48-9.18 12.24 0 23.22 2.79 32.94 8.37 9.9 5.58 17.64 13.32 23.22 23.22 5.58 9.72 8.37 20.61 8.37 32.67 0 4.68-.45 9.27-1.35 13.77h-98.28c1.26 8.1 5.49 15.12 12.69 21.06 7.2 5.76 15.84 8.64 25.92 8.64 13.32 0 25.11-4.95 35.37-14.85l18.09 19.71c-5.04 6.12-12.42 11.52-22.14 16.2-9.72 4.5-20.79 6.75-33.21 6.75Zm31.32-80.46c-1.8-8.64-5.58-15.48-11.34-20.52-5.58-5.22-12.78-7.83-21.6-7.83-9.18 0-16.83 2.52-22.95 7.56-5.94 5.04-10.08 11.97-12.42 20.79h68.31Zm-155.81 77.766h-30.51v-130.14h30.51v130.14Zm-15.12-152.55c-4.86 0-9.09-1.71-12.69-5.13-3.6-3.42-5.4-7.65-5.4-12.69 0-5.04 1.8-9.27 5.4-12.69 3.6-3.42 7.83-5.13 12.69-5.13 4.68 0 8.82 1.71 12.42 5.13 3.6 3.42 5.4 7.65 5.4 12.69 0 5.04-1.8 9.27-5.4 12.69-3.6 3.42-7.74 5.13-12.42 5.13Zm-80.75 152.547h-30.51v-189h30.51v189Zm-95.88.003h-30.51v-130.14h30.51v130.14Zm-15.12-152.55c-4.86 0-9.09-1.71-12.69-5.13-3.6-3.42-5.4-7.65-5.4-12.69 0-5.04 1.8-9.27 5.4-12.69 3.6-3.42 7.83-5.13 12.69-5.13 4.68 0 8.82 1.71 12.42 5.13 3.6 3.42 5.4 7.65 5.4 12.69 0 5.04-1.8 9.27-5.4 12.69-3.6 3.42-7.74 5.13-12.42 5.13Zm-131.94 155.247c-10.08 0-18.99-2.16-26.73-6.48-7.74-4.32-13.23-9.18-16.47-14.58h-.54v18.36h-30.51v-189h30.51v77.22h.54c3.24-5.4 8.73-10.26 16.47-14.58 7.74-4.32 16.65-6.48 26.73-6.48 10.8 0 20.79 2.97 29.97 8.91 9.36 5.76 16.74 13.77 22.14 24.03 5.58 10.26 8.37 21.87 8.37 34.83 0 12.96-2.79 24.57-8.37 34.83-5.4 10.26-12.78 18.36-22.14 24.3-9.18 5.76-19.17 8.64-29.97 8.64Zm-7.02-28.62c6.66 0 12.78-1.71 18.36-5.13s9.99-8.1 13.23-14.04c3.42-5.94 5.13-12.6 5.13-19.98 0-7.38-1.71-14.04-5.13-19.98-3.24-5.94-7.65-10.62-13.23-14.04s-11.7-5.13-18.36-5.13-12.78 1.71-18.36 5.13-10.08 8.1-13.5 14.04c-3.24 5.94-4.86 12.6-4.86 19.98 0 7.38 1.62 14.04 4.86 19.98 3.42 5.94 7.92 10.62 13.5 14.04s11.7 5.13 18.36 5.13Zm-191.77 28.617c-12.6 0-24.21-2.97-34.83-8.91-10.44-6.12-18.72-14.31-24.84-24.57-5.94-10.44-8.91-21.87-8.91-34.29 0-12.42 2.97-23.76 8.91-34.02 6.12-10.44 14.4-18.63 24.84-24.57 10.62-6.12 22.23-9.18 34.83-9.18 12.6 0 24.12 3.06 34.56 9.18 10.62 5.94 18.9 14.13 24.84 24.57 6.12 10.26 9.18 21.6 9.18 34.02 0 12.42-3.06 23.85-9.18 34.29-5.94 10.26-14.22 18.45-24.84 24.57-10.44 5.94-21.96 8.91-34.56 8.91Zm0-28.62c7.02 0 13.41-1.71 19.17-5.13 5.76-3.42 10.26-8.1 13.5-14.04 3.42-5.94 5.13-12.6 5.13-19.98 0-7.38-1.71-14.04-5.13-19.98-3.24-5.94-7.74-10.62-13.5-14.04s-12.15-5.13-19.17-5.13c-7.02 0-13.41 1.71-19.17 5.13-5.76 3.42-10.35 8.1-13.77 14.04-3.24 5.94-4.86 12.6-4.86 19.98 0 7.38 1.62 14.04 4.86 19.98 3.42 5.94 8.01 10.62 13.77 14.04s12.15 5.13 19.17 5.13Zm-321.15 25.92v-130.14h30.51v18.36h.54c2.7-5.4 7.29-10.26 13.77-14.58 6.66-4.32 14.4-6.48 23.22-6.48 9.18 0 17.28 2.25 24.3 6.75 7.2 4.5 12.24 9.45 15.12 14.85h.54c3.24-5.4 8.82-10.35 16.74-14.85 7.92-4.5 17.19-6.75 27.81-6.75 8.46 0 16.2 2.34 23.22 7.02 7.2 4.5 12.87 10.98 17.01 19.44 4.32 8.28 6.48 18 6.48 29.16v77.22h-30.51v-75.87c0-8.82-2.43-15.66-7.29-20.52-4.68-5.04-10.62-7.56-17.82-7.56-8.28 0-15.21 3.06-20.79 9.18-5.4 5.94-8.1 13.86-8.1 23.76v71.01h-30.51v-75.87c0-8.82-2.34-15.66-7.02-20.52-4.68-5.04-10.62-7.56-17.82-7.56-8.28 0-15.21 3.06-20.79 9.18-5.4 5.94-8.1 13.86-8.1 23.76v71.01h-30.51Zm-260.67 0v-130.14h30.51v18.36h.54c2.7-5.4 7.29-10.26 13.77-14.58 6.66-4.32 14.4-6.48 23.22-6.48 9.18 0 17.28 2.25 24.3 6.75 7.2 4.5 12.24 9.45 15.12 14.85h.54c3.24-5.4 8.82-10.35 16.74-14.85 7.92-4.5 17.19-6.75 27.81-6.75 8.46 0 16.2 2.34 23.22 7.02 7.2 4.5 12.87 10.98 17.01 19.44 4.32 8.28 6.48 18 6.48 29.16v77.22h-30.51v-75.87c0-8.82-2.43-15.66-7.29-20.52-4.68-5.04-10.62-7.56-17.82-7.56-8.28 0-15.21 3.06-20.79 9.18-5.4 5.94-8.1 13.86-8.1 23.76v71.01h-30.51v-75.87c0-8.82-2.34-15.66-7.02-20.52-4.68-5.04-10.62-7.56-17.82-7.56-8.28 0-15.21 3.06-20.79 9.18-5.4 5.94-8.1 13.86-8.1 23.76v71.01h-30.51Zm-70.64.003h-33.75v-189h33.75v189ZM4367.97 1009h42V252h-42v757Z"/>
</svg>
