<svg xmlns="http://www.w3.org/2000/svg" width="4494" height="1111" fill="none" viewBox="0 0 4494 1111">
  <path fill="#000" d="M3946.77 504h-66.6V252h59.4l108.36 140.4h1.44V252h66.6v252h-59.4l-108.36-140.4h-1.44V504Zm-297.55 0h-66.6V252h59.4l108.36 140.4h1.44V252h66.6v252h-59.4l-108.36-140.4h-1.44V504Zm-297.6 0h-72l94.68-252h77.04l94.68 252h-72.72l-16.92-48.6h-87.84l-16.92 48.6Zm60.12-187.2-25.92 82.8h53.28l-25.92-82.8h-1.44ZM2991.77 504h-67.32V252h86.4l73.8 162h.72l73.44-162h84.24v252h-67.32V352.08h-1.44L3103.37 504h-39.24l-70.92-151.92h-1.44V504Zm-235.2 0h-68.4V252h190.8v64.8h-122.4V360h93.6v61.2h-93.6V504Zm-236.27 0h-68.4V252h190.8v64.8h-122.4V360h93.6v61.2h-93.6V504Zm-256.13 7.201c-26.4 0-50.4-5.88-72-17.64-21.36-12-38.16-28.08-50.4-48.24-12-20.4-18-42.84-18-67.32 0-24.48 6-46.8 18-66.96 12.24-20.4 29.04-36.48 50.4-48.24 21.6-12 45.6-18 72-18s50.28 6 71.64 18c21.6 11.76 38.4 27.84 50.4 48.24 12.24 20.16 18.36 42.48 18.36 66.96 0 24.48-6.12 46.92-18.36 67.32-12 20.16-28.8 36.24-50.4 48.24-21.36 11.76-45.24 17.64-71.64 17.64Zm0-63c12.96 0 24.72-3.12 35.28-9.36 10.8-6.24 19.32-14.64 25.56-25.2 6.24-10.8 9.36-22.68 9.36-35.64s-3.12-24.72-9.36-35.28c-6.24-10.8-14.76-19.32-25.56-25.56-10.56-6.24-22.32-9.36-35.28-9.36s-24.84 3.12-35.64 9.36c-10.56 6.24-18.96 14.76-25.2 25.56-6.24 10.56-9.36 22.32-9.36 35.28s3.12 24.84 9.36 35.64c6.24 10.56 14.64 18.96 25.2 25.2 10.8 6.24 22.68 9.36 35.64 9.36ZM1916.4 504H1848V252h68.4v91.8h91.8V252h68.4v252h-68.4v-95.4h-91.8V504Zm-265.16 0h-196.2V252h192.6v61.2h-124.2v35.28h95.4v57.6h-95.4v36.72h127.8V504Zm-308.44 0h-68.4V316.8h-70.2V252H1413v64.8h-70.2V504Zm-163.23 0h-72l-41.4-79.2h-37.8V504h-68.401V252h118.801c17.76 0 33.6 3.84 47.52 11.52 13.92 7.44 24.72 17.76 32.4 30.96 7.92 13.2 11.88 27.84 11.88 43.92 0 15.6-3.72 29.88-11.16 42.84-7.44 12.96-17.76 23.28-30.96 30.96l51.12 91.8Zm-151.2-190.8v50.4h46.8c7.92 0 14.4-2.4 19.44-7.2 5.04-4.8 7.56-10.8 7.56-18 0-7.2-2.52-13.2-7.56-18-5.04-4.8-11.52-7.2-19.44-7.2h-46.8ZM772.244 511.201c-26.4 0-50.4-5.88-72-17.64-21.36-12-38.16-28.08-50.4-48.24-12-20.4-18-42.84-18-67.32 0-24.48 6-46.8 18-66.96 12.24-20.4 29.04-36.48 50.4-48.24 21.6-12 45.6-18 72-18s50.28 6 71.64 18c21.6 11.76 38.4 27.84 50.4 48.24 12.24 20.16 18.36 42.48 18.36 66.96 0 24.48-6.12 46.92-18.36 67.32-12 20.16-28.8 36.24-50.4 48.24-21.36 11.76-45.24 17.64-71.64 17.64Zm0-63c12.96 0 24.72-3.12 35.28-9.36 10.8-6.24 19.32-14.64 25.56-25.2 6.24-10.8 9.36-22.68 9.36-35.64s-3.12-24.72-9.36-35.28c-6.24-10.8-14.76-19.32-25.56-25.56-10.56-6.24-22.32-9.36-35.28-9.36s-24.84 3.12-35.64 9.36c-10.56 6.24-18.96 14.76-25.2 25.56-6.24 10.56-9.36 22.32-9.36 35.28s3.12 24.84 9.36 35.64c6.24 10.56 14.64 18.96 25.2 25.2 10.8 6.24 22.68 9.36 35.64 9.36ZM446.4 343.797h36.407L547.031 252h75.548l-84.12 118.44L629.203 504h-81.841l-63.928-95.403H446.4V504H378V252h68.4v91.797ZM1562.22 859h-138.51V670h135.81v30.51h-102.06v45.9h80.46v30.24h-80.46v51.84h104.76V859Zm-331.7 0V670h77.49c12.24 0 23.31 2.79 33.21 8.37 9.9 5.4 17.64 12.87 23.22 22.41 5.58 9.36 8.37 19.71 8.37 31.05s-2.79 21.78-8.37 31.32c-5.58 9.36-13.32 16.74-23.22 22.14-9.9 5.4-20.97 8.1-33.21 8.1h-43.74V859h-33.75Zm76.95-96.12c8.82 0 16.29-2.97 22.41-8.91 6.12-6.12 9.18-13.5 9.18-22.14 0-8.82-3.06-16.2-9.18-22.14-6.12-6.12-13.59-9.18-22.41-9.18h-43.2v62.37h43.2ZM1037.34 859V670h77.49c12.24 0 23.31 2.79 33.21 8.37 9.9 5.4 17.64 12.87 23.22 22.41 5.58 9.36 8.37 19.71 8.37 31.05s-2.79 21.78-8.37 31.32c-5.58 9.36-13.32 16.74-23.22 22.14-9.9 5.4-20.97 8.1-33.21 8.1h-43.74V859h-33.75Zm76.95-96.12c8.82 0 16.29-2.97 22.41-8.91 6.12-6.12 9.18-13.5 9.18-22.14 0-8.82-3.06-16.2-9.18-22.14-6.12-6.12-13.59-9.18-22.41-9.18h-43.2v62.37h43.2Zm-223.22 99.36c-15.84 0-29.88-3.33-42.12-9.99-12.24-6.84-21.78-16.29-28.62-28.35-6.84-12.06-10.26-25.74-10.26-41.04V670h33.75v112.86c0 9.18 2.07 17.46 6.21 24.84 4.14 7.38 9.81 13.23 17.01 17.55 7.2 4.14 15.21 6.21 24.03 6.21 8.46 0 16.29-2.16 23.49-6.48 7.2-4.32 12.96-10.17 17.28-17.55 4.32-7.56 6.48-15.75 6.48-24.57V670h33.75v112.86c0 15.3-3.42 28.98-10.26 41.04-6.84 12.06-16.38 21.51-28.62 28.35-12.24 6.66-26.28 9.99-42.12 9.99ZM757.843 859h-37.53l-37.53-68.31h-41.58V859h-33.75V670h80.46c12.24 0 23.13 2.7 32.67 8.1 9.54 5.22 17.01 12.42 22.41 21.6 5.4 9.18 8.1 19.44 8.1 30.78 0 12.24-3.15 23.22-9.45 32.94-6.12 9.72-14.58 16.92-25.38 21.6l41.58 73.98Zm-116.64-158.49v59.67h46.17c8.82 0 16.02-2.79 21.6-8.37 5.58-5.58 8.37-12.69 8.37-21.33 0-8.82-2.79-16.02-8.37-21.6-5.58-5.58-12.78-8.37-21.6-8.37h-46.17ZM466.98 862.242c-18.9 0-36.09-4.32-51.57-12.96-15.3-8.82-27.36-20.7-36.18-35.64-8.82-14.94-13.23-31.32-13.23-49.14s4.41-34.2 13.23-49.14c8.82-14.94 20.88-26.73 36.18-35.37 15.48-8.82 32.67-13.23 51.57-13.23 17.46 0 32.85 3.6 46.17 10.8 13.32 7.02 24.12 15.48 32.4 25.38l-23.22 19.98c-7.02-7.56-14.85-13.68-23.49-18.36-8.64-4.68-19.26-7.02-31.86-7.02-12.24 0-23.49 2.97-33.75 8.91-10.26 5.94-18.36 14.04-24.3 24.3-5.94 10.26-8.91 21.51-8.91 33.75 0 12.24 2.97 23.49 8.91 33.75 5.94 10.26 14.04 18.36 24.3 24.3 10.26 5.94 21.51 8.91 33.75 8.91 10.44 0 19.98-1.89 28.62-5.67 8.82-3.96 15.39-8.28 19.71-12.96v-26.73h-39.69v-28.08h73.17v67.77c-4.5 5.76-10.8 11.43-18.9 17.01-8.1 5.58-17.64 10.26-28.62 14.04-10.8 3.6-22.23 5.4-34.29 5.4Z"/>
</svg>
