<svg xmlns="http://www.w3.org/2000/svg" width="3343" height="263" fill="none" viewBox="0 0 3343 263">
  <path fill="#000" d="M54 104.4h41.453l71.713-99h61.51L141.16 125.28l93.636 132.12h-66.405L96.586 154.8H54v102.6H0V5.4h54v99Z"/>
  <path fill="#000" d="M349.033 262.8c-25.68 0-48.96-5.88-69.84-17.64-20.88-11.76-37.32-27.6-49.32-47.52-11.76-20.16-17.64-42.24-17.64-66.24 0-24 5.88-46.08 17.64-66.24 12-20.16 28.44-36 49.32-47.52C300.073 5.88 323.353 0 349.033 0c25.68 0 48.84 5.88 69.48 17.64 20.88 11.52 37.32 27.36 49.32 47.52 12 20.16 18 42.24 18 66.24 0 24-6 46.08-18 66.24-12 19.92-28.44 35.76-49.32 47.52-20.88 11.76-44.04 17.64-69.48 17.64Zm0-49.68c15.12 0 28.92-3.6 41.4-10.8 12.48-7.2 22.32-17.04 29.52-29.52 7.2-12.48 10.8-26.28 10.8-41.4 0-15.12-3.6-28.92-10.8-41.4-7.2-12.48-17.04-22.32-29.52-29.52-12.48-7.44-26.28-11.16-41.4-11.16-15.12 0-29.04 3.6-41.76 10.8-12.48 7.2-22.32 17.16-29.52 29.88-7.2 12.48-10.8 26.28-10.8 41.4 0 15.12 3.6 28.92 10.8 41.4 7.44 12.48 17.4 22.32 29.88 29.52 12.48 7.2 26.28 10.8 41.4 10.8Zm372.369 44.28h-58.68l-46.44-86.4h-48.96v86.4h-54V5.4h111.6c16.8 0 31.8 3.6 45 10.8 13.44 7.2 23.88 17.16 31.32 29.88 7.44 12.48 11.16 26.52 11.16 42.12 0 16.08-4.08 30.6-12.24 43.56-7.92 12.96-18.84 22.92-32.76 29.88l54 95.76ZM567.322 54v68.4h55.8c10.32 0 18.72-3.24 25.2-9.72 6.72-6.48 10.08-14.64 10.08-24.48s-3.36-18-10.08-24.48c-6.48-6.48-14.88-9.72-25.2-9.72h-55.8Zm288.435 203.4h-54V55.8h-73.08V5.4h199.8v50.4h-72.72v201.6Zm285.223 0H951.978V5.4h185.402V54h-131.4v51.12h102.6v46.8h-102.6v56.88h135v48.6Zm201.98 0h-54V5.4h54v99h108v-99h54v252h-54V154.8h-108v102.6Zm324.58 5.4c-25.68 0-48.96-5.88-69.84-17.64-20.88-11.76-37.32-27.6-49.32-47.52-11.76-20.16-17.64-42.24-17.64-66.24 0-24 5.88-46.08 17.64-66.24 12-20.16 28.44-36 49.32-47.52C1618.58 5.88 1641.86 0 1667.54 0c25.68 0 48.84 5.88 69.48 17.64 20.88 11.52 37.32 27.36 49.32 47.52 12 20.16 18 42.24 18 66.24 0 24-6 46.08-18 66.24-12 19.92-28.44 35.76-49.32 47.52-20.88 11.76-44.04 17.64-69.48 17.64Zm0-49.68c15.12 0 28.92-3.6 41.4-10.8 12.48-7.2 22.32-17.04 29.52-29.52 7.2-12.48 10.8-26.28 10.8-41.4 0-15.12-3.6-28.92-10.8-41.4-7.2-12.48-17.04-22.32-29.52-29.52-12.48-7.44-26.28-11.16-41.4-11.16-15.12 0-29.04 3.6-41.76 10.8-12.48 7.2-22.32 17.16-29.52 29.88-7.2 12.48-10.8 26.28-10.8 41.4 0 15.12 3.6 28.92 10.8 41.4 7.44 12.48 17.4 22.32 29.88 29.52 12.48 7.2 26.28 10.8 41.4 10.8Zm216.29 44.28h-54V5.4h183.6v51.12h-129.6v57.6h100.8v49.68h-100.8v93.6Zm210.76 0h-54V5.4h183.6v51.12h-129.6v57.6h100.8v49.68h-100.8v93.6Zm210.4 0h-53.64V5.4h69.84l83.16 182.16h1.08l82.8-182.16h67.32v252h-53.28V86.04h-1.44l-79.92 171.36h-34.92l-79.56-171.36h-1.44V257.4Zm327.22 0h-56.52l97.92-252h60.12l97.56 252h-57.24l-21.24-56.88h-99.72l-20.88 56.88Zm70.2-196.92-33.48 94.32h68.04l-33.48-94.32h-1.08Zm202.32 196.92h-53.28V5.4h47.88l122.76 162h1.44V5.4h52.92v252h-47.52L2905.81 95.04h-1.08V257.4Zm265.69 0h-53.28V5.4h47.88l122.76 162h1.44V5.4h52.92v252h-47.52L3171.5 95.04h-1.08V257.4Z"/>
</svg>
