<svg xmlns="http://www.w3.org/2000/svg" width="4292" height="1160" fill="none" viewBox="0 0 4292 1160">
  <path fill="#fff" d="M432 351h38.492l70.559-99h61.387L516.33 371.88 608.459 504h-66.204l-70.649-102.6H432V504h-54V252h54v99Zm312.033 158.4c-25.68 0-48.96-5.88-69.84-17.64-20.88-11.76-37.32-27.6-49.32-47.52-11.76-20.16-17.64-42.24-17.64-66.24 0-24 5.88-46.08 17.64-66.24 12-20.16 28.44-36 49.32-47.52 20.88-11.76 44.16-17.64 69.84-17.64 25.68 0 48.84 5.88 69.48 17.64 20.88 11.52 37.32 27.36 49.32 47.52 12 20.16 18 42.24 18 66.24 0 24-6 46.08-18 66.24-12 19.92-28.44 35.76-49.32 47.52-20.88 11.76-44.04 17.64-69.48 17.64Zm0-49.68c15.12 0 28.92-3.6 41.4-10.8 12.48-7.2 22.32-17.04 29.52-29.52 7.2-12.48 10.8-26.28 10.8-41.4 0-15.12-3.6-28.92-10.8-41.4-7.2-12.48-17.04-22.32-29.52-29.52-12.48-7.44-26.28-11.16-41.4-11.16-15.12 0-29.04 3.6-41.76 10.8-12.48 7.2-22.32 17.16-29.52 29.88-7.2 12.48-10.8 26.28-10.8 41.4 0 15.12 3.6 28.92 10.8 41.4 7.44 12.48 17.4 22.32 29.88 29.52 12.48 7.2 26.28 10.8 41.4 10.8ZM1134.4 504h-58.68l-46.44-86.4h-48.958V504h-54V252h111.598c16.8 0 31.8 3.6 45 10.8 13.44 7.2 23.88 17.16 31.32 29.88 7.44 12.48 11.16 26.52 11.16 42.12 0 16.08-4.08 30.6-12.24 43.56-7.92 12.96-18.84 22.92-32.76 29.88l54 95.76ZM980.322 300.6V369h55.798c10.32 0 18.72-3.24 25.2-9.72 6.72-6.48 10.08-14.64 10.08-24.48s-3.36-18-10.08-24.48c-6.48-6.48-14.88-9.72-25.2-9.72h-55.798ZM1272.76 504h-54V302.4h-73.08V252h199.8v50.4h-72.72V504Zm297.22 0h-189V252h185.4v48.6h-131.4v51.12h102.6v46.8h-102.6v56.88h135V504Zm235.98 0h-54V252h54v99h108v-99h54v252h-54V401.4h-108V504Zm344.58 5.4c-25.68 0-48.96-5.88-69.84-17.64-20.88-11.76-37.32-27.6-49.32-47.52-11.76-20.16-17.64-42.24-17.64-66.24 0-24 5.88-46.08 17.64-66.24 12-20.16 28.44-36 49.32-47.52 20.88-11.76 44.16-17.64 69.84-17.64 25.68 0 48.84 5.88 69.48 17.64 20.88 11.52 37.32 27.36 49.32 47.52 12 20.16 18 42.24 18 66.24 0 24-6 46.08-18 66.24-12 19.92-28.44 35.76-49.32 47.52-20.88 11.76-44.04 17.64-69.48 17.64Zm0-49.68c15.12 0 28.92-3.6 41.4-10.8 12.48-7.2 22.32-17.04 29.52-29.52 7.2-12.48 10.8-26.28 10.8-41.4 0-15.12-3.6-28.92-10.8-41.4-7.2-12.48-17.04-22.32-29.52-29.52-12.48-7.44-26.28-11.16-41.4-11.16-15.12 0-29.04 3.6-41.76 10.8-12.48 7.2-22.32 17.16-29.52 29.88-7.2 12.48-10.8 26.28-10.8 41.4 0 15.12 3.6 28.92 10.8 41.4 7.44 12.48 17.4 22.32 29.88 29.52 12.48 7.2 26.28 10.8 41.4 10.8ZM2386.83 504h-54V252h183.6v51.12h-129.6v57.6h100.8v49.68h-100.8V504Zm222.76 0h-54V252h183.6v51.12h-129.6v57.6h100.8v49.68h-100.8V504Zm222.4 0h-53.64V252h69.84l83.16 182.16h1.08l82.8-182.16h67.32v252h-53.28V332.64h-1.44L2947.91 504h-34.92l-79.56-171.36h-1.44V504Zm339.22 0h-56.52l97.92-252h60.12l97.56 252h-57.24l-21.24-56.88h-99.72L3171.21 504Zm70.2-196.92-33.48 94.32h68.04l-33.48-94.32h-1.08ZM3455.73 504h-53.28V252h47.88l122.76 162h1.44V252h52.92v252h-47.52l-123.12-162.36h-1.08V504Zm285.69 0h-53.28V252h47.88l122.76 162h1.44V252h52.92v252h-47.52L3742.5 341.64h-1.08V504ZM2216.16 907.2h-27v-252h27v252Zm62.64 0V734.4h24.48v26.64h.36c3.6-7.68 9.84-14.64 18.72-20.88 9.12-6.24 19.92-9.36 32.4-9.36 13.2 0 24.72 3.6 34.56 10.8 9.84 7.2 16.8 15.12 20.88 23.76h.72c3.84-8.64 10.92-16.56 21.24-23.76 10.56-7.2 23.16-10.8 37.8-10.8 11.76 0 22.44 3.12 32.04 9.36 9.84 6 17.64 14.64 23.4 25.92 5.76 11.04 8.64 23.88 8.64 38.52v102.6h-24.48V804.6c0-15.36-4.08-27.48-12.24-36.36-8.16-9.12-18.48-13.68-30.96-13.68-13.68 0-25.08 5.16-34.2 15.48-8.88 10.08-13.32 23.64-13.32 40.68v96.48h-24.48V804.6c0-15.36-4.2-27.48-12.6-36.36-8.16-9.12-18.48-13.68-30.96-13.68-13.68 0-25.08 5.16-34.2 15.48-8.88 10.08-13.32 23.64-13.32 40.68v96.48h-24.48Zm306.43 0V734.4h24.48v26.64h.36c3.6-7.68 9.84-14.64 18.72-20.88 9.12-6.24 19.92-9.36 32.4-9.36 13.2 0 24.72 3.6 34.56 10.8 9.84 7.2 16.8 15.12 20.88 23.76h.72c3.84-8.64 10.92-16.56 21.24-23.76 10.56-7.2 23.16-10.8 37.8-10.8 11.76 0 22.44 3.12 32.04 9.36 9.84 6 17.64 14.64 23.4 25.92 5.76 11.04 8.64 23.88 8.64 38.52v102.6h-24.48V804.6c0-15.36-4.08-27.48-12.24-36.36-8.16-9.12-18.48-13.68-30.96-13.68-13.68 0-25.08 5.16-34.2 15.48-8.88 10.08-13.32 23.64-13.32 40.68v96.48h-24.48V804.6c0-15.36-4.2-27.48-12.6-36.36-8.16-9.12-18.48-13.68-30.96-13.68-13.68 0-25.08 5.16-34.2 15.48-8.88 10.08-13.32 23.64-13.32 40.68v96.48h-24.48Zm382.39 3.6c-15.84 0-30.48-3.96-43.92-11.88-13.44-8.16-24.12-19.08-32.04-32.76-7.92-13.68-11.88-28.8-11.88-45.36s3.96-31.68 11.88-45.36c7.92-13.68 18.6-24.48 32.04-32.4 13.44-8.16 28.08-12.24 43.92-12.24 15.84 0 30.48 4.08 43.92 12.24 13.44 7.92 24.12 18.72 32.04 32.4 7.92 13.68 11.88 28.8 11.88 45.36s-3.96 31.68-11.88 45.36c-7.92 13.68-18.6 24.6-32.04 32.76-13.44 7.92-28.08 11.88-43.92 11.88Zm0-23.76c11.52 0 22.08-2.88 31.68-8.64 9.84-5.76 17.52-13.68 23.04-23.76 5.76-10.32 8.64-21.6 8.64-33.84 0-12.24-2.88-23.4-8.64-33.48-5.52-10.32-13.2-18.36-23.04-24.12-9.6-5.76-20.16-8.64-31.68-8.64s-22.2 2.88-32.04 8.64c-9.6 5.76-17.28 13.8-23.04 24.12-5.52 10.08-8.28 21.24-8.28 33.48 0 12.24 2.76 23.52 8.28 33.84 5.76 10.08 13.44 18 23.04 23.76 9.84 5.76 20.52 8.64 32.04 8.64Zm218.51 23.76c-14.4 0-27.36-3.48-38.88-10.44-11.28-6.96-19.32-14.64-24.12-23.04h-.36v29.88h-24.48v-252h24.48v109.08h.36c4.8-8.4 12.84-16.08 24.12-23.04 11.52-6.96 24.48-10.44 38.88-10.44 14.4 0 27.72 3.96 39.96 11.88 12.48 7.68 22.44 18.36 29.88 32.04 7.44 13.68 11.16 29.04 11.16 46.08s-3.72 32.4-11.16 46.08c-7.44 13.68-17.4 24.48-29.88 32.4-12.24 7.68-25.56 11.52-39.96 11.52Zm-2.88-23.76c10.56 0 20.4-2.88 29.52-8.64 9.12-5.76 16.32-13.68 21.6-23.76 5.52-10.08 8.28-21.36 8.28-33.84 0-12.72-2.76-24.12-8.28-34.2-5.28-10.08-12.48-17.88-21.6-23.4-9.12-5.76-18.96-8.64-29.52-8.64-11.04 0-21.24 2.88-30.6 8.64-9.12 5.52-16.44 13.32-21.96 23.4-5.28 10.08-7.92 21.48-7.92 34.2 0 12.48 2.64 23.76 7.92 33.84 5.52 10.08 12.84 18 21.96 23.76 9.36 5.76 19.56 8.64 30.6 8.64Zm151.02 20.16h-24.48V734.4h24.48v172.8Zm-12.24-210.6c-4.32 0-8.16-1.56-11.52-4.68-3.12-3.12-4.68-6.96-4.68-11.52s1.56-8.4 4.68-11.52c3.36-3.12 7.2-4.68 11.52-4.68 4.56 0 8.4 1.56 11.52 4.68 3.36 3.12 5.04 6.96 5.04 11.52s-1.68 8.4-5.04 11.52c-3.12 3.12-6.96 4.68-11.52 4.68ZM3415 907.2h-24.48v-252H3415v252Zm80.73 0h-24.48V734.4h24.48v172.8Zm-12.24-210.6c-4.32 0-8.16-1.56-11.52-4.68-3.12-3.12-4.68-6.96-4.68-11.52s1.56-8.4 4.68-11.52c3.36-3.12 7.2-4.68 11.52-4.68 4.56 0 8.4 1.56 11.52 4.68 3.36 3.12 5.04 6.96 5.04 11.52s-1.68 8.4-5.04 11.52c-3.12 3.12-6.96 4.68-11.52 4.68Zm141.56 214.2c-15.6 0-30-3.96-43.2-11.88-13.2-8.16-23.76-19.08-31.68-32.76-7.92-13.68-11.88-28.8-11.88-45.36 0-16.8 3.84-32.04 11.52-45.72s18-24.48 30.96-32.4c12.96-7.92 27.12-11.88 42.48-11.88 15.12 0 28.8 3.72 41.04 11.16 12.48 7.44 22.32 17.88 29.52 31.32 7.2 13.44 10.8 28.56 10.8 45.36 0 3.84-.24 7.68-.72 11.52h-140.4c1.2 10.56 4.68 20.16 10.44 28.8s13.08 15.48 21.96 20.52c9.12 5.04 19.08 7.56 29.88 7.56 19.92 0 37.56-8.64 52.92-25.92l16.92 15.48c-7.68 9.6-17.4 17.76-29.16 24.48-11.76 6.48-25.56 9.72-41.4 9.72Zm54.72-101.88c-2.16-16.8-8.28-30.12-18.36-39.96-10.08-10.08-22.8-15.12-38.16-15.12-10.08 0-19.56 2.52-28.44 7.56-8.64 4.8-15.84 11.4-21.6 19.8-5.52 8.4-8.88 17.64-10.08 27.72h116.64Zm63.98 98.28V734.4h24.48v27.72h.36c4.56-8.16 11.88-15.36 21.96-21.6 10.32-6.48 21.84-9.72 34.56-9.72 13.2 0 25.08 3.12 35.64 9.36 10.56 6.24 18.84 15 24.84 26.28 6 11.28 9 24.24 9 38.88V907.2h-24.48V805.32c0-15.12-4.56-27.36-13.68-36.72-8.88-9.36-20.28-14.04-34.2-14.04-10.08 0-19.2 2.52-27.36 7.56-8.16 4.8-14.64 11.52-19.44 20.16-4.8 8.64-7.2 18.36-7.2 29.16v95.76h-24.48Z"/>
</svg>
