<svg xmlns="http://www.w3.org/2000/svg" width="2286" height="756" fill="none" viewBox="0 0 2286 756">
  <path fill="#fff" d="M1654.11 401.4c0 11.28 2.4 21.36 7.2 30.24 5.04 8.879 11.88 15.84 20.52 20.88 8.64 4.799 18.36 7.2 29.16 7.2 10.32 0 19.8-2.52 28.44-7.56 8.64-5.28 15.48-12.36 20.52-21.24 5.04-8.88 7.56-18.72 7.56-29.52V252h54v149.4c0 20.88-4.68 39.48-14.04 55.8s-22.44 29.16-39.24 38.52c-16.56 9.12-35.64 13.68-57.24 13.68s-40.8-4.56-57.6-13.68c-16.8-9.36-29.88-22.2-39.24-38.52-9.36-16.32-14.04-34.92-14.04-55.8V252h54v149.4Zm296.66-154.8c19.2 0 36.36 3.72 51.48 11.16 15.36 7.2 26.64 15.36 33.84 24.48l-33.84 33.12c-5.52-5.52-12.48-10.44-20.88-14.76-8.4-4.32-17.4-6.48-27-6.48-11.76 0-20.88 2.52-27.36 7.56-6.24 5.04-9.36 11.16-9.36 18.36 0 8.16 3.72 14.52 11.16 19.08 7.44 4.56 19.2 9.48 35.28 14.76 16.32 5.52 29.64 10.92 39.96 16.2 10.32 5.04 19.2 12.6 26.64 22.68 7.44 10.08 11.16 23.16 11.16 39.24 0 13.92-3.84 26.88-11.52 38.88-7.68 11.76-18.6 21.12-32.76 28.08-14.16 6.96-30.6 10.44-49.32 10.44-22.32 0-42-4.2-59.04-12.6-17.04-8.64-29.76-18.6-38.16-29.88l33.84-33.12c7.2 7.68 15.72 14.28 25.56 19.8 10.08 5.28 21.36 7.92 33.84 7.92 12.72 0 22.68-2.88 29.88-8.64 7.2-5.76 10.8-12.6 10.8-20.52 0-8.16-3.72-14.52-11.16-19.08-7.44-4.56-19.08-9.481-34.92-14.76-16.32-5.52-29.64-10.8-39.96-15.84-10.32-5.28-19.2-12.96-26.64-23.04-7.44-10.08-11.16-23.16-11.16-39.24 0-13.92 3.84-26.52 11.52-37.8 7.68-11.28 18.36-20.04 32.04-26.28 13.68-6.48 29.04-9.72 46.08-9.72ZM341.514 252c25.2 0 48 5.64 68.4 16.92 20.4 11.28 36.36 26.52 47.88 45.72 11.76 19.2 17.64 40.32 17.64 63.36 0 22.8-5.88 43.92-17.64 63.36-11.52 19.2-27.48 34.44-47.88 45.72-20.4 11.28-43.2 16.92-68.4 16.92h-89.28V252h89.28Zm283.132 0c16.8 0 31.801 3.6 45 10.8 13.44 7.2 23.881 17.16 31.321 29.88 7.44 12.48 11.16 26.52 11.16 42.12 0 16.08-4.08 30.6-12.24 43.56-7.92 12.96-18.84 22.92-32.76 29.88l54 95.76h-58.681l-46.439-86.4h-48.96V504h-54V252h111.599Zm320.987 203.4V504h-189v-48.6h189Zm92.417 48.6h-54.003V252h54.003v252Zm106.83-153h108v-99h54v252h-54V401.4h-108V504h-54V252h54v99Zm441.69 153h-57.24l-21.24-56.88h-99.72L1387.49 504h-56.52l97.92-252h60.12l97.56 252ZM306.234 455.4h35.28c14.88 0 28.32-3.36 40.32-10.08 12.24-6.72 21.72-15.96 28.44-27.72 6.96-12 10.44-25.2 10.44-39.6 0-14.64-3.48-27.84-10.44-39.6-6.72-11.76-16.08-21-28.08-27.72-12-6.72-25.56-10.08-40.68-10.08h-35.28v154.8Zm1117.976-54h68.04l-33.48-94.32h-1.08l-33.48 94.32Zm-510.978-49.68v46.8H756.633v-46.8h156.599ZM567.047 369h55.8c10.32 0 18.72-3.24 25.2-9.72 6.72-6.48 10.08-14.64 10.08-24.48s-3.36-18-10.08-24.48c-6.48-6.48-14.88-9.72-25.2-9.72h-55.8V369Zm374.985-68.4H756.633V252h185.399v48.6ZM2062.13 504.5c-3.36 0-6.45-.8-9.25-2.4-2.8-1.6-5.01-3.767-6.65-6.5-1.6-2.767-2.4-5.8-2.4-9.1s.8-6.317 2.4-9.05a17.958 17.958 0 0 1 6.65-6.55c2.8-1.6 5.89-2.4 9.25-2.4 3.4 0 6.5.8 9.3 2.4 2.8 1.6 5 3.783 6.6 6.55 1.64 2.733 2.45 5.75 2.45 9.05 0 3.3-.81 6.333-2.45 9.1-1.6 2.733-3.8 4.9-6.6 6.5-2.8 1.6-5.9 2.4-9.3 2.4Zm0-3.1c2.74 0 5.24-.65 7.5-1.95 2.3-1.333 4.12-3.133 5.45-5.4 1.34-2.3 2-4.817 2-7.55 0-2.733-.66-5.233-2-7.5-1.33-2.3-3.15-4.1-5.45-5.4-2.26-1.333-4.76-2-7.5-2-2.73 0-5.23.667-7.5 2-2.26 1.3-4.06 3.1-5.4 5.4-1.33 2.267-2 4.767-2 7.5 0 2.733.67 5.25 2 7.55a15.074 15.074 0 0 0 5.4 5.4c2.27 1.3 4.77 1.95 7.5 1.95Zm-6.3-5.65v-18.5h7.15c1.84 0 3.35.567 4.55 1.7 1.24 1.133 1.85 2.517 1.85 4.15 0 1.267-.36 2.333-1.1 3.2-.7.867-1.5 1.467-2.4 1.8l4.25 7.65h-3.5l-3.65-6.85h-3.9v6.85h-3.25Zm7.15-9.9c1.04 0 1.82-.25 2.35-.75.54-.5.8-1.167.8-2 0-.867-.26-1.533-.8-2-.53-.5-1.31-.75-2.35-.75h-3.9v5.5h3.9Z"/>
</svg>
