<svg xmlns="http://www.w3.org/2000/svg" width="4494" height="1122" fill="none" viewBox="0 0 4494 1122">
  <path fill="#fff" d="M3946.77 509.398h-66.6v-252h59.4l108.36 140.4h1.44v-140.4h66.6v252h-59.4l-108.36-140.4h-1.44v140.4Zm-297.55 0h-66.6v-252h59.4l108.36 140.4h1.44v-140.4h66.6v252h-59.4l-108.36-140.4h-1.44v140.4Zm-297.6 0h-72l94.68-252h77.04l94.68 252h-72.72l-16.92-48.6h-87.84l-16.92 48.6Zm60.12-187.2-25.92 82.8h53.28l-25.92-82.8h-1.44Zm-419.97 187.2h-67.32v-252h86.4l73.8 162h.72l73.44-162h84.24v252h-67.32v-151.92h-1.44l-70.92 151.92h-39.24l-70.92-151.92h-1.44v151.92Zm-235.2 0h-68.4v-252h190.8v64.8h-122.4v43.2h93.6v61.2h-93.6v82.8Zm-236.27 0h-68.4v-252h190.8v64.8h-122.4v43.2h93.6v61.2h-93.6v82.8Zm-256.13 7.201c-26.4 0-50.4-5.88-72-17.64-21.36-12-38.16-28.08-50.4-48.24-12-20.4-18-42.84-18-67.32 0-24.48 6-46.8 18-66.96 12.24-20.4 29.04-36.48 50.4-48.24 21.6-12 45.6-18 72-18s50.28 6 71.64 18c21.6 11.76 38.4 27.84 50.4 48.24 12.24 20.16 18.36 42.48 18.36 66.96 0 24.48-6.12 46.92-18.36 67.32-12 20.16-28.8 36.24-50.4 48.24-21.36 11.76-45.24 17.64-71.64 17.64Zm0-63c12.96 0 24.72-3.12 35.28-9.36 10.8-6.24 19.32-14.64 25.56-25.2 6.24-10.8 9.36-22.68 9.36-35.64s-3.12-24.72-9.36-35.28c-6.24-10.8-14.76-19.32-25.56-25.56-10.56-6.24-22.32-9.36-35.28-9.36s-24.84 3.12-35.64 9.36c-10.56 6.24-18.96 14.76-25.2 25.56-6.24 10.56-9.36 22.32-9.36 35.28s3.12 24.84 9.36 35.64c6.24 10.56 14.64 18.96 25.2 25.2 10.8 6.24 22.68 9.36 35.64 9.36Zm-347.77 55.799H1848v-252h68.4v91.8h91.8v-91.8h68.4v252h-68.4v-95.4h-91.8v95.4Zm-265.16 0h-196.2v-252h192.6v61.2h-124.2v35.28h95.4v57.6h-95.4v36.72h127.8v61.2Zm-308.44 0h-68.4v-187.2h-70.2v-64.8H1413v64.8h-70.2v187.2Zm-163.23 0h-72l-41.4-79.2h-37.8v79.2h-68.401v-252h118.801c17.76 0 33.6 3.84 47.52 11.52 13.92 7.44 24.72 17.76 32.4 30.96 7.92 13.2 11.88 27.84 11.88 43.92 0 15.6-3.72 29.88-11.16 42.84-7.44 12.96-17.76 23.28-30.96 30.96l51.12 91.8Zm-151.2-190.8v50.4h46.8c7.92 0 14.4-2.4 19.44-7.2 5.04-4.8 7.56-10.8 7.56-18 0-7.2-2.52-13.2-7.56-18-5.04-4.8-11.52-7.2-19.44-7.2h-46.8ZM772.244 516.599c-26.4 0-50.4-5.88-72-17.64-21.36-12-38.16-28.08-50.4-48.24-12-20.4-18-42.84-18-67.32 0-24.48 6-46.8 18-66.96 12.24-20.4 29.04-36.48 50.4-48.24 21.6-12 45.6-18 72-18s50.28 6 71.64 18c21.6 11.76 38.4 27.84 50.4 48.24 12.24 20.16 18.36 42.48 18.36 66.96 0 24.48-6.12 46.92-18.36 67.32-12 20.16-28.8 36.24-50.4 48.24-21.36 11.76-45.24 17.64-71.64 17.64Zm0-63c12.96 0 24.72-3.12 35.28-9.36 10.8-6.24 19.32-14.64 25.56-25.2 6.24-10.8 9.36-22.68 9.36-35.64s-3.12-24.72-9.36-35.28c-6.24-10.8-14.76-19.32-25.56-25.56-10.56-6.24-22.32-9.36-35.28-9.36s-24.84 3.12-35.64 9.36c-10.56 6.24-18.96 14.76-25.2 25.56-6.24 10.56-9.36 22.32-9.36 35.28s3.12 24.84 9.36 35.64c6.24 10.56 14.64 18.96 25.2 25.2 10.8 6.24 22.68 9.36 35.64 9.36ZM446.4 349.195h36.407l64.224-91.797h75.548l-84.12 118.441 90.744 133.559h-81.841l-63.928-95.403H446.4v95.403H378v-252h68.4v91.797Zm3608.66 523.302c-12.6 0-24.21-2.97-34.83-8.91-10.44-6.12-18.72-14.31-24.84-24.57-5.94-10.44-8.91-21.87-8.91-34.29 0-12.42 2.97-23.76 8.91-34.02 6.12-10.44 14.31-18.63 24.57-24.57 10.26-6.12 21.42-9.18 33.48-9.18 12.24 0 23.22 2.79 32.94 8.37 9.9 5.58 17.64 13.32 23.22 23.22 5.58 9.72 8.37 20.61 8.37 32.67 0 4.68-.45 9.27-1.35 13.77h-98.28c1.26 8.1 5.49 15.12 12.69 21.06 7.2 5.76 15.84 8.64 25.92 8.64 13.32 0 25.11-4.95 35.37-14.85l18.09 19.71c-5.04 6.12-12.42 11.52-22.14 16.2-9.72 4.5-20.79 6.75-33.21 6.75Zm31.32-80.46c-1.8-8.64-5.58-15.48-11.34-20.52-5.58-5.22-12.78-7.83-21.6-7.83-9.18 0-16.83 2.52-22.95 7.56-5.94 5.04-10.08 11.97-12.42 20.79h68.31Zm-214.57 77.76v-130.14h30.51v16.74h.54c3.42-5.04 8.55-9.54 15.39-13.5 6.84-3.96 14.4-5.94 22.68-5.94h6.48v32.4c-4.86-1.08-8.55-1.62-11.07-1.62-9.54 0-17.64 3.51-24.3 10.53-6.48 7.02-9.72 16.11-9.72 27.27v64.26h-30.51Zm-133.74 2.703c-9.72 0-18.45-2.25-26.19-6.75-7.56-4.68-13.5-11.25-17.82-19.71s-6.48-18.45-6.48-29.97v-76.41h30.51v74.52c0 9 2.52 16.2 7.56 21.6 5.22 5.22 11.97 7.83 20.25 7.83 9.36 0 17.1-3.15 23.22-9.45 6.12-6.48 9.18-14.76 9.18-24.84v-69.66h30.78V869.8h-30.78v-18.36h-.27c-3.42 5.4-8.73 10.26-15.93 14.58-7.02 4.32-15.03 6.48-24.03 6.48Zm-165.22-.003c-12.6 0-24.21-2.97-34.83-8.91-10.44-6.12-18.72-14.31-24.84-24.57-5.94-10.44-8.91-21.87-8.91-34.29 0-12.42 2.97-23.76 8.91-34.02 6.12-10.44 14.31-18.63 24.57-24.57 10.26-6.12 21.42-9.18 33.48-9.18 12.24 0 23.22 2.79 32.94 8.37 9.9 5.58 17.64 13.32 23.22 23.22 5.58 9.72 8.37 20.61 8.37 32.67 0 4.68-.45 9.27-1.35 13.77h-98.28c1.26 8.1 5.49 15.12 12.69 21.06 7.2 5.76 15.84 8.64 25.92 8.64 13.32 0 25.11-4.95 35.37-14.85l18.09 19.71c-5.04 6.12-12.42 11.52-22.14 16.2-9.72 4.5-20.79 6.75-33.21 6.75Zm31.32-80.46c-1.8-8.64-5.58-15.48-11.34-20.52-5.58-5.22-12.78-7.83-21.6-7.83-9.18 0-16.83 2.52-22.95 7.56-5.94 5.04-10.08 11.97-12.42 20.79h68.31Zm-155.81 77.766h-30.51v-130.14h30.51v130.14Zm-15.12-152.55c-4.86 0-9.09-1.71-12.69-5.13-3.6-3.42-5.4-7.65-5.4-12.69 0-5.04 1.8-9.27 5.4-12.69 3.6-3.42 7.83-5.13 12.69-5.13 4.68 0 8.82 1.71 12.42 5.13 3.6 3.42 5.4 7.65 5.4 12.69 0 5.04-1.8 9.27-5.4 12.69-3.6 3.42-7.74 5.13-12.42 5.13Zm-199.62 152.544v-130.14h30.51v18.36h.54c3.42-5.4 8.64-10.26 15.66-14.58 7.2-4.32 15.21-6.48 24.03-6.48 9.72 0 18.45 2.34 26.19 7.02 7.74 4.5 13.77 10.98 18.09 19.44s6.48 18.45 6.48 29.97v76.41h-30.78v-74.52c0-9-2.61-16.11-7.83-21.33-5.04-5.4-11.61-8.1-19.71-8.1-9.36 0-17.19 3.24-23.49 9.72-6.12 6.3-9.18 14.49-9.18 24.57v69.66h-30.51Zm-116.08 2.7c-12.6 0-24.21-2.97-34.83-8.91-10.44-6.12-18.72-14.31-24.84-24.57-5.94-10.44-8.91-21.87-8.91-34.29 0-12.42 2.97-23.76 8.91-34.02 6.12-10.44 14.31-18.63 24.57-24.57 10.26-6.12 21.42-9.18 33.48-9.18 12.24 0 23.22 2.79 32.94 8.37 9.9 5.58 17.64 13.32 23.22 23.22 5.58 9.72 8.37 20.61 8.37 32.67 0 4.68-.45 9.27-1.35 13.77h-98.28c1.26 8.1 5.49 15.12 12.69 21.06 7.2 5.76 15.84 8.64 25.92 8.64 13.32 0 25.11-4.95 35.37-14.85l18.09 19.71c-5.04 6.12-12.42 11.52-22.14 16.2-9.72 4.5-20.79 6.75-33.21 6.75Zm31.32-80.46c-1.8-8.64-5.58-15.48-11.34-20.52-5.58-5.22-12.78-7.83-21.6-7.83-9.18 0-16.83 2.52-22.95 7.56-5.94 5.04-10.08 11.97-12.42 20.79h68.31Zm-222.54 134.46c-12.6 0-24.21-2.79-34.83-8.37-10.62-5.58-18.27-11.79-22.95-18.63l20.52-19.44c3.42 4.5 8.46 8.64 15.12 12.42 6.84 3.78 14.04 5.67 21.6 5.67 11.52 0 20.7-3.6 27.54-10.8 6.84-7.2 10.26-16.92 10.26-29.16v-11.61h-.27c-3.42 5.04-8.82 9.63-16.2 13.77-7.38 4.14-15.75 6.21-25.11 6.21-10.26 0-19.8-2.79-28.62-8.37-8.82-5.58-15.84-13.23-21.06-22.95-5.22-9.9-7.83-21.06-7.83-33.48 0-12.42 2.61-23.49 7.83-33.21 5.22-9.9 12.24-17.64 21.06-23.22 8.82-5.58 18.36-8.37 28.62-8.37 9.36 0 17.73 2.07 25.11 6.21 7.38 4.14 12.78 8.73 16.2 13.77h.27v-17.28h30.51v118.53c0 12.96-2.88 24.57-8.64 34.83-5.76 10.44-13.77 18.63-24.03 24.57-10.26 5.94-21.96 8.91-35.1 8.91Zm3.24-88.29c9.54 0 17.55-3.42 24.03-10.26 6.66-6.84 9.99-15.57 9.99-26.19 0-10.44-3.33-19.08-9.99-25.92-6.48-7.02-14.49-10.53-24.03-10.53-9.72 0-17.91 3.51-24.57 10.53-6.48 6.84-9.72 15.48-9.72 25.92 0 10.62 3.24 19.35 9.72 26.19 6.66 6.84 14.85 10.26 24.57 10.26Zm-239.85 31.59v-130.14h30.51v18.36h.54c3.42-5.4 8.64-10.26 15.66-14.58 7.2-4.32 15.21-6.48 24.03-6.48 9.72 0 18.45 2.34 26.19 7.02 7.74 4.5 13.77 10.98 18.09 19.44s6.48 18.45 6.48 29.97v76.41h-30.78v-74.52c0-9-2.61-16.11-7.83-21.33-5.04-5.4-11.61-8.1-19.71-8.1-9.36 0-17.19 3.24-23.49 9.72-6.12 6.3-9.18 14.49-9.18 24.57v69.66h-30.51Zm-70.65.004h-33.75v-189h33.75v189Zm-221.87-18.362H2371v-47.25h-47.52v-27.81H2371v-47.25h26.19v47.25h47.25v27.81h-47.25v47.25Zm-327.2 18.358v-130.14h30.51v18.36h.54c3.42-5.4 8.64-10.26 15.66-14.58 7.2-4.32 15.21-6.48 24.03-6.48 9.72 0 18.45 2.34 26.19 7.02 7.74 4.5 13.77 10.98 18.09 19.44s6.48 18.45 6.48 29.97v76.41h-30.78v-74.52c0-9-2.61-16.11-7.83-21.33-5.04-5.4-11.61-8.1-19.71-8.1-9.36 0-17.19 3.24-23.49 9.72-6.12 6.3-9.18 14.49-9.18 24.57v69.66h-30.51Zm-116.07 2.7c-12.6 0-24.21-2.97-34.83-8.91-10.44-6.12-18.72-14.31-24.84-24.57-5.94-10.44-8.91-21.87-8.91-34.29 0-12.42 2.97-23.76 8.91-34.02 6.12-10.44 14.31-18.63 24.57-24.57 10.26-6.12 21.42-9.18 33.48-9.18 12.24 0 23.22 2.79 32.94 8.37 9.9 5.58 17.64 13.32 23.22 23.22 5.58 9.72 8.37 20.61 8.37 32.67 0 4.68-.45 9.27-1.35 13.77h-98.28c1.26 8.1 5.49 15.12 12.69 21.06 7.2 5.76 15.84 8.64 25.92 8.64 13.32 0 25.11-4.95 35.37-14.85l18.09 19.71c-5.04 6.12-12.42 11.52-22.14 16.2-9.72 4.5-20.79 6.75-33.21 6.75Zm31.32-80.46c-1.8-8.64-5.58-15.48-11.34-20.52-5.58-5.22-12.78-7.83-21.6-7.83-9.18 0-16.83 2.52-22.95 7.56-5.94 5.04-10.08 11.97-12.42 20.79h68.31Zm-165.86 79.117c-13.14 0-23.4-3.87-30.78-11.61-7.38-7.74-11.07-18.81-11.07-33.21v-58.05h-23.22v-28.62h13.5c8.64 0 12.96-5.04 12.96-15.12v-27.54h27.27v42.66h30.24v28.62h-30.24v54.54c0 12.96 6.12 19.44 18.36 19.44 4.14 0 9-1.26 14.58-3.78v28.62c-2.34 1.08-5.49 1.98-9.45 2.7-3.96.9-8.01 1.35-12.15 1.35Zm-153.9-70.203 59.13 68.85h-38.07l-52.92-63.18v63.18h-30.51v-189h30.51v118.26l51.03-59.4h35.91l-55.08 61.29Zm-179.8 71.546c-12.6 0-24.21-2.97-34.83-8.91-10.44-6.12-18.72-14.31-24.84-24.57-5.94-10.44-8.91-21.87-8.91-34.29 0-12.42 2.97-23.76 8.91-34.02 6.12-10.44 14.31-18.63 24.57-24.57 10.26-6.12 21.42-9.18 33.48-9.18 12.24 0 23.22 2.79 32.94 8.37 9.9 5.58 17.64 13.32 23.22 23.22 5.58 9.72 8.37 20.61 8.37 32.67 0 4.68-.45 9.27-1.35 13.77h-98.28c1.26 8.1 5.49 15.12 12.69 21.06 7.2 5.76 15.84 8.64 25.92 8.64 13.32 0 25.11-4.95 35.37-14.85l18.09 19.71c-5.04 6.12-12.42 11.52-22.14 16.2-9.72 4.5-20.79 6.75-33.21 6.75Zm31.32-80.46c-1.8-8.64-5.58-15.48-11.34-20.52-5.58-5.22-12.78-7.83-21.6-7.83-9.18 0-16.83 2.52-22.95 7.56-5.94 5.04-10.08 11.97-12.42 20.79H1517Zm-165.85 79.117c-13.14 0-23.4-3.87-30.78-11.61-7.38-7.74-11.07-18.81-11.07-33.21v-58.05h-23.22v-28.62h13.5c8.64 0 12.96-5.04 12.96-15.12v-27.54h27.27v42.66h30.24v28.62h-30.24v54.54c0 12.96 6.12 19.44 18.36 19.44 4.14 0 9-1.26 14.58-3.78v28.62c-2.34 1.08-5.49 1.98-9.45 2.7-3.96.9-8.01 1.35-12.15 1.35Zm-117.48-1.351h-30.51v-130.14h30.51v130.14Zm-15.12-152.55c-4.86 0-9.09-1.71-12.69-5.13-3.6-3.42-5.4-7.65-5.4-12.69 0-5.04 1.8-9.27 5.4-12.69 3.6-3.42 7.83-5.13 12.69-5.13 4.68 0 8.82 1.71 12.42 5.13 3.6 3.42 5.4 7.65 5.4 12.69 0 5.04-1.8 9.27-5.4 12.69-3.6 3.42-7.74 5.13-12.42 5.13Zm-199.59 152.548v-189h30.51v77.22h.54c3.42-5.4 8.64-10.26 15.66-14.58 7.2-4.32 15.21-6.48 24.03-6.48 9.72 0 18.45 2.34 26.19 7.02 7.74 4.5 13.77 10.98 18.09 19.44s6.48 18.45 6.48 29.97v76.41h-30.78v-74.52c0-9-2.61-16.11-7.83-21.33-5.04-5.4-11.61-8.1-19.71-8.1-9.36 0-17.19 3.24-23.49 9.72-6.12 6.3-9.18 14.49-9.18 24.57v69.66h-30.51Zm-108.466 2.696c-12.6 0-24.21-2.97-34.83-8.91-10.44-6.12-18.72-14.31-24.84-24.57-5.94-10.44-8.91-21.87-8.91-34.29 0-12.42 2.97-23.76 8.91-34.02 6.12-10.44 14.4-18.63 24.84-24.57 10.62-6.12 22.23-9.18 34.83-9.18 12.42 0 23.4 2.61 32.94 7.83 9.54 5.22 17.01 11.34 22.41 18.36l-21.06 18.36c-9.9-10.62-21.15-15.93-33.75-15.93-10.98 0-20.16 3.78-27.54 11.34-7.2 7.38-10.8 16.65-10.8 27.81s3.6 20.52 10.8 28.08c7.38 7.38 16.56 11.07 27.54 11.07 7.2 0 13.77-1.53 19.71-4.59 5.94-3.24 11.07-7.29 15.39-12.15l21.06 18.63c-5.94 7.2-13.77 13.5-23.49 18.9-9.72 5.22-20.79 7.83-33.21 7.83Zm-183.244-2.7v-130.14h30.51v16.74h.54c3.42-5.04 8.55-9.54 15.39-13.5 6.84-3.96 14.4-5.94 22.68-5.94h6.48v32.4c-4.86-1.08-8.55-1.62-11.07-1.62-9.54 0-17.64 3.51-24.3 10.53-6.48 7.02-9.72 16.11-9.72 27.27v64.26h-30.51Zm-199.818.004h-34.83l74.79-189h37.26l74.52 189h-35.91l-17.55-46.44h-80.46l-17.82 46.44Zm57.78-152.01-28.62 75.87h57.78l-28.62-75.87h-.54Z"/>
</svg>
