<svg xmlns="http://www.w3.org/2000/svg" width="4233" height="655" fill="none" viewBox="0 0 4233 655">
  <path fill="#000" d="M62 105h41.453l71.713-99h61.51L149.16 125.88 242.796 258h-66.405l-71.805-102.6H62V258H8V6h54v99Zm348.033 158.4c-25.68 0-48.96-5.88-69.84-17.64-20.88-11.76-37.32-27.6-49.32-47.52-11.76-20.16-17.64-42.24-17.64-66.24 0-24 5.88-46.08 17.64-66.24 12-20.16 28.44-36 49.32-47.52C361.073 6.48 384.353.6 410.033.6c25.68 0 48.84 5.88 69.48 17.64 20.88 11.52 37.32 27.36 49.32 47.52 12 20.16 18 42.24 18 66.24 0 24-6 46.08-18 66.24-12 19.92-28.44 35.76-49.32 47.52-20.88 11.76-44.04 17.64-69.48 17.64Zm0-49.68c15.12 0 28.92-3.6 41.4-10.8 12.48-7.2 22.32-17.04 29.52-29.52 7.2-12.48 10.8-26.28 10.8-41.4 0-15.12-3.6-28.92-10.8-41.4-7.2-12.48-17.04-22.32-29.52-29.52-12.48-7.44-26.28-11.16-41.4-11.16-15.12 0-29.04 3.6-41.76 10.8-12.48 7.2-22.32 17.16-29.52 29.88-7.2 12.48-10.8 26.28-10.8 41.4 0 15.12 3.6 28.92 10.8 41.4 7.44 12.48 17.4 22.32 29.88 29.52 12.48 7.2 26.28 10.8 41.4 10.8ZM836.402 258h-58.68l-46.44-86.4h-48.96V258h-54V6h111.6c16.8 0 31.8 3.6 45 10.8 13.44 7.2 23.88 17.16 31.32 29.88 7.44 12.48 11.16 26.52 11.16 42.12 0 16.08-4.08 30.6-12.24 43.56-7.92 12.96-18.84 22.92-32.76 29.88l54 95.76ZM682.322 54.6V123h55.8c10.32 0 18.72-3.24 25.2-9.72 6.72-6.48 10.08-14.64 10.08-24.48s-3.36-18-10.08-24.48c-6.48-6.48-14.88-9.72-25.2-9.72h-55.8ZM1010.76 258h-54.003V56.4h-73.08V6h199.803v50.4h-72.72V258Zm333.22 0h-189V6h185.4v48.6h-131.4v51.12h102.6v46.8h-102.6v56.88h135V258Zm303.41 0h-54V6h54v99h108V6h54v252h-54V155.4h-108V258Zm380.58 5.4c-25.68 0-48.96-5.88-69.84-17.64-20.88-11.76-37.32-27.6-49.32-47.52-11.76-20.16-17.64-42.24-17.64-66.24 0-24 5.88-46.08 17.64-66.24 12-20.16 28.44-36 49.32-47.52C1979.01 6.48 2002.29.6 2027.97.6c25.68 0 48.84 5.88 69.48 17.64 20.88 11.52 37.32 27.36 49.32 47.52 12 20.16 18 42.24 18 66.24 0 24-6 46.08-18 66.24-12 19.92-28.44 35.76-49.32 47.52-20.88 11.76-44.04 17.64-69.48 17.64Zm0-49.68c15.12 0 28.92-3.6 41.4-10.8 12.48-7.2 22.32-17.04 29.52-29.52 7.2-12.48 10.8-26.28 10.8-41.4 0-15.12-3.6-28.92-10.8-41.4-7.2-12.48-17.04-22.32-29.52-29.52-12.48-7.44-26.28-11.16-41.4-11.16-15.12 0-29.04 3.6-41.76 10.8-12.48 7.2-22.32 17.16-29.52 29.88-7.2 12.48-10.8 26.28-10.8 41.4 0 15.12 3.6 28.92 10.8 41.4 7.44 12.48 17.4 22.32 29.88 29.52 12.48 7.2 26.28 10.8 41.4 10.8ZM2300.26 258h-54V6h183.6v51.12h-129.6v57.6h100.8v49.68h-100.8V258Zm258.76 0h-54V6h183.6v51.12h-129.6v57.6h100.8v49.68h-100.8V258Zm258.4 0h-53.64V6h69.84l83.16 182.16h1.08L3000.66 6h67.32v252h-53.28V86.64h-1.44L2933.34 258h-34.92l-79.56-171.36h-1.44V258Zm375.22 0h-56.52l97.92-252h60.12l97.56 252h-57.24l-21.24-56.88h-99.72L3192.64 258Zm70.2-196.92-33.48 94.32h68.04l-33.48-94.32h-1.08ZM3513.16 258h-53.28V6h47.88l122.76 162h1.44V6h52.92v252h-47.52L3514.24 95.64h-1.08V258Zm321.69 0h-53.28V6h47.88l122.76 162h1.44V6h52.92v252h-47.52L3835.93 95.64h-1.08V258ZM38.34 598.203H3.51l74.79-189h37.26l74.52 189h-35.91l-17.55-46.44H56.16l-17.82 46.44Zm57.78-152.01-28.62 75.87h57.78l-28.62-75.87h-.54Zm166.039 152.01v-130.14h30.51v16.74h.54c3.42-5.04 8.55-9.54 15.39-13.5 6.84-3.96 14.4-5.94 22.68-5.94h6.48v32.4c-4.86-1.08-8.55-1.62-11.07-1.62-9.54 0-17.64 3.51-24.3 10.53-6.48 7.02-9.72 16.11-9.72 27.27v64.26h-30.51Zm207.247 2.7c-12.6 0-24.21-2.97-34.83-8.91-10.44-6.12-18.72-14.31-24.84-24.57-5.94-10.44-8.91-21.87-8.91-34.29 0-12.42 2.97-23.76 8.91-34.02 6.12-10.44 14.4-18.63 24.84-24.57 10.62-6.12 22.23-9.18 34.83-9.18 12.42 0 23.4 2.61 32.94 7.83 9.54 5.22 17.01 11.34 22.41 18.36l-21.06 18.36c-9.9-10.62-21.15-15.93-33.75-15.93-10.98 0-20.16 3.78-27.54 11.34-7.2 7.38-10.8 16.65-10.8 27.81s3.6 20.52 10.8 28.08c7.38 7.38 16.56 11.07 27.54 11.07 7.2 0 13.77-1.53 19.71-4.59 5.94-3.24 11.07-7.29 15.39-12.15l21.06 18.63c-5.94 7.2-13.77 13.5-23.49 18.9-9.72 5.22-20.79 7.83-33.21 7.83Zm132.462-2.7v-189h30.51v77.22h.54c3.42-5.4 8.64-10.26 15.66-14.58 7.2-4.32 15.21-6.48 24.03-6.48 9.72 0 18.45 2.34 26.19 7.02 7.74 4.5 13.77 10.98 18.09 19.44s6.48 18.45 6.48 29.97v76.41h-30.78v-74.52c0-9-2.61-16.11-7.83-21.33-5.04-5.4-11.61-8.1-19.71-8.1-9.36 0-17.19 3.24-23.49 9.72-6.12 6.3-9.18 14.49-9.18 24.57v69.66h-30.51Zm238.713 0h-30.51v-130.14h30.51v130.14Zm-15.12-152.55c-4.86 0-9.09-1.71-12.69-5.13-3.6-3.42-5.4-7.65-5.4-12.69 0-5.04 1.8-9.27 5.4-12.69 3.6-3.42 7.83-5.13 12.69-5.13 4.68 0 8.82 1.71 12.42 5.13 3.6 3.42 5.4 7.65 5.4 12.69 0 5.04-1.8 9.27-5.4 12.69-3.6 3.42-7.74 5.13-12.42 5.13Zm156.593 153.9c-13.14 0-23.4-3.87-30.78-11.61-7.38-7.74-11.07-18.81-11.07-33.21v-58.05h-23.22v-28.62h13.5c8.64 0 12.96-5.04 12.96-15.12v-27.54h27.27v42.66h30.236v28.62h-30.236v54.54c0 12.96 6.12 19.44 18.36 19.44 4.14 0 9-1.26 14.576-3.78v28.62c-2.34 1.08-5.486 1.98-9.446 2.7-3.96.9-8.01 1.35-12.15 1.35Zm158.536 1.35c-12.6 0-24.21-2.97-34.83-8.91-10.44-6.12-18.72-14.31-24.84-24.57-5.94-10.44-8.91-21.87-8.91-34.29 0-12.42 2.97-23.76 8.91-34.02 6.12-10.44 14.31-18.63 24.57-24.57 10.26-6.12 21.42-9.18 33.48-9.18 12.24 0 23.22 2.79 32.94 8.37 9.9 5.58 17.64 13.32 23.22 23.22 5.58 9.72 8.37 20.61 8.37 32.67 0 4.68-.45 9.27-1.35 13.77h-98.28c1.26 8.1 5.49 15.12 12.69 21.06 7.2 5.76 15.84 8.64 25.92 8.64 13.32 0 25.11-4.95 35.37-14.85l18.09 19.71c-5.04 6.12-12.42 11.52-22.14 16.2-9.72 4.5-20.79 6.75-33.21 6.75Zm31.32-80.46c-1.8-8.64-5.58-15.48-11.34-20.52-5.58-5.22-12.78-7.83-21.6-7.83-9.18 0-16.83 2.52-22.95 7.56-5.94 5.04-10.08 11.97-12.42 20.79h68.31Zm140.61 77.76h-30.51v-189h30.51v115.56l52.38-56.7h37.53l-49.95 53.19 53.46 76.95h-34.83l-38.61-56.16-19.98 21.33v34.83Zm212.14 1.35c-13.14 0-23.4-3.87-30.78-11.61-7.38-7.74-11.07-18.81-11.07-33.21v-58.05h-23.22v-28.62h13.5c8.64 0 12.96-5.04 12.96-15.12v-27.54h27.27v42.66h30.24v28.62h-30.24v54.54c0 12.96 6.12 19.44 18.36 19.44 4.14 0 9-1.26 14.58-3.78v28.62c-2.34 1.08-5.49 1.98-9.45 2.7-3.96.9-8.01 1.35-12.15 1.35Zm158.54 1.35c-12.6 0-24.21-2.97-34.83-8.91-10.44-6.12-18.72-14.31-24.84-24.57-5.94-10.44-8.91-21.87-8.91-34.29 0-12.42 2.97-23.76 8.91-34.02 6.12-10.44 14.31-18.63 24.57-24.57 10.26-6.12 21.42-9.18 33.48-9.18 12.24 0 23.22 2.79 32.94 8.37 9.9 5.58 17.64 13.32 23.22 23.22 5.58 9.72 8.37 20.61 8.37 32.67 0 4.68-.45 9.27-1.35 13.77h-98.28c1.26 8.1 5.49 15.12 12.69 21.06 7.2 5.76 15.84 8.64 25.92 8.64 13.32 0 25.11-4.95 35.37-14.85l18.09 19.71c-5.04 6.12-12.42 11.52-22.14 16.2-9.72 4.5-20.79 6.75-33.21 6.75Zm31.32-80.46c-1.8-8.64-5.58-15.48-11.34-20.52-5.58-5.22-12.78-7.83-21.6-7.83-9.18 0-16.83 2.52-22.95 7.56-5.94 5.04-10.08 11.97-12.42 20.79h68.31Zm108.75 77.76v-130.14h30.51v18.36h.54c3.42-5.4 8.64-10.26 15.66-14.58 7.2-4.32 15.21-6.48 24.03-6.48 9.72 0 18.45 2.34 26.19 7.02 7.74 4.5 13.77 10.98 18.09 19.44s6.48 18.45 6.48 29.97v76.41h-30.78v-74.52c0-9-2.61-16.11-7.83-21.33-5.04-5.4-11.61-8.1-19.71-8.1-9.36 0-17.19 3.24-23.49 9.72-6.12 6.3-9.18 14.49-9.18 24.57v69.66h-30.51Zm395.2-18.36h-26.19v-47.25h-47.52v-27.81h47.52v-47.25h26.19v47.25h47.25v27.81h-47.25v47.25Zm289.87 18.36h-33.75v-189h33.75v189Zm94.65 0v-130.14h30.51v18.36h.54c3.42-5.4 8.64-10.26 15.66-14.58 7.2-4.32 15.21-6.48 24.03-6.48 9.72 0 18.45 2.34 26.19 7.02 7.74 4.5 13.77 10.98 18.09 19.44s6.48 18.45 6.48 29.97v76.41h-30.78v-74.52c0-9-2.61-16.11-7.83-21.33-5.04-5.4-11.61-8.1-19.71-8.1-9.36 0-17.19 3.24-23.49 9.72-6.12 6.3-9.18 14.49-9.18 24.57v69.66h-30.51Zm260.61 56.7c-12.6 0-24.21-2.79-34.83-8.37-10.62-5.58-18.27-11.79-22.95-18.63l20.52-19.44c3.42 4.5 8.46 8.64 15.12 12.42 6.84 3.78 14.04 5.67 21.6 5.67 11.52 0 20.7-3.6 27.54-10.8 6.84-7.2 10.26-16.92 10.26-29.16v-11.61h-.27c-3.42 5.04-8.82 9.63-16.2 13.77-7.38 4.14-15.75 6.21-25.11 6.21-10.26 0-19.8-2.79-28.62-8.37-8.82-5.58-15.84-13.23-21.06-22.95-5.22-9.9-7.83-21.06-7.83-33.48 0-12.42 2.61-23.49 7.83-33.21 5.22-9.9 12.24-17.64 21.06-23.22 8.82-5.58 18.36-8.37 28.62-8.37 9.36 0 17.73 2.07 25.11 6.21 7.38 4.14 12.78 8.73 16.2 13.77h.27v-17.28h30.51v118.53c0 12.96-2.88 24.57-8.64 34.83-5.76 10.44-13.77 18.63-24.03 24.57-10.26 5.94-21.96 8.91-35.1 8.91Zm3.24-88.29c9.54 0 17.55-3.42 24.03-10.26 6.66-6.84 9.99-15.57 9.99-26.19 0-10.44-3.33-19.08-9.99-25.92-6.48-7.02-14.49-10.53-24.03-10.53-9.72 0-17.91 3.51-24.57 10.53-6.48 6.84-9.72 15.48-9.72 25.92 0 10.62 3.24 19.35 9.72 26.19 6.66 6.84 14.85 10.26 24.57 10.26Zm211.98 34.29c-12.6 0-24.21-2.97-34.83-8.91-10.44-6.12-18.72-14.31-24.84-24.57-5.94-10.44-8.91-21.87-8.91-34.29 0-12.42 2.97-23.76 8.91-34.02 6.12-10.44 14.31-18.63 24.57-24.57 10.26-6.12 21.42-9.18 33.48-9.18 12.24 0 23.22 2.79 32.94 8.37 9.9 5.58 17.64 13.32 23.22 23.22 5.58 9.72 8.37 20.61 8.37 32.67 0 4.68-.45 9.27-1.35 13.77h-98.28c1.26 8.1 5.49 15.12 12.69 21.06 7.2 5.76 15.84 8.64 25.92 8.64 13.32 0 25.11-4.95 35.37-14.85l18.09 19.71c-5.04 6.12-12.42 11.52-22.14 16.2-9.72 4.5-20.79 6.75-33.21 6.75Zm31.32-80.46c-1.8-8.64-5.58-15.48-11.34-20.52-5.58-5.22-12.78-7.83-21.6-7.83-9.18 0-16.83 2.52-22.95 7.56-5.94 5.04-10.08 11.97-12.42 20.79h68.31Zm108.76 77.76v-130.14h30.51v18.36h.54c3.42-5.4 8.64-10.26 15.66-14.58 7.2-4.32 15.21-6.48 24.03-6.48 9.72 0 18.45 2.34 26.19 7.02 7.74 4.5 13.77 10.98 18.09 19.44s6.48 18.45 6.48 29.97v76.41h-30.78v-74.52c0-9-2.61-16.11-7.83-21.33-5.04-5.4-11.61-8.1-19.71-8.1-9.36 0-17.19 3.24-23.49 9.72-6.12 6.3-9.18 14.49-9.18 24.57v69.66h-30.51Zm238.74 0h-30.51v-130.14h30.51v130.14Zm-15.12-152.55c-4.86 0-9.09-1.71-12.69-5.13-3.6-3.42-5.4-7.65-5.4-12.69 0-5.04 1.8-9.27 5.4-12.69 3.6-3.42 7.83-5.13 12.69-5.13 4.68 0 8.82 1.71 12.42 5.13 3.6 3.42 5.4 7.65 5.4 12.69 0 5.04-1.8 9.27-5.4 12.69-3.6 3.42-7.74 5.13-12.42 5.13Zm163.61 155.25c-12.6 0-24.21-2.97-34.83-8.91-10.44-6.12-18.72-14.31-24.84-24.57-5.94-10.44-8.91-21.87-8.91-34.29 0-12.42 2.97-23.76 8.91-34.02 6.12-10.44 14.31-18.63 24.57-24.57 10.26-6.12 21.42-9.18 33.48-9.18 12.24 0 23.22 2.79 32.94 8.37 9.9 5.58 17.64 13.32 23.22 23.22 5.58 9.72 8.37 20.61 8.37 32.67 0 4.68-.45 9.27-1.35 13.77h-98.28c1.26 8.1 5.49 15.12 12.69 21.06 7.2 5.76 15.84 8.64 25.92 8.64 13.32 0 25.11-4.95 35.37-14.85l18.09 19.71c-5.04 6.12-12.42 11.52-22.14 16.2-9.72 4.5-20.79 6.75-33.21 6.75Zm31.32-80.46c-1.8-8.64-5.58-15.48-11.34-20.52-5.58-5.22-12.78-7.83-21.6-7.83-9.18 0-16.83 2.52-22.95 7.56-5.94 5.04-10.08 11.97-12.42 20.79h68.31Zm157.9 80.46c-9.72 0-18.45-2.25-26.19-6.75-7.56-4.68-13.5-11.25-17.82-19.71s-6.48-18.45-6.48-29.97v-76.41h30.51v74.52c0 9 2.52 16.2 7.56 21.6 5.22 5.22 11.97 7.83 20.25 7.83 9.36 0 17.1-3.15 23.22-9.45 6.12-6.48 9.18-14.76 9.18-24.84v-69.66h30.78v130.14h-30.78v-18.36h-.27c-3.42 5.4-8.73 10.26-15.93 14.58-7.02 4.32-15.03 6.48-24.03 6.48Zm157.75-2.7v-130.14h30.51v16.74h.54c3.42-5.04 8.55-9.54 15.39-13.5 6.84-3.96 14.4-5.94 22.68-5.94h6.48v32.4c-4.86-1.08-8.55-1.62-11.07-1.62-9.54 0-17.64 3.51-24.3 10.53-6.48 7.02-9.72 16.11-9.72 27.27v64.26h-30.51Zm207.24 2.7c-12.6 0-24.21-2.97-34.83-8.91-10.44-6.12-18.72-14.31-24.84-24.57-5.94-10.44-8.91-21.87-8.91-34.29 0-12.42 2.97-23.76 8.91-34.02 6.12-10.44 14.31-18.63 24.57-24.57 10.26-6.12 21.42-9.18 33.48-9.18 12.24 0 23.22 2.79 32.94 8.37 9.9 5.58 17.64 13.32 23.22 23.22 5.58 9.72 8.37 20.61 8.37 32.67 0 4.68-.45 9.27-1.35 13.77h-98.28c1.26 8.1 5.49 15.12 12.69 21.06 7.2 5.76 15.84 8.64 25.92 8.64 13.32 0 25.11-4.95 35.37-14.85l18.09 19.71c-5.04 6.12-12.42 11.52-22.14 16.2-9.72 4.5-20.79 6.75-33.21 6.75Zm31.32-80.46c-1.8-8.64-5.58-15.48-11.34-20.52-5.58-5.22-12.78-7.83-21.6-7.83-9.18 0-16.83 2.52-22.95 7.56-5.94 5.04-10.08 11.97-12.42 20.79h68.31Z"/>
</svg>
