<svg xmlns="http://www.w3.org/2000/svg" width="5563" height="1260" fill="none" viewBox="0 0 5563 1260">
  <path fill="#000" d="M432 603h46.094l61.99-99h57.025l-75.651 119.88L602.4 756h-61.258l-62.07-102.6H432V756h-54V504h54v99Zm247.252 153h-54V504h54v99h108v-99h54v252h-54V653.4h-108V756Zm190.648.5c-3.367 0-6.45-.8-9.25-2.4-2.8-1.6-5.017-3.767-6.65-6.5-1.6-2.767-2.4-5.8-2.4-9.1s.8-6.317 2.4-9.05c1.633-2.767 3.85-4.95 6.65-6.55 2.8-1.6 5.883-2.4 9.25-2.4 3.4 0 6.5.8 9.3 2.4 2.8 1.6 5 3.783 6.6 6.55 1.633 2.733 2.45 5.75 2.45 9.05 0 3.3-.817 6.333-2.45 9.1-1.6 2.733-3.8 4.9-6.6 6.5-2.8 1.6-5.9 2.4-9.3 2.4Zm0-3.1c2.733 0 5.233-.65 7.5-1.95 2.3-1.333 4.117-3.133 5.45-5.4 1.333-2.3 2-4.817 2-7.55 0-2.733-.667-5.233-2-7.5-1.333-2.3-3.15-4.1-5.45-5.4-2.267-1.333-4.767-2-7.5-2-2.733 0-5.233.667-7.5 2-2.267 1.3-4.067 3.1-5.4 5.4-1.333 2.267-2 4.767-2 7.5 0 2.733.667 5.25 2 7.55a14.965 14.965 0 0 0 5.4 5.4c2.267 1.3 4.767 1.95 7.5 1.95Zm-6.3-5.65v-18.5h7.15c1.833 0 3.35.567 4.55 1.7 1.233 1.133 1.85 2.517 1.85 4.15 0 1.267-.367 2.333-1.1 3.2-.7.867-1.5 1.467-2.4 1.8l4.25 7.65h-3.5l-3.65-6.85h-3.9v6.85h-3.25Zm7.15-9.9c1.033 0 1.817-.25 2.35-.75.533-.5.8-1.167.8-2 0-.867-.267-1.533-.8-2-.533-.5-1.317-.75-2.35-.75h-3.9v5.5h3.9ZM1184 1008h-27V252h27v756Zm279.28-252h-27.72l102.24-252h29.88l102.24 252h-29.16l-28.44-70.2h-120.24l-28.8 70.2Zm88.56-219.6-50.04 124.2h100.44l-49.68-124.2h-.72ZM1697.05 756V583.2h24.48v27h.36c4.56-7.92 11.88-15 21.96-21.24 10.32-6.24 21.96-9.36 34.92-9.36h7.92v25.2a71.19 71.19 0 0 0-10.08-.72c-10.08 0-19.32 2.52-27.72 7.56-8.4 5.04-15.12 12-20.16 20.88-4.8 8.88-7.2 18.84-7.2 29.88V756h-24.48Zm187.52 3.6c-15.6 0-30.12-3.96-43.56-11.88-13.2-8.16-23.76-19.08-31.68-32.76-7.68-13.68-11.52-28.8-11.52-45.36s3.84-31.68 11.52-45.36c7.92-13.68 18.48-24.48 31.68-32.4 13.44-8.16 27.96-12.24 43.56-12.24 15.84 0 29.76 3.6 41.76 10.8 12.24 6.96 21.84 15.12 28.8 24.48l-18 14.76c-14.16-17.52-31.68-26.28-52.56-26.28-11.28 0-21.72 2.88-31.32 8.64-9.36 5.76-16.92 13.8-22.68 24.12-5.52 10.08-8.28 21.24-8.28 33.48 0 12.24 2.76 23.52 8.28 33.84 5.76 10.08 13.32 18 22.68 23.76 9.6 5.76 20.04 8.64 31.32 8.64 11.76 0 22.08-2.64 30.96-7.92 8.88-5.28 16.32-11.64 22.32-19.08l18 14.76c-6.96 9.6-16.68 18-29.16 25.2-12.24 7.2-26.28 10.8-42.12 10.8Zm104.6-3.6V504h24.48v106.92h.36c4.56-8.16 11.88-15.36 21.96-21.6 10.32-6.48 21.84-9.72 34.56-9.72 13.2 0 25.08 3.12 35.64 9.36 10.56 6.24 18.84 15 24.84 26.28 6 11.28 9 24.24 9 38.88V756h-24.48V654.12c0-15.12-4.56-27.36-13.68-36.72-8.88-9.36-20.28-14.04-34.2-14.04-10.08 0-19.2 2.52-27.36 7.56-8.16 4.8-14.64 11.52-19.44 20.16-4.8 8.64-7.2 18.36-7.2 29.16V756h-24.48Zm223.25 0h-24.48V583.2h24.48V756Zm-12.24-210.6c-4.32 0-8.16-1.56-11.52-4.68-3.12-3.12-4.68-6.96-4.68-11.52s1.56-8.4 4.68-11.52c3.36-3.12 7.2-4.68 11.52-4.68 4.56 0 8.4 1.56 11.52 4.68 3.36 3.12 5.04 6.96 5.04 11.52s-1.68 8.4-5.04 11.52c-3.12 3.12-6.96 4.68-11.52 4.68Zm124.33 212.4c-15.12 0-26.88-4.32-35.28-12.96-8.16-8.88-12.24-21.72-12.24-38.52v-99.36h-33.48V583.2h21.96c4.32 0 7.68-1.32 10.08-3.96 2.64-2.88 3.96-7.08 3.96-12.6V525.6h21.96v57.6h42.48v23.76h-42.48v97.92c0 9.36 2.28 16.56 6.84 21.6 4.8 5.04 11.28 7.56 19.44 7.56 6.96 0 14.28-1.8 21.96-5.4v23.76c-2.88 1.44-6.6 2.64-11.16 3.6-4.56 1.2-9.24 1.8-14.04 1.8Zm128.4 1.8c-15.6 0-30-3.96-43.2-11.88-13.2-8.16-23.76-19.08-31.68-32.76-7.92-13.68-11.88-28.8-11.88-45.36 0-16.8 3.84-32.04 11.52-45.72s18-24.48 30.96-32.4c12.96-7.92 27.12-11.88 42.48-11.88 15.12 0 28.8 3.72 41.04 11.16 12.48 7.44 22.32 17.88 29.52 31.32 7.2 13.44 10.8 28.56 10.8 45.36 0 3.84-.24 7.68-.72 11.52h-140.4c1.2 10.56 4.68 20.16 10.44 28.8s13.08 15.48 21.96 20.52c9.12 5.04 19.08 7.56 29.88 7.56 19.92 0 37.56-8.64 52.92-25.92l16.92 15.48c-7.68 9.6-17.4 17.76-29.16 24.48-11.76 6.48-25.56 9.72-41.4 9.72Zm54.72-101.88c-2.16-16.8-8.28-30.12-18.36-39.96-10.08-10.08-22.8-15.12-38.16-15.12-10.08 0-19.56 2.52-28.44 7.56-8.64 4.8-15.84 11.4-21.6 19.8-5.52 8.4-8.88 17.64-10.08 27.72h116.64Zm85.25 98.28h-24.48V504h24.48v172.08l86.4-92.88h31.32l-65.52 70.2 73.08 102.6h-28.8l-60.84-85.32-35.64 38.52V756Zm205.61 1.8c-15.12 0-26.88-4.32-35.28-12.96-8.16-8.88-12.24-21.72-12.24-38.52v-99.36h-33.48V583.2h21.96c4.32 0 7.68-1.32 10.08-3.96 2.64-2.88 3.96-7.08 3.96-12.6V525.6h21.96v57.6h42.48v23.76h-42.48v97.92c0 9.36 2.28 16.56 6.84 21.6 4.8 5.04 11.28 7.56 19.44 7.56 6.96 0 14.28-1.8 21.96-5.4v23.76c-2.88 1.44-6.6 2.64-11.16 3.6-4.56 1.2-9.24 1.8-14.04 1.8Zm128.39 1.8c-15.6 0-30-3.96-43.2-11.88-13.2-8.16-23.76-19.08-31.68-32.76-7.92-13.68-11.88-28.8-11.88-45.36 0-16.8 3.84-32.04 11.52-45.72s18-24.48 30.96-32.4c12.96-7.92 27.12-11.88 42.48-11.88 15.12 0 28.8 3.72 41.04 11.16 12.48 7.44 22.32 17.88 29.52 31.32 7.2 13.44 10.8 28.56 10.8 45.36 0 3.84-.24 7.68-.72 11.52h-140.4c1.2 10.56 4.68 20.16 10.44 28.8s13.08 15.48 21.96 20.52c9.12 5.04 19.08 7.56 29.88 7.56 19.92 0 37.56-8.64 52.92-25.92l16.92 15.48c-7.68 9.6-17.4 17.76-29.16 24.48-11.76 6.48-25.56 9.72-41.4 9.72Zm54.72-101.88c-2.16-16.8-8.28-30.12-18.36-39.96-10.08-10.08-22.8-15.12-38.16-15.12-10.08 0-19.56 2.52-28.44 7.56-8.64 4.8-15.84 11.4-21.6 19.8-5.52 8.4-8.88 17.64-10.08 27.72h116.64Zm58.98 98.28V583.2h24.48v27.72h.36c4.56-8.16 11.88-15.36 21.96-21.6 10.32-6.48 21.84-9.72 34.56-9.72 13.2 0 25.08 3.12 35.64 9.36 10.56 6.24 18.84 15 24.84 26.28 6 11.28 9 24.24 9 38.88V756h-24.48V654.12c0-15.12-4.56-27.36-13.68-36.72-8.88-9.36-20.28-14.04-34.2-14.04-10.08 0-19.2 2.52-27.36 7.56-8.16 4.8-14.64 11.52-19.44 20.16-4.8 8.64-7.2 18.36-7.2 29.16V756h-24.48Zm351.78-26.28h-21.96v-68.04h-65.88V639h65.88v-68.04h21.96V639h65.88v22.68h-65.88v68.04ZM3609.43 756h-27V504h27v252Zm57.64 0V583.2h24.47v27.72h.37c4.56-8.16 11.88-15.36 21.96-21.6 10.32-6.48 21.84-9.72 34.56-9.72 13.2 0 25.08 3.12 35.64 9.36 10.56 6.24 18.84 15 24.84 26.28 6 11.28 9 24.24 9 38.88V756h-24.48V654.12c0-15.12-4.56-27.36-13.68-36.72-8.88-9.36-20.28-14.04-34.2-14.04-10.08 0-19.2 2.52-27.36 7.56-8.16 4.8-14.64 11.52-19.44 20.16-4.8 8.64-7.21 18.36-7.21 29.16V756h-24.47Zm266.13 75.6c-15.6 0-30.24-3.84-43.92-11.52-13.68-7.44-23.52-15.6-29.52-24.48l17.64-16.2c4.56 6.96 12 13.44 22.32 19.44 10.56 6 21.72 9 33.48 9 17.28 0 31.32-6 42.12-18 10.8-12 16.2-27.36 16.2-46.08v-24.12h-.36c-6 10.08-14.52 18.12-25.56 24.12-11.04 5.76-22.68 8.64-34.92 8.64-14.16 0-27.24-3.72-39.24-11.16-12-7.44-21.6-17.76-28.8-30.96-6.96-13.2-10.44-27.96-10.44-44.28s3.48-31.08 10.44-44.28c7.2-13.2 16.8-23.52 28.8-30.96 12-7.44 25.08-11.16 39.24-11.16 13.68 0 25.92 3.36 36.72 10.08 10.8 6.72 18.72 14.16 23.76 22.32h.36v-28.8H4016v160.56c0 16.56-3.6 31.44-10.8 44.64-7.2 13.44-17.16 24-29.88 31.68-12.48 7.68-26.52 11.52-42.12 11.52Zm.36-102.96c10.8 0 20.52-2.64 29.16-7.92 8.88-5.52 15.84-12.96 20.88-22.32 5.28-9.6 7.92-20.4 7.92-32.4s-2.64-22.8-7.92-32.4c-5.04-9.6-12-17.04-20.88-22.32-8.64-5.28-18.36-7.92-29.16-7.92-10.32 0-19.92 2.64-28.8 7.92-8.64 5.28-15.48 12.72-20.52 22.32-5.04 9.6-7.56 20.4-7.56 32.4s2.52 22.8 7.56 32.4c5.04 9.36 11.88 16.8 20.52 22.32 8.88 5.28 18.48 7.92 28.8 7.92Zm205.23 30.96c-15.6 0-30-3.96-43.2-11.88-13.2-8.16-23.76-19.08-31.68-32.76-7.92-13.68-11.88-28.8-11.88-45.36 0-16.8 3.84-32.04 11.52-45.72s18-24.48 30.96-32.4c12.96-7.92 27.12-11.88 42.48-11.88 15.12 0 28.8 3.72 41.04 11.16 12.48 7.44 22.32 17.88 29.52 31.32 7.2 13.44 10.8 28.56 10.8 45.36 0 3.84-.24 7.68-.72 11.52h-140.4c1.2 10.56 4.68 20.16 10.44 28.8s13.08 15.48 21.96 20.52c9.12 5.04 19.08 7.56 29.88 7.56 19.92 0 37.56-8.64 52.92-25.92l16.92 15.48c-7.68 9.6-17.4 17.76-29.16 24.48-11.76 6.48-25.56 9.72-41.4 9.72Zm54.72-101.88c-2.16-16.8-8.28-30.12-18.36-39.96-10.08-10.08-22.8-15.12-38.16-15.12-10.08 0-19.56 2.52-28.44 7.56-8.64 4.8-15.84 11.4-21.6 19.8-5.52 8.4-8.88 17.64-10.08 27.72h116.64Zm58.98 98.28V583.2h24.48v27.72h.36c4.56-8.16 11.88-15.36 21.96-21.6 10.32-6.48 21.84-9.72 34.56-9.72 13.2 0 25.08 3.12 35.64 9.36 10.56 6.24 18.84 15 24.84 26.28 6 11.28 9 24.24 9 38.88V756h-24.48V654.12c0-15.12-4.56-27.36-13.68-36.72-8.88-9.36-20.28-14.04-34.2-14.04-10.08 0-19.2 2.52-27.36 7.56-8.16 4.8-14.64 11.52-19.44 20.16-4.8 8.64-7.2 18.36-7.2 29.16V756h-24.48Zm223.29 0h-24.48V583.2h24.48V756Zm-12.24-210.6c-4.32 0-8.16-1.56-11.52-4.68-3.12-3.12-4.68-6.96-4.68-11.52s1.56-8.4 4.68-11.52c3.36-3.12 7.2-4.68 11.52-4.68 4.56 0 8.4 1.56 11.52 4.68 3.36 3.12 5.04 6.96 5.04 11.52s-1.68 8.4-5.04 11.52c-3.12 3.12-6.96 4.68-11.52 4.68Zm136.57 214.2c-15.6 0-30-3.96-43.2-11.88-13.2-8.16-23.76-19.08-31.68-32.76-7.92-13.68-11.88-28.8-11.88-45.36 0-16.8 3.84-32.04 11.52-45.72s18-24.48 30.96-32.4c12.96-7.92 27.12-11.88 42.48-11.88 15.12 0 28.8 3.72 41.04 11.16 12.48 7.44 22.32 17.88 29.52 31.32 7.2 13.44 10.8 28.56 10.8 45.36 0 3.84-.24 7.68-.72 11.52h-140.4c1.2 10.56 4.68 20.16 10.44 28.8s13.08 15.48 21.96 20.52c9.12 5.04 19.08 7.56 29.88 7.56 19.92 0 37.56-8.64 52.92-25.92l16.92 15.48c-7.68 9.6-17.4 17.76-29.16 24.48-11.76 6.48-25.56 9.72-41.4 9.72Zm54.72-101.88c-2.16-16.8-8.28-30.12-18.36-39.96-10.08-10.08-22.8-15.12-38.16-15.12-10.08 0-19.56 2.52-28.44 7.56-8.64 4.8-15.84 11.4-21.6 19.8-5.52 8.4-8.88 17.64-10.08 27.72h116.64Zm126.66 101.88c-13.2 0-25.08-3.12-35.64-9.36-10.56-6.24-18.84-15-24.84-26.28-6-11.28-9-24.24-9-38.88V583.2h24.48v101.88c0 15.12 4.44 27.36 13.32 36.72 9.12 9.36 20.64 14.04 34.56 14.04 10.08 0 19.2-2.4 27.36-7.2 8.16-5.04 14.64-11.88 19.44-20.52 4.8-8.64 7.2-18.36 7.2-29.16V583.2h24.48V756h-24.48v-27.72h-.36c-4.32 7.92-11.64 15.12-21.96 21.6-10.08 6.48-21.6 9.72-34.56 9.72Zm129.33-3.6V583.2h24.48v27h.36c4.56-7.92 11.88-15 21.96-21.24 10.32-6.24 21.96-9.36 34.92-9.36h7.92v25.2a71.19 71.19 0 0 0-10.08-.72c-10.08 0-19.32 2.52-27.72 7.56-8.4 5.04-15.12 12-20.16 20.88-4.8 8.88-7.2 18.84-7.2 29.88V756h-24.48Zm187.52 3.6c-15.6 0-30-3.96-43.2-11.88-13.2-8.16-23.76-19.08-31.68-32.76-7.92-13.68-11.88-28.8-11.88-45.36 0-16.8 3.84-32.04 11.52-45.72s18-24.48 30.96-32.4c12.96-7.92 27.12-11.88 42.48-11.88 15.12 0 28.8 3.72 41.04 11.16 12.48 7.44 22.32 17.88 29.52 31.32 7.2 13.44 10.8 28.56 10.8 45.36 0 3.84-.24 7.68-.72 11.52h-140.4c1.2 10.56 4.68 20.16 10.44 28.8s13.08 15.48 21.96 20.52c9.12 5.04 19.08 7.56 29.88 7.56 19.92 0 37.56-8.64 52.92-25.92l16.92 15.48c-7.68 9.6-17.4 17.76-29.16 24.48-11.76 6.48-25.56 9.72-41.4 9.72Zm54.72-101.88c-2.16-16.8-8.28-30.12-18.36-39.96-10.08-10.08-22.8-15.12-38.16-15.12-10.08 0-19.56 2.52-28.44 7.56-8.64 4.8-15.84 11.4-21.6 19.8-5.52 8.4-8.88 17.64-10.08 27.72h116.64Z"/>
</svg>
