<svg xmlns="http://www.w3.org/2000/svg" width="4788" height="1261" fill="none" viewBox="0 0 4788 1261">
  <path fill="#6C845C" d="M378 1009h42V252h-42v757Z"/>
  <path fill="#000" d="M4240.78 579h-66.6V327h59.4l108.36 140.4h1.44V327h66.6v252h-59.4l-108.36-140.4h-1.44V579Zm-297.56 0h-66.6V327h59.4l108.36 140.4h1.44V327h66.6v252h-59.4l-108.36-140.4h-1.44V579Zm-297.6 0h-72l94.68-252h77.04l94.68 252h-72.72l-16.92-48.6h-87.84l-16.92 48.6Zm60.12-187.2-25.92 82.8h53.28l-25.92-82.8h-1.44ZM3285.77 579h-67.32V327h86.4l73.8 162h.72l73.44-162h84.24v252h-67.32V427.08h-1.44L3397.37 579h-39.24l-70.92-151.92h-1.44V579Zm-235.19 0h-68.4V327h190.8v64.8h-122.4V435h93.6v61.2h-93.6V579Zm-236.28 0h-68.4V327h190.8v64.8h-122.4V435h93.6v61.2h-93.6V579Zm-256.13 7.201c-26.4 0-50.4-5.88-72-17.64-21.36-12-38.16-28.08-50.4-48.24-12-20.4-18-42.84-18-67.32 0-24.48 6-46.8 18-66.96 12.24-20.4 29.04-36.48 50.4-48.24 21.6-12 45.6-18 72-18s50.28 6 71.64 18c21.6 11.76 38.4 27.84 50.4 48.24 12.24 20.16 18.36 42.48 18.36 66.96 0 24.48-6.12 46.92-18.36 67.32-12 20.16-28.8 36.24-50.4 48.24-21.36 11.76-45.24 17.64-71.64 17.64Zm0-63c12.96 0 24.72-3.12 35.28-9.36 10.8-6.24 19.32-14.64 25.56-25.2 6.24-10.8 9.36-22.68 9.36-35.64s-3.12-24.72-9.36-35.28c-6.24-10.8-14.76-19.32-25.56-25.56-10.56-6.24-22.32-9.36-35.28-9.36s-24.84 3.12-35.64 9.36c-10.56 6.24-18.96 14.76-25.2 25.56-6.24 10.56-9.36 22.32-9.36 35.28s3.12 24.84 9.36 35.64c6.24 10.56 14.64 18.96 25.2 25.2 10.8 6.24 22.68 9.36 35.64 9.36ZM2210.4 579H2142V327h68.4v91.8h91.8V327h68.4v252h-68.4v-95.4h-91.8V579Zm-265.16 0h-196.2V327h192.6v61.2h-124.2v35.28h95.4v57.6h-95.4v36.72h127.8V579Zm-308.44 0h-68.4V391.8h-70.2V327H1707v64.8h-70.2V579Zm-163.23 0h-72l-41.4-79.2h-37.8V579h-68.4V327h118.8c17.76 0 33.6 3.84 47.52 11.52 13.92 7.44 24.72 17.76 32.4 30.96 7.92 13.2 11.88 27.84 11.88 43.92 0 15.6-3.72 29.88-11.16 42.84-7.44 12.96-17.76 23.28-30.96 30.96l51.12 91.8Zm-151.2-190.8v50.4h46.8c7.92 0 14.4-2.4 19.44-7.2 5.04-4.8 7.56-10.8 7.56-18 0-7.2-2.52-13.2-7.56-18-5.04-4.8-11.52-7.2-19.44-7.2h-46.8Zm-256.13 198.001c-26.4 0-50.4-5.88-71.996-17.64-21.36-12-38.16-28.08-50.4-48.24-12-20.4-18-42.84-18-67.32 0-24.48 6-46.8 18-66.96 12.24-20.4 29.04-36.48 50.4-48.24 21.596-12 45.596-18 71.996-18s50.28 6 71.64 18c21.6 11.76 38.4 27.84 50.4 48.24 12.24 20.16 18.36 42.48 18.36 66.96 0 24.48-6.12 46.92-18.36 67.32-12 20.16-28.8 36.24-50.4 48.24-21.36 11.76-45.24 17.64-71.64 17.64Zm0-63c12.96 0 24.72-3.12 35.28-9.36 10.8-6.24 19.32-14.64 25.56-25.2 6.24-10.8 9.36-22.68 9.36-35.64s-3.12-24.72-9.36-35.28c-6.24-10.8-14.76-19.32-25.56-25.56-10.56-6.24-22.32-9.36-35.28-9.36s-24.84 3.12-35.64 9.36c-10.56 6.24-18.96 14.76-25.2 25.56-6.236 10.56-9.356 22.32-9.356 35.28s3.12 24.84 9.356 35.64c6.24 10.56 14.64 18.96 25.2 25.2 10.8 6.24 22.68 9.36 35.64 9.36ZM740.4 418.797h36.407L841.031 327h75.548l-84.12 118.44L923.203 579h-81.841l-63.928-95.403H740.4V579H672V327h68.4v91.797Zm1979.34 454.998 59.13 68.85h-38.07l-52.92-63.18v63.18h-30.51v-189h30.51v118.26l51.03-59.4h35.91l-55.08 61.29Zm-170.84 71.546c-12.6 0-24.21-2.97-34.83-8.91-10.44-6.12-18.72-14.31-24.84-24.57-5.94-10.44-8.91-21.87-8.91-34.29 0-12.42 2.97-23.76 8.91-34.02 6.12-10.44 14.4-18.63 24.84-24.57 10.62-6.12 22.23-9.18 34.83-9.18 12.42 0 23.4 2.61 32.94 7.83 9.54 5.22 17.01 11.34 22.41 18.36l-21.06 18.36c-9.9-10.62-21.15-15.93-33.75-15.93-10.98 0-20.16 3.78-27.54 11.34-7.2 7.38-10.8 16.65-10.8 27.81s3.6 20.52 10.8 28.08c7.38 7.38 16.56 11.07 27.54 11.07 7.2 0 13.77-1.53 19.71-4.59 5.94-3.24 11.07-7.29 15.39-12.15l21.06 18.63c-5.94 7.2-13.77 13.5-23.49 18.9-9.72 5.22-20.79 7.83-33.21 7.83Zm-194.22.003c-9.72 0-18.45-2.25-26.19-6.75-7.56-4.68-13.5-11.25-17.82-19.71s-6.48-18.45-6.48-29.97v-76.41h30.51v74.52c0 9 2.52 16.2 7.56 21.6 5.22 5.22 11.97 7.83 20.25 7.83 9.36 0 17.1-3.15 23.22-9.45 6.12-6.48 9.18-14.76 9.18-24.84v-69.66h30.78v130.14h-30.78v-18.36h-.27c-3.42 5.4-8.73 10.26-15.93 14.58-7.02 4.32-15.03 6.48-24.03 6.48Zm-174.55-2.703v-130.14h30.51v16.74h.54c3.42-5.04 8.55-9.54 15.39-13.5 6.84-3.96 14.4-5.94 22.68-5.94h6.48v32.4c-4.86-1.08-8.55-1.62-11.07-1.62-9.54 0-17.64 3.51-24.3 10.53-6.48 7.02-9.72 16.11-9.72 27.27v64.26h-30.51Zm-138.69 2.704c-10.62 0-20.61-2.88-29.97-8.64-9.18-5.94-16.56-14.04-22.14-24.3-5.4-10.26-8.1-21.87-8.1-34.83 0-12.96 2.7-24.57 8.1-34.83 5.58-10.26 12.96-18.27 22.14-24.03 9.36-5.94 19.35-8.91 29.97-8.91 10.08 0 18.99 2.16 26.73 6.48 7.92 4.32 13.5 9.18 16.74 14.58h.27v-77.22h30.78v189h-30.78v-18.36h-.27c-3.24 5.4-8.82 10.26-16.74 14.58-7.74 4.32-16.65 6.48-26.73 6.48Zm7.29-28.62c6.66 0 12.78-1.71 18.36-5.13s9.99-8.1 13.23-14.04c3.24-5.94 4.86-12.6 4.86-19.98 0-7.38-1.62-14.04-4.86-19.98-3.24-5.94-7.65-10.62-13.23-14.04s-11.7-5.13-18.36-5.13-12.78 1.71-18.36 5.13-10.08 8.1-13.5 14.04c-3.24 5.94-4.86 12.6-4.86 19.98 0 7.38 1.62 14.04 4.86 19.98 3.42 5.94 7.92 10.62 13.5 14.04s11.7 5.13 18.36 5.13Zm-175.47 28.616c-12.6 0-24.21-2.97-34.83-8.91-10.44-6.12-18.72-14.31-24.84-24.57-5.94-10.44-8.91-21.87-8.91-34.29 0-12.42 2.97-23.76 8.91-34.02 6.12-10.44 14.31-18.63 24.57-24.57 10.26-6.12 21.42-9.18 33.48-9.18 12.24 0 23.22 2.79 32.94 8.37 9.9 5.58 17.64 13.32 23.22 23.22 5.58 9.72 8.37 20.61 8.37 32.67 0 4.68-.45 9.27-1.35 13.77h-98.28c1.26 8.1 5.49 15.12 12.69 21.06 7.2 5.76 15.84 8.64 25.92 8.64 13.32 0 25.11-4.95 35.37-14.85l18.09 19.71c-5.04 6.12-12.42 11.52-22.14 16.2-9.72 4.5-20.79 6.75-33.21 6.75Zm31.32-80.46c-1.8-8.64-5.58-15.48-11.34-20.52-5.58-5.22-12.78-7.83-21.6-7.83-9.18 0-16.83 2.52-22.95 7.56-5.94 5.04-10.08 11.97-12.42 20.79h68.31Zm-230.49 80.464c-10.62 0-20.61-2.88-29.97-8.64-9.18-5.94-16.56-14.04-22.14-24.3-5.4-10.26-8.1-21.87-8.1-34.83 0-12.96 2.7-24.57 8.1-34.83 5.58-10.26 12.96-18.27 22.14-24.03 9.36-5.94 19.35-8.91 29.97-8.91 10.08 0 18.99 2.16 26.73 6.48 7.92 4.32 13.5 9.18 16.74 14.58h.27v-77.22h30.78v189h-30.78v-18.36h-.27c-3.24 5.4-8.82 10.26-16.74 14.58-7.74 4.32-16.65 6.48-26.73 6.48Zm7.29-28.62c6.66 0 12.78-1.71 18.36-5.13s9.99-8.1 13.23-14.04c3.24-5.94 4.86-12.6 4.86-19.98 0-7.38-1.62-14.04-4.86-19.98-3.24-5.94-7.65-10.62-13.23-14.04s-11.7-5.13-18.36-5.13-12.78 1.71-18.36 5.13-10.08 8.1-13.5 14.04c-3.24 5.94-4.86 12.6-4.86 19.98 0 7.38 1.62 14.04 4.86 19.98 3.42 5.94 7.92 10.62 13.5 14.04s11.7 5.13 18.36 5.13Zm-193.14 28.619c-9.72 0-18.45-2.25-26.19-6.75-7.56-4.68-13.5-11.25-17.82-19.71s-6.48-18.45-6.48-29.97v-76.41h30.51v74.52c0 9 2.52 16.2 7.56 21.6 5.22 5.22 11.97 7.83 20.25 7.83 9.36 0 17.1-3.15 23.22-9.45 6.12-6.48 9.18-14.76 9.18-24.84v-69.66h30.78v130.14h-30.78v-18.36h-.27c-3.42 5.4-8.73 10.26-15.93 14.58-7.02 4.32-15.03 6.48-24.03 6.48Zm-165.96-135.541c10.8 0 20.43 2.25 28.89 6.75 8.46 4.32 14.94 10.35 19.44 18.09 4.68 7.74 7.02 16.29 7.02 25.65v82.35h-29.16v-18.09h-.27c-3.6 5.22-9.09 9.99-16.47 14.31-7.38 4.32-15.66 6.48-24.84 6.48-8.46 0-16.02-1.71-22.68-5.13s-11.88-8.01-15.66-13.77c-3.6-5.94-5.4-12.24-5.4-18.9 0-10.98 3.51-20.07 10.53-27.27 7.2-7.2 17.19-11.97 29.97-14.31l43.47-7.56v-.27c-.18-6.12-2.7-11.25-7.56-15.39-4.86-4.32-10.89-6.48-18.09-6.48-6.66 0-12.6 1.53-17.82 4.59-5.22 3.06-10.17 7.02-14.85 11.88l-18.63-17.82c5.94-7.02 13.23-12.96 21.87-17.82 8.82-4.86 18.9-7.29 30.24-7.29Zm-8.37 110.43c9.18 0 16.92-3.33 23.22-9.99 6.48-6.66 9.72-15.03 9.72-25.11v-4.32l-34.02 6.48c-5.94 1.08-10.62 3.15-14.04 6.21-3.24 2.88-4.86 6.3-4.86 10.26 0 4.68 1.8 8.64 5.4 11.88 3.6 3.06 8.46 4.59 14.58 4.59Zm-15.39-130.41c-4.5 0-8.55-1.71-12.15-5.13-3.6-3.42-5.4-7.56-5.4-12.42s1.8-9 5.4-12.42c3.6-3.42 7.65-5.13 12.15-5.13s8.46 1.71 11.88 5.13c3.6 3.42 5.4 7.56 5.4 12.42s-1.8 9-5.4 12.42c-3.42 3.42-7.38 5.13-11.88 5.13Zm55.35 0c-4.5 0-8.55-1.71-12.15-5.13-3.42-3.42-5.13-7.56-5.13-12.42s1.71-9 5.13-12.42c3.6-3.42 7.65-5.13 12.15-5.13s8.55 1.71 12.15 5.13c3.6 3.42 5.4 7.56 5.4 12.42s-1.8 9-5.4 12.42c-3.6 3.42-7.65 5.13-12.15 5.13Zm-197.82 155.522c-10.08 0-18.99-2.16-26.73-6.48-7.74-4.32-13.23-9.18-16.47-14.58h-.54v18.36h-30.51v-189h30.51v77.22h.54c3.24-5.4 8.73-10.26 16.47-14.58 7.74-4.32 16.65-6.48 26.73-6.48 10.8 0 20.79 2.97 29.97 8.91 9.36 5.76 16.74 13.77 22.14 24.03 5.58 10.26 8.37 21.87 8.37 34.83 0 12.96-2.79 24.57-8.37 34.83-5.4 10.26-12.78 18.36-22.14 24.3-9.18 5.76-19.17 8.64-29.97 8.64Zm-7.02-28.62c6.66 0 12.78-1.71 18.36-5.13s9.99-8.1 13.23-14.04c3.42-5.94 5.13-12.6 5.13-19.98 0-7.38-1.71-14.04-5.13-19.98-3.24-5.94-7.65-10.62-13.23-14.04s-11.7-5.13-18.36-5.13-12.78 1.71-18.36 5.13-10.08 8.1-13.5 14.04c-3.24 5.94-4.86 12.6-4.86 19.98 0 7.38 1.62 14.04 4.86 19.98 3.42 5.94 7.92 10.62 13.5 14.04s11.7 5.13 18.36 5.13Zm-184.653 28.616c-12.6 0-24.21-2.97-34.83-8.91-10.44-6.12-18.72-14.31-24.84-24.57-5.94-10.44-8.91-21.87-8.91-34.29 0-12.42 2.97-23.76 8.91-34.02 6.12-10.44 14.31-18.63 24.57-24.57 10.26-6.12 21.42-9.18 33.48-9.18 12.24 0 23.22 2.79 32.94 8.37 9.903 5.58 17.643 13.32 23.223 23.22 5.58 9.72 8.37 20.61 8.37 32.67 0 4.68-.45 9.27-1.35 13.77h-98.283c1.26 8.1 5.49 15.12 12.69 21.06 7.2 5.76 15.84 8.64 25.92 8.64 13.32 0 25.11-4.95 35.373-14.85l18.09 19.71c-5.04 6.12-12.42 11.52-22.143 16.2-9.72 4.5-20.79 6.75-33.21 6.75Zm31.32-80.46c-1.8-8.64-5.58-15.48-11.34-20.52-5.58-5.22-12.78-7.83-21.6-7.83-9.18 0-16.83 2.52-22.95 7.56-5.94 5.04-10.08 11.97-12.42 20.79h68.31ZM760.98 945.882c-18.9 0-36.09-4.32-51.57-12.96-15.3-8.82-27.36-20.7-36.18-35.64-8.82-14.94-13.23-31.32-13.23-49.14s4.41-34.2 13.23-49.14c8.82-14.94 20.88-26.73 36.18-35.37 15.48-8.82 32.67-13.23 51.57-13.23 17.46 0 32.85 3.6 46.17 10.8 13.32 7.02 24.12 15.48 32.4 25.38l-23.22 19.98c-7.02-7.56-14.85-13.68-23.49-18.36-8.64-4.68-19.26-7.02-31.86-7.02-12.24 0-23.49 2.97-33.75 8.91-10.26 5.94-18.36 14.04-24.3 24.3-5.94 10.26-8.91 21.51-8.91 33.75 0 12.24 2.97 23.49 8.91 33.75 5.94 10.26 14.04 18.36 24.3 24.3 10.26 5.94 21.51 8.91 33.75 8.91 10.44 0 19.98-1.89 28.62-5.67 8.82-3.96 15.39-8.28 19.71-12.96v-26.73h-39.69v-28.08h73.17v67.77c-4.5 5.76-10.8 11.43-18.9 17.01-8.1 5.58-17.64 10.26-28.62 14.04-10.8 3.6-22.23 5.4-34.29 5.4Z"/>
</svg>
