<svg xmlns="http://www.w3.org/2000/svg" width="3196" height="1008" fill="none" viewBox="0 0 3196 1008">
  <path fill="#000" d="M432 477h41.453l34.229-47.253L540.084 378h66.592l-70.565 96.659-14.653 23.221 14.652 23.917L612.796 630h-71.653l-33.464-55.314-33.093-47.286H432V630h-54V378h54v99Zm252.252 153h-54V378h54v99h108v-99h54v252h-54V527.4h-108V630ZM1141 756h-42V252h42v504Zm385.84-122.4c-23.76 0-45.6-5.76-65.52-17.28-19.92-11.52-35.64-27.24-47.16-47.16-11.52-19.92-17.28-41.64-17.28-65.16 0-23.52 5.76-45.24 17.28-65.16 11.52-19.92 27.24-35.64 47.16-47.16 19.92-11.52 41.76-17.28 65.52-17.28 22.8 0 43.2 5.04 61.2 15.12 18.24 10.08 32.16 21.84 41.76 35.28l-19.44 15.48c-8.4-11.04-19.68-20.52-33.84-28.44-13.92-7.92-30.48-11.88-49.68-11.88-18.72 0-36 4.56-51.84 13.68-15.84 9.12-28.32 21.72-37.44 37.8-9.12 15.84-13.68 33.36-13.68 52.56 0 19.2 4.56 36.72 13.68 52.56 9.12 15.84 21.6 28.44 37.44 37.8 15.84 9.12 33.12 13.68 51.84 13.68 17.52 0 33.48-3.6 47.88-10.8 14.4-7.44 25.08-15.6 32.04-24.48V525.6h-61.2v-24.48h88.2v80.64c-6 8.16-14.28 16.2-24.84 24.12-10.56 7.92-22.92 14.52-37.08 19.8-14.16 5.28-29.16 7.92-45 7.92Zm348.49-3.6h-30.24l-56.16-100.08h-72.36V630h-27V378h99c15.12 0 28.8 3.36 41.04 10.08 12.24 6.72 21.72 15.84 28.44 27.36 6.96 11.52 10.44 24.36 10.44 38.52 0 16.8-4.8 31.68-14.4 44.64-9.36 12.96-21.96 21.96-37.8 27l59.04 104.4Zm-158.76-226.44v101.16h72c15.84 0 28.56-4.68 38.16-14.04 9.84-9.6 14.76-21.84 14.76-36.72 0-14.64-4.92-26.64-14.76-36-9.84-9.6-22.56-14.4-38.16-14.4h-72Zm306.97 230.04c-19.2 0-36.6-4.32-52.2-12.96-15.6-8.88-27.84-21.12-36.72-36.72-8.64-15.6-12.96-33.12-12.96-52.56V378h27v153.36c0 14.64 3.24 27.84 9.72 39.6 6.48 11.52 15.36 20.64 26.64 27.36 11.52 6.48 24.36 9.72 38.52 9.72 13.92 0 26.64-3.36 38.16-10.08 11.52-6.72 20.52-15.84 27-27.36 6.72-11.76 10.08-24.84 10.08-39.24V378h27v153.36c0 19.44-4.44 36.96-13.32 52.56-8.64 15.6-20.76 27.84-36.36 36.72-15.6 8.64-33.12 12.96-52.56 12.96Zm165.53-3.6V378h94.32c15.6 0 29.64 3.48 42.12 10.44 12.72 6.96 22.68 16.56 29.88 28.8 7.2 12 10.8 25.2 10.8 39.6 0 14.4-3.6 27.72-10.8 39.96-7.2 12-17.16 21.48-29.88 28.44-12.48 6.96-26.52 10.44-42.12 10.44h-67.32V630h-27Zm94.32-119.88c16.32 0 29.64-5.04 39.96-15.12 10.56-10.08 15.84-22.8 15.84-38.16 0-10.08-2.4-19.08-7.2-27-4.8-8.16-11.4-14.52-19.8-19.08-8.4-4.8-18-7.2-28.8-7.2h-67.32v106.56h67.32ZM2409.64 630V378h94.32c15.6 0 29.64 3.48 42.12 10.44 12.72 6.96 22.68 16.56 29.88 28.8 7.2 12 10.8 25.2 10.8 39.6 0 14.4-3.6 27.72-10.8 39.96-7.2 12-17.16 21.48-29.88 28.44-12.48 6.96-26.52 10.44-42.12 10.44h-67.32V630h-27Zm94.32-119.88c16.32 0 29.64-5.04 39.96-15.12 10.56-10.08 15.84-22.8 15.84-38.16 0-10.08-2.4-19.08-7.2-27-4.8-8.16-11.4-14.52-19.8-19.08-8.4-4.8-18-7.2-28.8-7.2h-67.32v106.56h67.32ZM2806.61 630h-176.4V378h172.8v25.56h-145.8V486h117v25.56h-117v92.88h149.4V630Z"/>
</svg>
