<svg xmlns="http://www.w3.org/2000/svg" width="4040" height="1097" fill="none" viewBox="0 0 4040 1097">
  <path fill="#fff" d="M306 351h38.492l70.559-99h61.387L390.33 371.88 482.459 504h-66.204l-70.649-102.6H306V504h-54V252h54v99Zm312.033 158.4c-25.68 0-48.96-5.88-69.84-17.64-20.88-11.76-37.32-27.6-49.32-47.52-11.76-20.16-17.64-42.24-17.64-66.24 0-24 5.88-46.08 17.64-66.24 12-20.16 28.44-36 49.32-47.52 20.88-11.76 44.16-17.64 69.84-17.64 25.68 0 48.84 5.88 69.48 17.64 20.88 11.52 37.32 27.36 49.32 47.52 12 20.16 18 42.24 18 66.24 0 24-6 46.08-18 66.24-12 19.92-28.44 35.76-49.32 47.52-20.88 11.76-44.04 17.64-69.48 17.64Zm0-49.68c15.12 0 28.92-3.6 41.4-10.8 12.48-7.2 22.32-17.04 29.52-29.52 7.2-12.48 10.8-26.28 10.8-41.4 0-15.12-3.6-28.92-10.8-41.4-7.2-12.48-17.04-22.32-29.52-29.52-12.48-7.44-26.28-11.16-41.4-11.16-15.12 0-29.04 3.6-41.76 10.8-12.48 7.2-22.32 17.16-29.52 29.88-7.2 12.48-10.8 26.28-10.8 41.4 0 15.12 3.6 28.92 10.8 41.4 7.44 12.48 17.4 22.32 29.88 29.52 12.48 7.2 26.28 10.8 41.4 10.8ZM1008.4 504h-58.678l-46.44-86.4h-48.96V504h-54V252h111.6c16.8 0 31.8 3.6 45 10.8 13.44 7.2 23.88 17.16 31.32 29.88 7.44 12.48 11.16 26.52 11.16 42.12 0 16.08-4.08 30.6-12.24 43.56-7.92 12.96-18.84 22.92-32.76 29.88L1008.4 504ZM854.322 300.6V369h55.8c10.32 0 18.72-3.24 25.2-9.72 6.72-6.48 10.08-14.64 10.08-24.48s-3.36-18-10.08-24.48c-6.48-6.48-14.88-9.72-25.2-9.72h-55.8ZM1146.76 504h-54V302.4h-73.08V252h199.8v50.4h-72.72V504Zm297.22 0h-189V252h185.4v48.6h-131.4v51.12h102.6v46.8h-102.6v56.88h135V504Zm235.98 0h-54V252h54v99h108v-99h54v252h-54V401.4h-108V504Zm344.58 5.4c-25.68 0-48.96-5.88-69.84-17.64-20.88-11.76-37.32-27.6-49.32-47.52-11.76-20.16-17.64-42.24-17.64-66.24 0-24 5.88-46.08 17.64-66.24 12-20.16 28.44-36 49.32-47.52 20.88-11.76 44.16-17.64 69.84-17.64 25.68 0 48.84 5.88 69.48 17.64 20.88 11.52 37.32 27.36 49.32 47.52 12 20.16 18 42.24 18 66.24 0 24-6 46.08-18 66.24-12 19.92-28.44 35.76-49.32 47.52-20.88 11.76-44.04 17.64-69.48 17.64Zm0-49.68c15.12 0 28.92-3.6 41.4-10.8 12.48-7.2 22.32-17.04 29.52-29.52 7.2-12.48 10.8-26.28 10.8-41.4 0-15.12-3.6-28.92-10.8-41.4-7.2-12.48-17.04-22.32-29.52-29.52-12.48-7.44-26.28-11.16-41.4-11.16-15.12 0-29.04 3.6-41.76 10.8-12.48 7.2-22.32 17.16-29.52 29.88-7.2 12.48-10.8 26.28-10.8 41.4 0 15.12 3.6 28.92 10.8 41.4 7.44 12.48 17.4 22.32 29.88 29.52 12.48 7.2 26.28 10.8 41.4 10.8ZM2260.83 504h-54V252h183.6v51.12h-129.6v57.6h100.8v49.68h-100.8V504Zm222.76 0h-54V252h183.6v51.12h-129.6v57.6h100.8v49.68h-100.8V504Zm222.4 0h-53.64V252h69.84l83.16 182.16h1.08l82.8-182.16h67.32v252h-53.28V332.64h-1.44L2821.91 504h-34.92l-79.56-171.36h-1.44V504Zm339.22 0h-56.52l97.92-252h60.12l97.56 252h-57.24l-21.24-56.88h-99.72L3045.21 504Zm70.2-196.92-33.48 94.32h68.04l-33.48-94.32h-1.08ZM3329.73 504h-53.28V252h47.88l122.76 162h1.44V252h52.92v252h-47.52l-123.12-162.36h-1.08V504Zm285.69 0h-53.28V252h47.88l122.76 162h1.44V252h52.92v252h-47.52L3616.5 341.64h-1.08V504Zm228.38 1c-6.73 0-12.9-1.6-18.5-4.8-5.6-3.2-10.03-7.533-13.3-13-3.2-5.533-4.8-11.6-4.8-18.2s1.6-12.633 4.8-18.1c3.27-5.533 7.7-9.9 13.3-13.1 5.6-3.2 11.77-4.8 18.5-4.8 6.8 0 13 1.6 18.6 4.8 5.6 3.2 10 7.567 13.2 13.1 3.27 5.467 4.9 11.5 4.9 18.1 0 6.6-1.63 12.667-4.9 18.2-3.2 5.467-7.6 9.8-13.2 13-5.6 3.2-11.8 4.8-18.6 4.8Zm0-6.2c5.47 0 10.47-1.3 15-3.9 4.6-2.667 8.23-6.267 10.9-10.8 2.67-4.6 4-9.633 4-15.1 0-5.467-1.33-10.467-4-15-2.67-4.6-6.3-8.2-10.9-10.8-4.53-2.667-9.53-4-15-4-5.47 0-10.47 1.333-15 4-4.53 2.6-8.13 6.2-10.8 10.8-2.67 4.533-4 9.533-4 15 0 5.467 1.33 10.5 4 15.1 2.67 4.533 6.27 8.133 10.8 10.8 4.53 2.6 9.53 3.9 15 3.9Zm-12.6-11.3v-37h14.3c3.67 0 6.7 1.133 9.1 3.4 2.47 2.267 3.7 5.033 3.7 8.3 0 2.533-.73 4.667-2.2 6.4-1.4 1.733-3 2.933-4.8 3.6l8.5 15.3h-7l-7.3-13.7h-7.8v13.7h-6.5Zm14.3-19.8c2.07 0 3.63-.5 4.7-1.5 1.07-1 1.6-2.333 1.6-4 0-1.733-.53-3.067-1.6-4-1.07-1-2.63-1.5-4.7-1.5h-7.8v11h7.8ZM2783.75 846.9c-18.54 0-35.46-4.32-50.76-12.96-15.3-8.64-27.36-20.34-36.18-35.1-8.64-14.94-12.96-31.32-12.96-49.14s4.32-34.11 12.96-48.87c8.82-14.94 20.88-26.73 36.18-35.37 15.3-8.64 32.22-12.96 50.76-12.96 17.1 0 32.22 3.6 45.36 10.8 13.32 7.2 23.85 15.66 31.59 25.38l-20.79 17.01c-6.66-7.56-14.49-13.77-23.49-18.63-8.82-5.04-19.71-7.56-32.67-7.56-12.78 0-24.57 3.15-35.37 9.45-10.8 6.12-19.35 14.58-25.65 25.38-6.12 10.8-9.18 22.59-9.18 35.37 0 12.78 3.06 24.57 9.18 35.37 6.3 10.8 14.85 19.35 25.65 25.65 10.8 6.12 22.59 9.18 35.37 9.18 11.16 0 21.33-2.07 30.51-6.21 9.36-4.14 16.29-8.82 20.79-14.04v-29.7h-40.5V744.3h70.2v66.15c-4.5 5.76-10.8 11.43-18.9 17.01-7.92 5.58-17.28 10.26-28.08 14.04-10.62 3.6-21.96 5.4-34.02 5.4Zm270.71-2.7h-33.75l-39.15-70.2h-44.55v70.2h-29.7v-189h78.3c11.88 0 22.5 2.61 31.86 7.83 9.54 5.22 16.92 12.33 22.14 21.33 5.4 9 8.1 19.08 8.1 30.24 0 12.24-3.24 23.22-9.72 32.94-6.48 9.72-15.21 16.92-26.19 21.6l42.66 75.06Zm-117.45-162V747h48.6c9.54 0 17.28-3.06 23.22-9.18 6.12-6.12 9.18-13.86 9.18-23.22 0-9.54-3.06-17.28-9.18-23.22-5.94-6.12-13.68-9.18-23.22-9.18h-48.6Zm232.98 164.7c-15.48 0-29.25-3.33-41.31-9.99-12.06-6.66-21.51-15.93-28.35-27.81-6.66-11.88-9.99-25.38-9.99-40.5V655.2h29.7v113.4c0 9.72 2.16 18.54 6.48 26.46 4.5 7.74 10.53 13.86 18.09 18.36 7.56 4.32 16.02 6.48 25.38 6.48 8.82 0 17.01-2.25 24.57-6.75 7.74-4.68 13.86-10.98 18.36-18.9 4.68-7.92 7.02-16.47 7.02-25.65V655.2h29.7v113.4c0 15.12-3.42 28.62-10.26 40.5-6.66 11.88-16.02 21.15-28.08 27.81-12.06 6.66-25.83 9.99-41.31 9.99Zm128.83-2.7v-189h75.6c11.88 0 22.68 2.7 32.4 8.1 9.72 5.4 17.28 12.78 22.68 22.14 5.58 9.18 8.37 19.35 8.37 30.51s-2.79 21.42-8.37 30.78c-5.4 9.18-12.96 16.47-22.68 21.87-9.72 5.4-20.52 8.1-32.4 8.1h-45.9v67.5h-29.7Zm75.6-94.5c9.54 0 17.55-3.24 24.03-9.72 6.48-6.66 9.72-14.67 9.72-24.03 0-9.54-3.24-17.55-9.72-24.03s-14.49-9.72-24.03-9.72h-45.9v67.5h45.9Zm98 94.5v-189h75.6c11.88 0 22.68 2.7 32.4 8.1 9.72 5.4 17.28 12.78 22.68 22.14 5.58 9.18 8.37 19.35 8.37 30.51s-2.79 21.42-8.37 30.78c-5.4 9.18-12.96 16.47-22.68 21.87-9.72 5.4-20.52 8.1-32.4 8.1h-45.9v67.5h-29.7Zm75.6-94.5c9.54 0 17.55-3.24 24.03-9.72 6.48-6.66 9.72-14.67 9.72-24.03 0-9.54-3.24-17.55-9.72-24.03s-14.49-9.72-24.03-9.72h-45.9v67.5h45.9Zm234.36 94.5h-136.35v-189h133.65v27h-103.95v50.49h82.35v27h-82.35v57.51h106.65v27Z"/>
</svg>
