<svg xmlns="http://www.w3.org/2000/svg" width="6828" height="756" fill="none" viewBox="0 0 6828 756">
  <path fill="#fff" d="M432 351h38.492l70.559-99h61.387L516.33 371.88 608.459 504h-66.204l-70.649-102.6H432V504h-54V252h54v99Zm356.033 158.4c-25.68 0-48.96-5.88-69.84-17.64-20.88-11.76-37.32-27.6-49.32-47.52-11.76-20.16-17.64-42.24-17.64-66.24 0-24 5.88-46.08 17.64-66.24 12-20.16 28.44-36 49.32-47.52 20.88-11.76 44.16-17.64 69.84-17.64 25.68 0 48.84 5.88 69.48 17.64 20.88 11.52 37.32 27.36 49.32 47.52 12 20.16 18 42.24 18 66.24 0 24-6 46.08-18 66.24-12 19.92-28.44 35.76-49.32 47.52-20.88 11.76-44.04 17.64-69.48 17.64Zm0-49.68c15.12 0 28.92-3.6 41.4-10.8 12.48-7.2 22.32-17.04 29.52-29.52 7.2-12.48 10.8-26.28 10.8-41.4 0-15.12-3.6-28.92-10.8-41.4-7.2-12.48-17.04-22.32-29.52-29.52-12.48-7.44-26.28-11.16-41.4-11.16-15.12 0-29.04 3.6-41.76 10.8-12.48 7.2-22.32 17.16-29.52 29.88-7.2 12.48-10.8 26.28-10.8 41.4 0 15.12 3.6 28.92 10.8 41.4 7.44 12.48 17.4 22.32 29.88 29.52 12.48 7.2 26.28 10.8 41.4 10.8ZM1222.4 504h-58.68l-46.44-86.4h-48.96V504h-54V252h111.6c16.8 0 31.8 3.6 45 10.8 13.44 7.2 23.88 17.16 31.32 29.88 7.44 12.48 11.16 26.52 11.16 42.12 0 16.08-4.08 30.6-12.24 43.56-7.92 12.96-18.84 22.92-32.76 29.88l54 95.76Zm-154.08-203.4V369h55.8c10.32 0 18.72-3.24 25.2-9.72 6.72-6.48 10.08-14.64 10.08-24.48s-3.36-18-10.08-24.48c-6.48-6.48-14.88-9.72-25.2-9.72h-55.8ZM1404.76 504h-54V302.4h-73.08V252h199.8v50.4h-72.72V504Zm341.22 0h-189V252h185.4v48.6h-131.4v51.12h102.6v46.8h-102.6v56.88h135V504Zm323.98 0h-54V252h54v99h108v-99h54v252h-54V401.4h-108V504Zm388.58 5.4c-25.68 0-48.96-5.88-69.84-17.64-20.88-11.76-37.32-27.6-49.32-47.52-11.76-20.16-17.64-42.24-17.64-66.24 0-24 5.88-46.08 17.64-66.24 12-20.16 28.44-36 49.32-47.52 20.88-11.76 44.16-17.64 69.84-17.64 25.68 0 48.84 5.88 69.48 17.64 20.88 11.52 37.32 27.36 49.32 47.52 12 20.16 18 42.24 18 66.24 0 24-6 46.08-18 66.24-12 19.92-28.44 35.76-49.32 47.52-20.88 11.76-44.04 17.64-69.48 17.64Zm0-49.68c15.12 0 28.92-3.6 41.4-10.8 12.48-7.2 22.32-17.04 29.52-29.52 7.2-12.48 10.8-26.28 10.8-41.4 0-15.12-3.6-28.92-10.8-41.4-7.2-12.48-17.04-22.32-29.52-29.52-12.48-7.44-26.28-11.16-41.4-11.16-15.12 0-29.04 3.6-41.76 10.8-12.48 7.2-22.32 17.16-29.52 29.88-7.2 12.48-10.8 26.28-10.8 41.4 0 15.12 3.6 28.92 10.8 41.4 7.44 12.48 17.4 22.32 29.88 29.52 12.48 7.2 26.28 10.8 41.4 10.8ZM2738.83 504h-54V252h183.6v51.12h-129.6v57.6h100.8v49.68h-100.8V504Zm266.76 0h-54V252h183.6v51.12h-129.6v57.6h100.8v49.68h-100.8V504Zm266.4 0h-53.64V252h69.84l83.16 182.16h1.08l82.8-182.16h67.32v252h-53.28V332.64h-1.44L3387.91 504h-34.92l-79.56-171.36h-1.44V504Zm383.22 0h-56.52l97.92-252h60.12l97.56 252h-57.24l-21.24-56.88h-99.72L3655.21 504Zm70.2-196.92-33.48 94.32h68.04l-33.48-94.32h-1.08ZM3983.73 504h-53.28V252h47.88l122.76 162h1.44V252h52.92v252h-47.52l-123.12-162.36h-1.08V504Zm329.69 0h-53.28V252h47.88l122.76 162h1.44V252h52.92v252h-47.52L4314.5 341.64h-1.08V504Zm561.58 3.6c-24.72 0-47.28-5.76-67.68-17.28-20.4-11.52-36.48-27.12-48.24-46.8-11.52-19.92-17.28-41.76-17.28-65.52 0-23.76 5.76-45.48 17.28-65.16 11.76-19.92 27.84-35.64 48.24-47.16 20.4-11.52 42.96-17.28 67.68-17.28 22.8 0 42.96 4.8 60.48 14.4 17.76 9.6 31.8 20.88 42.12 33.84l-27.72 22.68c-8.88-10.08-19.32-18.36-31.32-24.84-11.76-6.72-26.28-10.08-43.56-10.08-17.04 0-32.76 4.2-47.16 12.6-14.4 8.16-25.8 19.44-34.2 33.84-8.16 14.4-12.24 30.12-12.24 47.16 0 17.04 4.08 32.76 12.24 47.16 8.4 14.4 19.8 25.8 34.2 34.2 14.4 8.16 30.12 12.24 47.16 12.24 14.88 0 28.44-2.76 40.68-8.28 12.48-5.52 21.72-11.76 27.72-18.72V405h-54v-34.2h93.6V459c-6 7.68-14.4 15.24-25.2 22.68-10.56 7.44-23.04 13.68-37.44 18.72-14.16 4.8-29.28 7.2-45.36 7.2Zm407.61-3.6h-45l-52.2-93.6h-59.4V504h-39.6V252h104.4c15.84 0 30 3.48 42.48 10.44 12.72 6.96 22.56 16.44 29.52 28.44 7.2 12 10.8 25.44 10.8 40.32 0 16.32-4.32 30.96-12.96 43.92s-20.28 22.56-34.92 28.8L5282.61 504Zm-156.6-216v86.4h64.8c12.72 0 23.04-4.08 30.96-12.24 8.16-8.16 12.24-18.48 12.24-30.96 0-12.72-4.08-23.04-12.24-30.96-7.92-8.16-18.24-12.24-30.96-12.24h-64.8Zm357.32 219.6c-20.64 0-39-4.44-55.08-13.32-16.08-8.88-28.68-21.24-37.8-37.08-8.88-15.84-13.32-33.84-13.32-54V252h39.6v151.2c0 12.96 2.88 24.72 8.64 35.28 6 10.32 14.04 18.48 24.12 24.48 10.08 5.76 21.36 8.64 33.84 8.64 11.76 0 22.68-3 32.76-9 10.32-6.24 18.48-14.64 24.48-25.2 6.24-10.56 9.36-21.96 9.36-34.2V252h39.6v151.2c0 20.16-4.56 38.16-13.68 54-8.88 15.84-21.36 28.2-37.44 37.08-16.08 8.88-34.44 13.32-55.08 13.32Zm218.43-3.6V252h100.8c15.84 0 30.24 3.6 43.2 10.8 12.96 7.2 23.04 17.04 30.24 29.52 7.44 12.24 11.16 25.8 11.16 40.68 0 14.88-3.72 28.56-11.16 41.04-7.2 12.24-17.28 21.96-30.24 29.16-12.96 7.2-27.36 10.8-43.2 10.8h-61.2v90h-39.6Zm100.8-126c12.72 0 23.4-4.32 32.04-12.96 8.64-8.88 12.96-19.56 12.96-32.04 0-12.72-4.32-23.4-12.96-32.04S5815.28 288 5802.56 288h-61.2v90h61.2Zm177.34 126V252h100.8c15.84 0 30.24 3.6 43.2 10.8 12.96 7.2 23.04 17.04 30.24 29.52 7.44 12.24 11.16 25.8 11.16 40.68 0 14.88-3.72 28.56-11.16 41.04-7.2 12.24-17.28 21.96-30.24 29.16-12.96 7.2-27.36 10.8-43.2 10.8h-61.2v90h-39.6Zm100.8-126c12.72 0 23.4-4.32 32.04-12.96 8.64-8.88 12.96-19.56 12.96-32.04 0-12.72-4.32-23.4-12.96-32.04S6093.42 288 6080.7 288h-61.2v90h61.2Zm359.14 126h-181.8V252h178.2v36h-138.6v67.32h109.8v36h-109.8V468h142.2v36Z"/>
</svg>
