<svg xmlns="http://www.w3.org/2000/svg" width="4040" height="1097" fill="none" viewBox="0 0 4040 1097">
  <path fill="#fff" d="M306 351h38.492l70.559-99h61.387L390.33 371.88 482.459 504h-66.204l-70.649-102.6H306V504h-54V252h54v99Zm312.033 158.4c-25.68 0-48.96-5.88-69.84-17.64-20.88-11.76-37.32-27.6-49.32-47.52-11.76-20.16-17.64-42.24-17.64-66.24 0-24 5.88-46.08 17.64-66.24 12-20.16 28.44-36 49.32-47.52 20.88-11.76 44.16-17.64 69.84-17.64 25.68 0 48.84 5.88 69.48 17.64 20.88 11.52 37.32 27.36 49.32 47.52 12 20.16 18 42.24 18 66.24 0 24-6 46.08-18 66.24-12 19.92-28.44 35.76-49.32 47.52-20.88 11.76-44.04 17.64-69.48 17.64Zm0-49.68c15.12 0 28.92-3.6 41.4-10.8 12.48-7.2 22.32-17.04 29.52-29.52 7.2-12.48 10.8-26.28 10.8-41.4 0-15.12-3.6-28.92-10.8-41.4-7.2-12.48-17.04-22.32-29.52-29.52-12.48-7.44-26.28-11.16-41.4-11.16-15.12 0-29.04 3.6-41.76 10.8-12.48 7.2-22.32 17.16-29.52 29.88-7.2 12.48-10.8 26.28-10.8 41.4 0 15.12 3.6 28.92 10.8 41.4 7.44 12.48 17.4 22.32 29.88 29.52 12.48 7.2 26.28 10.8 41.4 10.8ZM1008.4 504h-58.678l-46.44-86.4h-48.96V504h-54V252h111.6c16.8 0 31.8 3.6 45 10.8 13.44 7.2 23.88 17.16 31.32 29.88 7.44 12.48 11.16 26.52 11.16 42.12 0 16.08-4.08 30.6-12.24 43.56-7.92 12.96-18.84 22.92-32.76 29.88L1008.4 504ZM854.322 300.6V369h55.8c10.32 0 18.72-3.24 25.2-9.72 6.72-6.48 10.08-14.64 10.08-24.48s-3.36-18-10.08-24.48c-6.48-6.48-14.88-9.72-25.2-9.72h-55.8ZM1146.76 504h-54V302.4h-73.08V252h199.8v50.4h-72.72V504Zm297.22 0h-189V252h185.4v48.6h-131.4v51.12h102.6v46.8h-102.6v56.88h135V504Zm235.98 0h-54V252h54v99h108v-99h54v252h-54V401.4h-108V504Zm344.58 5.4c-25.68 0-48.96-5.88-69.84-17.64-20.88-11.76-37.32-27.6-49.32-47.52-11.76-20.16-17.64-42.24-17.64-66.24 0-24 5.88-46.08 17.64-66.24 12-20.16 28.44-36 49.32-47.52 20.88-11.76 44.16-17.64 69.84-17.64 25.68 0 48.84 5.88 69.48 17.64 20.88 11.52 37.32 27.36 49.32 47.52 12 20.16 18 42.24 18 66.24 0 24-6 46.08-18 66.24-12 19.92-28.44 35.76-49.32 47.52-20.88 11.76-44.04 17.64-69.48 17.64Zm0-49.68c15.12 0 28.92-3.6 41.4-10.8 12.48-7.2 22.32-17.04 29.52-29.52 7.2-12.48 10.8-26.28 10.8-41.4 0-15.12-3.6-28.92-10.8-41.4-7.2-12.48-17.04-22.32-29.52-29.52-12.48-7.44-26.28-11.16-41.4-11.16-15.12 0-29.04 3.6-41.76 10.8-12.48 7.2-22.32 17.16-29.52 29.88-7.2 12.48-10.8 26.28-10.8 41.4 0 15.12 3.6 28.92 10.8 41.4 7.44 12.48 17.4 22.32 29.88 29.52 12.48 7.2 26.28 10.8 41.4 10.8ZM2260.83 504h-54V252h183.6v51.12h-129.6v57.6h100.8v49.68h-100.8V504Zm222.76 0h-54V252h183.6v51.12h-129.6v57.6h100.8v49.68h-100.8V504Zm222.4 0h-53.64V252h69.84l83.16 182.16h1.08l82.8-182.16h67.32v252h-53.28V332.64h-1.44L2821.91 504h-34.92l-79.56-171.36h-1.44V504Zm339.22 0h-56.52l97.92-252h60.12l97.56 252h-57.24l-21.24-56.88h-99.72L3045.21 504Zm70.2-196.92-33.48 94.32h68.04l-33.48-94.32h-1.08ZM3329.73 504h-53.28V252h47.88l122.76 162h1.44V252h52.92v252h-47.52l-123.12-162.36h-1.08V504Zm285.69 0h-53.28V252h47.88l122.76 162h1.44V252h52.92v252h-47.52L3616.5 341.64h-1.08V504Z"/>
  <path fill="#736A6A" d="M832.56 844.2h-30.51l75.6-189h32.4l75.6 189h-31.59l-18.9-48.6h-83.7l-18.9 48.6Zm60.48-154.71-30.78 79.11h62.1l-30.78-79.11h-.54Zm113.55 154.71V714.6h27v17.01h.54c3.42-5.04 8.55-9.54 15.39-13.5 7.02-4.14 14.76-6.21 23.22-6.21h6.75v28.35c-4.14-.9-7.74-1.35-10.8-1.35-6.3 0-12.15 1.71-17.55 5.13-5.4 3.24-9.72 7.92-12.96 14.04-3.06 5.94-4.59 12.6-4.59 19.98v66.15h-27Zm152.06 2.7c-12.42 0-23.85-2.97-34.29-8.91-10.26-5.94-18.36-14.04-24.3-24.3-5.94-10.44-8.91-21.87-8.91-34.29 0-12.42 2.97-23.76 8.91-34.02 5.94-10.44 14.04-18.63 24.3-24.57 10.44-5.94 21.87-8.91 34.29-8.91 12.24 0 23.04 2.61 32.4 7.83 9.36 5.04 16.83 11.07 22.41 18.09l-19.44 16.47c-10.08-11.16-21.87-16.74-35.37-16.74-7.56 0-14.49 1.8-20.79 5.4-6.12 3.6-10.98 8.64-14.58 15.12-3.42 6.3-5.13 13.41-5.13 21.33 0 7.92 1.71 15.12 5.13 21.6 3.6 6.3 8.46 11.25 14.58 14.85 6.3 3.6 13.23 5.4 20.79 5.4 7.74 0 14.67-1.62 20.79-4.86 6.3-3.42 11.61-7.65 15.93-12.69l19.44 16.47c-5.76 7.2-13.5 13.5-23.22 18.9-9.72 5.22-20.7 7.83-32.94 7.83Zm81.28-2.7v-189h27v77.76h.27c3.42-5.4 8.73-10.26 15.93-14.58 7.38-4.32 15.48-6.48 24.3-6.48 9.9 0 18.72 2.34 26.46 7.02 7.74 4.5 13.77 11.07 18.09 19.71 4.5 8.46 6.75 18.45 6.75 29.97v75.6h-27v-75.6c0-9.36-2.79-16.83-8.37-22.41-5.4-5.76-12.51-8.64-21.33-8.64-10.26 0-18.72 3.42-25.38 10.26-6.48 6.66-9.72 15.39-9.72 26.19v70.2h-27Zm181.62 0h-27V714.6h27v129.6Zm-13.5-153.9c-4.14 0-7.92-1.53-11.34-4.59-3.24-3.24-4.86-7.11-4.86-11.61 0-4.5 1.62-8.28 4.86-11.34 3.42-3.24 7.2-4.86 11.34-4.86s7.83 1.62 11.07 4.86c3.42 3.06 5.13 6.84 5.13 11.34s-1.71 8.37-5.13 11.61c-3.24 3.06-6.93 4.59-11.07 4.59Zm103.3 155.25c-12.96 0-22.95-3.69-29.97-11.07-7.02-7.38-10.53-18.09-10.53-32.13v-62.1h-24.3V714.6h14.85c4.14 0 7.2-1.17 9.18-3.51 1.98-2.34 2.97-6.12 2.97-11.34V671.4h24.3v43.2h31.05v25.65h-31.05v59.4c0 6.66 1.62 11.7 4.86 15.12s7.92 5.13 14.04 5.13c5.04 0 9.99-1.35 14.85-4.05v25.65c-2.16 1.08-5.13 1.98-8.91 2.7-3.6.9-7.38 1.35-11.34 1.35Zm104.68 1.35c-12.42 0-23.85-2.97-34.29-8.91-10.26-5.94-18.36-14.04-24.3-24.3-5.94-10.44-8.91-21.87-8.91-34.29 0-12.42 2.97-23.76 8.91-34.02 5.94-10.26 13.95-18.36 24.03-24.3 10.08-6.12 21.15-9.18 33.21-9.18 12.06 0 22.86 2.79 32.4 8.37 9.72 5.4 17.28 12.96 22.68 22.68 5.58 9.54 8.37 20.34 8.37 32.4 0 4.86-.45 9.36-1.35 13.5h-99.9c1.44 9 5.94 16.65 13.5 22.95 7.56 6.3 16.56 9.45 27 9.45 13.14 0 25.29-5.22 36.45-15.66l17.55 17.28c-5.04 6.3-12.42 11.88-22.14 16.74-9.54 4.86-20.61 7.29-33.21 7.29Zm34.02-79.65c-1.98-9.54-6.03-17.1-12.15-22.68-6.12-5.58-13.86-8.37-23.22-8.37-10.08 0-18.36 2.79-24.84 8.37-6.3 5.58-10.8 13.14-13.5 22.68h73.71Zm82.69 76.95h-27v-189h27V774l55.35-59.4h33.75l-49.95 52.65 54 76.95h-31.05l-40.5-58.05-21.6 22.95v35.1Zm160.2 1.35c-12.96 0-22.95-3.69-29.97-11.07-7.02-7.38-10.53-18.09-10.53-32.13v-62.1h-24.3V714.6h14.85c4.14 0 7.2-1.17 9.18-3.51 1.98-2.34 2.97-6.12 2.97-11.34V671.4h24.3v43.2h31.05v25.65h-31.05v59.4c0 6.66 1.62 11.7 4.86 15.12s7.92 5.13 14.04 5.13c5.04 0 9.99-1.35 14.85-4.05v25.65c-2.16 1.08-5.13 1.98-8.91 2.7-3.6.9-7.38 1.35-11.34 1.35Zm104.69 1.35c-12.42 0-23.85-2.97-34.29-8.91-10.26-5.94-18.36-14.04-24.3-24.3-5.94-10.44-8.91-21.87-8.91-34.29 0-12.42 2.97-23.76 8.91-34.02 5.94-10.26 13.95-18.36 24.03-24.3 10.08-6.12 21.15-9.18 33.21-9.18 12.06 0 22.86 2.79 32.4 8.37 9.72 5.4 17.28 12.96 22.68 22.68 5.58 9.54 8.37 20.34 8.37 32.4 0 4.86-.45 9.36-1.35 13.5h-99.9c1.44 9 5.94 16.65 13.5 22.95 7.56 6.3 16.56 9.45 27 9.45 13.14 0 25.29-5.22 36.45-15.66l17.55 17.28c-5.04 6.3-12.42 11.88-22.14 16.74-9.54 4.86-20.61 7.29-33.21 7.29Zm34.02-79.65c-1.98-9.54-6.03-17.1-12.15-22.68-6.12-5.58-13.86-8.37-23.22-8.37-10.08 0-18.36 2.79-24.84 8.37-6.3 5.58-10.8 13.14-13.5 22.68h73.71Zm54.34 76.95V714.6h27v18.36h.27c3.42-5.4 8.73-10.26 15.93-14.58 7.38-4.32 15.48-6.48 24.3-6.48 9.9 0 18.72 2.34 26.46 7.02 7.74 4.5 13.77 11.07 18.09 19.71 4.5 8.46 6.75 18.45 6.75 29.97v75.6h-27v-75.6c0-9.36-2.79-16.83-8.37-22.41-5.4-5.76-12.51-8.64-21.33-8.64-10.26 0-18.72 3.42-25.38 10.26-6.48 6.66-9.72 15.39-9.72 26.19v70.2h-27Zm284.54-18.9h-22.95v-48.6h-48.6v-24.3h48.6v-48.6h22.95v48.6h48.6v24.3h-48.6v48.6Zm181.64 18.9h-29.7v-189h29.7v189Zm43.78 0V714.6h27v18.36h.27c3.42-5.4 8.73-10.26 15.93-14.58 7.38-4.32 15.48-6.48 24.3-6.48 9.9 0 18.72 2.34 26.46 7.02 7.74 4.5 13.77 11.07 18.09 19.71 4.5 8.46 6.75 18.45 6.75 29.97v75.6h-27v-75.6c0-9.36-2.79-16.83-8.37-22.41-5.4-5.76-12.51-8.64-21.33-8.64-10.26 0-18.72 3.42-25.38 10.26-6.48 6.66-9.72 15.39-9.72 26.19v70.2h-27Zm205.96 56.7c-12.24 0-23.58-2.79-34.02-8.37-10.44-5.58-18-11.79-22.68-18.63l18.9-17.55c3.42 4.68 8.64 9 15.66 12.96 7.02 3.96 14.4 5.94 22.14 5.94 12.06 0 21.6-3.78 28.62-11.34 7.02-7.56 10.53-17.73 10.53-30.51v-11.61h-.27c-3.6 5.04-9.18 9.63-16.74 13.77-7.38 3.96-15.66 5.94-24.84 5.94-10.26 0-19.89-2.79-28.89-8.37-8.82-5.58-15.93-13.32-21.33-23.22-5.22-9.9-7.83-20.97-7.83-33.21 0-12.24 2.61-23.31 7.83-33.21 5.4-9.9 12.51-17.64 21.33-23.22 9-5.58 18.63-8.37 28.89-8.37 9.18 0 17.46 2.07 24.84 6.21 7.56 3.96 13.14 8.46 16.74 13.5h.27V714.6h27v118.8c0 12.96-2.79 24.57-8.37 34.83-5.58 10.26-13.41 18.27-23.49 24.03-10.08 5.76-21.51 8.64-34.29 8.64Zm2.7-85.05c6.66 0 12.78-1.62 18.36-4.86 5.58-3.42 9.99-8.1 13.23-14.04 3.24-5.94 4.86-12.69 4.86-20.25 0-7.56-1.62-14.31-4.86-20.25-3.24-5.94-7.65-10.53-13.23-13.77-5.58-3.42-11.7-5.13-18.36-5.13s-12.78 1.71-18.36 5.13c-5.58 3.24-9.99 7.83-13.23 13.77-3.24 5.94-4.86 12.69-4.86 20.25 0 7.56 1.62 14.31 4.86 20.25 3.24 5.94 7.65 10.62 13.23 14.04 5.58 3.24 11.7 4.86 18.36 4.86Zm158.67 31.05c-12.42 0-23.85-2.97-34.29-8.91-10.26-5.94-18.36-14.04-24.3-24.3-5.94-10.44-8.91-21.87-8.91-34.29 0-12.42 2.97-23.76 8.91-34.02 5.94-10.26 13.95-18.36 24.03-24.3 10.08-6.12 21.15-9.18 33.21-9.18 12.06 0 22.86 2.79 32.4 8.37 9.72 5.4 17.28 12.96 22.68 22.68 5.58 9.54 8.37 20.34 8.37 32.4 0 4.86-.45 9.36-1.35 13.5h-99.9c1.44 9 5.94 16.65 13.5 22.95 7.56 6.3 16.56 9.45 27 9.45 13.14 0 25.29-5.22 36.45-15.66l17.55 17.28c-5.04 6.3-12.42 11.88-22.14 16.74-9.54 4.86-20.61 7.29-33.21 7.29Zm34.02-79.65c-1.98-9.54-6.03-17.1-12.15-22.68-6.12-5.58-13.86-8.37-23.22-8.37-10.08 0-18.36 2.79-24.84 8.37-6.3 5.58-10.8 13.14-13.5 22.68h73.71Zm54.34 76.95V714.6h27v18.36h.27c3.42-5.4 8.73-10.26 15.93-14.58 7.38-4.32 15.48-6.48 24.3-6.48 9.9 0 18.72 2.34 26.46 7.02 7.74 4.5 13.77 11.07 18.09 19.71 4.5 8.46 6.75 18.45 6.75 29.97v75.6h-27v-75.6c0-9.36-2.79-16.83-8.37-22.41-5.4-5.76-12.51-8.64-21.33-8.64-10.26 0-18.72 3.42-25.38 10.26-6.48 6.66-9.72 15.39-9.72 26.19v70.2h-27Zm181.65 0h-27V714.6h27v129.6Zm-13.5-153.9c-4.14 0-7.92-1.53-11.34-4.59-3.24-3.24-4.86-7.11-4.86-11.61 0-4.5 1.62-8.28 4.86-11.34 3.42-3.24 7.2-4.86 11.34-4.86s7.83 1.62 11.07 4.86c3.42 3.06 5.13 6.84 5.13 11.34s-1.71 8.37-5.13 11.61c-3.24 3.06-6.93 4.59-11.07 4.59Zm110.05 156.6c-12.42 0-23.85-2.97-34.29-8.91-10.26-5.94-18.36-14.04-24.3-24.3-5.94-10.44-8.91-21.87-8.91-34.29 0-12.42 2.97-23.76 8.91-34.02 5.94-10.26 13.95-18.36 24.03-24.3 10.08-6.12 21.15-9.18 33.21-9.18 12.06 0 22.86 2.79 32.4 8.37 9.72 5.4 17.28 12.96 22.68 22.68 5.58 9.54 8.37 20.34 8.37 32.4 0 4.86-.45 9.36-1.35 13.5h-99.9c1.44 9 5.94 16.65 13.5 22.95 7.56 6.3 16.56 9.45 27 9.45 13.14 0 25.29-5.22 36.45-15.66l17.55 17.28c-5.04 6.3-12.42 11.88-22.14 16.74-9.54 4.86-20.61 7.29-33.21 7.29Zm34.02-79.65c-1.98-9.54-6.03-17.1-12.15-22.68-6.12-5.58-13.86-8.37-23.22-8.37-10.08 0-18.36 2.79-24.84 8.37-6.3 5.58-10.8 13.14-13.5 22.68h73.71Zm104.3 79.65c-9.9 0-18.72-2.25-26.46-6.75-7.74-4.68-13.86-11.25-18.36-19.71-4.32-8.64-6.48-18.72-6.48-30.24v-75.6h27v75.6c0 9.36 2.7 16.92 8.1 22.68 5.58 5.58 12.78 8.37 21.6 8.37 10.26 0 18.63-3.33 25.11-9.99 6.66-6.84 9.99-15.66 9.99-26.46v-70.2h27v129.6h-27v-18.36h-.27c-3.42 5.4-8.82 10.26-16.2 14.58-7.2 4.32-15.21 6.48-24.03 6.48Zm103.35-2.7V714.6h27v17.01h.54c3.42-5.04 8.55-9.54 15.39-13.5 7.02-4.14 14.76-6.21 23.22-6.21h6.75v28.35c-4.14-.9-7.74-1.35-10.8-1.35-6.3 0-12.15 1.71-17.55 5.13-5.4 3.24-9.72 7.92-12.96 14.04-3.06 5.94-4.59 12.6-4.59 19.98v66.15h-27Zm152.06 2.7c-12.42 0-23.85-2.97-34.29-8.91-10.26-5.94-18.36-14.04-24.3-24.3-5.94-10.44-8.91-21.87-8.91-34.29 0-12.42 2.97-23.76 8.91-34.02 5.94-10.26 13.95-18.36 24.03-24.3 10.08-6.12 21.15-9.18 33.21-9.18 12.06 0 22.86 2.79 32.4 8.37 9.72 5.4 17.28 12.96 22.68 22.68 5.58 9.54 8.37 20.34 8.37 32.4 0 4.86-.45 9.36-1.35 13.5h-99.9c1.44 9 5.94 16.65 13.5 22.95 7.56 6.3 16.56 9.45 27 9.45 13.14 0 25.29-5.22 36.45-15.66l17.55 17.28c-5.04 6.3-12.42 11.88-22.14 16.74-9.54 4.86-20.61 7.29-33.21 7.29Zm34.02-79.65c-1.98-9.54-6.03-17.1-12.15-22.68-6.12-5.58-13.86-8.37-23.22-8.37-10.08 0-18.36 2.79-24.84 8.37-6.3 5.58-10.8 13.14-13.5 22.68h73.71Z"/>
</svg>
