<svg xmlns="http://www.w3.org/2000/svg" width="3936" height="1097" fill="none" viewBox="0 0 3936 1097">
  <path fill="#000" d="M306 351h38.492l70.559-99h61.387L390.33 371.88 482.459 504h-66.204l-70.649-102.6H306V504h-54V252h54v99Z"/>
  <path fill="#000" d="M610.033 509.4c-25.68 0-48.96-5.88-69.84-17.64-20.88-11.76-37.32-27.6-49.32-47.52-11.76-20.16-17.64-42.24-17.64-66.24 0-24 5.88-46.08 17.64-66.24 12-20.16 28.44-36 49.32-47.52 20.88-11.76 44.16-17.64 69.84-17.64 25.68 0 48.84 5.88 69.48 17.64 20.88 11.52 37.32 27.36 49.32 47.52 12 20.16 18 42.24 18 66.24 0 24-6 46.08-18 66.24-12 19.92-28.44 35.76-49.32 47.52-20.88 11.76-44.04 17.64-69.48 17.64Zm0-49.68c15.12 0 28.92-3.6 41.4-10.8 12.48-7.2 22.32-17.04 29.52-29.52 7.2-12.48 10.8-26.28 10.8-41.4 0-15.12-3.6-28.92-10.8-41.4-7.2-12.48-17.04-22.32-29.52-29.52-12.48-7.44-26.28-11.16-41.4-11.16-15.12 0-29.04 3.6-41.76 10.8-12.48 7.2-22.32 17.16-29.52 29.88-7.2 12.48-10.8 26.28-10.8 41.4 0 15.12 3.6 28.92 10.8 41.4 7.44 12.48 17.4 22.32 29.88 29.52 12.48 7.2 26.28 10.8 41.4 10.8ZM992.402 504h-58.68l-46.44-86.4h-48.96V504h-54V252h111.6c16.8 0 31.8 3.6 45 10.8 13.44 7.2 23.88 17.16 31.32 29.88 7.44 12.48 11.16 26.52 11.16 42.12 0 16.08-4.08 30.6-12.24 43.56-7.92 12.96-18.84 22.92-32.76 29.88l54 95.76Zm-154.08-203.4V369h55.8c10.32 0 18.72-3.24 25.2-9.72 6.72-6.48 10.08-14.64 10.08-24.48s-3.36-18-10.08-24.48c-6.48-6.48-14.88-9.72-25.2-9.72h-55.8ZM1122.76 504h-54V302.4h-73.083V252h199.803v50.4h-72.72V504Zm289.22 0h-189V252h185.4v48.6h-131.4v51.12h102.6v46.8h-102.6v56.88h135V504Zm219.98 0h-54V252h54v99h108v-99h54v252h-54V401.4h-108V504Zm336.58 5.4c-25.68 0-48.96-5.88-69.84-17.64-20.88-11.76-37.32-27.6-49.32-47.52-11.76-20.16-17.64-42.24-17.64-66.24 0-24 5.88-46.08 17.64-66.24 12-20.16 28.44-36 49.32-47.52 20.88-11.76 44.16-17.64 69.84-17.64 25.68 0 48.84 5.88 69.48 17.64 20.88 11.52 37.32 27.36 49.32 47.52 12 20.16 18 42.24 18 66.24 0 24-6 46.08-18 66.24-12 19.92-28.44 35.76-49.32 47.52-20.88 11.76-44.04 17.64-69.48 17.64Zm0-49.68c15.12 0 28.92-3.6 41.4-10.8 12.48-7.2 22.32-17.04 29.52-29.52 7.2-12.48 10.8-26.28 10.8-41.4 0-15.12-3.6-28.92-10.8-41.4-7.2-12.48-17.04-22.32-29.52-29.52-12.48-7.44-26.28-11.16-41.4-11.16-15.12 0-29.04 3.6-41.76 10.8-12.48 7.2-22.32 17.16-29.52 29.88-7.2 12.48-10.8 26.28-10.8 41.4 0 15.12 3.6 28.92 10.8 41.4 7.44 12.48 17.4 22.32 29.88 29.52 12.48 7.2 26.28 10.8 41.4 10.8ZM2196.83 504h-54V252h183.6v51.12h-129.6v57.6h100.8v49.68h-100.8V504Zm214.76 0h-54V252h183.6v51.12h-129.6v57.6h100.8v49.68h-100.8V504Zm214.4 0h-53.64V252h69.84l83.16 182.16h1.08l82.8-182.16h67.32v252h-53.28V332.64h-1.44L2741.91 504h-34.92l-79.56-171.36h-1.44V504Zm331.22 0h-56.52l97.92-252h60.12l97.56 252h-57.24l-21.24-56.88h-99.72L2957.21 504Zm70.2-196.92-33.48 94.32h68.04l-33.48-94.32h-1.08ZM3233.73 504h-53.28V252h47.88l122.76 162h1.44V252h52.92v252h-47.52l-123.12-162.36h-1.08V504Zm277.69 0h-53.28V252h47.88l122.76 162h1.44V252h52.92v252h-47.52L3512.5 341.64h-1.08V504Zm200.48.5c-3.37 0-6.45-.8-9.25-2.4-2.8-1.6-5.02-3.767-6.65-6.5-1.6-2.767-2.4-5.8-2.4-9.1s.8-6.317 2.4-9.05c1.63-2.767 3.85-4.95 6.65-6.55 2.8-1.6 5.88-2.4 9.25-2.4 3.4 0 6.5.8 9.3 2.4 2.8 1.6 5 3.783 6.6 6.55 1.63 2.733 2.45 5.75 2.45 9.05 0 3.3-.82 6.333-2.45 9.1-1.6 2.733-3.8 4.9-6.6 6.5-2.8 1.6-5.9 2.4-9.3 2.4Zm0-3.1c2.73 0 5.23-.65 7.5-1.95 2.3-1.333 4.12-3.133 5.45-5.4 1.33-2.3 2-4.817 2-7.55 0-2.733-.67-5.233-2-7.5-1.33-2.3-3.15-4.1-5.45-5.4-2.27-1.333-4.77-2-7.5-2-2.73 0-5.23.667-7.5 2-2.27 1.3-4.07 3.1-5.4 5.4-1.33 2.267-2 4.767-2 7.5 0 2.733.67 5.25 2 7.55a14.919 14.919 0 0 0 5.4 5.4c2.27 1.3 4.77 1.95 7.5 1.95Zm-6.3-5.65v-18.5h7.15c1.83 0 3.35.567 4.55 1.7 1.23 1.133 1.85 2.517 1.85 4.15 0 1.267-.37 2.333-1.1 3.2-.7.867-1.5 1.467-2.4 1.8l4.25 7.65h-3.5l-3.65-6.85h-3.9v6.85h-3.25Zm7.15-9.9c1.03 0 1.82-.25 2.35-.75s.8-1.167.8-2c0-.867-.27-1.533-.8-2-.53-.5-1.32-.75-2.35-.75h-3.9v5.5h3.9ZM2432.11 844.2h-24.3v-189h24.3v189Zm42.3 0V714.6h22.14v19.17h.27c2.7-5.58 7.38-10.62 14.04-15.12 6.84-4.5 14.76-6.75 23.76-6.75 9.72 0 18.27 2.52 25.65 7.56 7.38 4.86 12.6 10.35 15.66 16.47h.54c2.88-6.12 8.19-11.61 15.93-16.47 7.92-5.04 17.37-7.56 28.35-7.56 8.64 0 16.56 2.34 23.76 7.02 7.38 4.5 13.14 10.98 17.28 19.44 4.32 8.28 6.48 17.91 6.48 28.89v76.95h-21.87v-76.95c0-10.44-2.88-18.72-8.64-24.84-5.76-6.3-12.96-9.45-21.6-9.45-9.72 0-17.82 3.6-24.3 10.8-6.3 7.02-9.45 16.47-9.45 28.35v72.09h-22.14v-76.95c0-10.44-2.88-18.72-8.64-24.84-5.76-6.3-12.87-9.45-21.33-9.45-9.72 0-17.82 3.6-24.3 10.8-6.3 7.02-9.45 16.47-9.45 28.35v72.09h-22.14Zm227.08 0V714.6h22.14v19.17h.27c2.7-5.58 7.38-10.62 14.04-15.12 6.84-4.5 14.76-6.75 23.76-6.75 9.72 0 18.27 2.52 25.65 7.56 7.38 4.86 12.6 10.35 15.66 16.47h.54c2.88-6.12 8.19-11.61 15.93-16.47 7.92-5.04 17.37-7.56 28.35-7.56 8.64 0 16.56 2.34 23.76 7.02 7.38 4.5 13.14 10.98 17.28 19.44 4.32 8.28 6.48 17.91 6.48 28.89v76.95h-21.87v-76.95c0-10.44-2.88-18.72-8.64-24.84-5.76-6.3-12.96-9.45-21.6-9.45-9.72 0-17.82 3.6-24.3 10.8-6.3 7.02-9.45 16.47-9.45 28.35v72.09h-22.14v-76.95c0-10.44-2.88-18.72-8.64-24.84-5.76-6.3-12.87-9.45-21.33-9.45-9.72 0-17.82 3.6-24.3 10.8-6.3 7.02-9.45 16.47-9.45 28.35v72.09h-22.14Zm285.14 2.7c-12.24 0-23.49-2.97-33.75-8.91-10.08-6.12-18.09-14.31-24.03-24.57-5.94-10.26-8.91-21.6-8.91-34.02 0-12.42 2.97-23.76 8.91-34.02 5.94-10.26 13.95-18.36 24.03-24.3 10.26-6.12 21.51-9.18 33.75-9.18 12.24 0 23.4 3.06 33.48 9.18 10.26 5.94 18.36 14.04 24.3 24.3 5.94 10.26 8.91 21.6 8.91 34.02 0 12.42-2.97 23.76-8.91 34.02-5.94 10.26-14.04 18.45-24.3 24.57-10.08 5.94-21.24 8.91-33.48 8.91Zm0-21.06c8.1 0 15.57-1.98 22.41-5.94 6.84-4.14 12.24-9.72 16.2-16.74 3.96-7.2 5.94-15.12 5.94-23.76 0-8.64-1.98-16.47-5.94-23.49-3.96-7.2-9.36-12.78-16.2-16.74-6.84-4.14-14.31-6.21-22.41-6.21s-15.57 2.07-22.41 6.21c-6.84 3.96-12.24 9.54-16.2 16.74-3.96 7.02-5.94 14.85-5.94 23.49 0 8.64 1.98 16.56 5.94 23.76 3.96 7.02 9.36 12.6 16.2 16.74 6.84 3.96 14.31 5.94 22.41 5.94Zm162.23 21.06c-10.44 0-19.89-2.34-28.35-7.02-8.28-4.86-14.13-10.26-17.55-16.2h-.27v20.52h-22.14v-189h22.14v79.92h.27c3.42-5.94 9.27-11.25 17.55-15.93 8.46-4.86 17.91-7.29 28.35-7.29 10.8 0 20.79 2.97 29.97 8.91 9.36 5.76 16.83 13.77 22.41 24.03 5.58 10.26 8.37 21.78 8.37 34.56 0 12.78-2.79 24.3-8.37 34.56-5.58 10.26-13.05 18.36-22.41 24.3-9.18 5.76-19.17 8.64-29.97 8.64Zm-3.51-21.06c7.56 0 14.58-1.98 21.06-5.94 6.48-4.14 11.61-9.72 15.39-16.74 3.96-7.02 5.94-14.94 5.94-23.76 0-8.82-1.98-16.74-5.94-23.76-3.78-7.02-8.91-12.51-15.39-16.47-6.48-4.14-13.5-6.21-21.06-6.21-7.74 0-14.94 1.98-21.6 5.94-6.48 3.96-11.61 9.54-15.39 16.74-3.78 7.02-5.67 14.94-5.67 23.76 0 8.82 1.89 16.83 5.67 24.03 3.78 7.02 8.91 12.51 15.39 16.47 6.66 3.96 13.86 5.94 21.6 5.94Zm113.76 18.36h-22.14V714.6h22.14v129.6Zm-11.07-156.06c-3.78 0-7.11-1.35-9.99-4.05-2.7-2.7-4.05-6.03-4.05-9.99s1.35-7.29 4.05-9.99c2.88-2.7 6.21-4.05 9.99-4.05 3.6 0 6.75 1.35 9.45 4.05 2.88 2.7 4.32 6.03 4.32 9.99s-1.44 7.29-4.32 9.99c-2.7 2.7-5.85 4.05-9.45 4.05Zm70.46 156.06h-22.14v-189h22.14v189Zm59.39 0h-22.14V714.6h22.14v129.6Zm-11.07-156.06c-3.78 0-7.11-1.35-9.99-4.05-2.7-2.7-4.05-6.03-4.05-9.99s1.35-7.29 4.05-9.99c2.88-2.7 6.21-4.05 9.99-4.05 3.6 0 6.75 1.35 9.45 4.05 2.88 2.7 4.32 6.03 4.32 9.99s-1.44 7.29-4.32 9.99c-2.7 2.7-5.85 4.05-9.45 4.05ZM3471.3 846.9c-12.06 0-23.13-2.97-33.21-8.91-10.08-6.12-18.09-14.31-24.03-24.57-5.94-10.26-8.91-21.6-8.91-34.02 0-12.6 2.88-24.03 8.64-34.29 5.94-10.26 13.86-18.36 23.76-24.3 9.9-5.94 20.7-8.91 32.4-8.91 11.52 0 22.05 2.79 31.59 8.37 9.54 5.58 17.01 13.32 22.41 23.22 5.4 9.72 8.1 20.79 8.1 33.21 0 2.88-.27 6.48-.81 10.8H3428.1c1.44 10.8 6.3 19.89 14.58 27.27 8.28 7.38 18.18 11.07 29.7 11.07 14.22 0 26.91-5.94 38.07-17.82l14.85 13.77c-5.22 6.84-12.51 12.78-21.87 17.82-9.18 4.86-19.89 7.29-32.13 7.29Zm38.07-77.76c-1.8-11.34-6.21-20.34-13.23-27-6.84-6.66-15.57-9.99-26.19-9.99-10.98 0-20.25 3.51-27.81 10.53-7.56 6.84-12.33 15.66-14.31 26.46h81.54Zm47.4 75.06V714.6h22.14v19.71h.27c3.6-5.76 9.09-10.89 16.47-15.39 7.38-4.68 15.75-7.02 25.11-7.02 9.9 0 18.72 2.34 26.46 7.02 7.92 4.68 14.04 11.25 18.36 19.71 4.5 8.46 6.75 18.27 6.75 29.43v76.14h-21.87v-76.14c0-10.44-3.15-18.9-9.45-25.38-6.3-6.48-14.31-9.72-24.03-9.72-10.8 0-19.89 3.78-27.27 11.34-7.2 7.56-10.8 17.19-10.8 28.89v71.01h-22.14Z"/>
</svg>
