<svg xmlns="http://www.w3.org/2000/svg" width="4157" height="756" fill="none" viewBox="0 0 4157 756">
  <path fill="#fff" d="M432 351.002h41.453l71.713-99h61.51L519.16 371.881l93.636 132.121h-66.405l-71.805-102.6H432v102.6h-54v-252h54v99Z"/>
  <path fill="#fff" d="M735.033 509.402c-25.68 0-48.96-5.88-69.84-17.64-20.88-11.76-37.32-27.6-49.32-47.52-11.76-20.16-17.64-42.24-17.64-66.24 0-24 5.88-46.08 17.64-66.24 12-20.16 28.44-36 49.32-47.52 20.88-11.76 44.16-17.64 69.84-17.64 25.68 0 48.84 5.88 69.48 17.64 20.88 11.52 37.32 27.36 49.32 47.52 12 20.16 18 42.24 18 66.24 0 24-6 46.08-18 66.24-12 19.92-28.44 35.76-49.32 47.52-20.88 11.76-44.04 17.64-69.48 17.64Zm0-49.68c15.12 0 28.92-3.6 41.4-10.8 12.48-7.2 22.32-17.04 29.52-29.52 7.2-12.48 10.8-26.28 10.8-41.4 0-15.12-3.6-28.92-10.8-41.4-7.2-12.48-17.04-22.32-29.52-29.52-12.48-7.44-26.28-11.16-41.4-11.16-15.12 0-29.04 3.6-41.76 10.8-12.48 7.2-22.32 17.16-29.52 29.88-7.2 12.48-10.8 26.28-10.8 41.4 0 15.12 3.6 28.92 10.8 41.4 7.44 12.48 17.4 22.32 29.88 29.52 12.48 7.2 26.28 10.8 41.4 10.8Zm378.367 44.28h-58.68l-46.44-86.4h-48.958v86.4h-54v-252h111.598c16.8 0 31.8 3.6 45 10.8 13.44 7.2 23.88 17.16 31.32 29.88 7.44 12.48 11.16 26.52 11.16 42.12 0 16.08-4.08 30.6-12.24 43.56-7.92 12.96-18.84 22.92-32.76 29.88l54 95.76Zm-154.078-203.4v68.4h55.798c10.32 0 18.72-3.24 25.2-9.72 6.72-6.48 10.08-14.64 10.08-24.48s-3.36-18-10.08-24.48c-6.48-6.48-14.88-9.72-25.2-9.72h-55.798Zm288.438 203.4h-54v-201.6h-73.08v-50.4h199.8v50.4h-72.72v201.6Zm287.22 0h-189v-252h185.4v48.6h-131.4v51.12h102.6v46.8h-102.6v56.88h135v48.6Zm211.98 0h-54v-252h54v99h108v-99h54v252h-54v-102.6h-108v102.6Zm332.58 5.4c-25.68 0-48.96-5.88-69.84-17.64-20.88-11.76-37.32-27.6-49.32-47.52-11.76-20.16-17.64-42.24-17.64-66.24 0-24 5.88-46.08 17.64-66.24 12-20.16 28.44-36 49.32-47.52 20.88-11.76 44.16-17.64 69.84-17.64 25.68 0 48.84 5.88 69.48 17.64 20.88 11.52 37.32 27.36 49.32 47.52 12 20.16 18 42.24 18 66.24 0 24-6 46.08-18 66.24-12 19.92-28.44 35.76-49.32 47.52-20.88 11.76-44.04 17.64-69.48 17.64Zm0-49.68c15.12 0 28.92-3.6 41.4-10.8 12.48-7.2 22.32-17.04 29.52-29.52 7.2-12.48 10.8-26.28 10.8-41.4 0-15.12-3.6-28.92-10.8-41.4-7.2-12.48-17.04-22.32-29.52-29.52-12.48-7.44-26.28-11.16-41.4-11.16-15.12 0-29.04 3.6-41.76 10.8-12.48 7.2-22.32 17.16-29.52 29.88-7.2 12.48-10.8 26.28-10.8 41.4 0 15.12 3.6 28.92 10.8 41.4 7.44 12.48 17.4 22.32 29.88 29.52 12.48 7.2 26.28 10.8 41.4 10.8Zm224.29 44.28h-54v-252h183.6v51.12h-129.6v57.6h100.8v49.68h-100.8v93.6Zm212.76 0h-54v-252h183.6v51.12h-129.6v57.6h100.8v49.68h-100.8v93.6Zm212.4 0h-53.64v-252h69.84l83.16 182.16h1.08l82.8-182.16h67.32v252h-53.28v-171.36h-1.44l-79.92 171.36h-34.92l-79.56-171.36h-1.44v171.36Zm329.22 0h-56.52l97.92-252h60.12l97.56 252h-57.24l-21.24-56.88h-99.72l-20.88 56.88Zm70.2-196.92-33.48 94.32h68.04l-33.48-94.32h-1.08Zm204.32 196.92h-53.28v-252h47.88l122.76 162h1.44v-162h52.92v252h-47.52l-123.12-162.36h-1.08v162.36Zm273.69 0h-53.28v-252h47.88l122.76 162h1.44v-162h52.92v252h-47.52l-123.12-162.36h-1.08v162.36Zm247.72.998c-6.87 0-13.13-1.6-18.8-4.8-5.67-3.2-10.13-7.533-13.4-13-3.2-5.533-4.8-11.6-4.8-18.2s1.6-12.633 4.8-18.1c3.27-5.533 7.73-9.9 13.4-13.1 5.67-3.2 11.93-4.8 18.8-4.8 6.87 0 13.13 1.6 18.8 4.8 5.67 3.2 10.1 7.567 13.3 13.1 3.27 5.467 4.9 11.5 4.9 18.1 0 6.6-1.63 12.667-4.9 18.2-3.2 5.467-7.63 9.8-13.3 13-5.67 3.2-11.93 4.8-18.8 4.8Zm0-7c5.27 0 10.1-1.3 14.5-3.9 4.47-2.6 8-6.1 10.6-10.5 2.6-4.467 3.9-9.333 3.9-14.6 0-5.267-1.3-10.1-3.9-14.5-2.6-4.467-6.13-8-10.6-10.6-4.4-2.6-9.23-3.9-14.5-3.9s-10.13 1.3-14.6 3.9c-4.4 2.6-7.9 6.133-10.5 10.6-2.6 4.4-3.9 9.233-3.9 14.5 0 5.267 1.3 10.133 3.9 14.6 2.6 4.4 6.1 7.9 10.5 10.5 4.47 2.6 9.33 3.9 14.6 3.9Zm-13-10.5v-37h15c2.47 0 4.67.567 6.6 1.7 2 1.067 3.57 2.533 4.7 4.4 1.13 1.8 1.7 3.767 1.7 5.9 0 2.533-.73 4.667-2.2 6.4-1.4 1.733-3 2.933-4.8 3.6l8.5 15h-8l-7-13h-7v13h-7.5Zm15-20c1.73 0 3.07-.433 4-1.3 1-.933 1.5-2.167 1.5-3.7 0-1.533-.5-2.733-1.5-3.6-.93-.933-2.27-1.4-4-1.4h-7.5v10h7.5Z"/>
</svg>
