<svg xmlns="http://www.w3.org/2000/svg" width="4573" height="1260" fill="none" viewBox="0 0 4573 1260">
  <path fill="#000" d="M586.591 504v99h23.211l88.237-99h65.514L655.87 623.88 771.083 756h-71.537l-88.352-102.6h-24.603V756h-56.478V504h56.478Zm293.26 252h-54V504h54v99h108v-99h53.999v252h-53.999V653.4h-108V756Zm284.449 2c-13.47 0-25.8-3.2-37-9.6-11.2-6.4-20.07-15.067-26.6-26-6.4-11.067-9.6-23.2-9.6-36.4s3.2-25.267 9.6-36.2c6.53-11.067 15.4-19.8 26.6-26.2 11.2-6.4 23.53-9.6 37-9.6 13.6 0 26 3.2 37.2 9.6 11.2 6.4 20 15.133 26.4 26.2 6.53 10.933 9.8 23 9.8 36.2 0 13.2-3.27 25.333-9.8 36.4-6.4 10.933-15.2 19.6-26.4 26-11.2 6.4-23.6 9.6-37.2 9.6Zm0-12.4c10.93 0 20.93-2.6 30-7.8 9.2-5.333 16.47-12.533 21.8-21.6 5.33-9.2 8-19.267 8-30.2s-2.67-20.933-8-30c-5.33-9.2-12.6-16.4-21.8-21.6-9.07-5.333-19.07-8-30-8s-20.93 2.667-30 8c-9.07 5.2-16.27 12.4-21.6 21.6-5.33 9.067-8 19.067-8 30s2.67 21 8 30.2c5.33 9.067 12.53 16.267 21.6 21.6 9.07 5.2 19.07 7.8 30 7.8Zm-25.2-22.6v-74h28.6c7.33 0 13.4 2.267 18.2 6.8 4.93 4.533 7.4 10.067 7.4 16.6 0 5.067-1.47 9.333-4.4 12.8-2.8 3.467-6 5.867-9.6 7.2l17 30.6h-14l-14.6-27.4h-15.6V723h-13Zm28.6-39.6c4.13 0 7.27-1 9.4-3 2.13-2 3.2-4.667 3.2-8 0-3.467-1.07-6.133-3.2-8-2.13-2-5.27-3-9.4-3h-15.6v22h15.6Zm366.6 324.6h-39.6V252h39.6v756Zm411.6-252h-39.6V504h39.6v252Zm101.05 0V583.2h36v24.48h.36c3.6-7.2 9.84-13.68 18.72-19.44 9.12-5.76 19.56-8.64 31.32-8.64 12.48 0 23.52 3 33.12 9 9.6 5.76 16.44 12.24 20.52 19.44h.72c4.08-7.2 11.28-13.68 21.6-19.44 10.56-6 23.04-9 37.44-9 11.52 0 22.08 3.12 31.68 9.36 9.6 6 17.16 14.64 22.68 25.92 5.76 11.04 8.64 23.88 8.64 38.52V756h-36V653.4c0-12.24-3.48-21.84-10.44-28.8-6.72-7.2-15.24-10.8-25.56-10.8-12 0-21.96 4.32-29.88 12.96-7.68 8.4-11.52 19.68-11.52 33.84V756h-36V653.4c0-12.24-3.48-21.84-10.44-28.8-6.72-7.2-15.24-10.8-25.56-10.8-12 0-21.96 4.32-29.88 12.96-7.68 8.4-11.52 19.68-11.52 33.84V756h-36Zm351.48 0V583.2h36v24.48h.36c3.6-7.2 9.84-13.68 18.72-19.44 9.12-5.76 19.56-8.64 31.32-8.64 12.48 0 23.52 3 33.12 9 9.6 5.76 16.44 12.24 20.52 19.44h.72c4.08-7.2 11.28-13.68 21.6-19.44 10.56-6 23.04-9 37.44-9 11.52 0 22.08 3.12 31.68 9.36 9.6 6 17.16 14.64 22.68 25.92 5.76 11.04 8.64 23.88 8.64 38.52V756h-36V653.4c0-12.24-3.48-21.84-10.44-28.8-6.72-7.2-15.24-10.8-25.56-10.8-12 0-21.96 4.32-29.88 12.96-7.68 8.4-11.52 19.68-11.52 33.84V756h-36V653.4c0-12.24-3.48-21.84-10.44-28.8-6.72-7.2-15.24-10.8-25.56-10.8-12 0-21.96 4.32-29.88 12.96-7.68 8.4-11.52 19.68-11.52 33.84V756h-36Zm430.68 3.6c-16.56 0-31.8-3.96-45.72-11.88-13.68-7.92-24.48-18.72-32.4-32.4-7.92-13.92-11.88-29.16-11.88-45.72s3.96-31.68 11.88-45.36c7.92-13.92 18.72-24.84 32.4-32.76 13.92-7.92 29.16-11.88 45.72-11.88s31.68 3.96 45.36 11.88c13.92 7.92 24.84 18.84 32.76 32.76 7.92 13.68 11.88 28.8 11.88 45.36s-3.96 31.8-11.88 45.72c-7.92 13.68-18.84 24.48-32.76 32.4-13.68 7.92-28.8 11.88-45.36 11.88Zm0-34.2c10.08 0 19.2-2.4 27.36-7.2 8.4-4.8 14.88-11.4 19.44-19.8 4.8-8.64 7.2-18.24 7.2-28.8 0-10.56-2.4-20.04-7.2-28.44-4.56-8.64-11.04-15.36-19.44-20.16-8.16-4.8-17.28-7.2-27.36-7.2-10.08 0-19.32 2.4-27.72 7.2-8.16 4.8-14.64 11.52-19.44 20.16-4.56 8.4-6.84 17.88-6.84 28.44 0 10.56 2.28 20.16 6.84 28.8 4.8 8.4 11.28 15 19.44 19.8 8.4 4.8 17.64 7.2 27.72 7.2Zm266.83 34.2c-13.44 0-25.56-2.88-36.36-8.64-10.56-5.76-18.12-12.24-22.68-19.44h-.36V756h-36V504h36v103.68h.36c4.56-7.2 12.12-13.68 22.68-19.44 10.8-5.76 22.92-8.64 36.36-8.64 14.4 0 27.72 3.96 39.96 11.88 12.48 7.68 22.44 18.36 29.88 32.04 7.44 13.68 11.16 29.04 11.16 46.08s-3.72 32.4-11.16 46.08c-7.44 13.68-17.4 24.48-29.88 32.4-12.24 7.68-25.56 11.52-39.96 11.52Zm-7.2-34.2c9.6 0 18.36-2.4 26.28-7.2 7.92-4.8 14.16-11.4 18.72-19.8 4.8-8.64 7.2-18.24 7.2-28.8 0-10.56-2.4-20.04-7.2-28.44-4.56-8.64-10.8-15.36-18.72-20.16-7.92-4.8-16.68-7.2-26.28-7.2-9.6 0-18.36 2.4-26.28 7.2-7.92 4.8-14.28 11.52-19.08 20.16-4.56 8.4-6.84 17.88-6.84 28.44 0 10.56 2.28 20.16 6.84 28.8 4.8 8.4 11.16 15 19.08 19.8 7.92 4.8 16.68 7.2 26.28 7.2Zm205.77 30.6h-36V583.2h36V756Zm-18-205.2c-5.52 0-10.56-2.04-15.12-6.12-4.32-4.32-6.48-9.48-6.48-15.48s2.16-11.04 6.48-15.12c4.56-4.32 9.6-6.48 15.12-6.48s10.44 2.16 14.76 6.48c4.56 4.08 6.84 9.12 6.84 15.12s-2.28 11.16-6.84 15.48c-4.32 4.08-9.24 6.12-14.76 6.12Zm148 205.2h-36V504h36v252Zm130 0h-36V583.2h36V756Zm-18-205.2c-5.52 0-10.56-2.04-15.12-6.12-4.32-4.32-6.48-9.48-6.48-15.48s2.16-11.04 6.48-15.12c4.56-4.32 9.6-6.48 15.12-6.48s10.44 2.16 14.76 6.48c4.56 4.08 6.84 9.12 6.84 15.12s-2.28 11.16-6.84 15.48c-4.32 4.08-9.24 6.12-14.76 6.12Zm189.4 208.8c-16.56 0-31.8-3.96-45.72-11.88-13.68-7.92-24.48-18.72-32.4-32.4-7.92-13.92-11.88-29.16-11.88-45.72s3.96-31.68 11.88-45.36c7.92-13.68 18.6-24.48 32.04-32.4 13.44-8.16 28.2-12.24 44.28-12.24 16.08 0 30.48 3.72 43.2 11.16 12.96 7.2 23.04 17.28 30.24 30.24 7.44 12.72 11.16 27.12 11.16 43.2 0 6.48-.6 12.48-1.8 18h-133.2c1.92 12 7.92 22.2 18 30.6 10.08 8.4 22.08 12.6 36 12.6 17.52 0 33.72-6.96 48.6-20.88l23.4 23.04c-6.72 8.4-16.56 15.84-29.52 22.32-12.72 6.48-27.48 9.72-44.28 9.72Zm45.36-106.2c-2.64-12.72-8.04-22.8-16.2-30.24-8.16-7.44-18.48-11.16-30.96-11.16-13.44 0-24.48 3.72-33.12 11.16-8.4 7.44-14.4 17.52-18 30.24h98.28ZM3886.4 756V583.2h36v24.48h.36c4.56-7.2 11.64-13.68 21.24-19.44 9.84-5.76 20.64-8.64 32.4-8.64 13.2 0 24.96 3.12 35.28 9.36 10.32 6 18.36 14.76 24.12 26.28 6 11.28 9 24.6 9 39.96V756h-36V655.2c0-12.48-3.72-22.44-11.16-29.88-7.2-7.68-16.68-11.52-28.44-11.52-13.68 0-24.96 4.56-33.84 13.68-8.64 8.88-12.96 20.52-12.96 34.92V756h-36Z"/>
</svg>
