<svg xmlns="http://www.w3.org/2000/svg" width="5061" height="1638" fill="none" viewBox="0 0 5061 1638">
  <path fill="#324469" d="M536.7 1386h-32.4V252h32.4v1134Z"/>
  <path fill="#000" d="M993 504v99h22.19l84.37-99h62.64l-102.96 119.88L1169.4 756H1101l-84.48-102.6H993V756h-54V504h54Zm313.63 257.4c-25.68 0-48.96-5.88-69.84-17.64-20.88-11.76-37.32-27.6-49.32-47.52-11.76-20.16-17.64-42.24-17.64-66.24 0-24 5.88-46.08 17.64-66.24 12-20.16 28.44-36 49.32-47.52 20.88-11.76 44.16-17.64 69.84-17.64 25.68 0 48.84 5.88 69.48 17.64 20.88 11.52 37.32 27.36 49.32 47.52 12 20.16 18 42.24 18 66.24 0 24-6 46.08-18 66.24-12 19.92-28.44 35.76-49.32 47.52-20.88 11.76-44.04 17.64-69.48 17.64Zm0-49.68c15.12 0 28.92-3.6 41.4-10.8 12.48-7.2 22.32-17.04 29.52-29.52 7.2-12.48 10.8-26.28 10.8-41.4 0-15.12-3.6-28.92-10.8-41.4-7.2-12.48-17.04-22.32-29.52-29.52-12.48-7.44-26.28-11.16-41.4-11.16-15.12 0-29.04 3.6-41.76 10.8-12.48 7.2-22.32 17.16-29.52 29.88-7.2 12.48-10.8 26.28-10.8 41.4 0 15.12 3.6 28.92 10.8 41.4 7.44 12.48 17.4 22.32 29.88 29.52 12.48 7.2 26.28 10.8 41.4 10.8ZM1701 756h-58.68l-46.44-86.4h-48.96V756h-54V504h111.6c16.8 0 31.8 3.6 45 10.8 13.44 7.2 23.88 17.16 31.32 29.88 7.44 12.48 11.16 26.52 11.16 42.12 0 16.08-4.08 30.6-12.24 43.56-7.92 12.96-18.84 22.92-32.76 29.88l54 95.76Zm-154.08-203.4V621h55.8c10.32 0 18.72-3.24 25.2-9.72 6.72-6.48 10.08-14.64 10.08-24.48s-3.36-18-10.08-24.48c-6.48-6.48-14.88-9.72-25.2-9.72h-55.8ZM1843.36 756h-54V554.4h-73.08V504h199.8v50.4h-72.72V756Zm301.22 0h-189V504h185.4v48.6h-131.4v51.12h102.6v46.8h-102.6v56.88h135V756Zm243.98 0h-54V504h54v99h108v-99h54v252h-54V653.4h-108V756Zm348.58 5.4c-25.68 0-48.96-5.88-69.84-17.64-20.88-11.76-37.32-27.6-49.32-47.52-11.76-20.16-17.64-42.24-17.64-66.24 0-24 5.88-46.08 17.64-66.24 12-20.16 28.44-36 49.32-47.52 20.88-11.76 44.16-17.64 69.84-17.64 25.68 0 48.84 5.88 69.48 17.64 20.88 11.52 37.32 27.36 49.32 47.52 12 20.16 18 42.24 18 66.24 0 24-6 46.08-18 66.24-12 19.92-28.44 35.76-49.32 47.52-20.88 11.76-44.04 17.64-69.48 17.64Zm0-49.68c15.12 0 28.92-3.6 41.4-10.8 12.48-7.2 22.32-17.04 29.52-29.52 7.2-12.48 10.8-26.28 10.8-41.4 0-15.12-3.6-28.92-10.8-41.4-7.2-12.48-17.04-22.32-29.52-29.52-12.48-7.44-26.28-11.16-41.4-11.16-15.12 0-29.04 3.6-41.76 10.8-12.48 7.2-22.32 17.16-29.52 29.88-7.2 12.48-10.8 26.28-10.8 41.4 0 15.12 3.6 28.92 10.8 41.4 7.44 12.48 17.4 22.32 29.88 29.52 12.48 7.2 26.28 10.8 41.4 10.8ZM2977.43 756h-54V504h183.6v51.12h-129.6v57.6h100.8v49.68h-100.8V756Zm226.76 0h-54V504h183.6v51.12h-129.6v57.6h100.8v49.68h-100.8V756Zm226.39 0h-53.64V504h69.84l83.16 182.16h1.08l82.8-182.16h67.32v252h-53.28V584.64h-1.44L3546.5 756h-34.92l-79.56-171.36h-1.44V756Zm343.23 0h-56.52l97.92-252h60.12l97.56 252h-57.24l-21.24-56.88h-99.72L3773.81 756Zm70.2-196.92-33.48 94.32h68.04l-33.48-94.32h-1.08ZM4062.33 756h-53.28V504h47.88l122.76 162h1.44V504h52.92v252h-47.52l-123.12-162.36h-1.08V756Zm289.69 0h-53.28V504h47.88l122.76 162h1.44V504h52.92v252h-47.52L4353.1 593.64h-1.08V756Zm238.48 1c-6.73 0-12.9-1.6-18.5-4.8-5.6-3.2-10.03-7.533-13.3-13-3.2-5.533-4.8-11.6-4.8-18.2s1.6-12.633 4.8-18.1c3.27-5.533 7.7-9.9 13.3-13.1 5.6-3.2 11.77-4.8 18.5-4.8 6.8 0 13 1.6 18.6 4.8 5.6 3.2 10 7.567 13.2 13.1 3.27 5.467 4.9 11.5 4.9 18.1 0 6.6-1.63 12.667-4.9 18.2-3.2 5.467-7.6 9.8-13.2 13-5.6 3.2-11.8 4.8-18.6 4.8Zm0-6.2c5.47 0 10.47-1.3 15-3.9 4.6-2.667 8.23-6.267 10.9-10.8 2.67-4.6 4-9.633 4-15.1 0-5.467-1.33-10.467-4-15-2.67-4.6-6.3-8.2-10.9-10.8-4.53-2.667-9.53-4-15-4-5.47 0-10.47 1.333-15 4-4.53 2.6-8.13 6.2-10.8 10.8-2.67 4.533-4 9.533-4 15 0 5.467 1.33 10.5 4 15.1 2.67 4.533 6.27 8.133 10.8 10.8 4.53 2.6 9.53 3.9 15 3.9Zm-12.6-11.3v-37h14.3c3.67 0 6.7 1.133 9.1 3.4 2.47 2.267 3.7 5.033 3.7 8.3 0 2.533-.73 4.667-2.2 6.4-1.4 1.733-3 2.933-4.8 3.6l8.5 15.3h-7l-7.3-13.7h-7.8v13.7h-6.5Zm14.3-19.8c2.07 0 3.63-.5 4.7-1.5 1.07-1 1.6-2.333 1.6-4 0-1.733-.53-3.067-1.6-4-1.07-1-2.63-1.5-4.7-1.5h-7.8v11h7.8ZM984.18 1134h-32.4V882h32.4v252Zm64.39 0V961.2h29.52v25.56h.36c3.6-7.44 9.84-14.16 18.72-20.16 9.12-6 19.68-9 31.68-9 12.96 0 24.36 3.36 34.2 10.08 9.84 6.48 16.8 13.8 20.88 21.96h.72c3.84-8.16 10.92-15.48 21.24-21.96 10.56-6.72 23.16-10.08 37.8-10.08 11.52 0 22.08 3.12 31.68 9.36 9.84 6 17.52 14.64 23.04 25.92 5.76 11.04 8.64 23.88 8.64 38.52V1134h-29.16v-102.6c0-13.92-3.84-24.96-11.52-33.12-7.68-8.4-17.28-12.6-28.8-12.6-12.96 0-23.76 4.8-32.4 14.4-8.4 9.36-12.6 21.96-12.6 37.8V1134h-29.52v-102.6c0-13.92-3.84-24.96-11.52-33.12-7.68-8.4-17.16-12.6-28.44-12.6-12.96 0-23.76 4.8-32.4 14.4-8.4 9.36-12.6 21.96-12.6 37.8V1134h-29.52Zm310.79 0V961.2h29.52v25.56h.36c3.6-7.44 9.84-14.16 18.72-20.16 9.12-6 19.68-9 31.68-9 12.96 0 24.36 3.36 34.2 10.08 9.84 6.48 16.8 13.8 20.88 21.96h.72c3.84-8.16 10.92-15.48 21.24-21.96 10.56-6.72 23.16-10.08 37.8-10.08 11.52 0 22.08 3.12 31.68 9.36 9.84 6 17.52 14.64 23.04 25.92 5.76 11.04 8.64 23.88 8.64 38.52V1134h-29.16v-102.6c0-13.92-3.84-24.96-11.52-33.12-7.68-8.4-17.28-12.6-28.8-12.6-12.96 0-23.76 4.8-32.4 14.4-8.4 9.36-12.6 21.96-12.6 37.8V1134h-29.52v-102.6c0-13.92-3.84-24.96-11.52-33.12-7.68-8.4-17.16-12.6-28.44-12.6-12.96 0-23.76 4.8-32.4 14.4-8.4 9.36-12.6 21.96-12.6 37.8V1134h-29.52Zm388.18 3.6c-16.32 0-31.32-3.96-45-11.88-13.44-8.16-24.12-19.08-32.04-32.76-7.92-13.68-11.88-28.8-11.88-45.36s3.96-31.68 11.88-45.36c7.92-13.68 18.6-24.48 32.04-32.4 13.68-8.16 28.68-12.24 45-12.24s31.2 4.08 44.64 12.24c13.68 7.92 24.48 18.72 32.4 32.4 7.92 13.68 11.88 28.8 11.88 45.36s-3.96 31.68-11.88 45.36c-7.92 13.68-18.72 24.6-32.4 32.76-13.44 7.92-28.32 11.88-44.64 11.88Zm0-28.08c10.8 0 20.76-2.64 29.88-7.92 9.12-5.52 16.32-12.96 21.6-22.32 5.28-9.6 7.92-20.16 7.92-31.68s-2.64-21.96-7.92-31.32c-5.28-9.6-12.48-17.04-21.6-22.32-9.12-5.52-19.08-8.28-29.88-8.28s-20.76 2.76-29.88 8.28c-9.12 5.28-16.32 12.72-21.6 22.32-5.28 9.36-7.92 19.8-7.92 31.32s2.64 22.08 7.92 31.68c5.28 9.36 12.48 16.8 21.6 22.32 9.12 5.28 19.08 7.92 29.88 7.92Zm224.31 28.08c-13.92 0-26.52-3.12-37.8-9.36-11.04-6.48-18.84-13.68-23.4-21.6h-.36V1134h-29.52V882h29.52v106.56h.36c4.56-7.92 12.36-15 23.4-21.24 11.28-6.48 23.88-9.72 37.8-9.72 14.4 0 27.72 3.96 39.96 11.88 12.48 7.68 22.44 18.36 29.88 32.04 7.44 13.68 11.16 29.04 11.16 46.08s-3.72 32.4-11.16 46.08c-7.44 13.68-17.4 24.48-29.88 32.4-12.24 7.68-25.56 11.52-39.96 11.52Zm-4.68-28.08c10.08 0 19.44-2.64 28.08-7.92 8.64-5.52 15.48-12.96 20.52-22.32 5.28-9.36 7.92-19.92 7.92-31.68 0-11.76-2.64-22.32-7.92-31.68-5.04-9.36-11.88-16.68-20.52-21.96-8.64-5.52-18-8.28-28.08-8.28-10.32 0-19.92 2.64-28.8 7.92-8.64 5.28-15.48 12.72-20.52 22.32-5.04 9.36-7.56 19.92-7.56 31.68 0 11.76 2.52 22.44 7.56 32.04 5.04 9.36 11.88 16.68 20.52 21.96 8.88 5.28 18.48 7.92 28.8 7.92Zm159.68 24.48h-29.52V961.2h29.52V1134Zm-14.76-208.08c-5.04 0-9.48-1.8-13.32-5.4-3.6-3.6-5.4-8.04-5.4-13.32 0-5.28 1.8-9.72 5.4-13.32 3.84-3.6 8.28-5.4 13.32-5.4 4.8 0 9 1.8 12.6 5.4 3.84 3.6 5.76 8.04 5.76 13.32 0 5.28-1.92 9.72-5.76 13.32-3.6 3.6-7.8 5.4-12.6 5.4ZM2214.04 1134h-29.52V882h29.52v252Zm87.18 0h-29.52V961.2h29.52V1134Zm-14.76-208.08c-5.04 0-9.48-1.8-13.32-5.4-3.6-3.6-5.4-8.04-5.4-13.32 0-5.28 1.8-9.72 5.4-13.32 3.84-3.6 8.28-5.4 13.32-5.4 4.8 0 9 1.8 12.6 5.4 3.84 3.6 5.76 8.04 5.76 13.32 0 5.28-1.92 9.72-5.76 13.32-3.6 3.6-7.8 5.4-12.6 5.4Zm147.31 211.68c-16.08 0-30.84-3.96-44.28-11.88-13.44-8.16-24.12-19.08-32.04-32.76-7.92-13.68-11.88-28.8-11.88-45.36 0-16.8 3.84-32.04 11.52-45.72 7.92-13.68 18.48-24.48 31.68-32.4 13.2-7.92 27.6-11.88 43.2-11.88 15.36 0 29.4 3.72 42.12 11.16 12.72 7.44 22.68 17.76 29.88 30.96 7.2 12.96 10.8 27.72 10.8 44.28 0 3.84-.36 8.64-1.08 14.4h-137.52c1.92 14.4 8.4 26.52 19.44 36.36 11.04 9.84 24.24 14.76 39.6 14.76 18.96 0 35.88-7.92 50.76-23.76l19.8 18.36c-6.96 9.12-16.68 17.04-29.16 23.76-12.24 6.48-26.52 9.72-42.84 9.72Zm50.76-103.68c-2.4-15.12-8.28-27.12-17.64-36-9.12-8.88-20.76-13.32-34.92-13.32-14.64 0-27 4.68-37.08 14.04-10.08 9.12-16.44 20.88-19.08 35.28h108.72Zm71.19 100.08V961.2h29.52v26.28h.36c4.8-7.68 12.12-14.52 21.96-20.52 9.84-6.24 21-9.36 33.48-9.36 13.2 0 24.96 3.12 35.28 9.36 10.56 6.24 18.72 15 24.48 26.28 6 11.28 9 24.36 9 39.24V1134h-29.16v-101.52c0-13.92-4.2-25.2-12.6-33.84-8.4-8.64-19.08-12.96-32.04-12.96-14.4 0-26.52 5.04-36.36 15.12-9.6 10.08-14.4 22.92-14.4 38.52V1134h-29.52Z"/>
</svg>
