<svg xmlns="http://www.w3.org/2000/svg" width="2402" height="504" fill="none" viewBox="0 0 2402 504">
  <path fill="#000" d="M54 225h41.453l71.713-99h61.51L141.16 245.88 234.796 378h-66.405L96.586 275.4H54V378H0V126h54v99Zm260.252 153h-54V126h54v99h108v-99h54v252h-54V275.4h-108V378Zm237.998 1c-6.867 0-13.133-1.6-18.8-4.8-5.667-3.2-10.133-7.533-13.4-13-3.2-5.533-4.8-11.6-4.8-18.2s1.6-12.633 4.8-18.1c3.267-5.533 7.733-9.9 13.4-13.1 5.667-3.2 11.933-4.8 18.8-4.8 6.867 0 13.133 1.6 18.8 4.8 5.667 3.2 10.1 7.567 13.3 13.1 3.267 5.467 4.9 11.5 4.9 18.1 0 6.6-1.633 12.667-4.9 18.2-3.2 5.467-7.633 9.8-13.3 13-5.667 3.2-11.933 4.8-18.8 4.8Zm0-7c5.267 0 10.1-1.3 14.5-3.9 4.467-2.6 8-6.1 10.6-10.5 2.6-4.467 3.9-9.333 3.9-14.6 0-5.267-1.3-10.1-3.9-14.5-2.6-4.467-6.133-8-10.6-10.6-4.4-2.6-9.233-3.9-14.5-3.9-5.267 0-10.133 1.3-14.6 3.9-4.4 2.6-7.9 6.133-10.5 10.6-2.6 4.4-3.9 9.233-3.9 14.5 0 5.267 1.3 10.133 3.9 14.6 2.6 4.4 6.1 7.9 10.5 10.5 4.467 2.6 9.333 3.9 14.6 3.9Zm-13-10.5v-37h15c2.467 0 4.667.567 6.6 1.7 2 1.067 3.567 2.533 4.7 4.4 1.133 1.8 1.7 3.767 1.7 5.9 0 2.533-.733 4.667-2.2 6.4-1.4 1.733-3 2.933-4.8 3.6l8.5 15h-8l-7-13h-7v13h-7.5Zm15-20c1.733 0 3.067-.433 4-1.3 1-.933 1.5-2.167 1.5-3.7 0-1.533-.5-2.733-1.5-3.6-.933-.933-2.267-1.4-4-1.4h-7.5v10h7.5Zm174 162.5h42V0h-42v504Zm1673.27-126H2222.6V126h175.32v29.88H2255v76.32h114.12v29.88H2255v86.04h146.52V378Zm-401.25 0V126h97.2c15.84 0 30.12 3.6 42.84 10.8 12.72 6.96 22.68 16.56 29.88 28.8 7.2 12.24 10.8 25.68 10.8 40.32s-3.6 28.08-10.8 40.32c-7.2 12-17.16 21.6-29.88 28.8-12.72 6.96-27 10.44-42.84 10.44h-64.8V378h-32.4Zm97.2-122.4c14.64 0 26.76-4.68 36.36-14.04 9.84-9.6 14.76-21.48 14.76-35.64s-4.92-26.04-14.76-35.64c-9.6-9.6-21.72-14.4-36.36-14.4h-64.8v99.72h64.8ZM1777.95 378V126h97.2c15.84 0 30.12 3.6 42.84 10.8 12.72 6.96 22.68 16.56 29.88 28.8 7.2 12.24 10.8 25.68 10.8 40.32s-3.6 28.08-10.8 40.32c-7.2 12-17.16 21.6-29.88 28.8-12.72 6.96-27 10.44-42.84 10.44h-64.8V378h-32.4Zm97.2-122.4c14.64 0 26.76-4.68 36.36-14.04 9.84-9.6 14.76-21.48 14.76-35.64s-4.92-26.04-14.76-35.64c-9.6-9.6-21.72-14.4-36.36-14.4h-64.8v99.72h64.8Zm-262.34 126c-19.92 0-37.8-4.44-53.64-13.32-15.84-8.88-28.2-21.12-37.08-36.72-8.88-15.6-13.32-33.36-13.32-53.28V126h32.4v152.28c0 14.16 3.12 26.88 9.36 38.16 6.24 11.04 14.76 19.68 25.56 25.92 11.04 6.24 23.28 9.36 36.72 9.36 12.96 0 24.84-3.24 35.64-9.72 11.04-6.48 19.68-15.24 25.92-26.28 6.48-11.28 9.72-23.76 9.72-37.44V126h32.4v152.28c0 19.68-4.44 37.44-13.32 53.28-8.88 15.6-21.24 27.84-37.08 36.72-15.6 8.88-33.36 13.32-53.28 13.32Zm-148.14-3.6h-36.72l-54.72-97.2h-66.6V378h-32.4V126h101.52c15.6 0 29.52 3.36 41.76 10.08 12.24 6.72 21.84 16.08 28.8 28.08 6.96 11.76 10.44 24.84 10.44 39.24 0 16.56-4.56 31.44-13.68 44.64-9.12 12.96-21.36 22.2-36.72 27.72L1464.67 378Zm-158.04-222.12v95.04h69.12c14.4 0 26.04-4.44 34.92-13.32 9.12-8.88 13.68-20.28 13.68-34.2 0-13.92-4.56-25.32-13.68-34.2-8.88-8.88-20.52-13.32-34.92-13.32h-69.12Zm-192.98 225.718c-24.24 0-46.44-5.76-66.6-17.28-19.92-11.52-35.76-27.12-47.52-46.8-11.52-19.92-17.28-41.76-17.28-65.52 0-23.76 5.76-45.48 17.28-65.16 11.76-19.92 27.6-35.64 47.52-47.16 20.16-11.52 42.36-17.28 66.6-17.28 22.8 0 43.08 4.92 60.84 14.76 17.76 9.84 31.68 21.48 41.76 34.92l-23.04 18.36c-8.64-10.56-19.56-19.56-32.76-27-12.96-7.44-28.56-11.16-46.8-11.16s-34.92 4.44-50.04 13.32c-15.12 8.88-27.12 21-36 36.36-8.64 15.12-12.96 31.8-12.96 50.04s4.32 35.04 12.96 50.4c8.88 15.12 20.88 27.12 36 36 15.12 8.88 31.8 13.32 50.04 13.32 16.32 0 31.2-3.24 44.64-9.72 13.44-6.72 23.52-14.16 30.24-22.32v-43.56h-58.32v-28.8h90.72v83.88c-6 7.92-14.28 15.72-24.84 23.4-10.56 7.68-23.04 14.16-37.44 19.44-14.16 5.04-29.16 7.56-45 7.56Z"/>
</svg>
