<svg xmlns="http://www.w3.org/2000/svg" width="4460" height="1323" fill="none" viewBox="0 0 4460 1323">
  <path fill="#000" d="M306 464.4h38.492l70.559-99h61.387L390.33 485.28l92.129 132.12h-66.204l-70.649-102.6H306v102.6h-54v-252h54v99Zm312.033 158.4c-25.68 0-48.96-5.88-69.84-17.64-20.88-11.76-37.32-27.6-49.32-47.52-11.76-20.16-17.64-42.24-17.64-66.24 0-24 5.88-46.08 17.64-66.24 12-20.16 28.44-36 49.32-47.52 20.88-11.76 44.16-17.64 69.84-17.64 25.68 0 48.84 5.88 69.48 17.64 20.88 11.52 37.32 27.36 49.32 47.52 12 20.16 18 42.24 18 66.24 0 24-6 46.08-18 66.24-12 19.92-28.44 35.76-49.32 47.52-20.88 11.76-44.04 17.64-69.48 17.64Zm0-49.68c15.12 0 28.92-3.6 41.4-10.8 12.48-7.2 22.32-17.04 29.52-29.52 7.2-12.48 10.8-26.28 10.8-41.4 0-15.12-3.6-28.92-10.8-41.4-7.2-12.48-17.04-22.32-29.52-29.52-12.48-7.44-26.28-11.16-41.4-11.16-15.12 0-29.04 3.6-41.76 10.8-12.48 7.2-22.32 17.16-29.52 29.88-7.2 12.48-10.8 26.28-10.8 41.4 0 15.12 3.6 28.92 10.8 41.4 7.44 12.48 17.4 22.32 29.88 29.52 12.48 7.2 26.28 10.8 41.4 10.8ZM1008.4 617.4h-58.678l-46.44-86.4h-48.96v86.4h-54v-252h111.6c16.8 0 31.8 3.6 45 10.8 13.44 7.2 23.88 17.16 31.32 29.88 7.44 12.48 11.16 26.52 11.16 42.12 0 16.08-4.08 30.6-12.24 43.56-7.92 12.96-18.84 22.92-32.76 29.88l53.998 95.76ZM854.322 414v68.4h55.8c10.32 0 18.72-3.24 25.2-9.72 6.72-6.48 10.08-14.64 10.08-24.48s-3.36-18-10.08-24.48c-6.48-6.48-14.88-9.72-25.2-9.72h-55.8Zm292.438 203.4h-54V415.8h-73.08v-50.4h199.8v50.4h-72.72v201.6Zm297.22 0h-189v-252h185.4V414h-131.4v51.12h102.6v46.8h-102.6v56.88h135v48.6Zm235.98 0h-54v-252h54v99h108v-99h54v252h-54V514.8h-108v102.6Zm344.58 5.4c-25.68 0-48.96-5.88-69.84-17.64-20.88-11.76-37.32-27.6-49.32-47.52-11.76-20.16-17.64-42.24-17.64-66.24 0-24 5.88-46.08 17.64-66.24 12-20.16 28.44-36 49.32-47.52 20.88-11.76 44.16-17.64 69.84-17.64 25.68 0 48.84 5.88 69.48 17.64 20.88 11.52 37.32 27.36 49.32 47.52 12 20.16 18 42.24 18 66.24 0 24-6 46.08-18 66.24-12 19.92-28.44 35.76-49.32 47.52-20.88 11.76-44.04 17.64-69.48 17.64Zm0-49.68c15.12 0 28.92-3.6 41.4-10.8 12.48-7.2 22.32-17.04 29.52-29.52 7.2-12.48 10.8-26.28 10.8-41.4 0-15.12-3.6-28.92-10.8-41.4-7.2-12.48-17.04-22.32-29.52-29.52-12.48-7.44-26.28-11.16-41.4-11.16-15.12 0-29.04 3.6-41.76 10.8-12.48 7.2-22.32 17.16-29.52 29.88-7.2 12.48-10.8 26.28-10.8 41.4 0 15.12 3.6 28.92 10.8 41.4 7.44 12.48 17.4 22.32 29.88 29.52 12.48 7.2 26.28 10.8 41.4 10.8Zm236.29 44.28h-54v-252h183.6v51.12h-129.6v57.6h100.8v49.68h-100.8v93.6Zm222.76 0h-54v-252h183.6v51.12h-129.6v57.6h100.8v49.68h-100.8v93.6Zm222.4 0h-53.64v-252h69.84l83.16 182.16h1.08l82.8-182.16h67.32v252h-53.28V446.04h-1.44l-79.92 171.36h-34.92l-79.56-171.36h-1.44V617.4Zm339.22 0h-56.52l97.92-252h60.12l97.56 252h-57.24l-21.24-56.88h-99.72l-20.88 56.88Zm70.2-196.92-33.48 94.32h68.04l-33.48-94.32h-1.08Zm214.32 196.92h-53.28v-252h47.88l122.76 162h1.44v-162h52.92v252h-47.52l-123.12-162.36h-1.08V617.4Zm285.69 0h-53.28v-252h47.88l122.76 162h1.44v-162h52.92v252h-47.52L3616.5 455.04h-1.08V617.4Zm228.38 1c-6.73 0-12.9-1.6-18.5-4.8-5.6-3.2-10.03-7.533-13.3-13-3.2-5.533-4.8-11.6-4.8-18.2s1.6-12.633 4.8-18.1c3.27-5.533 7.7-9.9 13.3-13.1 5.6-3.2 11.77-4.8 18.5-4.8 6.8 0 13 1.6 18.6 4.8 5.6 3.2 10 7.567 13.2 13.1 3.27 5.467 4.9 11.5 4.9 18.1 0 6.6-1.63 12.667-4.9 18.2-3.2 5.467-7.6 9.8-13.2 13-5.6 3.2-11.8 4.8-18.6 4.8Zm0-6.2c5.47 0 10.47-1.3 15-3.9 4.6-2.667 8.23-6.267 10.9-10.8 2.67-4.6 4-9.633 4-15.1 0-5.467-1.33-10.467-4-15-2.67-4.6-6.3-8.2-10.9-10.8-4.53-2.667-9.53-4-15-4-5.47 0-10.47 1.333-15 4-4.53 2.6-8.13 6.2-10.8 10.8-2.67 4.533-4 9.533-4 15 0 5.467 1.33 10.5 4 15.1 2.67 4.533 6.27 8.133 10.8 10.8 4.53 2.6 9.53 3.9 15 3.9Zm-12.6-11.3v-37h14.3c3.67 0 6.7 1.133 9.1 3.4 2.47 2.267 3.7 5.033 3.7 8.3 0 2.533-.73 4.667-2.2 6.4-1.4 1.733-3 2.933-4.8 3.6l8.5 15.3h-7l-7.3-13.7h-7.8v13.7h-6.5Zm14.3-19.8c2.07 0 3.63-.5 4.7-1.5 1.07-1 1.6-2.333 1.6-4 0-1.733-.53-3.067-1.6-4-1.07-1-2.63-1.5-4.7-1.5h-7.8v11h7.8ZM2096.75 960.3c-18.54 0-35.46-4.32-50.76-12.96-15.3-8.64-27.36-20.34-36.18-35.1-8.64-14.94-12.96-31.32-12.96-49.14s4.32-34.11 12.96-48.87c8.82-14.94 20.88-26.73 36.18-35.37 15.3-8.64 32.22-12.96 50.76-12.96 17.1 0 32.22 3.6 45.36 10.8 13.32 7.2 23.85 15.66 31.59 25.38l-20.79 17.01c-6.66-7.56-14.49-13.77-23.49-18.63-8.82-5.04-19.71-7.56-32.67-7.56-12.78 0-24.57 3.15-35.37 9.45-10.8 6.12-19.35 14.58-25.65 25.38-6.12 10.8-9.18 22.59-9.18 35.37 0 12.78 3.06 24.57 9.18 35.37 6.3 10.8 14.85 19.35 25.65 25.65 10.8 6.12 22.59 9.18 35.37 9.18 11.16 0 21.33-2.07 30.51-6.21 9.36-4.14 16.29-8.82 20.79-14.04v-29.7h-40.5V857.7h70.2v66.15c-4.5 5.76-10.8 11.43-18.9 17.01-7.92 5.58-17.28 10.26-28.08 14.04-10.62 3.6-21.96 5.4-34.02 5.4Zm174.86 0c-12.42 0-23.85-2.97-34.29-8.91-10.26-5.94-18.36-14.04-24.3-24.3-5.94-10.44-8.91-21.87-8.91-34.29 0-12.42 2.97-23.76 8.91-34.02 5.94-10.26 13.95-18.36 24.03-24.3 10.08-6.12 21.15-9.18 33.21-9.18 12.06 0 22.86 2.79 32.4 8.37 9.72 5.4 17.28 12.96 22.68 22.68 5.58 9.54 8.37 20.34 8.37 32.4 0 4.86-.45 9.36-1.35 13.5h-99.9c1.44 9 5.94 16.65 13.5 22.95 7.56 6.3 16.56 9.45 27 9.45 13.14 0 25.29-5.22 36.45-15.66l17.55 17.28c-5.04 6.3-12.42 11.88-22.14 16.74-9.54 4.86-20.61 7.29-33.21 7.29Zm34.02-79.65c-1.98-9.54-6.03-17.1-12.15-22.68-6.12-5.58-13.86-8.37-23.22-8.37-10.08 0-18.36 2.79-24.84 8.37-6.3 5.58-10.8 13.14-13.5 22.68h73.71Zm127.25 79.65c-10.08 0-19.17-2.16-27.27-6.48-7.92-4.32-13.59-9.18-17.01-14.58h-.27v18.36h-27v-189h27v77.76h.27c3.42-5.4 9.09-10.26 17.01-14.58 8.1-4.32 17.19-6.48 27.27-6.48 10.8 0 20.79 2.97 29.97 8.91 9.36 5.76 16.83 13.77 22.41 24.03 5.58 10.26 8.37 21.78 8.37 34.56 0 12.78-2.79 24.3-8.37 34.56-5.58 10.26-13.05 18.36-22.41 24.3-9.18 5.76-19.17 8.64-29.97 8.64Zm-5.4-25.65c7.2 0 13.77-1.8 19.71-5.4 5.94-3.6 10.62-8.55 14.04-14.85 3.6-6.48 5.4-13.68 5.4-21.6 0-7.92-1.8-15.03-5.4-21.33-3.42-6.48-8.1-11.52-14.04-15.12-5.94-3.6-12.51-5.4-19.71-5.4-7.2 0-13.77 1.8-19.71 5.4-5.94 3.6-10.71 8.64-14.31 15.12-3.42 6.3-5.13 13.41-5.13 21.33 0 7.92 1.71 15.12 5.13 21.6 3.6 6.3 8.37 11.25 14.31 14.85 5.94 3.6 12.51 5.4 19.71 5.4ZM2571.4 825.3c10.62 0 19.98 2.16 28.08 6.48 8.28 4.32 14.67 10.35 19.17 18.09 4.5 7.56 6.75 16.02 6.75 25.38v82.35h-25.65v-18.36h-.27c-3.42 5.4-9 10.26-16.74 14.58-7.74 4.32-16.29 6.48-25.65 6.48-8.46 0-16.02-1.71-22.68-5.13s-11.88-8.01-15.66-13.77c-3.6-5.94-5.4-12.24-5.4-18.9 0-10.8 3.51-19.8 10.53-27 7.2-7.2 17.19-11.88 29.97-14.04l44.55-7.56v-.54c0-6.66-2.61-12.24-7.83-16.74-5.04-4.68-11.43-7.02-19.17-7.02-7.02 0-13.23 1.62-18.63 4.86-5.4 3.06-10.53 7.2-15.39 12.42l-17.28-16.74c14.22-16.56 31.32-24.84 51.3-24.84Zm-9.45 112.05c6.66 0 12.78-1.62 18.36-4.86 5.58-3.42 9.99-8.01 13.23-13.77s4.86-12.15 4.86-19.17v-4.05l-37.8 6.75c-6.48 1.26-11.52 3.51-15.12 6.75-3.42 3.06-5.13 6.66-5.13 10.8 0 4.86 1.98 9 5.94 12.42 3.96 3.42 9.18 5.13 15.66 5.13Zm-13.5-133.65c-4.14 0-7.92-1.53-11.34-4.59-3.24-3.24-4.86-7.11-4.86-11.61 0-4.5 1.62-8.28 4.86-11.34 3.42-3.24 7.2-4.86 11.34-4.86s7.83 1.62 11.07 4.86c3.42 3.06 5.13 6.84 5.13 11.34s-1.71 8.37-5.13 11.61c-3.24 3.06-6.93 4.59-11.07 4.59Zm54 0c-4.14 0-7.92-1.53-11.34-4.59-3.24-3.24-4.86-7.11-4.86-11.61 0-4.5 1.62-8.28 4.86-11.34 3.42-3.24 7.2-4.86 11.34-4.86s7.83 1.62 11.07 4.86c3.42 3.06 5.13 6.84 5.13 11.34s-1.71 8.37-5.13 11.61c-3.24 3.06-6.93 4.59-11.07 4.59Zm107.23 156.6c-9.9 0-18.72-2.25-26.46-6.75-7.74-4.68-13.86-11.25-18.36-19.71-4.32-8.64-6.48-18.72-6.48-30.24V828h27v75.6c0 9.36 2.7 16.92 8.1 22.68 5.58 5.58 12.78 8.37 21.6 8.37 10.26 0 18.63-3.33 25.11-9.99 6.66-6.84 9.99-15.66 9.99-26.46V828h27v129.6h-27v-18.36h-.27c-3.42 5.4-8.82 10.26-16.2 14.58-7.2 4.32-15.21 6.48-24.03 6.48Zm156 0c-10.8 0-20.88-2.88-30.24-8.64-9.18-5.94-16.56-14.04-22.14-24.3-5.58-10.26-8.37-21.78-8.37-34.56 0-12.78 2.79-24.3 8.37-34.56 5.58-10.26 12.96-18.27 22.14-24.03 9.36-5.94 19.44-8.91 30.24-8.91 10.08 0 19.08 2.16 27 6.48 8.1 4.32 13.86 9.18 17.28 14.58h.27V768.6h27v189h-27v-18.36h-.27c-3.42 5.4-9.18 10.26-17.28 14.58-7.92 4.32-16.92 6.48-27 6.48Zm5.4-25.65c7.2 0 13.77-1.8 19.71-5.4 5.94-3.6 10.62-8.55 14.04-14.85 3.6-6.48 5.4-13.68 5.4-21.6 0-7.92-1.8-15.03-5.4-21.33-3.42-6.48-8.1-11.52-14.04-15.12-5.94-3.6-12.51-5.4-19.71-5.4-7.2 0-13.77 1.8-19.71 5.4-5.94 3.6-10.71 8.64-14.31 15.12-3.42 6.3-5.13 13.41-5.13 21.33 0 7.92 1.71 15.12 5.13 21.6 3.6 6.3 8.37 11.25 14.31 14.85 5.94 3.6 12.51 5.4 19.71 5.4Zm162.83 25.65c-12.42 0-23.85-2.97-34.29-8.91-10.26-5.94-18.36-14.04-24.3-24.3-5.94-10.44-8.91-21.87-8.91-34.29 0-12.42 2.97-23.76 8.91-34.02 5.94-10.26 13.95-18.36 24.03-24.3 10.08-6.12 21.15-9.18 33.21-9.18 12.06 0 22.86 2.79 32.4 8.37 9.72 5.4 17.28 12.96 22.68 22.68 5.58 9.54 8.37 20.34 8.37 32.4 0 4.86-.45 9.36-1.35 13.5h-99.9c1.44 9 5.94 16.65 13.5 22.95 7.56 6.3 16.56 9.45 27 9.45 13.14 0 25.29-5.22 36.45-15.66l17.55 17.28c-5.04 6.3-12.42 11.88-22.14 16.74-9.54 4.86-20.61 7.29-33.21 7.29Zm34.02-79.65c-1.98-9.54-6.03-17.1-12.15-22.68-6.12-5.58-13.86-8.37-23.22-8.37-10.08 0-18.36 2.79-24.84 8.37-6.3 5.58-10.8 13.14-13.5 22.68h73.71Zm106.99 79.65c-10.8 0-20.88-2.88-30.24-8.64-9.18-5.94-16.56-14.04-22.14-24.3-5.58-10.26-8.37-21.78-8.37-34.56 0-12.78 2.79-24.3 8.37-34.56 5.58-10.26 12.96-18.27 22.14-24.03 9.36-5.94 19.44-8.91 30.24-8.91 10.08 0 19.08 2.16 27 6.48 8.1 4.32 13.86 9.18 17.28 14.58h.27V768.6h27v189h-27v-18.36h-.27c-3.42 5.4-9.18 10.26-17.28 14.58-7.92 4.32-16.92 6.48-27 6.48Zm5.4-25.65c7.2 0 13.77-1.8 19.71-5.4 5.94-3.6 10.62-8.55 14.04-14.85 3.6-6.48 5.4-13.68 5.4-21.6 0-7.92-1.8-15.03-5.4-21.33-3.42-6.48-8.1-11.52-14.04-15.12-5.94-3.6-12.51-5.4-19.71-5.4-7.2 0-13.77 1.8-19.71 5.4-5.94 3.6-10.71 8.64-14.31 15.12-3.42 6.3-5.13 13.41-5.13 21.33 0 7.92 1.71 15.12 5.13 21.6 3.6 6.3 8.37 11.25 14.31 14.85 5.94 3.6 12.51 5.4 19.71 5.4Zm103.43 22.95V828h27v17.01h.54c3.42-5.04 8.55-9.54 15.39-13.5 7.02-4.14 14.76-6.21 23.22-6.21h6.75v28.35c-4.14-.9-7.74-1.35-10.8-1.35-6.3 0-12.15 1.71-17.55 5.13-5.4 3.24-9.72 7.92-12.96 14.04-3.06 5.94-4.59 12.6-4.59 19.98v66.15h-27Zm145.24 2.7c-9.9 0-18.72-2.25-26.46-6.75-7.74-4.68-13.86-11.25-18.36-19.71-4.32-8.64-6.48-18.72-6.48-30.24V828h27v75.6c0 9.36 2.7 16.92 8.1 22.68 5.58 5.58 12.78 8.37 21.6 8.37 10.26 0 18.63-3.33 25.11-9.99 6.66-6.84 9.99-15.66 9.99-26.46V828h27v129.6h-27v-18.36h-.27c-3.42 5.4-8.82 10.26-16.2 14.58-7.2 4.32-15.21 6.48-24.03 6.48Zm162.76 0c-12.42 0-23.85-2.97-34.29-8.91-10.26-5.94-18.36-14.04-24.3-24.3-5.94-10.44-8.91-21.87-8.91-34.29 0-12.42 2.97-23.76 8.91-34.02 5.94-10.44 14.04-18.63 24.3-24.57 10.44-5.94 21.87-8.91 34.29-8.91 12.24 0 23.04 2.61 32.4 7.83 9.36 5.04 16.83 11.07 22.41 18.09l-19.44 16.47c-10.08-11.16-21.87-16.74-35.37-16.74-7.56 0-14.49 1.8-20.79 5.4-6.12 3.6-10.98 8.64-14.58 15.12-3.42 6.3-5.13 13.41-5.13 21.33 0 7.92 1.71 15.12 5.13 21.6 3.6 6.3 8.46 11.25 14.58 14.85 6.3 3.6 13.23 5.4 20.79 5.4 7.74 0 14.67-1.62 20.79-4.86 6.3-3.42 11.61-7.65 15.93-12.69l19.44 16.47c-5.76 7.2-13.5 13.5-23.22 18.9-9.72 5.22-20.7 7.83-32.94 7.83Zm137.43-71.01 61.29 68.31h-34.56l-55.89-63.99v63.99h-27v-189h27v119.07l53.73-59.67h32.67l-57.24 61.29ZM4208 1071h-42V252h42v819Z"/>
</svg>
