<svg xmlns="http://www.w3.org/2000/svg" width="4451" height="1261" fill="none" viewBox="0 0 4451 1261">
  <path fill="#fff" d="M378 1009h42V252h-42v757Zm348-562.998h41.453l71.713-99h61.51L813.16 466.881l93.636 132.121h-66.405l-71.805-102.6H726v102.6h-54v-252h54v99Z"/>
  <path fill="#fff" d="M1029.03 604.402c-25.68 0-48.957-5.88-69.837-17.64-20.88-11.76-37.32-27.6-49.32-47.52-11.76-20.16-17.64-42.24-17.64-66.24 0-24 5.88-46.08 17.64-66.24 12-20.16 28.44-36 49.32-47.52 20.88-11.76 44.157-17.64 69.837-17.64 25.68 0 48.84 5.88 69.48 17.64 20.88 11.52 37.32 27.36 49.32 47.52 12 20.16 18 42.24 18 66.24 0 24-6 46.08-18 66.24-12 19.92-28.44 35.76-49.32 47.52-20.88 11.76-44.04 17.64-69.48 17.64Zm0-49.68c15.12 0 28.92-3.6 41.4-10.8 12.48-7.2 22.32-17.04 29.52-29.52 7.2-12.48 10.8-26.28 10.8-41.4 0-15.12-3.6-28.92-10.8-41.4-7.2-12.48-17.04-22.32-29.52-29.52-12.48-7.44-26.28-11.16-41.4-11.16-15.12 0-29.037 3.6-41.757 10.8-12.48 7.2-22.32 17.16-29.52 29.88-7.2 12.48-10.8 26.28-10.8 41.4 0 15.12 3.6 28.92 10.8 41.4 7.44 12.48 17.4 22.32 29.88 29.52 12.477 7.2 26.277 10.8 41.397 10.8Zm378.37 44.28h-58.68l-46.44-86.4h-48.96v86.4h-54v-252h111.6c16.8 0 31.8 3.6 45 10.8 13.44 7.2 23.88 17.16 31.32 29.88 7.44 12.48 11.16 26.52 11.16 42.12 0 16.08-4.08 30.6-12.24 43.56-7.92 12.96-18.84 22.92-32.76 29.88l54 95.76Zm-154.08-203.4v68.4h55.8c10.32 0 18.72-3.24 25.2-9.72 6.72-6.48 10.08-14.64 10.08-24.48s-3.36-18-10.08-24.48c-6.48-6.48-14.88-9.72-25.2-9.72h-55.8Zm288.44 203.4h-54v-201.6h-73.08v-50.4h199.8v50.4h-72.72v201.6Zm287.22 0h-189v-252h185.4v48.6h-131.4v51.12h102.6v46.8h-102.6v56.88h135v48.6Zm211.98 0h-54v-252h54v99h108v-99h54v252h-54v-102.6h-108v102.6Zm332.58 5.4c-25.68 0-48.96-5.88-69.84-17.64-20.88-11.76-37.32-27.6-49.32-47.52-11.76-20.16-17.64-42.24-17.64-66.24 0-24 5.88-46.08 17.64-66.24 12-20.16 28.44-36 49.32-47.52 20.88-11.76 44.16-17.64 69.84-17.64 25.68 0 48.84 5.88 69.48 17.64 20.88 11.52 37.32 27.36 49.32 47.52 12 20.16 18 42.24 18 66.24 0 24-6 46.08-18 66.24-12 19.92-28.44 35.76-49.32 47.52-20.88 11.76-44.04 17.64-69.48 17.64Zm0-49.68c15.12 0 28.92-3.6 41.4-10.8 12.48-7.2 22.32-17.04 29.52-29.52 7.2-12.48 10.8-26.28 10.8-41.4 0-15.12-3.6-28.92-10.8-41.4-7.2-12.48-17.04-22.32-29.52-29.52-12.48-7.44-26.28-11.16-41.4-11.16-15.12 0-29.04 3.6-41.76 10.8-12.48 7.2-22.32 17.16-29.52 29.88-7.2 12.48-10.8 26.28-10.8 41.4 0 15.12 3.6 28.92 10.8 41.4 7.44 12.48 17.4 22.32 29.88 29.52 12.48 7.2 26.28 10.8 41.4 10.8Zm224.29 44.28h-54v-252h183.6v51.12h-129.6v57.6h100.8v49.68h-100.8v93.6Zm212.76 0h-54v-252h183.6v51.12h-129.6v57.6h100.8v49.68h-100.8v93.6Zm212.4 0h-53.64v-252h69.84l83.16 182.16h1.08l82.8-182.16h67.32v252h-53.28v-171.36h-1.44l-79.92 171.36h-34.92l-79.56-171.36h-1.44v171.36Zm329.22 0h-56.52l97.92-252h60.12l97.56 252h-57.24l-21.24-56.88h-99.72l-20.88 56.88Zm70.2-196.92-33.48 94.32h68.04l-33.48-94.32h-1.08Zm204.32 196.92h-53.28v-252h47.88l122.76 162h1.44v-162h52.92v252h-47.52l-123.12-162.36h-1.08v162.36Zm273.69 0h-53.28v-252h47.88l122.76 162h1.44v-162h52.92v252h-47.52l-123.12-162.36h-1.08v162.36Zm-313.47 323.103c-12.06 0-23.13-2.97-33.21-8.91-10.08-6.12-18.09-14.31-24.03-24.57-5.94-10.26-8.91-21.6-8.91-34.02 0-12.6 2.88-24.03 8.64-34.29 5.94-10.26 13.86-18.36 23.76-24.3 9.9-5.94 20.7-8.91 32.4-8.91 11.52 0 22.05 2.79 31.59 8.37 9.54 5.58 17.01 13.32 22.41 23.22 5.4 9.72 8.1 20.79 8.1 33.21 0 2.88-.27 6.48-.81 10.8h-103.14c1.44 10.8 6.3 19.89 14.58 27.27 8.28 7.38 18.18 11.07 29.7 11.07 14.22 0 26.91-5.94 38.07-17.82l14.85 13.77c-5.22 6.84-12.51 12.78-21.87 17.82-9.18 4.86-19.89 7.29-32.13 7.29Zm38.07-77.76c-1.8-11.34-6.21-20.34-13.23-27-6.84-6.66-15.57-9.99-26.19-9.99-10.98 0-20.25 3.51-27.81 10.53-7.56 6.84-12.33 15.66-14.31 26.46h81.54Zm-188.13 75.06v-129.6h22.14v18.9h.27c3.6-5.58 9-10.53 16.2-14.85 7.38-4.5 15.66-6.75 24.84-6.75h6.21v22.95c-4.32-.54-7.29-.81-8.91-.81-7.02 0-13.5 1.8-19.44 5.4-5.76 3.6-10.44 8.64-14.04 15.12-3.42 6.3-5.13 13.41-5.13 21.33v68.31h-22.14Zm-104.28 2.696c-9.9 0-18.81-2.34-26.73-7.02-7.74-4.68-13.86-11.25-18.36-19.71s-6.75-18.27-6.75-29.43v-76.14h22.14v76.14c0 10.44 3.06 18.9 9.18 25.38 6.3 6.48 14.31 9.72 24.03 9.72 7.2 0 13.68-1.71 19.44-5.13 5.94-3.42 10.53-8.19 13.77-14.31 3.42-6.12 5.13-13.05 5.13-20.79v-71.01h21.87v129.6h-21.87v-19.71h-.27c-3.42 5.76-8.91 10.98-16.47 15.66-7.56 4.5-15.93 6.75-25.11 6.75Zm-141.96.004c-12.06 0-23.13-2.97-33.21-8.91-10.08-6.12-18.09-14.31-24.03-24.57-5.94-10.26-8.91-21.6-8.91-34.02 0-12.6 2.88-24.03 8.64-34.29 5.94-10.26 13.86-18.36 23.76-24.3 9.9-5.94 20.7-8.91 32.4-8.91 11.52 0 22.05 2.79 31.59 8.37 9.54 5.58 17.01 13.32 22.41 23.22 5.4 9.72 8.1 20.79 8.1 33.21 0 2.88-.27 6.48-.81 10.8h-103.14c1.44 10.8 6.3 19.89 14.58 27.27 8.28 7.38 18.18 11.07 29.7 11.07 14.22 0 26.91-5.94 38.07-17.82l14.85 13.77c-5.22 6.84-12.51 12.78-21.87 17.82-9.18 4.86-19.89 7.29-32.13 7.29Zm38.07-77.76c-1.8-11.34-6.21-20.34-13.23-27-6.84-6.66-15.57-9.99-26.19-9.99-10.98 0-20.25 3.51-27.81 10.53-7.56 6.84-12.33 15.66-14.31 26.46h81.54Zm-137.48 75.057h-22.14v-129.6h22.14v129.6Zm-11.07-156.06c-3.78 0-7.11-1.35-9.99-4.05-2.7-2.7-4.05-6.03-4.05-9.99s1.35-7.29 4.05-9.99c2.88-2.7 6.21-4.05 9.99-4.05 3.6 0 6.75 1.35 9.45 4.05 2.88 2.7 4.32 6.03 4.32 9.99s-1.44 7.29-4.32 9.99c-2.7 2.7-5.85 4.05-9.45 4.05Zm-167.19 156.063v-129.6h22.14v19.71h.27c3.6-5.76 9.09-10.89 16.47-15.39 7.38-4.68 15.75-7.02 25.11-7.02 9.9 0 18.72 2.34 26.46 7.02 7.92 4.68 14.04 11.25 18.36 19.71 4.5 8.46 6.75 18.27 6.75 29.43v76.14h-21.87v-76.14c0-10.44-3.15-18.9-9.45-25.38-6.3-6.48-14.31-9.72-24.03-9.72-10.8 0-19.89 3.78-27.27 11.34-7.2 7.56-10.8 17.19-10.8 28.89v71.01h-22.14Zm-91.47 2.7c-12.06 0-23.13-2.97-33.21-8.91-10.08-6.12-18.09-14.31-24.03-24.57-5.94-10.26-8.91-21.6-8.91-34.02 0-12.6 2.88-24.03 8.64-34.29 5.94-10.26 13.86-18.36 23.76-24.3 9.9-5.94 20.7-8.91 32.4-8.91 11.52 0 22.05 2.79 31.59 8.37 9.54 5.58 17.01 13.32 22.41 23.22 5.4 9.72 8.1 20.79 8.1 33.21 0 2.88-.27 6.48-.81 10.8h-103.14c1.44 10.8 6.3 19.89 14.58 27.27 8.28 7.38 18.18 11.07 29.7 11.07 14.22 0 26.91-5.94 38.07-17.82l14.85 13.77c-5.22 6.84-12.51 12.78-21.87 17.82-9.18 4.86-19.89 7.29-32.13 7.29Zm38.07-77.76c-1.8-11.34-6.21-20.34-13.23-27-6.84-6.66-15.57-9.99-26.19-9.99-10.98 0-20.25 3.51-27.81 10.53-7.56 6.84-12.33 15.66-14.31 26.46h81.54Zm-200.09 131.76c-11.88 0-23.04-2.88-33.48-8.64-10.26-5.58-17.64-11.7-22.14-18.36l15.66-14.31c3.42 5.04 8.82 9.63 16.2 13.77 7.56 4.32 15.48 6.48 23.76 6.48 12.6 0 22.68-4.23 30.24-12.69 7.74-8.46 11.61-19.44 11.61-32.94v-15.12h-.27c-4.14 6.3-10.17 11.61-18.09 15.93s-16.47 6.48-25.65 6.48c-10.44 0-20.16-2.79-29.16-8.37-9-5.58-16.2-13.32-21.6-23.22-5.22-9.9-7.83-20.97-7.83-33.21 0-12.24 2.61-23.31 7.83-33.21 5.4-9.9 12.6-17.64 21.6-23.22 9-5.58 18.72-8.37 29.16-8.37 9.9 0 18.72 2.34 26.46 7.02 7.92 4.68 13.68 9.81 17.28 15.39h.27v-19.71h22.14v119.61c0 12.6-2.79 23.94-8.37 34.02-5.4 10.26-12.96 18.27-22.68 24.03-9.72 5.76-20.7 8.64-32.94 8.64Zm1.35-80.46c7.56 0 14.4-1.89 20.52-5.67 6.12-3.78 10.98-8.91 14.58-15.39 3.6-6.66 5.4-14.22 5.4-22.68 0-8.46-1.8-15.93-5.4-22.41-3.6-6.66-8.46-11.88-14.58-15.66-6.12-3.78-12.96-5.67-20.52-5.67-7.2 0-13.86 1.89-19.98 5.67-6.12 3.78-10.98 9-14.58 15.66-3.6 6.66-5.4 14.13-5.4 22.41s1.8 15.75 5.4 22.41c3.6 6.66 8.46 11.88 14.58 15.66 6.12 3.78 12.78 5.67 19.98 5.67Zm-208.24 23.76v-129.6h22.14v19.71h.27c3.6-5.76 9.09-10.89 16.47-15.39 7.38-4.68 15.75-7.02 25.11-7.02 9.9 0 18.72 2.34 26.46 7.02 7.92 4.68 14.04 11.25 18.36 19.71 4.5 8.46 6.75 18.27 6.75 29.43v76.14h-21.87v-76.14c0-10.44-3.15-18.9-9.45-25.38-6.3-6.48-14.31-9.72-24.03-9.72-10.8 0-19.89 3.78-27.27 11.34-7.2 7.56-10.8 17.19-10.8 28.89v71.01h-22.14Zm-48.29-.003h-24.3v-189h24.3v189Zm-170.94-19.443h-19.17v-49.95h-49.14v-20.25h49.14v-49.95h19.17v49.95h49.14v20.25h-49.14v49.95Zm-278.78 19.446v-129.6h22.14v19.71h.27c3.6-5.76 9.09-10.89 16.47-15.39 7.38-4.68 15.75-7.02 25.11-7.02 9.9 0 18.72 2.34 26.46 7.02 7.92 4.68 14.04 11.25 18.36 19.71 4.5 8.46 6.75 18.27 6.75 29.43v76.14h-21.87v-76.14c0-10.44-3.15-18.9-9.45-25.38-6.3-6.48-14.31-9.72-24.03-9.72-10.8 0-19.89 3.78-27.27 11.34-7.2 7.56-10.8 17.19-10.8 28.89v71.01h-22.14Zm-91.46 2.7c-12.06 0-23.13-2.97-33.21-8.91-10.08-6.12-18.09-14.31-24.03-24.57-5.94-10.26-8.91-21.6-8.91-34.02 0-12.6 2.88-24.03 8.64-34.29 5.94-10.26 13.86-18.36 23.76-24.3 9.9-5.94 20.7-8.91 32.4-8.91 11.52 0 22.05 2.79 31.59 8.37 9.54 5.58 17.01 13.32 22.41 23.22 5.4 9.72 8.1 20.79 8.1 33.21 0 2.88-.27 6.48-.81 10.8h-103.14c1.44 10.8 6.3 19.89 14.58 27.27 8.28 7.38 18.18 11.07 29.7 11.07 14.22 0 26.91-5.94 38.07-17.82l14.85 13.77c-5.22 6.84-12.51 12.78-21.87 17.82-9.18 4.86-19.89 7.29-32.13 7.29Zm38.07-77.76c-1.8-11.34-6.21-20.34-13.23-27-6.84-6.66-15.57-9.99-26.19-9.99-10.98 0-20.25 3.51-27.81 10.53-7.56 6.84-12.33 15.66-14.31 26.46h81.54Zm-142.67 76.41c-12.06 0-21.42-3.42-28.08-10.26-6.48-7.02-9.72-17.1-9.72-30.24v-69.39h-24.57v-21.06h15.66c7.56 0 11.34-4.5 11.34-13.5v-29.7h19.71v43.2h31.59v21.06h-31.59v67.5c0 7.02 1.71 12.33 5.13 15.93 3.42 3.6 8.19 5.4 14.31 5.4 5.04 0 10.26-1.35 15.66-4.05v21.06c-2.16 1.08-5.04 1.98-8.64 2.7-3.42.9-7.02 1.35-10.8 1.35Zm-133.44-69.123 65.61 67.77h-29.16l-61.29-64.53v64.53h-22.14v-189h22.14v119.61l58.32-60.21h27.54l-61.02 61.83Zm-139.8 70.473c-12.06 0-23.13-2.97-33.21-8.91-10.08-6.12-18.09-14.31-24.03-24.57-5.94-10.26-8.91-21.6-8.91-34.02 0-12.6 2.88-24.03 8.64-34.29 5.94-10.26 13.86-18.36 23.76-24.3 9.9-5.94 20.7-8.91 32.4-8.91 11.52 0 22.05 2.79 31.59 8.37 9.54 5.58 17.01 13.32 22.41 23.22 5.4 9.72 8.1 20.79 8.1 33.21 0 2.88-.27 6.48-.81 10.8h-103.14c1.44 10.8 6.3 19.89 14.58 27.27 8.28 7.38 18.18 11.07 29.7 11.07 14.22 0 26.91-5.94 38.07-17.82l14.85 13.77c-5.22 6.84-12.51 12.78-21.87 17.82-9.18 4.86-19.89 7.29-32.13 7.29Zm38.07-77.76c-1.8-11.34-6.21-20.34-13.23-27-6.84-6.66-15.57-9.99-26.19-9.99-10.98 0-20.25 3.51-27.81 10.53-7.56 6.84-12.33 15.66-14.31 26.46h81.54Zm-142.67 76.41c-12.06 0-21.42-3.42-28.08-10.26-6.48-7.02-9.72-17.1-9.72-30.24v-69.39h-24.57v-21.06h15.66c7.56 0 11.34-4.5 11.34-13.5v-29.7h19.71v43.2h31.59v21.06h-31.59v67.5c0 7.02 1.71 12.33 5.13 15.93 3.42 3.6 8.19 5.4 14.31 5.4 5.04 0 10.26-1.35 15.66-4.05v21.06c-2.16 1.08-5.04 1.98-8.64 2.7-3.42.9-7.02 1.35-10.8 1.35Zm-91.31-1.353h-22.14v-129.6h22.14v129.6Zm-11.07-156.06c-3.78 0-7.11-1.35-9.99-4.05-2.7-2.7-4.05-6.03-4.05-9.99s1.35-7.29 4.05-9.99c2.88-2.7 6.21-4.05 9.99-4.05 3.6 0 6.75 1.35 9.45 4.05 2.88 2.7 4.32 6.03 4.32 9.99s-1.44 7.29-4.32 9.99c-2.7 2.7-5.85 4.05-9.45 4.05Zm-167.17 156.06v-189h22.14v79.11h.27c3.6-5.76 9.09-10.89 16.47-15.39 7.38-4.68 15.75-7.02 25.11-7.02 9.9 0 18.72 2.34 26.46 7.02 7.92 4.68 14.04 11.25 18.36 19.71 4.5 8.46 6.75 18.27 6.75 29.43v76.14h-21.87v-76.14c0-10.44-3.15-18.9-9.45-25.38-6.3-6.48-14.31-9.72-24.03-9.72-10.8 0-19.89 3.78-27.27 11.34-7.2 7.56-10.8 17.19-10.8 28.89v71.01h-22.14Zm-84.64 2.703c-12.06 0-23.13-2.97-33.208-8.91-10.08-6.12-18.09-14.31-24.03-24.57-5.94-10.26-8.91-21.6-8.91-34.02 0-12.42 2.97-23.76 8.91-34.02 5.94-10.26 13.95-18.36 24.03-24.3 10.078-6.12 21.148-9.18 33.208-9.18 12.06 0 22.68 2.7 31.86 8.1 9.36 5.22 16.65 11.25 21.87 18.09l-15.93 13.5c-4.32-5.22-9.63-9.63-15.93-13.23-6.3-3.6-13.59-5.4-21.87-5.4-8.1 0-15.48 2.07-22.14 6.21-6.658 3.96-11.968 9.54-15.928 16.74-3.96 7.02-5.94 14.85-5.94 23.49 0 8.64 1.98 16.56 5.94 23.76 3.96 7.02 9.27 12.6 15.928 16.74 6.66 3.96 14.04 5.94 22.14 5.94 8.28 0 15.66-1.8 22.14-5.4 6.66-3.78 12.15-8.37 16.47-13.77l16.2 13.5c-5.58 7.2-13.14 13.5-22.68 18.9-9.36 5.22-20.07 7.83-32.13 7.83Zm-150.055-2.7v-129.6h22.14v18.9h.27c3.6-5.58 9-10.53 16.2-14.85 7.38-4.5 15.66-6.75 24.84-6.75h6.21v22.95c-4.32-.54-7.29-.81-8.91-.81-7.02 0-13.5 1.8-19.44 5.4-5.76 3.6-10.44 8.64-14.04 15.12-3.42 6.3-5.13 13.41-5.13 21.33v68.31h-22.14Zm-179.335-.003H672l76.41-189h26.46l76.41 189h-25.92l-20.52-50.76h-87.48l-20.25 50.76Zm63.72-160.38-34.56 86.94h69.66l-34.56-86.94h-.54Z"/>
</svg>
