<svg xmlns="http://www.w3.org/2000/svg" width="3536" height="264" fill="none" viewBox="0 0 3536 264">
  <path fill="#fff" d="M54 105h41.453l71.713-99h61.51L141.16 125.88 234.796 258h-66.405L96.586 155.4H54V258H0V6h54v99Z"/>
  <path fill="#fff" d="M366.033 263.4c-25.68 0-48.96-5.88-69.84-17.64-20.88-11.76-37.32-27.6-49.32-47.52-11.76-20.16-17.64-42.24-17.64-66.24 0-24 5.88-46.08 17.64-66.24 12-20.16 28.44-36 49.32-47.52C317.073 6.48 340.353.6 366.033.6c25.68 0 48.84 5.88 69.48 17.64 20.88 11.52 37.32 27.36 49.32 47.52 12 20.16 18 42.24 18 66.24 0 24-6 46.08-18 66.24-12 19.92-28.44 35.76-49.32 47.52-20.88 11.76-44.04 17.64-69.48 17.64Zm0-49.68c15.12 0 28.92-3.6 41.4-10.8 12.48-7.2 22.32-17.04 29.52-29.52 7.2-12.48 10.8-26.28 10.8-41.4 0-15.12-3.6-28.92-10.8-41.4-7.2-12.48-17.04-22.32-29.52-29.52-12.48-7.44-26.28-11.16-41.4-11.16-15.12 0-29.04 3.6-41.76 10.8-12.48 7.2-22.32 17.16-29.52 29.88-7.2 12.48-10.8 26.28-10.8 41.4 0 15.12 3.6 28.92 10.8 41.4 7.44 12.48 17.4 22.32 29.88 29.52 12.48 7.2 26.28 10.8 41.4 10.8ZM756.402 258h-58.68l-46.44-86.4h-48.96V258h-54V6h111.6c16.8 0 31.8 3.6 45 10.8 13.44 7.2 23.88 17.16 31.32 29.88 7.44 12.48 11.16 26.52 11.16 42.12 0 16.08-4.08 30.6-12.24 43.56-7.92 12.96-18.84 22.92-32.76 29.88l54 95.76ZM602.322 54.6V123h55.8c10.32 0 18.72-3.24 25.2-9.72 6.72-6.48 10.08-14.64 10.08-24.48s-3.36-18-10.08-24.48c-6.48-6.48-14.88-9.72-25.2-9.72h-55.8ZM894.757 258h-54V56.4h-73.08V6h199.8v50.4h-72.72V258Zm297.223 0h-189V6h185.4v48.6h-131.4v51.12h102.6v46.8h-102.6v56.88h135V258Zm235.98 0h-54V6h54v99h108V6h54v252h-54V155.4h-108V258Zm344.58 5.4c-25.68 0-48.96-5.88-69.84-17.64-20.88-11.76-37.32-27.6-49.32-47.52-11.76-20.16-17.64-42.24-17.64-66.24 0-24 5.88-46.08 17.64-66.24 12-20.16 28.44-36 49.32-47.52C1723.58 6.48 1746.86.6 1772.54.6c25.68 0 48.84 5.88 69.48 17.64 20.88 11.52 37.32 27.36 49.32 47.52 12 20.16 18 42.24 18 66.24 0 24-6 46.08-18 66.24-12 19.92-28.44 35.76-49.32 47.52-20.88 11.76-44.04 17.64-69.48 17.64Zm0-49.68c15.12 0 28.92-3.6 41.4-10.8 12.48-7.2 22.32-17.04 29.52-29.52 7.2-12.48 10.8-26.28 10.8-41.4 0-15.12-3.6-28.92-10.8-41.4-7.2-12.48-17.04-22.32-29.52-29.52-12.48-7.44-26.28-11.16-41.4-11.16-15.12 0-29.04 3.6-41.76 10.8-12.48 7.2-22.32 17.16-29.52 29.88-7.2 12.48-10.8 26.28-10.8 41.4 0 15.12 3.6 28.92 10.8 41.4 7.44 12.48 17.4 22.32 29.88 29.52 12.48 7.2 26.28 10.8 41.4 10.8ZM2008.83 258h-54V6h183.6v51.12h-129.6v57.6h100.8v49.68h-100.8V258Zm222.76 0h-54V6h183.6v51.12h-129.6v57.6h100.8v49.68h-100.8V258Zm222.4 0h-53.64V6h69.84l83.16 182.16h1.08L2637.23 6h67.32v252h-53.28V86.64h-1.44L2569.91 258h-34.92l-79.56-171.36h-1.44V258Zm339.22 0h-56.52l97.92-252h60.12l97.56 252h-57.24l-21.24-56.88h-99.72L2793.21 258Zm70.2-196.92-33.48 94.32h68.04l-33.48-94.32h-1.08ZM3077.73 258h-53.28V6h47.88l122.76 162h1.44V6h52.92v252h-47.52L3078.81 95.64h-1.08V258Zm285.69 0h-53.28V6h47.88l122.76 162h1.44V6h52.92v252h-47.52L3364.5 95.64h-1.08V258Z"/>
</svg>
