<svg xmlns="http://www.w3.org/2000/svg" width="1233" height="756" fill="none" viewBox="0 0 1233 756">
  <path fill="#000" d="M432 351h41.453l71.713-99h61.51L519.16 371.88 612.796 504h-66.405l-71.805-102.6H432V504h-54V252h54v99Zm260.252 153h-54V252h54v99h108v-99h54v252h-54V401.4h-108V504Zm237.998 1c-6.867 0-13.133-1.6-18.8-4.8-5.667-3.2-10.133-7.533-13.4-13-3.2-5.533-4.8-11.6-4.8-18.2s1.6-12.633 4.8-18.1c3.267-5.533 7.733-9.9 13.4-13.1 5.667-3.2 11.933-4.8 18.8-4.8 6.867 0 13.133 1.6 18.8 4.8 5.667 3.2 10.1 7.567 13.3 13.1 3.267 5.467 4.9 11.5 4.9 18.1 0 6.6-1.633 12.667-4.9 18.2-3.2 5.467-7.633 9.8-13.3 13-5.667 3.2-11.933 4.8-18.8 4.8Zm0-7c5.267 0 10.1-1.3 14.5-3.9 4.467-2.6 8-6.1 10.6-10.5 2.6-4.467 3.9-9.333 3.9-14.6 0-5.267-1.3-10.1-3.9-14.5-2.6-4.467-6.133-8-10.6-10.6-4.4-2.6-9.233-3.9-14.5-3.9-5.267 0-10.133 1.3-14.6 3.9-4.4 2.6-7.9 6.133-10.5 10.6-2.6 4.4-3.9 9.233-3.9 14.5 0 5.267 1.3 10.133 3.9 14.6 2.6 4.4 6.1 7.9 10.5 10.5 4.467 2.6 9.333 3.9 14.6 3.9Zm-13-10.5v-37h15c2.467 0 4.667.567 6.6 1.7 2 1.067 3.567 2.533 4.7 4.4 1.133 1.8 1.7 3.767 1.7 5.9 0 2.533-.733 4.667-2.2 6.4-1.4 1.733-3 2.933-4.8 3.6l8.5 15h-8l-7-13h-7v13h-7.5Zm15-20c1.733 0 3.067-.433 4-1.3 1-.933 1.5-2.167 1.5-3.7 0-1.533-.5-2.733-1.5-3.6-.933-.933-2.267-1.4-4-1.4h-7.5v10h7.5Z"/>
</svg>
