<svg xmlns="http://www.w3.org/2000/svg" width="2753" height="504" fill="none" viewBox="0 0 2753 504">
  <path fill="#000" d="M54 225h41.453l34.214-47.233L162.082 126h66.594l-70.579 96.679-14.641 23.201 14.64 23.896L234.796 378h-71.655l-33.477-55.335L96.586 275.4H54V378H0V126h54v99Zm291.252 153h-54V126h54v99h108v-99h54v252h-54V275.4h-108V378ZM802 504h-42V0h42v504Zm388-122.4c-24.72 0-47.28-5.76-67.68-17.28-20.4-11.52-36.48-27.12-48.24-46.8-11.52-19.92-17.28-41.76-17.28-65.52 0-23.76 5.76-45.48 17.28-65.16 11.76-19.92 27.84-35.64 48.24-47.16 20.4-11.52 42.96-17.28 67.68-17.28 22.8 0 42.96 4.8 60.48 14.4 17.76 9.6 31.8 20.88 42.12 33.84l-27.72 22.68c-8.88-10.08-19.32-18.36-31.32-24.84-11.76-6.72-26.28-10.08-43.56-10.08-17.04 0-32.76 4.2-47.16 12.6-14.4 8.16-25.8 19.44-34.2 33.84-8.16 14.4-12.24 30.12-12.24 47.16 0 17.04 4.08 32.76 12.24 47.16 8.4 14.4 19.8 25.8 34.2 34.2 14.4 8.16 30.12 12.24 47.16 12.24 14.88 0 28.44-2.76 40.68-8.28 12.48-5.52 21.72-11.76 27.72-18.72V279h-54v-34.2h93.6V333c-6 7.68-14.4 15.24-25.2 22.68-10.56 7.44-23.04 13.68-37.44 18.72-14.16 4.8-29.28 7.2-45.36 7.2Zm403.61-3.6h-45l-52.2-93.6h-59.4V378h-39.6V126h104.4c15.84 0 30 3.48 42.48 10.44 12.72 6.96 22.56 16.44 29.52 28.44 7.2 12 10.8 25.44 10.8 40.32 0 16.32-4.32 30.96-12.96 43.92s-20.28 22.56-34.92 28.8L1593.61 378Zm-156.6-216v86.4h64.8c12.72 0 23.04-4.08 30.96-12.24 8.16-8.16 12.24-18.48 12.24-30.96 0-12.72-4.08-23.04-12.24-30.96-7.92-8.16-18.24-12.24-30.96-12.24h-64.8Zm353.32 219.6c-20.64 0-39-4.44-55.08-13.32-16.08-8.88-28.68-21.24-37.8-37.08-8.88-15.84-13.32-33.84-13.32-54V126h39.6v151.2c0 12.96 2.88 24.72 8.64 35.28 6 10.32 14.04 18.48 24.12 24.48 10.08 5.76 21.36 8.64 33.84 8.64 11.76 0 22.68-3 32.76-9 10.32-6.24 18.48-14.64 24.48-25.2 6.24-10.56 9.36-21.96 9.36-34.2V126h39.6v151.2c0 20.16-4.56 38.16-13.68 54-8.88 15.84-21.36 28.2-37.44 37.08-16.08 8.88-34.44 13.32-55.08 13.32Zm214.43-3.6V126h100.8c15.84 0 30.24 3.6 43.2 10.8 12.96 7.2 23.04 17.04 30.24 29.52 7.44 12.24 11.16 25.8 11.16 40.68 0 14.88-3.72 28.56-11.16 41.04-7.2 12.24-17.28 21.96-30.24 29.16-12.96 7.2-27.36 10.8-43.2 10.8h-61.2v90h-39.6Zm100.8-126c12.72 0 23.4-4.32 32.04-12.96 8.64-8.88 12.96-19.56 12.96-32.04 0-12.72-4.32-23.4-12.96-32.04S2118.28 162 2105.56 162h-61.2v90h61.2Zm173.34 126V126h100.8c15.84 0 30.24 3.6 43.2 10.8 12.96 7.2 23.04 17.04 30.24 29.52 7.44 12.24 11.16 25.8 11.16 40.68 0 14.88-3.72 28.56-11.16 41.04-7.2 12.24-17.28 21.96-30.24 29.16-12.96 7.2-27.36 10.8-43.2 10.8h-61.2v90h-39.6Zm100.8-126c12.72 0 23.4-4.32 32.04-12.96 8.64-8.88 12.96-19.56 12.96-32.04 0-12.72-4.32-23.4-12.96-32.04S2392.42 162 2379.7 162h-61.2v90h61.2Zm355.14 126h-181.8V126h178.2v36h-138.6v67.32h109.8v36h-109.8V342h142.2v36Z"/>
</svg>
