<svg xmlns="http://www.w3.org/2000/svg" width="5032" height="1323" fill="none" viewBox="0 0 5032 1323">
  <path fill="#000" d="M306 464.4h38.492l70.559-99h61.387L390.33 485.28l92.129 132.12h-66.204l-70.649-102.6H306v102.6h-54v-252h54v99Zm356.033 158.4c-25.68 0-48.96-5.88-69.84-17.64-20.88-11.76-37.32-27.6-49.32-47.52-11.76-20.16-17.64-42.24-17.64-66.24 0-24 5.88-46.08 17.64-66.24 12-20.16 28.44-36 49.32-47.52 20.88-11.76 44.16-17.64 69.84-17.64 25.68 0 48.84 5.88 69.48 17.64 20.88 11.52 37.32 27.36 49.32 47.52 12 20.16 18 42.24 18 66.24 0 24-6 46.08-18 66.24-12 19.92-28.44 35.76-49.32 47.52-20.88 11.76-44.04 17.64-69.48 17.64Zm0-49.68c15.12 0 28.92-3.6 41.4-10.8 12.48-7.2 22.32-17.04 29.52-29.52 7.2-12.48 10.8-26.28 10.8-41.4 0-15.12-3.6-28.92-10.8-41.4-7.2-12.48-17.04-22.32-29.52-29.52-12.48-7.44-26.28-11.16-41.4-11.16-15.12 0-29.04 3.6-41.76 10.8-12.48 7.2-22.32 17.16-29.52 29.88-7.2 12.48-10.8 26.28-10.8 41.4 0 15.12 3.6 28.92 10.8 41.4 7.44 12.48 17.4 22.32 29.88 29.52 12.48 7.2 26.28 10.8 41.4 10.8ZM1096.4 617.4h-58.68L991.282 531h-48.96v86.4h-54v-252h111.6c16.798 0 31.798 3.6 44.998 10.8 13.44 7.2 23.88 17.16 31.32 29.88 7.44 12.48 11.16 26.52 11.16 42.12 0 16.08-4.08 30.6-12.24 43.56-7.92 12.96-18.84 22.92-32.76 29.88l54 95.76ZM942.322 414v68.4h55.8c10.318 0 18.718-3.24 25.198-9.72 6.72-6.48 10.08-14.64 10.08-24.48s-3.36-18-10.08-24.48c-6.48-6.48-14.88-9.72-25.198-9.72h-55.8Zm336.438 203.4h-54V415.8h-73.08v-50.4h199.8v50.4h-72.72v201.6Zm341.22 0h-189v-252h185.4V414h-131.4v51.12h102.6v46.8h-102.6v56.88h135v48.6Zm323.98 0h-54v-252h54v99h108v-99h54v252h-54V514.8h-108v102.6Zm388.58 5.4c-25.68 0-48.96-5.88-69.84-17.64-20.88-11.76-37.32-27.6-49.32-47.52-11.76-20.16-17.64-42.24-17.64-66.24 0-24 5.88-46.08 17.64-66.24 12-20.16 28.44-36 49.32-47.52 20.88-11.76 44.16-17.64 69.84-17.64 25.68 0 48.84 5.88 69.48 17.64 20.88 11.52 37.32 27.36 49.32 47.52 12 20.16 18 42.24 18 66.24 0 24-6 46.08-18 66.24-12 19.92-28.44 35.76-49.32 47.52-20.88 11.76-44.04 17.64-69.48 17.64Zm0-49.68c15.12 0 28.92-3.6 41.4-10.8 12.48-7.2 22.32-17.04 29.52-29.52 7.2-12.48 10.8-26.28 10.8-41.4 0-15.12-3.6-28.92-10.8-41.4-7.2-12.48-17.04-22.32-29.52-29.52-12.48-7.44-26.28-11.16-41.4-11.16-15.12 0-29.04 3.6-41.76 10.8-12.48 7.2-22.32 17.16-29.52 29.88-7.2 12.48-10.8 26.28-10.8 41.4 0 15.12 3.6 28.92 10.8 41.4 7.44 12.48 17.4 22.32 29.88 29.52 12.48 7.2 26.28 10.8 41.4 10.8Zm280.29 44.28h-54v-252h183.6v51.12h-129.6v57.6h100.8v49.68h-100.8v93.6Zm266.76 0h-54v-252h183.6v51.12h-129.6v57.6h100.8v49.68h-100.8v93.6Zm266.4 0h-53.64v-252h69.84l83.16 182.16h1.08l82.8-182.16h67.32v252h-53.28V446.04h-1.44l-79.92 171.36h-34.92l-79.56-171.36h-1.44V617.4Zm383.22 0h-56.52l97.92-252h60.12l97.56 252h-57.24l-21.24-56.88h-99.72l-20.88 56.88Zm70.2-196.92-33.48 94.32h68.04l-33.48-94.32h-1.08Zm258.32 196.92h-53.28v-252h47.88l122.76 162h1.44v-162h52.92v252h-47.52l-123.12-162.36h-1.08V617.4Zm329.69 0h-53.28v-252h47.88l122.76 162h1.44v-162h52.92v252h-47.52L4188.5 455.04h-1.08V617.4ZM2520.67 957.6h-33.75v-189h33.75v189Zm100.65 0V827.46h30.51v18.36h.54c2.7-5.4 7.29-10.26 13.77-14.58 6.66-4.32 14.4-6.48 23.22-6.48 9.18 0 17.28 2.25 24.3 6.75 7.2 4.5 12.24 9.45 15.12 14.85h.54c3.24-5.4 8.82-10.35 16.74-14.85 7.92-4.5 17.19-6.75 27.81-6.75 8.46 0 16.2 2.34 23.22 7.02 7.2 4.5 12.87 10.98 17.01 19.44 4.32 8.28 6.48 18 6.48 29.16v77.22h-30.51v-75.87c0-8.82-2.43-15.66-7.29-20.52-4.68-5.04-10.62-7.56-17.82-7.56-8.28 0-15.21 3.06-20.79 9.18-5.4 5.94-8.1 13.86-8.1 23.76v71.01h-30.51v-75.87c0-8.82-2.34-15.66-7.02-20.52-4.68-5.04-10.62-7.56-17.82-7.56-8.28 0-15.21 3.06-20.79 9.18-5.4 5.94-8.1 13.86-8.1 23.76v71.01h-30.51Zm290.67 0V827.46h30.51v18.36h.54c2.7-5.4 7.29-10.26 13.77-14.58 6.66-4.32 14.4-6.48 23.22-6.48 9.18 0 17.28 2.25 24.3 6.75 7.2 4.5 12.24 9.45 15.12 14.85h.54c3.24-5.4 8.82-10.35 16.74-14.85 7.92-4.5 17.19-6.75 27.81-6.75 8.46 0 16.2 2.34 23.22 7.02 7.2 4.5 12.87 10.98 17.01 19.44 4.32 8.28 6.48 18 6.48 29.16v77.22h-30.51v-75.87c0-8.82-2.43-15.66-7.29-20.52-4.68-5.04-10.62-7.56-17.82-7.56-8.28 0-15.21 3.06-20.79 9.18-5.4 5.94-8.1 13.86-8.1 23.76v71.01h-30.51v-75.87c0-8.82-2.34-15.66-7.02-20.52-4.68-5.04-10.62-7.56-17.82-7.56-8.28 0-15.21 3.06-20.79 9.18-5.4 5.94-8.1 13.86-8.1 23.76v71.01h-30.51Zm351.14 2.7c-12.6 0-24.21-2.97-34.83-8.91-10.44-6.12-18.72-14.31-24.84-24.57-5.94-10.44-8.91-21.87-8.91-34.29 0-12.42 2.97-23.76 8.91-34.02 6.12-10.44 14.4-18.63 24.84-24.57 10.62-6.12 22.23-9.18 34.83-9.18 12.6 0 24.12 3.06 34.56 9.18 10.62 5.94 18.9 14.13 24.84 24.57 6.12 10.26 9.18 21.6 9.18 34.02 0 12.42-3.06 23.85-9.18 34.29-5.94 10.26-14.22 18.45-24.84 24.57-10.44 5.94-21.96 8.91-34.56 8.91Zm0-28.62c7.02 0 13.41-1.71 19.17-5.13 5.76-3.42 10.26-8.1 13.5-14.04 3.42-5.94 5.13-12.6 5.13-19.98 0-7.38-1.71-14.04-5.13-19.98-3.24-5.94-7.74-10.62-13.5-14.04s-12.15-5.13-19.17-5.13c-7.02 0-13.41 1.71-19.17 5.13-5.76 3.42-10.35 8.1-13.77 14.04-3.24 5.94-4.86 12.6-4.86 19.98 0 7.38 1.62 14.04 4.86 19.98 3.42 5.94 8.01 10.62 13.77 14.04s12.15 5.13 19.17 5.13Zm228.8 28.62c-10.08 0-18.99-2.16-26.73-6.48-7.74-4.32-13.23-9.18-16.47-14.58h-.54v18.36h-30.51v-189h30.51v77.22h.54c3.24-5.4 8.73-10.26 16.47-14.58 7.74-4.32 16.65-6.48 26.73-6.48 10.8 0 20.79 2.97 29.97 8.91 9.36 5.76 16.74 13.77 22.14 24.03 5.58 10.26 8.37 21.87 8.37 34.83 0 12.96-2.79 24.57-8.37 34.83-5.4 10.26-12.78 18.36-22.14 24.3-9.18 5.76-19.17 8.64-29.97 8.64Zm-7.02-28.62c6.66 0 12.78-1.71 18.36-5.13s9.99-8.1 13.23-14.04c3.42-5.94 5.13-12.6 5.13-19.98 0-7.38-1.71-14.04-5.13-19.98-3.24-5.94-7.65-10.62-13.23-14.04s-11.7-5.13-18.36-5.13-12.78 1.71-18.36 5.13-10.08 8.1-13.5 14.04c-3.24 5.94-4.86 12.6-4.86 19.98 0 7.38 1.62 14.04 4.86 19.98 3.42 5.94 7.92 10.62 13.5 14.04s11.7 5.13 18.36 5.13Zm184.07 25.92h-30.51V827.46h30.51V957.6Zm-15.12-152.55c-4.86 0-9.09-1.71-12.69-5.13-3.6-3.42-5.4-7.65-5.4-12.69 0-5.04 1.8-9.27 5.4-12.69 3.6-3.42 7.83-5.13 12.69-5.13 4.68 0 8.82 1.71 12.42 5.13 3.6 3.42 5.4 7.65 5.4 12.69 0 5.04-1.8 9.27-5.4 12.69-3.6 3.42-7.74 5.13-12.42 5.13Zm141 152.55h-30.51v-189h30.51v189Zm125.87 0h-30.51V827.46h30.51V957.6Zm-15.12-152.55c-4.86 0-9.09-1.71-12.69-5.13-3.6-3.42-5.4-7.65-5.4-12.69 0-5.04 1.8-9.27 5.4-12.69 3.6-3.42 7.83-5.13 12.69-5.13 4.68 0 8.82 1.71 12.42 5.13 3.6 3.42 5.4 7.65 5.4 12.69 0 5.04-1.8 9.27-5.4 12.69-3.6 3.42-7.74 5.13-12.42 5.13Zm169.61 155.25c-12.6 0-24.21-2.97-34.83-8.91-10.44-6.12-18.72-14.31-24.84-24.57-5.94-10.44-8.91-21.87-8.91-34.29 0-12.42 2.97-23.76 8.91-34.02 6.12-10.44 14.31-18.63 24.57-24.57 10.26-6.12 21.42-9.18 33.48-9.18 12.24 0 23.22 2.79 32.94 8.37 9.9 5.58 17.64 13.32 23.22 23.22 5.58 9.72 8.37 20.61 8.37 32.67 0 4.68-.45 9.27-1.35 13.77h-98.28c1.26 8.1 5.49 15.12 12.69 21.06 7.2 5.76 15.84 8.64 25.92 8.64 13.32 0 25.11-4.95 35.37-14.85l18.09 19.71c-5.04 6.12-12.42 11.52-22.14 16.2-9.72 4.5-20.79 6.75-33.21 6.75Zm31.32-80.46c-1.8-8.64-5.58-15.48-11.34-20.52-5.58-5.22-12.78-7.83-21.6-7.83-9.18 0-16.83 2.52-22.95 7.56-5.94 5.04-10.08 11.97-12.42 20.79h68.31Zm114.76 77.76V827.46h30.51v18.36h.54c3.42-5.4 8.64-10.26 15.66-14.58 7.2-4.32 15.21-6.48 24.03-6.48 9.72 0 18.45 2.34 26.19 7.02 7.74 4.5 13.77 10.98 18.09 19.44s6.48 18.45 6.48 29.97v76.41h-30.78v-74.52c0-9-2.61-16.11-7.83-21.33-5.04-5.4-11.61-8.1-19.71-8.1-9.36 0-17.19 3.24-23.49 9.72-6.12 6.3-9.18 14.49-9.18 24.57v69.66h-30.51Z"/>
  <path fill="#4D6D94" d="M4780 1071h-42V252h42v819Z"/>
</svg>
