<svg xmlns="http://www.w3.org/2000/svg" width="5055" height="1638" fill="none" viewBox="0 0 5055 1638">
  <path fill="#000" d="M630.301 504v99h22.192l84.367-99h62.641l-102.96 119.88L806.701 756h-68.4l-84.476-102.6h-23.524V756h-54V504h54Zm309.982 257.4c-25.68 0-48.96-5.88-69.84-17.64-20.88-11.76-37.32-27.6-49.32-47.52-11.76-20.16-17.64-42.24-17.64-66.24 0-24 5.88-46.08 17.64-66.24 12-20.16 28.44-36 49.32-47.52 20.88-11.76 44.16-17.64 69.84-17.64 25.68 0 48.84 5.88 69.477 17.64 20.88 11.52 37.32 27.36 49.32 47.52 12 20.16 18 42.24 18 66.24 0 24-6 46.08-18 66.24-12 19.92-28.44 35.76-49.32 47.52-20.877 11.76-44.037 17.64-69.477 17.64Zm0-49.68c15.12 0 28.92-3.6 41.4-10.8 12.48-7.2 22.317-17.04 29.517-29.52 7.2-12.48 10.8-26.28 10.8-41.4 0-15.12-3.6-28.92-10.8-41.4-7.2-12.48-17.037-22.32-29.517-29.52-12.48-7.44-26.28-11.16-41.4-11.16-15.12 0-29.04 3.6-41.76 10.8-12.48 7.2-22.32 17.16-29.52 29.88-7.2 12.48-10.8 26.28-10.8 41.4 0 15.12 3.6 28.92 10.8 41.4 7.44 12.48 17.4 22.32 29.88 29.52 12.48 7.2 26.28 10.8 41.4 10.8ZM1331 756h-58.68l-46.44-86.4h-48.96V756h-54V504h111.6c16.8 0 31.8 3.6 45 10.8 13.44 7.2 23.88 17.16 31.32 29.88 7.44 12.48 11.16 26.52 11.16 42.12 0 16.08-4.08 30.6-12.24 43.56-7.92 12.96-18.84 22.92-32.76 29.88l54 95.76Zm-154.08-203.4V621h55.8c10.32 0 18.72-3.24 25.2-9.72 6.72-6.48 10.08-14.64 10.08-24.48s-3.36-18-10.08-24.48c-6.48-6.48-14.88-9.72-25.2-9.72h-55.8ZM1469.71 756h-54V554.4h-73.08V504h199.8v50.4h-72.72V756Zm297.57 0h-189V504h185.4v48.6h-131.4v51.12h102.6v46.8h-102.6v56.88h135V756Zm236.68 0h-54V504h54v99h108v-99h54v252h-54V653.4h-108V756Zm344.93 5.4c-25.68 0-48.96-5.88-69.84-17.64-20.88-11.76-37.32-27.6-49.32-47.52-11.76-20.16-17.64-42.24-17.64-66.24 0-24 5.88-46.08 17.64-66.24 12-20.16 28.44-36 49.32-47.52 20.88-11.76 44.16-17.64 69.84-17.64 25.68 0 48.84 5.88 69.48 17.64 20.88 11.52 37.32 27.36 49.32 47.52 12 20.16 18 42.24 18 66.24 0 24-6 46.08-18 66.24-12 19.92-28.44 35.76-49.32 47.52-20.88 11.76-44.04 17.64-69.48 17.64Zm0-49.68c15.12 0 28.92-3.6 41.4-10.8 12.48-7.2 22.32-17.04 29.52-29.52 7.2-12.48 10.8-26.28 10.8-41.4 0-15.12-3.6-28.92-10.8-41.4-7.2-12.48-17.04-22.32-29.52-29.52-12.48-7.44-26.28-11.16-41.4-11.16-15.12 0-29.04 3.6-41.76 10.8-12.48 7.2-22.32 17.16-29.52 29.88-7.2 12.48-10.8 26.28-10.8 41.4 0 15.12 3.6 28.92 10.8 41.4 7.44 12.48 17.4 22.32 29.88 29.52 12.48 7.2 26.28 10.8 41.4 10.8ZM2585.53 756h-54V504h183.6v51.12h-129.6v57.6h100.8v49.68h-100.8V756Zm223.11 0h-54V504h183.6v51.12h-129.6v57.6h100.8v49.68h-100.8V756Zm222.75 0h-53.64V504h69.84l83.16 182.16h1.08l82.8-182.16h67.32v252h-53.28V584.64h-1.44L3147.31 756h-34.92l-79.56-171.36h-1.44V756Zm339.57 0h-56.52l97.92-252h60.12l97.56 252h-57.24l-21.24-56.88h-99.72L3370.96 756Zm70.2-196.92-33.48 94.32h68.04l-33.48-94.32h-1.08ZM3655.83 756h-53.28V504h47.88l122.76 162h1.44V504h52.92v252h-47.52l-123.12-162.36h-1.08V756Zm286.04 0h-53.28V504h47.88l122.76 162h1.44V504h52.92v252h-47.52l-123.12-162.36h-1.08V756Zm-1122.03 381.6c-23.76 0-45.6-5.76-65.52-17.28-19.92-11.52-35.64-27.24-47.16-47.16-11.52-19.92-17.28-41.64-17.28-65.16 0-23.52 5.76-45.24 17.28-65.16 11.52-19.92 27.24-35.64 47.16-47.16 19.92-11.52 41.76-17.28 65.52-17.28 22.8 0 43.2 5.04 61.2 15.12 18.24 10.08 32.16 21.84 41.76 35.28l-19.44 15.48c-8.4-11.04-19.68-20.52-33.84-28.44-13.92-7.92-30.48-11.88-49.68-11.88-18.72 0-36 4.56-51.84 13.68-15.84 9.12-28.32 21.72-37.44 37.8-9.12 15.84-13.68 33.36-13.68 52.56 0 19.2 4.56 36.72 13.68 52.56 9.12 15.84 21.6 28.44 37.44 37.8 15.84 9.12 33.12 13.68 51.84 13.68 17.52 0 33.48-3.6 47.88-10.8 14.4-7.44 25.08-15.6 32.04-24.48v-47.16h-61.2v-24.48h88.2v80.64c-6 8.16-14.28 16.2-24.84 24.12-10.56 7.92-22.92 14.52-37.08 19.8-14.16 5.28-29.16 7.92-45 7.92Zm353.84-3.6h-30.24l-56.16-100.08h-72.36V1134h-27V882h99c15.12 0 28.8 3.36 41.04 10.08 12.24 6.72 21.72 15.84 28.44 27.36 6.96 11.52 10.44 24.36 10.44 38.52 0 16.8-4.8 31.68-14.4 44.64-9.36 12.96-21.96 21.96-37.8 27l59.04 104.4Zm-158.76-226.44v101.16h72c15.84 0 28.56-4.68 38.16-14.04 9.84-9.6 14.76-21.84 14.76-36.72 0-14.64-4.92-26.64-14.76-36-9.84-9.6-22.56-14.4-38.16-14.4h-72Zm312.32 230.04c-19.2 0-36.6-4.32-52.2-12.96-15.6-8.88-27.84-21.12-36.72-36.72-8.64-15.6-12.96-33.12-12.96-52.56V882h27v153.36c0 14.64 3.24 27.84 9.72 39.6 6.48 11.52 15.36 20.64 26.64 27.36 11.52 6.48 24.36 9.72 38.52 9.72 13.92 0 26.64-3.36 38.16-10.08 11.52-6.72 20.52-15.84 27-27.36 6.72-11.76 10.08-24.84 10.08-39.24V882h27v153.36c0 19.44-4.44 36.96-13.32 52.56-8.64 15.6-20.76 27.84-36.36 36.72-15.6 8.64-33.12 12.96-52.56 12.96Zm170.88-3.6V882h94.32c15.6 0 29.64 3.48 42.12 10.44 12.72 6.96 22.68 16.56 29.88 28.8 7.2 12 10.8 25.2 10.8 39.6 0 14.4-3.6 27.72-10.8 39.96-7.2 12-17.16 21.48-29.88 28.44-12.48 6.96-26.52 10.44-42.12 10.44h-67.32V1134h-27Zm94.32-119.88c16.32 0 29.64-5.04 39.96-15.12 10.56-10.08 15.84-22.8 15.84-38.16 0-10.08-2.4-19.08-7.2-27-4.8-8.16-11.4-14.52-19.8-19.08-8.4-4.8-18-7.2-28.8-7.2h-67.32v106.56h67.32Zm131.6 119.88V882h94.32c15.6 0 29.64 3.48 42.12 10.44 12.72 6.96 22.68 16.56 29.88 28.8 7.2 12 10.8 25.2 10.8 39.6 0 14.4-3.6 27.72-10.8 39.96-7.2 12-17.16 21.48-29.88 28.44-12.48 6.96-26.52 10.44-42.12 10.44h-67.32V1134h-27Zm94.32-119.88c16.32 0 29.64-5.04 39.96-15.12 10.56-10.08 15.84-22.8 15.84-38.16 0-10.08-2.4-19.08-7.2-27-4.8-8.16-11.4-14.52-19.8-19.08-8.4-4.8-18-7.2-28.8-7.2h-67.32v106.56h67.32Zm308 119.88h-176.4V882h172.8v25.56h-145.8V990h117v25.56h-117v92.88h149.4V1134ZM4551 1386h-27V252h27v1134Z"/>
</svg>
