<svg xmlns="http://www.w3.org/2000/svg" width="4287" height="1097" fill="none" viewBox="0 0 4287 1097">
  <path fill="#000" d="M432 351h41.453l71.713-99h61.51L519.16 371.88 612.796 504h-66.405l-71.805-102.6H432V504h-54V252h54v99Z"/>
  <path fill="#000" d="M744.033 509.4c-25.68 0-48.96-5.88-69.84-17.64-20.88-11.76-37.32-27.6-49.32-47.52-11.76-20.16-17.64-42.24-17.64-66.24 0-24 5.88-46.08 17.64-66.24 12-20.16 28.44-36 49.32-47.52 20.88-11.76 44.16-17.64 69.84-17.64 25.68 0 48.84 5.88 69.48 17.64 20.88 11.52 37.32 27.36 49.32 47.52 12 20.16 18 42.24 18 66.24 0 24-6 46.08-18 66.24-12 19.92-28.44 35.76-49.32 47.52-20.88 11.76-44.04 17.64-69.48 17.64Zm0-49.68c15.12 0 28.92-3.6 41.4-10.8 12.48-7.2 22.32-17.04 29.52-29.52 7.2-12.48 10.8-26.28 10.8-41.4 0-15.12-3.6-28.92-10.8-41.4-7.2-12.48-17.04-22.32-29.52-29.52-12.48-7.44-26.28-11.16-41.4-11.16-15.12 0-29.04 3.6-41.76 10.8-12.48 7.2-22.32 17.16-29.52 29.88-7.2 12.48-10.8 26.28-10.8 41.4 0 15.12 3.6 28.92 10.8 41.4 7.44 12.48 17.4 22.32 29.88 29.52 12.48 7.2 26.28 10.8 41.4 10.8ZM1134.4 504h-58.68l-46.44-86.4h-48.958V504h-54V252h111.598c16.8 0 31.8 3.6 45 10.8 13.44 7.2 23.88 17.16 31.32 29.88 7.44 12.48 11.16 26.52 11.16 42.12 0 16.08-4.08 30.6-12.24 43.56-7.92 12.96-18.84 22.92-32.76 29.88l54 95.76ZM980.322 300.6V369h55.798c10.32 0 18.72-3.24 25.2-9.72 6.72-6.48 10.08-14.64 10.08-24.48s-3.36-18-10.08-24.48c-6.48-6.48-14.88-9.72-25.2-9.72h-55.798ZM1272.76 504h-54V302.4h-73.08V252h199.8v50.4h-72.72V504Zm297.22 0h-189V252h185.4v48.6h-131.4v51.12h102.6v46.8h-102.6v56.88h135V504Zm231.41 0h-54V252h54v99h108v-99h54v252h-54V401.4h-108V504Zm344.58 5.4c-25.68 0-48.96-5.88-69.84-17.64-20.88-11.76-37.32-27.6-49.32-47.52-11.76-20.16-17.64-42.24-17.64-66.24 0-24 5.88-46.08 17.64-66.24 12-20.16 28.44-36 49.32-47.52 20.88-11.76 44.16-17.64 69.84-17.64 25.68 0 48.84 5.88 69.48 17.64 20.88 11.52 37.32 27.36 49.32 47.52 12 20.16 18 42.24 18 66.24 0 24-6 46.08-18 66.24-12 19.92-28.44 35.76-49.32 47.52-20.88 11.76-44.04 17.64-69.48 17.64Zm0-49.68c15.12 0 28.92-3.6 41.4-10.8 12.48-7.2 22.32-17.04 29.52-29.52 7.2-12.48 10.8-26.28 10.8-41.4 0-15.12-3.6-28.92-10.8-41.4-7.2-12.48-17.04-22.32-29.52-29.52-12.48-7.44-26.28-11.16-41.4-11.16-15.12 0-29.04 3.6-41.76 10.8-12.48 7.2-22.32 17.16-29.52 29.88-7.2 12.48-10.8 26.28-10.8 41.4 0 15.12 3.6 28.92 10.8 41.4 7.44 12.48 17.4 22.32 29.88 29.52 12.48 7.2 26.28 10.8 41.4 10.8ZM2382.26 504h-54V252h183.6v51.12h-129.6v57.6h100.8v49.68h-100.8V504Zm222.76 0h-54V252h183.6v51.12h-129.6v57.6h100.8v49.68h-100.8V504Zm222.4 0h-53.64V252h69.84l83.16 182.16h1.08l82.8-182.16h67.32v252h-53.28V332.64h-1.44L2943.34 504h-34.92l-79.56-171.36h-1.44V504Zm339.22 0h-56.52l97.92-252h60.12l97.56 252h-57.24l-21.24-56.88h-99.72L3166.64 504Zm70.2-196.92-33.48 94.32h68.04l-33.48-94.32h-1.08ZM3451.16 504h-53.28V252h47.88l122.76 162h1.44V252h52.92v252h-47.52l-123.12-162.36h-1.08V504Zm285.69 0h-53.28V252h47.88l122.76 162h1.44V252h52.92v252h-47.52l-123.12-162.36h-1.08V504Z"/>
  <path fill="#6C845C" d="M475.94 846.903c-18.18 0-34.83-4.32-49.95-12.96-14.94-8.64-26.82-20.34-35.64-35.1-8.64-14.94-12.96-31.32-12.96-49.14s4.32-34.11 12.96-48.87c8.82-14.94 20.7-26.73 35.64-35.37 15.12-8.64 31.77-12.96 49.95-12.96 17.1 0 32.31 3.69 45.63 11.07 13.32 7.38 23.76 16.11 31.32 26.19l-17.28 13.77c-6.48-7.92-14.67-14.67-24.57-20.25-9.72-5.58-21.42-8.37-35.1-8.37s-26.19 3.33-37.53 9.99-20.34 15.75-27 27.27c-6.48 11.34-9.72 23.85-9.72 37.53s3.24 26.28 9.72 37.8c6.66 11.34 15.66 20.34 27 27s23.85 9.99 37.53 9.99c12.24 0 23.4-2.43 33.48-7.29 10.08-5.04 17.64-10.62 22.68-16.74v-32.67h-43.74v-21.6h68.04v62.91c-4.5 5.94-10.71 11.79-18.63 17.55-7.92 5.76-17.28 10.62-28.08 14.58-10.62 3.78-21.87 5.67-33.75 5.67Zm175.131 0c-12.06 0-23.13-2.97-33.21-8.91-10.08-6.12-18.09-14.31-24.03-24.57-5.94-10.26-8.91-21.6-8.91-34.02 0-12.6 2.88-24.03 8.64-34.29 5.94-10.26 13.86-18.36 23.76-24.3 9.9-5.94 20.7-8.91 32.4-8.91 11.52 0 22.05 2.79 31.59 8.37 9.54 5.58 17.01 13.32 22.41 23.22 5.4 9.72 8.1 20.79 8.1 33.21 0 2.88-.27 6.48-.81 10.8h-103.14c1.44 10.8 6.3 19.89 14.58 27.27 8.28 7.38 18.18 11.07 29.7 11.07 14.22 0 26.91-5.94 38.07-17.82l14.85 13.77c-5.22 6.84-12.51 12.78-21.87 17.82-9.18 4.86-19.89 7.29-32.13 7.29Zm38.07-77.76c-1.8-11.34-6.21-20.34-13.23-27-6.84-6.66-15.57-9.99-26.19-9.99-10.98 0-20.25 3.51-27.81 10.53-7.56 6.84-12.33 15.66-14.31 26.46h81.54Zm121.054 77.76c-10.44 0-19.89-2.34-28.35-7.02-8.28-4.86-14.13-10.26-17.55-16.2h-.27v20.52h-22.14v-189h22.14v79.92h.27c3.42-5.94 9.27-11.25 17.55-15.93 8.46-4.86 17.91-7.29 28.35-7.29 10.8 0 20.79 2.97 29.97 8.91 9.36 5.76 16.83 13.77 22.41 24.03 5.58 10.26 8.37 21.78 8.37 34.56 0 12.78-2.79 24.3-8.37 34.56-5.58 10.26-13.05 18.36-22.41 24.3-9.18 5.76-19.17 8.64-29.97 8.64Zm-3.51-21.06c7.56 0 14.58-1.98 21.06-5.94 6.48-4.14 11.61-9.72 15.39-16.74 3.96-7.02 5.94-14.94 5.94-23.76 0-8.82-1.98-16.74-5.94-23.76-3.78-7.02-8.91-12.51-15.39-16.47-6.48-4.14-13.5-6.21-21.06-6.21-7.74 0-14.94 1.98-21.6 5.94-6.48 3.96-11.61 9.54-15.39 16.74-3.78 7.02-5.67 14.94-5.67 23.76 0 8.82 1.89 16.83 5.67 24.03 3.78 7.02 8.91 12.51 15.39 16.47 6.66 3.96 13.86 5.94 21.6 5.94Zm142.332-113.94c10.26 0 19.35 2.16 27.27 6.48 7.92 4.32 14.04 10.35 18.36 18.09 4.5 7.56 6.753 16.2 6.753 25.92v81.81h-21.333v-19.71h-.27c-3.42 5.76-9.09 10.98-17.01 15.66-7.92 4.5-16.83 6.75-26.73 6.75-8.46 0-16.02-1.71-22.68-5.13s-11.88-7.92-15.66-13.5c-3.6-5.76-5.4-11.97-5.4-18.63 0-10.8 3.6-19.71 10.8-26.73 7.2-7.2 17.28-11.88 30.24-14.04l45.9-7.56v-.54c0-8.28-2.88-15.12-8.64-20.52-5.58-5.4-12.78-8.1-21.6-8.1-7.2 0-13.68 1.62-19.44 4.86-5.58 3.24-10.8 7.56-15.66 12.96l-14.31-13.77c5.76-6.84 12.78-12.6 21.06-17.28 8.28-4.68 17.73-7.02 28.35-7.02Zm-9.72 115.56c7.38 0 14.13-1.8 20.25-5.4 6.12-3.6 10.89-8.46 14.31-14.58 3.6-6.3 5.4-13.23 5.4-20.79v-7.29l-40.5 7.02c-8.1 1.44-14.22 4.05-18.36 7.83-3.96 3.78-5.94 8.28-5.94 13.5 0 5.4 2.25 10.08 6.75 14.04 4.68 3.78 10.71 5.67 18.09 5.67Zm-12.15-139.32c-3.78 0-7.11-1.35-9.99-4.05-2.7-2.7-4.05-6.03-4.05-9.99s1.35-7.29 4.05-9.99c2.88-2.7 6.21-4.05 9.99-4.05 3.6 0 6.75 1.35 9.45 4.05 2.88 2.7 4.32 6.03 4.32 9.99s-1.44 7.29-4.32 9.99c-2.7 2.7-5.85 4.05-9.45 4.05Zm51.57 0c-3.6 0-6.84-1.35-9.72-4.05-2.7-2.7-4.05-6.03-4.05-9.99s1.35-7.29 4.05-9.99c2.88-2.7 6.12-4.05 9.72-4.05 3.78 0 7.02 1.35 9.72 4.05 2.88 2.7 4.32 6.03 4.32 9.99s-1.44 7.29-4.32 9.99c-2.7 2.7-5.94 4.05-9.72 4.05Zm110.213 158.76c-9.9 0-18.81-2.34-26.73-7.02-7.74-4.68-13.86-11.25-18.36-19.71s-6.75-18.27-6.75-29.43v-76.14h22.14v76.14c0 10.44 3.06 18.9 9.18 25.38 6.3 6.48 14.31 9.72 24.03 9.72 7.2 0 13.68-1.71 19.44-5.13 5.94-3.42 10.53-8.19 13.77-14.31 3.42-6.12 5.13-13.05 5.13-20.79v-71.01h21.87v129.6h-21.87v-19.71h-.27c-3.42 5.76-8.91 10.98-16.47 15.66-7.56 4.5-15.93 6.75-25.11 6.75Zm154.39 0c-10.8 0-20.88-2.88-30.24-8.64-9.18-5.94-16.56-14.04-22.14-24.3-5.58-10.26-8.37-21.78-8.37-34.56 0-12.78 2.79-24.3 8.37-34.56 5.58-10.26 12.96-18.27 22.14-24.03 9.36-5.94 19.44-8.91 30.24-8.91 10.62 0 20.07 2.43 28.35 7.29 8.28 4.68 14.22 9.99 17.82 15.93h.27v-79.92h22.14v189h-22.14v-20.52h-.27c-3.6 5.94-9.54 11.34-17.82 16.2-8.28 4.68-17.73 7.02-28.35 7.02Zm3.78-21.06c7.74 0 14.85-1.98 21.33-5.94 6.48-4.14 11.61-9.72 15.39-16.74 3.96-7.02 5.94-14.94 5.94-23.76 0-8.82-1.98-16.74-5.94-23.76-3.78-7.02-8.91-12.51-15.39-16.47-6.48-4.14-13.59-6.21-21.33-6.21-7.56 0-14.58 2.07-21.06 6.21-6.48 3.96-11.7 9.45-15.66 16.47-3.78 7.02-5.67 14.94-5.67 23.76 0 8.82 1.89 16.74 5.67 23.76 3.96 7.02 9.18 12.6 15.66 16.74 6.48 3.96 13.5 5.94 21.06 5.94Zm162.05 21.06c-12.06 0-23.13-2.97-33.21-8.91-10.08-6.12-18.09-14.31-24.03-24.57-5.94-10.26-8.91-21.6-8.91-34.02 0-12.6 2.88-24.03 8.64-34.29 5.94-10.26 13.86-18.36 23.76-24.3 9.9-5.94 20.7-8.91 32.4-8.91 11.52 0 22.05 2.79 31.59 8.37 9.54 5.58 17.01 13.32 22.41 23.22 5.4 9.72 8.1 20.79 8.1 33.21 0 2.88-.27 6.48-.81 10.8h-103.14c1.44 10.8 6.3 19.89 14.58 27.27 8.28 7.38 18.18 11.07 29.7 11.07 14.22 0 26.91-5.94 38.07-17.82l14.85 13.77c-5.22 6.84-12.51 12.78-21.87 17.82-9.18 4.86-19.89 7.29-32.13 7.29Zm38.07-77.76c-1.8-11.34-6.21-20.34-13.23-27-6.84-6.66-15.57-9.99-26.19-9.99-10.98 0-20.25 3.51-27.81 10.53-7.56 6.84-12.33 15.66-14.31 26.46h81.54Zm103.5 77.76c-10.8 0-20.88-2.88-30.24-8.64-9.18-5.94-16.56-14.04-22.14-24.3-5.58-10.26-8.37-21.78-8.37-34.56 0-12.78 2.79-24.3 8.37-34.56 5.58-10.26 12.96-18.27 22.14-24.03 9.36-5.94 19.44-8.91 30.24-8.91 10.62 0 20.07 2.43 28.35 7.29 8.28 4.68 14.22 9.99 17.82 15.93h.27v-79.92h22.14v189h-22.14v-20.52h-.27c-3.6 5.94-9.54 11.34-17.82 16.2-8.28 4.68-17.73 7.02-28.35 7.02Zm3.78-21.06c7.74 0 14.85-1.98 21.33-5.94 6.48-4.14 11.61-9.72 15.39-16.74 3.96-7.02 5.94-14.94 5.94-23.76 0-8.82-1.98-16.74-5.94-23.76-3.78-7.02-8.91-12.51-15.39-16.47-6.48-4.14-13.59-6.21-21.33-6.21-7.56 0-14.58 2.07-21.06 6.21-6.48 3.96-11.7 9.45-15.66 16.47-3.78 7.02-5.67 14.94-5.67 23.76 0 8.82 1.89 16.74 5.67 23.76 3.96 7.02 9.18 12.6 15.66 16.74 6.48 3.96 13.5 5.94 21.06 5.94Zm104.53 18.36v-129.6h22.14v18.9h.27c3.6-5.58 9-10.53 16.2-14.85 7.38-4.5 15.66-6.75 24.84-6.75h6.21v22.95c-4.32-.54-7.29-.81-8.91-.81-7.02 0-13.5 1.8-19.44 5.4-5.76 3.6-10.44 8.64-14.04 15.12-3.42 6.3-5.13 13.41-5.13 21.33v68.31h-22.14Zm143.68 2.7c-9.9 0-18.81-2.34-26.73-7.02-7.74-4.68-13.86-11.25-18.36-19.71s-6.75-18.27-6.75-29.43v-76.14h22.14v76.14c0 10.44 3.06 18.9 9.18 25.38 6.3 6.48 14.31 9.72 24.03 9.72 7.2 0 13.68-1.71 19.44-5.13 5.94-3.42 10.53-8.19 13.77-14.31 3.42-6.12 5.13-13.05 5.13-20.79v-71.01h21.87v129.6h-21.87v-19.71h-.27c-3.42 5.76-8.91 10.98-16.47 15.66-7.56 4.5-15.93 6.75-25.11 6.75Zm159.79 0c-12.06 0-23.13-2.97-33.21-8.91-10.08-6.12-18.09-14.31-24.03-24.57-5.94-10.26-8.91-21.6-8.91-34.02 0-12.42 2.97-23.76 8.91-34.02 5.94-10.26 13.95-18.36 24.03-24.3 10.08-6.12 21.15-9.18 33.21-9.18 12.06 0 22.68 2.7 31.86 8.1 9.36 5.22 16.65 11.25 21.87 18.09l-15.93 13.5c-4.32-5.22-9.63-9.63-15.93-13.23-6.3-3.6-13.59-5.4-21.87-5.4-8.1 0-15.48 2.07-22.14 6.21-6.66 3.96-11.97 9.54-15.93 16.74-3.96 7.02-5.94 14.85-5.94 23.49 0 8.64 1.98 16.56 5.94 23.76 3.96 7.02 9.27 12.6 15.93 16.74 6.66 3.96 14.04 5.94 22.14 5.94 8.28 0 15.66-1.8 22.14-5.4 6.66-3.78 12.15-8.37 16.47-13.77l16.2 13.5c-5.58 7.2-13.14 13.5-22.68 18.9-9.36 5.22-20.07 7.83-32.13 7.83Zm129.62-70.47 65.61 67.77h-29.16l-61.29-64.53v64.53h-22.14v-189h22.14v119.61l58.32-60.21h27.54l-61.02 61.83Z"/>
</svg>
