<svg xmlns="http://www.w3.org/2000/svg" width="6125" height="1260" fill="none" viewBox="0 0 6125 1260">
  <path fill="#fff" d="M580.444 504v99h21.581l82.046-99h60.916L644.861 623.88 751.989 756h-66.517l-82.151-102.6h-22.877V756h-52.513V504h52.513Zm259.007 252h-54V504h54v99h108v-99h53.999v252h-53.999V653.4h-108V756Zm542.249 252h-32.4V252h32.4v756Zm291.96-252h-33.48l101.88-252h35.28l101.88 252h-34.56l-27.36-67.68h-116.64l-27 67.68Zm84.96-213.84-46.08 115.92h92.88l-46.08-115.92h-.72ZM1912.77 756V583.2h29.52v25.2h.36c4.8-7.44 12-14.04 21.6-19.8 9.84-6 20.88-9 33.12-9h8.28v30.6c-5.76-.72-9.72-1.08-11.88-1.08-9.36 0-18 2.4-25.92 7.2-7.68 4.8-13.92 11.52-18.72 20.16-4.56 8.4-6.84 17.88-6.84 28.44V756h-29.52Zm200.08 3.6c-16.08 0-30.84-3.96-44.28-11.88-13.44-8.16-24.12-19.08-32.04-32.76-7.92-13.68-11.88-28.8-11.88-45.36s3.96-31.68 11.88-45.36c7.92-13.68 18.6-24.48 32.04-32.4 13.44-8.16 28.2-12.24 44.28-12.24 16.08 0 30.24 3.6 42.48 10.8 12.48 6.96 22.2 15 29.16 24.12l-21.24 18c-5.76-6.96-12.84-12.84-21.24-17.64-8.4-4.8-18.12-7.2-29.16-7.2-10.8 0-20.64 2.76-29.52 8.28-8.88 5.28-15.96 12.72-21.24 22.32-5.28 9.36-7.92 19.8-7.92 31.32s2.64 22.08 7.92 31.68c5.28 9.36 12.36 16.8 21.24 22.32 8.88 5.28 18.72 7.92 29.52 7.92 11.04 0 20.88-2.4 29.52-7.2 8.88-5.04 16.2-11.16 21.96-18.36l21.6 18c-7.44 9.6-17.52 18-30.24 25.2-12.48 6.96-26.76 10.44-42.84 10.44Zm112.85-3.6V504h29.52v105.48h.36c4.8-7.68 12.12-14.52 21.96-20.52 9.84-6.24 21-9.36 33.48-9.36 13.2 0 24.96 3.12 35.28 9.36 10.56 6.24 18.72 15 24.48 26.28 6 11.28 9 24.36 9 39.24V756h-29.16V654.48c0-13.92-4.2-25.2-12.6-33.84-8.4-8.64-19.08-12.96-32.04-12.96-14.4 0-26.52 5.04-36.36 15.12-9.6 10.08-14.4 22.92-14.4 38.52V756h-29.52Zm237.65 0h-29.52V583.2h29.52V756Zm-14.76-208.08c-5.04 0-9.48-1.8-13.32-5.4-3.6-3.6-5.4-8.04-5.4-13.32 0-5.28 1.8-9.72 5.4-13.32 3.84-3.6 8.28-5.4 13.32-5.4 4.8 0 9 1.8 12.6 5.4 3.84 3.6 5.76 8.04 5.76 13.32 0 5.28-1.92 9.72-5.76 13.32-3.6 3.6-7.8 5.4-12.6 5.4ZM2585.1 757.8c-16.08 0-28.56-4.56-37.44-13.68-8.64-9.36-12.96-22.8-12.96-40.32v-92.52h-32.76V583.2h20.88c10.08 0 15.12-6 15.12-18v-39.6h26.28v57.6h42.12v28.08h-42.12v90c0 9.36 2.28 16.44 6.84 21.24 4.56 4.8 10.92 7.2 19.08 7.2 6.72 0 13.68-1.8 20.88-5.4v28.08c-2.88 1.44-6.72 2.64-11.52 3.6-4.56 1.2-9.36 1.8-14.4 1.8Zm139.47 1.8c-16.08 0-30.84-3.96-44.28-11.88-13.44-8.16-24.12-19.08-32.04-32.76-7.92-13.68-11.88-28.8-11.88-45.36 0-16.8 3.84-32.04 11.52-45.72 7.92-13.68 18.48-24.48 31.68-32.4 13.2-7.92 27.6-11.88 43.2-11.88 15.36 0 29.4 3.72 42.12 11.16 12.72 7.44 22.68 17.76 29.88 30.96 7.2 12.96 10.8 27.72 10.8 44.28 0 3.84-.36 8.64-1.08 14.4h-137.52c1.92 14.4 8.4 26.52 19.44 36.36 11.04 9.84 24.24 14.76 39.6 14.76 18.96 0 35.88-7.92 50.76-23.76l19.8 18.36c-6.96 9.12-16.68 17.04-29.16 23.76-12.24 6.48-26.52 9.72-42.84 9.72Zm50.76-103.68c-2.4-15.12-8.28-27.12-17.64-36-9.12-8.88-20.76-13.32-34.92-13.32-14.64 0-27 4.68-37.08 14.04-10.08 9.12-16.44 20.88-19.08 35.28h108.72Zm135.63 9.72 87.48 90.36h-38.88l-81.72-86.04V756h-29.52V504h29.52v159.48l77.76-80.28h36.72l-81.36 82.44Zm170.89 92.16c-16.08 0-28.56-4.56-37.44-13.68-8.64-9.36-12.96-22.8-12.96-40.32v-92.52h-32.76V583.2h20.88c10.08 0 15.12-6 15.12-18v-39.6h26.28v57.6h42.12v28.08h-42.12v90c0 9.36 2.28 16.44 6.84 21.24 4.56 4.8 10.92 7.2 19.08 7.2 6.72 0 13.68-1.8 20.88-5.4v28.08c-2.88 1.44-6.72 2.64-11.52 3.6-4.56 1.2-9.36 1.8-14.4 1.8Zm139.48 1.8c-16.08 0-30.84-3.96-44.28-11.88-13.44-8.16-24.12-19.08-32.04-32.76-7.92-13.68-11.88-28.8-11.88-45.36 0-16.8 3.84-32.04 11.52-45.72 7.92-13.68 18.48-24.48 31.68-32.4 13.2-7.92 27.6-11.88 43.2-11.88 15.36 0 29.4 3.72 42.12 11.16 12.72 7.44 22.68 17.76 29.88 30.96 7.2 12.96 10.8 27.72 10.8 44.28 0 3.84-.36 8.64-1.08 14.4h-137.52c1.92 14.4 8.4 26.52 19.44 36.36 11.04 9.84 24.24 14.76 39.6 14.76 18.96 0 35.88-7.92 50.76-23.76l19.8 18.36c-6.96 9.12-16.68 17.04-29.16 23.76-12.24 6.48-26.52 9.72-42.84 9.72Zm50.76-103.68c-2.4-15.12-8.28-27.12-17.64-36-9.12-8.88-20.76-13.32-34.92-13.32-14.64 0-27 4.68-37.08 14.04-10.08 9.12-16.44 20.88-19.08 35.28h108.72ZM3343.28 756V583.2h29.52v26.28h.36c4.8-7.68 12.12-14.52 21.96-20.52 9.84-6.24 21-9.36 33.48-9.36 13.2 0 24.96 3.12 35.28 9.36 10.56 6.24 18.72 15 24.48 26.28 6 11.28 9 24.36 9 39.24V756h-29.16V654.48c0-13.92-4.2-25.2-12.6-33.84-8.4-8.64-19.08-12.96-32.04-12.96-14.4 0-26.52 5.04-36.36 15.12-9.6 10.08-14.4 22.92-14.4 38.52V756h-29.52Zm370.43-12.6h-25.92v-65.52h-65.16v-27h65.16v-65.16h25.92v65.16h65.16v27h-65.16v65.52Zm234.55 12.6h-32.4V504h32.4v252Zm64.39 0V583.2h29.52v26.28h.36c4.8-7.68 12.12-14.52 21.96-20.52 9.84-6.24 21-9.36 33.48-9.36 13.2 0 24.96 3.12 35.28 9.36 10.56 6.24 18.72 15 24.48 26.28 6 11.28 9 24.36 9 39.24V756h-29.16V654.48c0-13.92-4.2-25.2-12.6-33.84-8.4-8.64-19.08-12.96-32.04-12.96-14.4 0-26.52 5.04-36.36 15.12-9.6 10.08-14.4 22.92-14.4 38.52V756h-29.52Zm275.85 75.6c-15.84 0-30.72-3.84-44.64-11.52-13.68-7.44-23.52-15.6-29.52-24.48l20.88-19.08c4.56 6.72 11.76 12.84 21.6 18.36 10.08 5.76 20.64 8.64 31.68 8.64 16.8 0 30.24-5.64 40.32-16.92 10.32-11.28 15.48-25.92 15.48-43.92v-20.16h-.36c-5.52 8.4-13.56 15.48-24.12 21.24-10.56 5.76-21.96 8.64-34.2 8.64-13.92 0-26.88-3.72-38.88-11.16-12-7.44-21.6-17.76-28.8-30.96-6.96-13.2-10.44-27.96-10.44-44.28s3.48-31.08 10.44-44.28c7.2-13.2 16.8-23.52 28.8-30.96 12-7.44 24.96-11.16 38.88-11.16 13.2 0 24.96 3.12 35.28 9.36 10.56 6.24 18.24 13.08 23.04 20.52h.36V583.2h29.52v159.48c0 16.8-3.72 31.92-11.16 45.36-7.2 13.68-17.28 24.36-30.24 32.04-12.96 7.68-27.6 11.52-43.92 11.52Zm1.8-107.28c10.08 0 19.2-2.52 27.36-7.56 8.16-5.04 14.64-11.88 19.44-20.52 4.8-8.88 7.2-18.96 7.2-30.24 0-11.28-2.4-21.24-7.2-29.88-4.8-8.88-11.28-15.84-19.44-20.88-8.16-5.04-17.28-7.56-27.36-7.56-9.6 0-18.48 2.52-26.64 7.56-8.16 5.04-14.64 12-19.44 20.88-4.8 8.88-7.2 18.84-7.2 29.88s2.4 21 7.2 29.88c4.8 8.88 11.28 15.84 19.44 20.88 8.16 5.04 17.04 7.56 26.64 7.56Zm214.23 35.28c-16.08 0-30.84-3.96-44.28-11.88-13.44-8.16-24.12-19.08-32.04-32.76-7.92-13.68-11.88-28.8-11.88-45.36 0-16.8 3.84-32.04 11.52-45.72 7.92-13.68 18.48-24.48 31.68-32.4 13.2-7.92 27.6-11.88 43.2-11.88 15.36 0 29.4 3.72 42.12 11.16 12.72 7.44 22.68 17.76 29.88 30.96 7.2 12.96 10.8 27.72 10.8 44.28 0 3.84-.36 8.64-1.08 14.4h-137.52c1.92 14.4 8.4 26.52 19.44 36.36 11.04 9.84 24.24 14.76 39.6 14.76 18.96 0 35.88-7.92 50.76-23.76l19.8 18.36c-6.96 9.12-16.68 17.04-29.16 23.76-12.24 6.48-26.52 9.72-42.84 9.72Zm50.76-103.68c-2.4-15.12-8.28-27.12-17.64-36-9.12-8.88-20.76-13.32-34.92-13.32-14.64 0-27 4.68-37.08 14.04-10.08 9.12-16.44 20.88-19.08 35.28h108.72ZM4626.48 756V583.2H4656v26.28h.36c4.8-7.68 12.12-14.52 21.96-20.52 9.84-6.24 21-9.36 33.48-9.36 13.2 0 24.96 3.12 35.28 9.36 10.56 6.24 18.72 15 24.48 26.28 6 11.28 9 24.36 9 39.24V756h-29.16V654.48c0-13.92-4.2-25.2-12.6-33.84-8.4-8.64-19.08-12.96-32.04-12.96-14.4 0-26.52 5.04-36.36 15.12-9.6 10.08-14.4 22.92-14.4 38.52V756h-29.52Zm237.69 0h-29.52V583.2h29.52V756Zm-14.76-208.08c-5.04 0-9.48-1.8-13.32-5.4-3.6-3.6-5.4-8.04-5.4-13.32 0-5.28 1.8-9.72 5.4-13.32 3.84-3.6 8.28-5.4 13.32-5.4 4.8 0 9 1.8 12.6 5.4 3.84 3.6 5.76 8.04 5.76 13.32 0 5.28-1.92 9.72-5.76 13.32-3.6 3.6-7.8 5.4-12.6 5.4Zm147.31 211.68c-16.08 0-30.84-3.96-44.28-11.88-13.44-8.16-24.12-19.08-32.04-32.76-7.92-13.68-11.88-28.8-11.88-45.36 0-16.8 3.84-32.04 11.52-45.72 7.92-13.68 18.48-24.48 31.68-32.4 13.2-7.92 27.6-11.88 43.2-11.88 15.36 0 29.4 3.72 42.12 11.16 12.72 7.44 22.68 17.76 29.88 30.96 7.2 12.96 10.8 27.72 10.8 44.28 0 3.84-.36 8.64-1.08 14.4h-137.52c1.92 14.4 8.4 26.52 19.44 36.36 11.04 9.84 24.24 14.76 39.6 14.76 18.96 0 35.88-7.92 50.76-23.76l19.8 18.36c-6.96 9.12-16.68 17.04-29.16 23.76-12.24 6.48-26.52 9.72-42.84 9.72Zm50.76-103.68c-2.4-15.12-8.28-27.12-17.64-36-9.12-8.88-20.76-13.32-34.92-13.32-14.64 0-27 4.68-37.08 14.04-10.08 9.12-16.44 20.88-19.08 35.28h108.72Zm138.51 103.68c-13.2 0-25.08-3.12-35.64-9.36-10.32-6.24-18.48-15-24.48-26.28-6-11.28-9-24.36-9-39.24V583.2h29.52v101.52c0 13.92 4.08 25.2 12.24 33.84 8.4 8.64 19.08 12.96 32.04 12.96 9.6 0 18.24-2.28 25.92-6.84 7.92-4.56 14.04-10.92 18.36-19.08 4.56-8.16 6.84-17.4 6.84-27.72V583.2h29.16V756h-29.16v-26.28h-.36c-4.56 7.68-11.88 14.64-21.96 20.88-10.08 6-21.24 9-33.48 9Zm139.05-3.6V583.2h29.52v25.2h.36c4.8-7.44 12-14.04 21.6-19.8 9.84-6 20.88-9 33.12-9h8.28v30.6c-5.76-.72-9.72-1.08-11.88-1.08-9.36 0-18 2.4-25.92 7.2-7.68 4.8-13.92 11.52-18.72 20.16-4.56 8.4-6.84 17.88-6.84 28.44V756h-29.52Zm200.07 3.6c-16.08 0-30.84-3.96-44.28-11.88-13.44-8.16-24.12-19.08-32.04-32.76-7.92-13.68-11.88-28.8-11.88-45.36 0-16.8 3.84-32.04 11.52-45.72 7.92-13.68 18.48-24.48 31.68-32.4 13.2-7.92 27.6-11.88 43.2-11.88 15.36 0 29.4 3.72 42.12 11.16 12.72 7.44 22.68 17.76 29.88 30.96 7.2 12.96 10.8 27.72 10.8 44.28 0 3.84-.36 8.64-1.08 14.4h-137.52c1.92 14.4 8.4 26.52 19.44 36.36 11.04 9.84 24.24 14.76 39.6 14.76 18.96 0 35.88-7.92 50.76-23.76l19.8 18.36c-6.96 9.12-16.68 17.04-29.16 23.76-12.24 6.48-26.52 9.72-42.84 9.72Zm50.76-103.68c-2.4-15.12-8.28-27.12-17.64-36-9.12-8.88-20.76-13.32-34.92-13.32-14.64 0-27 4.68-37.08 14.04-10.08 9.12-16.44 20.88-19.08 35.28h108.72Z"/>
</svg>
