<svg xmlns="http://www.w3.org/2000/svg" width="2725" height="504" fill="none" viewBox="0 0 2725 504">
  <path fill="#000" d="M54 225h41.453l34.214-47.233L162.082 126h66.594l-70.579 96.679-14.641 23.201 14.64 23.896L234.796 378h-71.655l-33.477-55.335L96.586 275.4H54V378H0V126h54v99Zm252.252 153h-54V126h54v99h108v-99h54v252h-54V275.4h-108V378Zm190.648.5c-3.367 0-6.45-.8-9.25-2.4-2.8-1.6-5.017-3.767-6.65-6.5-1.6-2.767-2.4-5.8-2.4-9.1s.8-6.317 2.4-9.05c1.633-2.767 3.85-4.95 6.65-6.55 2.8-1.6 5.883-2.4 9.25-2.4 3.4 0 6.5.8 9.3 2.4 2.8 1.6 5 3.783 6.6 6.55 1.633 2.733 2.45 5.75 2.45 9.05 0 3.3-.817 6.333-2.45 9.1-1.6 2.733-3.8 4.9-6.6 6.5-2.8 1.6-5.9 2.4-9.3 2.4Zm0-3.1c2.733 0 5.233-.65 7.5-1.95 2.3-1.333 4.117-3.133 5.45-5.4 1.333-2.3 2-4.817 2-7.55 0-2.733-.667-5.233-2-7.5-1.333-2.3-3.15-4.1-5.45-5.4-2.267-1.333-4.767-2-7.5-2-2.733 0-5.233.667-7.5 2-2.267 1.3-4.067 3.1-5.4 5.4-1.333 2.267-2 4.767-2 7.5 0 2.733.667 5.25 2 7.55a14.965 14.965 0 0 0 5.4 5.4c2.267 1.3 4.767 1.95 7.5 1.95Zm-6.3-5.65v-18.5h7.15c1.833 0 3.35.567 4.55 1.7 1.233 1.133 1.85 2.517 1.85 4.15 0 1.267-.367 2.333-1.1 3.2-.7.867-1.5 1.467-2.4 1.8l4.25 7.65h-3.5l-3.65-6.85h-3.9v6.85h-3.25Zm7.15-9.9c1.033 0 1.817-.25 2.35-.75.533-.5.8-1.167.8-2 0-.867-.267-1.533-.8-2-.533-.5-1.317-.75-2.35-.75h-3.9v5.5h3.9ZM763 504h-42V0h42v504Zm301.16-126h-27V126h27v252Zm57.64 0V205.2h24.48v26.64h.36c3.6-7.68 9.84-14.64 18.72-20.88 9.12-6.24 19.92-9.36 32.4-9.36 13.2 0 24.72 3.6 34.56 10.8 9.84 7.2 16.8 15.12 20.88 23.76h.72c3.84-8.64 10.92-16.56 21.24-23.76 10.56-7.2 23.16-10.8 37.8-10.8 11.76 0 22.44 3.12 32.04 9.36 9.84 6 17.64 14.64 23.4 25.92 5.76 11.04 8.64 23.88 8.64 38.52V378h-24.48V275.4c0-15.36-4.08-27.48-12.24-36.36-8.16-9.12-18.48-13.68-30.96-13.68-13.68 0-25.08 5.16-34.2 15.48-8.88 10.08-13.32 23.64-13.32 40.68V378h-24.48V275.4c0-15.36-4.2-27.48-12.6-36.36-8.16-9.12-18.48-13.68-30.96-13.68-13.68 0-25.08 5.16-34.2 15.48-8.88 10.08-13.32 23.64-13.32 40.68V378h-24.48Zm301.43 0V205.2h24.48v26.64h.36c3.6-7.68 9.84-14.64 18.72-20.88 9.12-6.24 19.92-9.36 32.4-9.36 13.2 0 24.72 3.6 34.56 10.8 9.84 7.2 16.8 15.12 20.88 23.76h.72c3.84-8.64 10.92-16.56 21.24-23.76 10.56-7.2 23.16-10.8 37.8-10.8 11.76 0 22.44 3.12 32.04 9.36 9.84 6 17.64 14.64 23.4 25.92 5.76 11.04 8.64 23.88 8.64 38.52V378h-24.48V275.4c0-15.36-4.08-27.48-12.24-36.36-8.16-9.12-18.48-13.68-30.96-13.68-13.68 0-25.08 5.16-34.2 15.48-8.88 10.08-13.32 23.64-13.32 40.68V378h-24.48V275.4c0-15.36-4.2-27.48-12.6-36.36-8.16-9.12-18.48-13.68-30.96-13.68-13.68 0-25.08 5.16-34.2 15.48-8.88 10.08-13.32 23.64-13.32 40.68V378h-24.48Zm377.39 3.6c-15.84 0-30.48-3.96-43.92-11.88-13.44-8.16-24.12-19.08-32.04-32.76-7.92-13.68-11.88-28.8-11.88-45.36s3.96-31.68 11.88-45.36c7.92-13.68 18.6-24.48 32.04-32.4 13.44-8.16 28.08-12.24 43.92-12.24 15.84 0 30.48 4.08 43.92 12.24 13.44 7.92 24.12 18.72 32.04 32.4 7.92 13.68 11.88 28.8 11.88 45.36s-3.96 31.68-11.88 45.36c-7.92 13.68-18.6 24.6-32.04 32.76-13.44 7.92-28.08 11.88-43.92 11.88Zm0-23.76c11.52 0 22.08-2.88 31.68-8.64 9.84-5.76 17.52-13.68 23.04-23.76 5.76-10.32 8.64-21.6 8.64-33.84 0-12.24-2.88-23.4-8.64-33.48-5.52-10.32-13.2-18.36-23.04-24.12-9.6-5.76-20.16-8.64-31.68-8.64s-22.2 2.88-32.04 8.64c-9.6 5.76-17.28 13.8-23.04 24.12-5.52 10.08-8.28 21.24-8.28 33.48 0 12.24 2.76 23.52 8.28 33.84 5.76 10.08 13.44 18 23.04 23.76 9.84 5.76 20.52 8.64 32.04 8.64Zm213.51 23.76c-14.4 0-27.36-3.48-38.88-10.44-11.28-6.96-19.32-14.64-24.12-23.04h-.36V378h-24.48V126h24.48v109.08h.36c4.8-8.4 12.84-16.08 24.12-23.04 11.52-6.96 24.48-10.44 38.88-10.44 14.4 0 27.72 3.96 39.96 11.88 12.48 7.68 22.44 18.36 29.88 32.04 7.44 13.68 11.16 29.04 11.16 46.08s-3.72 32.4-11.16 46.08c-7.44 13.68-17.4 24.48-29.88 32.4-12.24 7.68-25.56 11.52-39.96 11.52Zm-2.88-23.76c10.56 0 20.4-2.88 29.52-8.64 9.12-5.76 16.32-13.68 21.6-23.76 5.52-10.08 8.28-21.36 8.28-33.84 0-12.72-2.76-24.12-8.28-34.2-5.28-10.08-12.48-17.88-21.6-23.4-9.12-5.76-18.96-8.64-29.52-8.64-11.04 0-21.24 2.88-30.6 8.64-9.12 5.52-16.44 13.32-21.96 23.4-5.28 10.08-7.92 21.48-7.92 34.2 0 12.48 2.64 23.76 7.92 33.84 5.52 10.08 12.84 18 21.96 23.76 9.36 5.76 19.56 8.64 30.6 8.64ZM2157.27 378h-24.48V205.2h24.48V378Zm-12.24-210.6c-4.32 0-8.16-1.56-11.52-4.68-3.12-3.12-4.68-6.96-4.68-11.52s1.56-8.4 4.68-11.52c3.36-3.12 7.2-4.68 11.52-4.68 4.56 0 8.4 1.56 11.52 4.68 3.36 3.12 5.04 6.96 5.04 11.52s-1.68 8.4-5.04 11.52c-3.12 3.12-6.96 4.68-11.52 4.68ZM2233 378h-24.48V126H2233v252Zm75.73 0h-24.48V205.2h24.48V378Zm-12.24-210.6c-4.32 0-8.16-1.56-11.52-4.68-3.12-3.12-4.68-6.96-4.68-11.52s1.56-8.4 4.68-11.52c3.36-3.12 7.2-4.68 11.52-4.68 4.56 0 8.4 1.56 11.52 4.68 3.36 3.12 5.04 6.96 5.04 11.52s-1.68 8.4-5.04 11.52c-3.12 3.12-6.96 4.68-11.52 4.68Zm136.56 214.2c-15.6 0-30-3.96-43.2-11.88-13.2-8.16-23.76-19.08-31.68-32.76-7.92-13.68-11.88-28.8-11.88-45.36 0-16.8 3.84-32.04 11.52-45.72s18-24.48 30.96-32.4c12.96-7.92 27.12-11.88 42.48-11.88 15.12 0 28.8 3.72 41.04 11.16 12.48 7.44 22.32 17.88 29.52 31.32 7.2 13.44 10.8 28.56 10.8 45.36 0 3.84-.24 7.68-.72 11.52h-140.4c1.2 10.56 4.68 20.16 10.44 28.8s13.08 15.48 21.96 20.52c9.12 5.04 19.08 7.56 29.88 7.56 19.92 0 37.56-8.64 52.92-25.92l16.92 15.48c-7.68 9.6-17.4 17.76-29.16 24.48-11.76 6.48-25.56 9.72-41.4 9.72Zm54.72-101.88c-2.16-16.8-8.28-30.12-18.36-39.96-10.08-10.08-22.8-15.12-38.16-15.12-10.08 0-19.56 2.52-28.44 7.56-8.64 4.8-15.84 11.4-21.6 19.8-5.52 8.4-8.88 17.64-10.08 27.72h116.64Zm58.98 98.28V205.2h24.48v27.72h.36c4.56-8.16 11.88-15.36 21.96-21.6 10.32-6.48 21.84-9.72 34.56-9.72 13.2 0 25.08 3.12 35.64 9.36 10.56 6.24 18.84 15 24.84 26.28 6 11.28 9 24.24 9 38.88V378h-24.48V276.12c0-15.12-4.56-27.36-13.68-36.72-8.88-9.36-20.28-14.04-34.2-14.04-10.08 0-19.2 2.52-27.36 7.56-8.16 4.8-14.64 11.52-19.44 20.16-4.8 8.64-7.2 18.36-7.2 29.16V378h-24.48Z"/>
</svg>
