<svg xmlns="http://www.w3.org/2000/svg" width="2538" height="756" fill="none" viewBox="0 0 2538 756">
  <path fill="#fff" d="M1779.88 401.402c0 11.28 2.4 21.36 7.2 30.24 5.04 8.879 11.88 15.84 20.52 20.879 8.64 4.8 18.36 7.201 29.16 7.201 10.32 0 19.8-2.52 28.44-7.56 8.64-5.28 15.48-12.36 20.52-21.24 5.04-8.88 7.56-18.72 7.56-29.52v-149.4h54v149.4c0 20.88-4.68 39.48-14.04 55.8s-22.44 29.16-39.24 38.52c-16.56 9.12-35.64 13.68-57.24 13.68s-40.8-4.56-57.6-13.68c-16.8-9.36-29.88-22.2-39.24-38.52-9.36-16.32-14.04-34.92-14.04-55.8v-149.4h54v149.4Zm296.66-154.8c19.2 0 36.36 3.72 51.48 11.16 15.36 7.2 26.64 15.36 33.84 24.48l-33.84 33.12c-5.52-5.52-12.48-10.44-20.88-14.76-8.4-4.32-17.4-6.48-27-6.48-11.76 0-20.88 2.52-27.36 7.56-6.24 5.04-9.36 11.16-9.36 18.36 0 8.16 3.72 14.52 11.16 19.08 7.44 4.56 19.2 9.48 35.28 14.76 16.32 5.52 29.64 10.92 39.96 16.2 10.32 5.04 19.2 12.6 26.64 22.68 7.44 10.08 11.16 23.16 11.16 39.24 0 13.92-3.84 26.88-11.52 38.88-7.68 11.76-18.6 21.12-32.76 28.08-14.16 6.96-30.6 10.44-49.32 10.44-22.32 0-42-4.2-59.04-12.6-17.04-8.64-29.76-18.6-38.16-29.88l33.84-33.12c7.2 7.68 15.72 14.28 25.56 19.8 10.08 5.28 21.36 7.919 33.84 7.919 12.72 0 22.68-2.879 29.88-8.639 7.2-5.76 10.8-12.6 10.8-20.52 0-8.16-3.72-14.52-11.16-19.08-7.44-4.56-19.08-9.481-34.92-14.761-16.32-5.519-29.64-10.799-39.96-15.839-10.32-5.28-19.2-12.96-26.64-23.04-7.44-10.08-11.16-23.16-11.16-39.24 0-13.92 3.84-26.52 11.52-37.8 7.68-11.28 18.36-20.04 32.04-26.28 13.68-6.48 29.04-9.72 46.08-9.72Zm-1609.261 5.4c25.2 0 48.001 5.64 68.401 16.92 20.4 11.28 36.36 26.52 47.88 45.72 11.76 19.2 17.639 40.32 17.639 63.36 0 22.8-5.879 43.92-17.639 63.36-11.52 19.2-27.48 34.44-47.88 45.72-20.4 11.28-43.201 16.92-68.401 16.92H378v-252h89.279Zm283.133 0c16.8 0 31.8 3.6 45 10.8 13.44 7.2 23.88 17.16 31.32 29.88 7.44 12.48 11.161 26.52 11.161 42.12 0 16.08-4.081 30.6-12.241 43.56-7.92 12.96-18.84 22.92-32.759 29.88l54 95.76h-58.681l-46.44-86.4h-48.96v86.4h-54v-252h111.6Zm320.988 203.4v48.6H882.398v-48.6H1071.4Zm92.41 48.6h-54v-252h54v252Zm106.83-153h108v-99h54v252h-54v-102.6h-108v102.6h-54v-252h54v99Zm441.7 153h-57.24l-21.24-56.88h-99.72l-20.88 56.88h-56.52l97.92-252h60.12l97.56 252ZM432 455.402h35.279c14.88 0 28.321-3.36 40.321-10.08 12.24-6.72 21.72-15.96 28.44-27.72 6.96-12 10.439-25.2 10.439-39.6 0-14.64-3.479-27.84-10.439-39.6-6.72-11.76-16.08-21-28.08-27.72-12-6.72-25.561-10.08-40.681-10.08H432v154.8Zm1117.98-54h68.04l-33.48-94.32h-1.08l-33.48 94.32ZM1039 351.722v46.799H882.398v-46.799H1039Zm-346.188 17.28h55.8c10.32 0 18.721-3.24 25.2-9.72 6.72-6.48 10.081-14.64 10.081-24.48s-3.361-18-10.081-24.48c-6.479-6.48-14.88-9.72-25.2-9.72h-55.8v68.4Zm374.988-68.4H882.398v-48.6H1067.8v48.6ZM2187.9 504.5c-3.37 0-6.45-.8-9.25-2.4-2.8-1.6-5.02-3.767-6.65-6.5-1.6-2.767-2.4-5.8-2.4-9.1s.8-6.317 2.4-9.05c1.63-2.767 3.85-4.95 6.65-6.55 2.8-1.6 5.88-2.4 9.25-2.4 3.4 0 6.5.8 9.3 2.4 2.8 1.6 5 3.783 6.6 6.55 1.63 2.733 2.45 5.75 2.45 9.05 0 3.3-.82 6.333-2.45 9.1-1.6 2.733-3.8 4.9-6.6 6.5-2.8 1.6-5.9 2.4-9.3 2.4Zm0-3.1c2.73 0 5.23-.65 7.5-1.95 2.3-1.333 4.12-3.133 5.45-5.4 1.33-2.3 2-4.817 2-7.55 0-2.733-.67-5.233-2-7.5-1.33-2.3-3.15-4.1-5.45-5.4-2.27-1.333-4.77-2-7.5-2-2.73 0-5.23.667-7.5 2-2.27 1.3-4.07 3.1-5.4 5.4-1.33 2.267-2 4.767-2 7.5 0 2.733.67 5.25 2 7.55a14.919 14.919 0 0 0 5.4 5.4c2.27 1.3 4.77 1.95 7.5 1.95Zm-6.3-5.65v-18.5h7.15c1.83 0 3.35.567 4.55 1.7 1.23 1.133 1.85 2.517 1.85 4.15 0 1.267-.37 2.333-1.1 3.2-.7.867-1.5 1.467-2.4 1.8l4.25 7.65h-3.5l-3.65-6.85h-3.9v6.85h-3.25Zm7.15-9.9c1.03 0 1.82-.25 2.35-.75s.8-1.167.8-2c0-.867-.27-1.533-.8-2-.53-.5-1.32-.75-2.35-.75h-3.9v5.5h3.9Z"/>
</svg>
