<svg xmlns="http://www.w3.org/2000/svg" width="2065" height="260" fill="none" viewBox="0 0 2065 260">
  <path fill="#000" d="M54 103h41.453l34.229-47.253L162.084 4h66.592l-70.565 96.659-14.653 23.221 14.652 23.917L234.796 256h-71.653l-33.464-55.314L96.586 153.4H54V256H0V4h54v99Zm255.252 153h-54V4h54v99h108V4h54v252h-54V153.4h-108V256Zm423.668 3.6c-24.24 0-46.44-5.76-66.6-17.28-19.92-11.52-35.76-27.12-47.52-46.8-11.52-19.92-17.28-41.76-17.28-65.52 0-23.76 5.76-45.48 17.28-65.16 11.76-19.92 27.6-35.64 47.52-47.16C686.48 6.16 708.68.4 732.92.4c22.8 0 43.08 4.92 60.84 14.76 17.76 9.84 31.68 21.48 41.76 34.92l-23.04 18.36c-8.64-10.56-19.56-19.56-32.76-27-12.96-7.44-28.56-11.16-46.8-11.16S698 34.72 682.88 43.6c-15.12 8.88-27.12 21-36 36.36-8.64 15.12-12.96 31.8-12.96 50.04s4.32 35.04 12.96 50.4c8.88 15.12 20.88 27.12 36 36 15.12 8.88 31.8 13.32 50.04 13.32 16.32 0 31.2-3.24 44.64-9.72 13.44-6.72 23.52-14.16 30.24-22.32v-43.56h-58.32v-28.8h90.72v83.88c-6 7.92-14.28 15.72-24.84 23.4-10.56 7.68-23.04 14.16-37.44 19.44-14.16 5.04-29.16 7.56-45 7.56Zm356.01-3.6h-36.72l-54.716-97.2h-66.6V256h-32.4V4h101.516c15.6 0 29.52 3.36 41.76 10.08 12.24 6.72 21.84 16.08 28.8 28.08 6.96 11.76 10.44 24.84 10.44 39.24 0 16.56-4.56 31.44-13.68 44.64-9.12 12.96-21.36 22.2-36.72 27.72L1088.93 256ZM930.894 33.88v95.04h69.116c14.4 0 26.04-4.44 34.92-13.32 9.12-8.88 13.68-20.28 13.68-34.2 0-13.92-4.56-25.32-13.68-34.2-8.88-8.88-20.52-13.32-34.92-13.32h-69.116ZM1242.08 259.6c-19.92 0-37.8-4.44-53.64-13.32-15.84-8.88-28.2-21.12-37.08-36.72-8.88-15.6-13.32-33.36-13.32-53.28V4h32.4v152.28c0 14.16 3.12 26.88 9.36 38.16 6.24 11.04 14.76 19.68 25.56 25.92 11.04 6.24 23.28 9.36 36.72 9.36 12.96 0 24.84-3.24 35.64-9.72 11.04-6.48 19.68-15.24 25.92-26.28 6.48-11.28 9.72-23.76 9.72-37.44V4h32.4v152.28c0 19.68-4.44 37.44-13.32 53.28-8.88 15.6-21.24 27.84-37.08 36.72-15.6 8.88-33.36 13.32-53.28 13.32Zm170.13-3.6V4h97.2c15.84 0 30.12 3.6 42.84 10.8 12.72 6.96 22.68 16.56 29.88 28.8 7.2 12.24 10.8 25.68 10.8 40.32s-3.6 28.08-10.8 40.32c-7.2 12-17.16 21.6-29.88 28.8-12.72 6.96-27 10.44-42.84 10.44h-64.8V256h-32.4Zm97.2-122.4c14.64 0 26.76-4.68 36.36-14.04 9.84-9.6 14.76-21.48 14.76-35.64s-4.92-26.04-14.76-35.64c-9.6-9.6-21.72-14.4-36.36-14.4h-64.8v99.72h64.8ZM1639.54 256V4h97.2c15.84 0 30.12 3.6 42.84 10.8 12.72 6.96 22.68 16.56 29.88 28.8 7.2 12.24 10.8 25.68 10.8 40.32s-3.6 28.08-10.8 40.32c-7.2 12-17.16 21.6-29.88 28.8-12.72 6.96-27 10.44-42.84 10.44h-64.8V256h-32.4Zm97.2-122.4c14.64 0 26.76-4.68 36.36-14.04 9.84-9.6 14.76-21.48 14.76-35.64s-4.92-26.04-14.76-35.64c-9.6-9.6-21.72-14.4-36.36-14.4h-64.8v99.72h64.8ZM2045.79 256h-178.92V4h175.32v29.88h-142.92v76.32h114.12v29.88h-114.12v86.04h146.52V256Z"/>
</svg>
