<svg xmlns="http://www.w3.org/2000/svg" width="4588" height="1601" fill="none" viewBox="0 0 4588 1601">
  <path fill="#fff" d="M378 1348.2h27V252h-27v1096.2ZM837 603h38.492l70.559-99h61.389l-86.11 119.88L1013.46 756h-66.205l-70.65-102.601H837V756h-54V504h54v99Z"/>
  <path fill="#fff" d="M1141.03 761.4c-25.68 0-48.96-5.88-69.84-17.64-20.88-11.76-37.32-27.6-49.32-47.52-11.76-20.16-17.64-42.24-17.64-66.24 0-24 5.88-46.08 17.64-66.24 12-20.16 28.44-36 49.32-47.52 20.88-11.76 44.16-17.64 69.84-17.64 25.68 0 48.84 5.88 69.48 17.64 20.88 11.52 37.32 27.36 49.32 47.52 12 20.16 18 42.24 18 66.24 0 24-6 46.08-18 66.24-12 19.92-28.44 35.76-49.32 47.52-20.88 11.76-44.04 17.64-69.48 17.64Zm0-49.68c15.12 0 28.92-3.6 41.4-10.8 12.48-7.2 22.32-17.04 29.52-29.52 7.2-12.48 10.8-26.28 10.8-41.4 0-15.12-3.6-28.92-10.8-41.4-7.2-12.48-17.04-22.32-29.52-29.52-12.48-7.44-26.28-11.16-41.4-11.16-15.12 0-29.04 3.6-41.76 10.8-12.48 7.2-22.32 17.16-29.52 29.88-7.2 12.48-10.8 26.28-10.8 41.4 0 15.12 3.6 28.92 10.8 41.4 7.44 12.48 17.4 22.32 29.88 29.52 12.48 7.2 26.28 10.8 41.4 10.8ZM1523.4 756h-58.68l-46.44-86.4h-48.96V756h-54V504h111.6c16.8 0 31.8 3.6 45 10.8 13.44 7.2 23.88 17.16 31.32 29.88 7.44 12.48 11.16 26.52 11.16 42.12 0 16.08-4.08 30.6-12.24 43.56-7.92 12.96-18.84 22.92-32.76 29.88l54 95.76Zm-154.08-203.4V621h55.8c10.32 0 18.72-3.24 25.2-9.72 6.72-6.48 10.08-14.64 10.08-24.48s-3.36-18-10.08-24.48c-6.48-6.48-14.88-9.72-25.2-9.72h-55.8ZM1653.76 756h-54V554.4h-73.08V504h199.8v50.4h-72.72V756Zm289.22 0h-189V504h185.4v48.6h-131.4v51.12h102.6v46.8h-102.6v56.88h135V756Zm215.41 0h-54V504h54v99h108v-99h54v252h-54V653.4h-108V756Zm336.58 5.4c-25.68 0-48.96-5.88-69.84-17.64-20.88-11.76-37.32-27.6-49.32-47.52-11.76-20.16-17.64-42.24-17.64-66.24 0-24 5.88-46.08 17.64-66.24 12-20.16 28.44-36 49.32-47.52 20.88-11.76 44.16-17.64 69.84-17.64 25.68 0 48.84 5.88 69.48 17.64 20.88 11.52 37.32 27.36 49.32 47.52 12 20.16 18 42.24 18 66.24 0 24-6 46.08-18 66.24-12 19.92-28.44 35.76-49.32 47.52-20.88 11.76-44.04 17.64-69.48 17.64Zm0-49.68c15.12 0 28.92-3.6 41.4-10.8 12.48-7.2 22.32-17.04 29.52-29.52 7.2-12.48 10.8-26.28 10.8-41.4 0-15.12-3.6-28.92-10.8-41.4-7.2-12.48-17.04-22.32-29.52-29.52-12.48-7.44-26.28-11.16-41.4-11.16-15.12 0-29.04 3.6-41.76 10.8-12.48 7.2-22.32 17.16-29.52 29.88-7.2 12.48-10.8 26.28-10.8 41.4 0 15.12 3.6 28.92 10.8 41.4 7.44 12.48 17.4 22.32 29.88 29.52 12.48 7.2 26.28 10.8 41.4 10.8ZM2723.26 756h-54V504h183.6v51.12h-129.6v57.6h100.8v49.68h-100.8V756Zm214.76 0h-54V504h183.6v51.12h-129.6v57.6h100.8v49.68h-100.8V756Zm214.4 0h-53.64V504h69.84l83.16 182.16h1.08l82.8-182.16h67.32v252h-53.28V584.64h-1.44L3268.34 756h-34.92l-79.56-171.36h-1.44V756Zm331.22 0h-56.52l97.92-252h60.12l97.56 252h-57.24l-21.24-56.88h-99.72L3483.64 756Zm70.2-196.92-33.48 94.32h68.04l-33.48-94.32h-1.08ZM3760.16 756h-53.28V504h47.88l122.76 162h1.44V504h52.92v252h-47.52l-123.12-162.36h-1.08V756Zm277.69 0h-53.28V504h47.88l122.76 162h1.44V504h52.92v252h-47.52l-123.12-162.36h-1.08V756Zm200.05.5c-3.37 0-6.45-.8-9.25-2.4-2.8-1.6-5.02-3.767-6.65-6.5-1.6-2.767-2.4-5.8-2.4-9.1s.8-6.317 2.4-9.05c1.63-2.767 3.85-4.95 6.65-6.55 2.8-1.6 5.88-2.4 9.25-2.4 3.4 0 6.5.8 9.3 2.4 2.8 1.6 5 3.783 6.6 6.55 1.63 2.733 2.45 5.75 2.45 9.05 0 3.3-.82 6.333-2.45 9.1-1.6 2.733-3.8 4.9-6.6 6.5-2.8 1.6-5.9 2.4-9.3 2.4Zm0-3.1c2.73 0 5.23-.65 7.5-1.95 2.3-1.333 4.12-3.133 5.45-5.4 1.33-2.3 2-4.817 2-7.55 0-2.733-.67-5.233-2-7.5-1.33-2.3-3.15-4.1-5.45-5.4-2.27-1.333-4.77-2-7.5-2-2.73 0-5.23.667-7.5 2-2.27 1.3-4.07 3.1-5.4 5.4-1.33 2.267-2 4.767-2 7.5 0 2.733.67 5.25 2 7.55a14.919 14.919 0 0 0 5.4 5.4c2.27 1.3 4.77 1.95 7.5 1.95Zm-6.3-5.65v-18.5h7.15c1.83 0 3.35.567 4.55 1.7 1.23 1.133 1.85 2.517 1.85 4.15 0 1.267-.37 2.333-1.1 3.2-.7.867-1.5 1.467-2.4 1.8l4.25 7.65h-3.5l-3.65-6.85h-3.9v6.85h-3.25Zm7.15-9.9c1.03 0 1.82-.25 2.35-.75s.8-1.167.8-2c0-.867-.27-1.533-.8-2-.53-.5-1.32-.75-2.35-.75h-3.9v5.5h3.9ZM801.46 1096.2h-20.79l76.68-189h22.41l76.68 189h-21.87l-21.33-52.65h-90.18l-21.6 52.65Zm66.42-164.7-37.53 93.15h75.33l-37.26-93.15h-.54Zm109.657 164.7V966.6h18.36v20.25h.27c3.42-5.94 8.913-11.25 16.473-15.93 7.74-4.68 16.47-7.02 26.19-7.02h5.94v18.9c-2.52-.36-5.04-.54-7.56-.54-7.56 0-14.49 1.89-20.79 5.67-6.3 3.78-11.34 9-15.12 15.66-3.603 6.66-5.403 14.13-5.403 22.41v70.2h-18.36Zm141.393 2.7c-11.7 0-22.59-2.97-32.67-8.91-9.9-6.12-17.82-14.31-23.76-24.57-5.76-10.26-8.64-21.6-8.64-34.02 0-12.42 2.88-23.76 8.64-34.02 5.94-10.26 13.86-18.36 23.76-24.3 10.08-6.12 20.97-9.18 32.67-9.18 11.88 0 22.32 2.7 31.32 8.1 9.18 5.22 16.38 11.34 21.6 18.36l-13.5 11.07c-10.62-13.14-23.76-19.71-39.42-19.71-8.46 0-16.29 2.16-23.49 6.48-7.02 4.32-12.69 10.35-17.01 18.09-4.14 7.56-6.21 15.93-6.21 25.11s2.07 17.64 6.21 25.38c4.32 7.56 9.99 13.5 17.01 17.82 7.2 4.32 15.03 6.48 23.49 6.48 8.82 0 16.56-1.98 23.22-5.94 6.66-3.96 12.24-8.73 16.74-14.31l13.5 11.07c-5.22 7.2-12.51 13.5-21.87 18.9-9.18 5.4-19.71 8.1-31.59 8.1Zm79.2-2.7v-189h18.36v80.19h.27c3.42-6.12 8.91-11.52 16.47-16.2 7.74-4.86 16.38-7.29 25.92-7.29 9.9 0 18.81 2.34 26.73 7.02 7.92 4.68 14.13 11.25 18.63 19.71 4.5 8.46 6.75 18.18 6.75 29.16v76.41h-18.36v-76.41c0-11.34-3.42-20.52-10.26-27.54-6.66-7.02-15.21-10.53-25.65-10.53-7.56 0-14.4 1.89-20.52 5.67-6.12 3.6-10.98 8.64-14.58 15.12-3.6 6.48-5.4 13.77-5.4 21.87v71.82h-18.36Zm168.19 0h-18.36V966.6h18.36v129.6Zm-9.18-157.95c-3.24 0-6.12-1.17-8.64-3.51-2.34-2.34-3.51-5.22-3.51-8.64 0-3.42 1.17-6.3 3.51-8.64 2.52-2.34 5.4-3.51 8.64-3.51 3.42 0 6.3 1.17 8.64 3.51 2.52 2.34 3.78 5.22 3.78 8.64 0 3.42-1.26 6.3-3.78 8.64-2.34 2.34-5.22 3.51-8.64 3.51Zm93.99 159.3c-11.34 0-20.16-3.24-26.46-9.72-6.12-6.66-9.18-16.29-9.18-28.89v-74.52h-25.11V966.6h16.47c3.24 0 5.76-.99 7.56-2.97 1.98-2.16 2.97-5.31 2.97-9.45V923.4h16.47v43.2h31.86v17.82h-31.86v73.44c0 7.02 1.71 12.42 5.13 16.2 3.6 3.78 8.46 5.67 14.58 5.67 5.22 0 10.71-1.35 16.47-4.05v17.82c-2.16 1.08-4.95 1.98-8.37 2.7-3.42.9-6.93 1.35-10.53 1.35Zm97.05 1.35c-11.7 0-22.5-2.97-32.4-8.91-9.9-6.12-17.82-14.31-23.76-24.57-5.94-10.26-8.91-21.6-8.91-34.02 0-12.6 2.88-24.03 8.64-34.29 5.76-10.26 13.5-18.36 23.22-24.3 9.72-5.94 20.34-8.91 31.86-8.91 11.34 0 21.6 2.79 30.78 8.37 9.36 5.58 16.74 13.41 22.14 23.49 5.4 10.08 8.1 21.42 8.1 34.02 0 2.88-.18 5.76-.54 8.64h-105.3c.9 7.92 3.51 15.12 7.83 21.6 4.32 6.48 9.81 11.61 16.47 15.39 6.84 3.78 14.31 5.67 22.41 5.67 14.94 0 28.17-6.48 39.69-19.44l12.69 11.61c-5.76 7.2-13.05 13.32-21.87 18.36-8.82 4.86-19.17 7.29-31.05 7.29Zm41.04-76.41c-1.62-12.6-6.21-22.59-13.77-29.97-7.56-7.56-17.1-11.34-28.62-11.34-7.56 0-14.67 1.89-21.33 5.67-6.48 3.6-11.88 8.55-16.2 14.85-4.14 6.3-6.66 13.23-7.56 20.79h87.48Zm86.29 6.21 68.85 67.5h-24.84l-65.61-65.07v65.07h-18.36v-189h18.36v120.15l61.83-60.75h23.76l-63.99 62.1Zm130.19 68.85c-11.34 0-20.16-3.24-26.46-9.72-6.12-6.66-9.18-16.29-9.18-28.89v-74.52h-25.11V966.6h16.47c3.24 0 5.76-.99 7.56-2.97 1.98-2.16 2.97-5.31 2.97-9.45V923.4h16.47v43.2h31.86v17.82h-31.86v73.44c0 7.02 1.71 12.42 5.13 16.2 3.6 3.78 8.46 5.67 14.58 5.67 5.22 0 10.71-1.35 16.47-4.05v17.82c-2.16 1.08-4.95 1.98-8.37 2.7-3.42.9-6.93 1.35-10.53 1.35Zm97.05 1.35c-11.7 0-22.5-2.97-32.4-8.91-9.9-6.12-17.82-14.31-23.76-24.57-5.94-10.26-8.91-21.6-8.91-34.02 0-12.6 2.88-24.03 8.64-34.29 5.76-10.26 13.5-18.36 23.22-24.3 9.72-5.94 20.34-8.91 31.86-8.91 11.34 0 21.6 2.79 30.78 8.37 9.36 5.58 16.74 13.41 22.14 23.49 5.4 10.08 8.1 21.42 8.1 34.02 0 2.88-.18 5.76-.54 8.64h-105.3c.9 7.92 3.51 15.12 7.83 21.6 4.32 6.48 9.81 11.61 16.47 15.39 6.84 3.78 14.31 5.67 22.41 5.67 14.94 0 28.17-6.48 39.69-19.44l12.69 11.61c-5.76 7.2-13.05 13.32-21.87 18.36-8.82 4.86-19.17 7.29-31.05 7.29Zm41.04-76.41c-1.62-12.6-6.21-22.59-13.77-29.97-7.56-7.56-17.1-11.34-28.62-11.34-7.56 0-14.67 1.89-21.33 5.67-6.48 3.6-11.88 8.55-16.2 14.85-4.14 6.3-6.66 13.23-7.56 20.79h87.48Zm44.98 73.71V966.6h18.36v20.79h.27c3.42-6.12 8.91-11.52 16.47-16.2 7.74-4.86 16.38-7.29 25.92-7.29 9.9 0 18.81 2.34 26.73 7.02 7.92 4.68 14.13 11.25 18.63 19.71 4.5 8.46 6.75 18.18 6.75 29.16v76.41h-18.36v-76.41c0-11.34-3.42-20.52-10.26-27.54-6.66-7.02-15.21-10.53-25.65-10.53-7.56 0-14.4 1.89-20.52 5.67-6.12 3.6-10.98 8.64-14.58 15.12-3.6 6.48-5.4 13.77-5.4 21.87v71.82h-18.36Zm265.33-19.71h-16.47v-51.03h-49.41v-17.01h49.41v-51.03h16.47v51.03h49.41v17.01h-49.41v51.03Zm164.31 19.71h-20.25v-189h20.25v189Zm43.97 0V966.6h18.36v20.79h.27c3.42-6.12 8.91-11.52 16.47-16.2 7.74-4.86 16.38-7.29 25.92-7.29 9.9 0 18.81 2.34 26.73 7.02 7.92 4.68 14.13 11.25 18.63 19.71 4.5 8.46 6.75 18.18 6.75 29.16v76.41h-18.36v-76.41c0-11.34-3.42-20.52-10.26-27.54-6.66-7.02-15.21-10.53-25.65-10.53-7.56 0-14.4 1.89-20.52 5.67-6.12 3.6-10.98 8.64-14.58 15.12-3.6 6.48-5.4 13.77-5.4 21.87v71.82h-18.36Zm200.36 56.7c-11.7 0-22.68-2.88-32.94-8.64-10.26-5.58-17.64-11.7-22.14-18.36l13.23-12.15c3.42 5.22 9 10.08 16.74 14.58 7.92 4.5 16.29 6.75 25.11 6.75 12.96 0 23.49-4.5 31.59-13.5 8.1-9 12.15-20.52 12.15-34.56v-18.09h-.27c-4.5 7.56-10.89 13.59-19.17 18.09-8.28 4.32-17.01 6.48-26.19 6.48-10.62 0-20.43-2.79-29.43-8.37-9-5.58-16.2-13.32-21.6-23.22-5.22-9.9-7.83-20.97-7.83-33.21 0-12.24 2.61-23.31 7.83-33.21 5.4-9.9 12.6-17.64 21.6-23.22 9-5.58 18.81-8.37 29.43-8.37 10.26 0 19.44 2.52 27.54 7.56 8.1 5.04 14.04 10.62 17.82 16.74h.27v-21.6h18.36v120.42c0 12.42-2.7 23.58-8.1 33.48-5.4 10.08-12.87 18-22.41 23.76-9.36 5.76-19.89 8.64-31.59 8.64Zm.27-77.22c8.1 0 15.39-1.98 21.87-5.94 6.66-4.14 11.88-9.72 15.66-16.74 3.96-7.2 5.94-15.3 5.94-24.3s-1.98-17.1-5.94-24.3c-3.78-7.2-9-12.78-15.66-16.74-6.48-3.96-13.77-5.94-21.87-5.94-7.74 0-14.94 1.98-21.6 5.94-6.48 3.96-11.61 9.54-15.39 16.74-3.78 7.2-5.67 15.3-5.67 24.3s1.89 17.1 5.67 24.3c3.78 7.02 8.91 12.6 15.39 16.74 6.66 3.96 13.86 5.94 21.6 5.94Zm154.67 23.22c-11.7 0-22.5-2.97-32.4-8.91-9.9-6.12-17.82-14.31-23.76-24.57-5.94-10.26-8.91-21.6-8.91-34.02 0-12.6 2.88-24.03 8.64-34.29 5.76-10.26 13.5-18.36 23.22-24.3 9.72-5.94 20.34-8.91 31.86-8.91 11.34 0 21.6 2.79 30.78 8.37 9.36 5.58 16.74 13.41 22.14 23.49 5.4 10.08 8.1 21.42 8.1 34.02 0 2.88-.18 5.76-.54 8.64h-105.3c.9 7.92 3.51 15.12 7.83 21.6 4.32 6.48 9.81 11.61 16.47 15.39 6.84 3.78 14.31 5.67 22.41 5.67 14.94 0 28.17-6.48 39.69-19.44l12.69 11.61c-5.76 7.2-13.05 13.32-21.87 18.36-8.82 4.86-19.17 7.29-31.05 7.29Zm41.04-76.41c-1.62-12.6-6.21-22.59-13.77-29.97-7.56-7.56-17.1-11.34-28.62-11.34-7.56 0-14.67 1.89-21.33 5.67-6.48 3.6-11.88 8.55-16.2 14.85-4.14 6.3-6.66 13.23-7.56 20.79h87.48Zm44.98 73.71V966.6h18.36v20.79h.27c3.42-6.12 8.91-11.52 16.47-16.2 7.74-4.86 16.38-7.29 25.92-7.29 9.9 0 18.81 2.34 26.73 7.02 7.92 4.68 14.13 11.25 18.63 19.71 4.5 8.46 6.75 18.18 6.75 29.16v76.41h-18.36v-76.41c0-11.34-3.42-20.52-10.26-27.54-6.66-7.02-15.21-10.53-25.65-10.53-7.56 0-14.4 1.89-20.52 5.67-6.12 3.6-10.98 8.64-14.58 15.12-3.6 6.48-5.4 13.77-5.4 21.87v71.82h-18.36Zm168.22 0h-18.36V966.6h18.36v129.6Zm-9.18-157.95c-3.24 0-6.12-1.17-8.64-3.51-2.34-2.34-3.51-5.22-3.51-8.64 0-3.42 1.17-6.3 3.51-8.64 2.52-2.34 5.4-3.51 8.64-3.51 3.42 0 6.3 1.17 8.64 3.51 2.52 2.34 3.78 5.22 3.78 8.64 0 3.42-1.26 6.3-3.78 8.64-2.34 2.34-5.22 3.51-8.64 3.51Zm103.18 160.65c-11.7 0-22.5-2.97-32.4-8.91-9.9-6.12-17.82-14.31-23.76-24.57-5.94-10.26-8.91-21.6-8.91-34.02 0-12.6 2.88-24.03 8.64-34.29 5.76-10.26 13.5-18.36 23.22-24.3 9.72-5.94 20.34-8.91 31.86-8.91 11.34 0 21.6 2.79 30.78 8.37 9.36 5.58 16.74 13.41 22.14 23.49 5.4 10.08 8.1 21.42 8.1 34.02 0 2.88-.18 5.76-.54 8.64h-105.3c.9 7.92 3.51 15.12 7.83 21.6 4.32 6.48 9.81 11.61 16.47 15.39 6.84 3.78 14.31 5.67 22.41 5.67 14.94 0 28.17-6.48 39.69-19.44l12.69 11.61c-5.76 7.2-13.05 13.32-21.87 18.36-8.82 4.86-19.17 7.29-31.05 7.29Zm41.04-76.41c-1.62-12.6-6.21-22.59-13.77-29.97-7.56-7.56-17.1-11.34-28.62-11.34-7.56 0-14.67 1.89-21.33 5.67-6.48 3.6-11.88 8.55-16.2 14.85-4.14 6.3-6.66 13.23-7.56 20.79h87.48Zm95.74 76.41c-9.9 0-18.81-2.34-26.73-7.02-7.92-4.68-14.13-11.25-18.63-19.71-4.5-8.46-6.75-18.18-6.75-29.16V966.6h18.36v76.41c0 11.34 3.33 20.52 9.99 27.54 6.84 7.02 15.48 10.53 25.92 10.53 7.56 0 14.4-1.8 20.52-5.4 6.12-3.78 10.98-8.91 14.58-15.39 3.6-6.48 5.4-13.77 5.4-21.87V966.6h18.36v129.6h-18.36v-20.79h-.27c-3.24 5.94-8.73 11.34-16.47 16.2-7.56 4.86-16.2 7.29-25.92 7.29Zm97.75-2.7V966.6h18.36v20.25h.27c3.42-5.94 8.91-11.25 16.47-15.93 7.74-4.68 16.47-7.02 26.19-7.02h5.94v18.9c-2.52-.36-5.04-.54-7.56-.54-7.56 0-14.49 1.89-20.79 5.67-6.3 3.78-11.34 9-15.12 15.66-3.6 6.66-5.4 14.13-5.4 22.41v70.2h-18.36Zm141.39 2.7c-11.7 0-22.5-2.97-32.4-8.91-9.9-6.12-17.82-14.31-23.76-24.57-5.94-10.26-8.91-21.6-8.91-34.02 0-12.6 2.88-24.03 8.64-34.29 5.76-10.26 13.5-18.36 23.22-24.3 9.72-5.94 20.34-8.91 31.86-8.91 11.34 0 21.6 2.79 30.78 8.37 9.36 5.58 16.74 13.41 22.14 23.49 5.4 10.08 8.1 21.42 8.1 34.02 0 2.88-.18 5.76-.54 8.64h-105.3c.9 7.92 3.51 15.12 7.83 21.6 4.32 6.48 9.81 11.61 16.47 15.39 6.84 3.78 14.31 5.67 22.41 5.67 14.94 0 28.17-6.48 39.69-19.44l12.69 11.61c-5.76 7.2-13.05 13.32-21.87 18.36-8.82 4.86-19.17 7.29-31.05 7.29Zm41.04-76.41c-1.62-12.6-6.21-22.59-13.77-29.97-7.56-7.56-17.1-11.34-28.62-11.34-7.56 0-14.67 1.89-21.33 5.67-6.48 3.6-11.88 8.55-16.2 14.85-4.14 6.3-6.66 13.23-7.56 20.79h87.48Z"/>
</svg>
